G04 #@! TF.FileFunction,Copper,L3,Inr,Signal*
%FSLAX46Y46*%
G04 Gerber Fmt 4.6, Leading zero omitted, Abs format (unit mm)*
G04 Created by KiCad (PCBNEW 4.0.7) date 04/28/18 13:58:35*
%MOMM*%
%LPD*%
G01*
G04 APERTURE LIST*
%ADD10C,0.100000*%
%ADD11C,1.506220*%
%ADD12C,4.064000*%
%ADD13R,1.700000X1.700000*%
%ADD14O,1.700000X1.700000*%
%ADD15C,0.558800*%
%ADD16C,0.127000*%
G04 APERTURE END LIST*
D10*
D11*
X159512000Y-140716000D03*
X162052000Y-138176000D03*
X162052000Y-143256000D03*
X156972000Y-138176000D03*
X156972000Y-143256000D03*
D12*
X175387000Y-78867000D03*
D11*
X136144000Y-140716000D03*
X138684000Y-138176000D03*
X138684000Y-143256000D03*
X133604000Y-138176000D03*
X133604000Y-143256000D03*
X147828000Y-140716000D03*
X150368000Y-138176000D03*
X150368000Y-143256000D03*
X145288000Y-138176000D03*
X145288000Y-143256000D03*
X171196000Y-140716000D03*
X173736000Y-138176000D03*
X173736000Y-143256000D03*
X168656000Y-138176000D03*
X168656000Y-143256000D03*
D13*
X177800000Y-94996000D03*
D14*
X177800000Y-97536000D03*
X177800000Y-100076000D03*
X177800000Y-102616000D03*
X177800000Y-105156000D03*
X177800000Y-107696000D03*
X177800000Y-110236000D03*
X177800000Y-112776000D03*
X177800000Y-115316000D03*
X177800000Y-117856000D03*
D13*
X129540000Y-104140000D03*
D14*
X129540000Y-106680000D03*
X129540000Y-109220000D03*
X129540000Y-111760000D03*
X129540000Y-114300000D03*
X129540000Y-116840000D03*
X129540000Y-119380000D03*
X129540000Y-121920000D03*
D13*
X177800000Y-121920000D03*
D14*
X177800000Y-124460000D03*
X177800000Y-127000000D03*
X177800000Y-129540000D03*
X177800000Y-132080000D03*
X177800000Y-134620000D03*
X177800000Y-137160000D03*
X177800000Y-139700000D03*
D13*
X129540000Y-127000000D03*
D14*
X129540000Y-129540000D03*
X129540000Y-132080000D03*
X129540000Y-134620000D03*
X129540000Y-137160000D03*
X129540000Y-139700000D03*
D13*
X137223500Y-121793000D03*
X149098000Y-121793000D03*
X160782000Y-121793000D03*
X163576000Y-82423000D03*
X163576000Y-86106000D03*
X172466000Y-121793000D03*
X133858000Y-81788000D03*
X141224000Y-81788000D03*
X148590000Y-81788000D03*
X155956000Y-81788000D03*
X137541000Y-81788000D03*
X144907000Y-81788000D03*
X152273000Y-81788000D03*
X159639000Y-81788000D03*
D12*
X129921000Y-78994000D03*
D15*
X148209000Y-86487000D03*
X167132000Y-88900000D03*
X175260000Y-90932000D03*
X166370000Y-92583000D03*
X172720000Y-99568000D03*
X158750000Y-84963000D03*
X144907000Y-86233000D03*
X138557000Y-94488000D03*
X151892000Y-90424000D03*
X157226000Y-114046000D03*
X171958000Y-102108000D03*
X159131000Y-94488000D03*
D16*
X158750000Y-84963000D02*
X155956000Y-82169000D01*
X155956000Y-82169000D02*
X155956000Y-81788000D01*
G36*
X174057854Y-76874030D02*
X173396353Y-77534378D01*
X173037909Y-78397605D01*
X173037093Y-79332294D01*
X173394030Y-80196146D01*
X174054378Y-80857647D01*
X174917605Y-81216091D01*
X175852294Y-81216907D01*
X176716146Y-80859970D01*
X177377647Y-80199622D01*
X177736091Y-79336395D01*
X177736907Y-78401706D01*
X177379970Y-77537854D01*
X176719622Y-76876353D01*
X176036030Y-76592500D01*
X179947500Y-76592500D01*
X179947500Y-144387500D01*
X127392500Y-144387500D01*
X127392500Y-143468023D01*
X132533205Y-143468023D01*
X132695852Y-143861659D01*
X132996757Y-144163089D01*
X133390108Y-144326423D01*
X133816023Y-144326795D01*
X134209659Y-144164148D01*
X134511089Y-143863243D01*
X134674423Y-143469892D01*
X134674424Y-143468023D01*
X137613205Y-143468023D01*
X137775852Y-143861659D01*
X138076757Y-144163089D01*
X138470108Y-144326423D01*
X138896023Y-144326795D01*
X139289659Y-144164148D01*
X139591089Y-143863243D01*
X139754423Y-143469892D01*
X139754424Y-143468023D01*
X144217205Y-143468023D01*
X144379852Y-143861659D01*
X144680757Y-144163089D01*
X145074108Y-144326423D01*
X145500023Y-144326795D01*
X145893659Y-144164148D01*
X146195089Y-143863243D01*
X146358423Y-143469892D01*
X146358424Y-143468023D01*
X149297205Y-143468023D01*
X149459852Y-143861659D01*
X149760757Y-144163089D01*
X150154108Y-144326423D01*
X150580023Y-144326795D01*
X150973659Y-144164148D01*
X151275089Y-143863243D01*
X151438423Y-143469892D01*
X151438424Y-143468023D01*
X155901205Y-143468023D01*
X156063852Y-143861659D01*
X156364757Y-144163089D01*
X156758108Y-144326423D01*
X157184023Y-144326795D01*
X157577659Y-144164148D01*
X157879089Y-143863243D01*
X158042423Y-143469892D01*
X158042424Y-143468023D01*
X160981205Y-143468023D01*
X161143852Y-143861659D01*
X161444757Y-144163089D01*
X161838108Y-144326423D01*
X162264023Y-144326795D01*
X162657659Y-144164148D01*
X162959089Y-143863243D01*
X163122423Y-143469892D01*
X163122424Y-143468023D01*
X167585205Y-143468023D01*
X167747852Y-143861659D01*
X168048757Y-144163089D01*
X168442108Y-144326423D01*
X168868023Y-144326795D01*
X169261659Y-144164148D01*
X169563089Y-143863243D01*
X169726423Y-143469892D01*
X169726424Y-143468023D01*
X172665205Y-143468023D01*
X172827852Y-143861659D01*
X173128757Y-144163089D01*
X173522108Y-144326423D01*
X173948023Y-144326795D01*
X174341659Y-144164148D01*
X174643089Y-143863243D01*
X174806423Y-143469892D01*
X174806795Y-143043977D01*
X174644148Y-142650341D01*
X174343243Y-142348911D01*
X173949892Y-142185577D01*
X173523977Y-142185205D01*
X173130341Y-142347852D01*
X172828911Y-142648757D01*
X172665577Y-143042108D01*
X172665205Y-143468023D01*
X169726424Y-143468023D01*
X169726795Y-143043977D01*
X169564148Y-142650341D01*
X169263243Y-142348911D01*
X168869892Y-142185577D01*
X168443977Y-142185205D01*
X168050341Y-142347852D01*
X167748911Y-142648757D01*
X167585577Y-143042108D01*
X167585205Y-143468023D01*
X163122424Y-143468023D01*
X163122795Y-143043977D01*
X162960148Y-142650341D01*
X162659243Y-142348911D01*
X162265892Y-142185577D01*
X161839977Y-142185205D01*
X161446341Y-142347852D01*
X161144911Y-142648757D01*
X160981577Y-143042108D01*
X160981205Y-143468023D01*
X158042424Y-143468023D01*
X158042795Y-143043977D01*
X157880148Y-142650341D01*
X157579243Y-142348911D01*
X157185892Y-142185577D01*
X156759977Y-142185205D01*
X156366341Y-142347852D01*
X156064911Y-142648757D01*
X155901577Y-143042108D01*
X155901205Y-143468023D01*
X151438424Y-143468023D01*
X151438795Y-143043977D01*
X151276148Y-142650341D01*
X150975243Y-142348911D01*
X150581892Y-142185577D01*
X150155977Y-142185205D01*
X149762341Y-142347852D01*
X149460911Y-142648757D01*
X149297577Y-143042108D01*
X149297205Y-143468023D01*
X146358424Y-143468023D01*
X146358795Y-143043977D01*
X146196148Y-142650341D01*
X145895243Y-142348911D01*
X145501892Y-142185577D01*
X145075977Y-142185205D01*
X144682341Y-142347852D01*
X144380911Y-142648757D01*
X144217577Y-143042108D01*
X144217205Y-143468023D01*
X139754424Y-143468023D01*
X139754795Y-143043977D01*
X139592148Y-142650341D01*
X139291243Y-142348911D01*
X138897892Y-142185577D01*
X138471977Y-142185205D01*
X138078341Y-142347852D01*
X137776911Y-142648757D01*
X137613577Y-143042108D01*
X137613205Y-143468023D01*
X134674424Y-143468023D01*
X134674795Y-143043977D01*
X134512148Y-142650341D01*
X134211243Y-142348911D01*
X133817892Y-142185577D01*
X133391977Y-142185205D01*
X132998341Y-142347852D01*
X132696911Y-142648757D01*
X132533577Y-143042108D01*
X132533205Y-143468023D01*
X127392500Y-143468023D01*
X127392500Y-140928023D01*
X135073205Y-140928023D01*
X135235852Y-141321659D01*
X135536757Y-141623089D01*
X135930108Y-141786423D01*
X136356023Y-141786795D01*
X136749659Y-141624148D01*
X137051089Y-141323243D01*
X137214423Y-140929892D01*
X137214424Y-140928023D01*
X146757205Y-140928023D01*
X146919852Y-141321659D01*
X147220757Y-141623089D01*
X147614108Y-141786423D01*
X148040023Y-141786795D01*
X148433659Y-141624148D01*
X148735089Y-141323243D01*
X148898423Y-140929892D01*
X148898424Y-140928023D01*
X158441205Y-140928023D01*
X158603852Y-141321659D01*
X158904757Y-141623089D01*
X159298108Y-141786423D01*
X159724023Y-141786795D01*
X160117659Y-141624148D01*
X160419089Y-141323243D01*
X160582423Y-140929892D01*
X160582424Y-140928023D01*
X170125205Y-140928023D01*
X170287852Y-141321659D01*
X170588757Y-141623089D01*
X170982108Y-141786423D01*
X171408023Y-141786795D01*
X171801659Y-141624148D01*
X172103089Y-141323243D01*
X172266423Y-140929892D01*
X172266795Y-140503977D01*
X172104148Y-140110341D01*
X171803243Y-139808911D01*
X171540957Y-139700000D01*
X176609627Y-139700000D01*
X176698498Y-140146783D01*
X176951580Y-140525547D01*
X177330344Y-140778629D01*
X177777127Y-140867500D01*
X177822873Y-140867500D01*
X178269656Y-140778629D01*
X178648420Y-140525547D01*
X178901502Y-140146783D01*
X178990373Y-139700000D01*
X178901502Y-139253217D01*
X178648420Y-138874453D01*
X178269656Y-138621371D01*
X177822873Y-138532500D01*
X177777127Y-138532500D01*
X177330344Y-138621371D01*
X176951580Y-138874453D01*
X176698498Y-139253217D01*
X176609627Y-139700000D01*
X171540957Y-139700000D01*
X171409892Y-139645577D01*
X170983977Y-139645205D01*
X170590341Y-139807852D01*
X170288911Y-140108757D01*
X170125577Y-140502108D01*
X170125205Y-140928023D01*
X160582424Y-140928023D01*
X160582795Y-140503977D01*
X160420148Y-140110341D01*
X160119243Y-139808911D01*
X159725892Y-139645577D01*
X159299977Y-139645205D01*
X158906341Y-139807852D01*
X158604911Y-140108757D01*
X158441577Y-140502108D01*
X158441205Y-140928023D01*
X148898424Y-140928023D01*
X148898795Y-140503977D01*
X148736148Y-140110341D01*
X148435243Y-139808911D01*
X148041892Y-139645577D01*
X147615977Y-139645205D01*
X147222341Y-139807852D01*
X146920911Y-140108757D01*
X146757577Y-140502108D01*
X146757205Y-140928023D01*
X137214424Y-140928023D01*
X137214795Y-140503977D01*
X137052148Y-140110341D01*
X136751243Y-139808911D01*
X136357892Y-139645577D01*
X135931977Y-139645205D01*
X135538341Y-139807852D01*
X135236911Y-140108757D01*
X135073577Y-140502108D01*
X135073205Y-140928023D01*
X127392500Y-140928023D01*
X127392500Y-139700000D01*
X128349627Y-139700000D01*
X128438498Y-140146783D01*
X128691580Y-140525547D01*
X129070344Y-140778629D01*
X129517127Y-140867500D01*
X129562873Y-140867500D01*
X130009656Y-140778629D01*
X130388420Y-140525547D01*
X130641502Y-140146783D01*
X130730373Y-139700000D01*
X130641502Y-139253217D01*
X130388420Y-138874453D01*
X130009656Y-138621371D01*
X129562873Y-138532500D01*
X129517127Y-138532500D01*
X129070344Y-138621371D01*
X128691580Y-138874453D01*
X128438498Y-139253217D01*
X128349627Y-139700000D01*
X127392500Y-139700000D01*
X127392500Y-138388023D01*
X132533205Y-138388023D01*
X132695852Y-138781659D01*
X132996757Y-139083089D01*
X133390108Y-139246423D01*
X133816023Y-139246795D01*
X134209659Y-139084148D01*
X134511089Y-138783243D01*
X134674423Y-138389892D01*
X134674424Y-138388023D01*
X137613205Y-138388023D01*
X137775852Y-138781659D01*
X138076757Y-139083089D01*
X138470108Y-139246423D01*
X138896023Y-139246795D01*
X139289659Y-139084148D01*
X139591089Y-138783243D01*
X139754423Y-138389892D01*
X139754424Y-138388023D01*
X144217205Y-138388023D01*
X144379852Y-138781659D01*
X144680757Y-139083089D01*
X145074108Y-139246423D01*
X145500023Y-139246795D01*
X145893659Y-139084148D01*
X146195089Y-138783243D01*
X146358423Y-138389892D01*
X146358424Y-138388023D01*
X149297205Y-138388023D01*
X149459852Y-138781659D01*
X149760757Y-139083089D01*
X150154108Y-139246423D01*
X150580023Y-139246795D01*
X150973659Y-139084148D01*
X151275089Y-138783243D01*
X151438423Y-138389892D01*
X151438424Y-138388023D01*
X155901205Y-138388023D01*
X156063852Y-138781659D01*
X156364757Y-139083089D01*
X156758108Y-139246423D01*
X157184023Y-139246795D01*
X157577659Y-139084148D01*
X157879089Y-138783243D01*
X158042423Y-138389892D01*
X158042424Y-138388023D01*
X160981205Y-138388023D01*
X161143852Y-138781659D01*
X161444757Y-139083089D01*
X161838108Y-139246423D01*
X162264023Y-139246795D01*
X162657659Y-139084148D01*
X162959089Y-138783243D01*
X163122423Y-138389892D01*
X163122424Y-138388023D01*
X167585205Y-138388023D01*
X167747852Y-138781659D01*
X168048757Y-139083089D01*
X168442108Y-139246423D01*
X168868023Y-139246795D01*
X169261659Y-139084148D01*
X169563089Y-138783243D01*
X169726423Y-138389892D01*
X169726424Y-138388023D01*
X172665205Y-138388023D01*
X172827852Y-138781659D01*
X173128757Y-139083089D01*
X173522108Y-139246423D01*
X173948023Y-139246795D01*
X174341659Y-139084148D01*
X174643089Y-138783243D01*
X174806423Y-138389892D01*
X174806795Y-137963977D01*
X174644148Y-137570341D01*
X174343243Y-137268911D01*
X174080957Y-137160000D01*
X176609627Y-137160000D01*
X176698498Y-137606783D01*
X176951580Y-137985547D01*
X177330344Y-138238629D01*
X177777127Y-138327500D01*
X177822873Y-138327500D01*
X178269656Y-138238629D01*
X178648420Y-137985547D01*
X178901502Y-137606783D01*
X178990373Y-137160000D01*
X178901502Y-136713217D01*
X178648420Y-136334453D01*
X178269656Y-136081371D01*
X177822873Y-135992500D01*
X177777127Y-135992500D01*
X177330344Y-136081371D01*
X176951580Y-136334453D01*
X176698498Y-136713217D01*
X176609627Y-137160000D01*
X174080957Y-137160000D01*
X173949892Y-137105577D01*
X173523977Y-137105205D01*
X173130341Y-137267852D01*
X172828911Y-137568757D01*
X172665577Y-137962108D01*
X172665205Y-138388023D01*
X169726424Y-138388023D01*
X169726795Y-137963977D01*
X169564148Y-137570341D01*
X169263243Y-137268911D01*
X168869892Y-137105577D01*
X168443977Y-137105205D01*
X168050341Y-137267852D01*
X167748911Y-137568757D01*
X167585577Y-137962108D01*
X167585205Y-138388023D01*
X163122424Y-138388023D01*
X163122795Y-137963977D01*
X162960148Y-137570341D01*
X162659243Y-137268911D01*
X162265892Y-137105577D01*
X161839977Y-137105205D01*
X161446341Y-137267852D01*
X161144911Y-137568757D01*
X160981577Y-137962108D01*
X160981205Y-138388023D01*
X158042424Y-138388023D01*
X158042795Y-137963977D01*
X157880148Y-137570341D01*
X157579243Y-137268911D01*
X157185892Y-137105577D01*
X156759977Y-137105205D01*
X156366341Y-137267852D01*
X156064911Y-137568757D01*
X155901577Y-137962108D01*
X155901205Y-138388023D01*
X151438424Y-138388023D01*
X151438795Y-137963977D01*
X151276148Y-137570341D01*
X150975243Y-137268911D01*
X150581892Y-137105577D01*
X150155977Y-137105205D01*
X149762341Y-137267852D01*
X149460911Y-137568757D01*
X149297577Y-137962108D01*
X149297205Y-138388023D01*
X146358424Y-138388023D01*
X146358795Y-137963977D01*
X146196148Y-137570341D01*
X145895243Y-137268911D01*
X145501892Y-137105577D01*
X145075977Y-137105205D01*
X144682341Y-137267852D01*
X144380911Y-137568757D01*
X144217577Y-137962108D01*
X144217205Y-138388023D01*
X139754424Y-138388023D01*
X139754795Y-137963977D01*
X139592148Y-137570341D01*
X139291243Y-137268911D01*
X138897892Y-137105577D01*
X138471977Y-137105205D01*
X138078341Y-137267852D01*
X137776911Y-137568757D01*
X137613577Y-137962108D01*
X137613205Y-138388023D01*
X134674424Y-138388023D01*
X134674795Y-137963977D01*
X134512148Y-137570341D01*
X134211243Y-137268911D01*
X133817892Y-137105577D01*
X133391977Y-137105205D01*
X132998341Y-137267852D01*
X132696911Y-137568757D01*
X132533577Y-137962108D01*
X132533205Y-138388023D01*
X127392500Y-138388023D01*
X127392500Y-137160000D01*
X128349627Y-137160000D01*
X128438498Y-137606783D01*
X128691580Y-137985547D01*
X129070344Y-138238629D01*
X129517127Y-138327500D01*
X129562873Y-138327500D01*
X130009656Y-138238629D01*
X130388420Y-137985547D01*
X130641502Y-137606783D01*
X130730373Y-137160000D01*
X130641502Y-136713217D01*
X130388420Y-136334453D01*
X130009656Y-136081371D01*
X129562873Y-135992500D01*
X129517127Y-135992500D01*
X129070344Y-136081371D01*
X128691580Y-136334453D01*
X128438498Y-136713217D01*
X128349627Y-137160000D01*
X127392500Y-137160000D01*
X127392500Y-134620000D01*
X128349627Y-134620000D01*
X128438498Y-135066783D01*
X128691580Y-135445547D01*
X129070344Y-135698629D01*
X129517127Y-135787500D01*
X129562873Y-135787500D01*
X130009656Y-135698629D01*
X130388420Y-135445547D01*
X130641502Y-135066783D01*
X130730373Y-134620000D01*
X176609627Y-134620000D01*
X176698498Y-135066783D01*
X176951580Y-135445547D01*
X177330344Y-135698629D01*
X177777127Y-135787500D01*
X177822873Y-135787500D01*
X178269656Y-135698629D01*
X178648420Y-135445547D01*
X178901502Y-135066783D01*
X178990373Y-134620000D01*
X178901502Y-134173217D01*
X178648420Y-133794453D01*
X178269656Y-133541371D01*
X177822873Y-133452500D01*
X177777127Y-133452500D01*
X177330344Y-133541371D01*
X176951580Y-133794453D01*
X176698498Y-134173217D01*
X176609627Y-134620000D01*
X130730373Y-134620000D01*
X130641502Y-134173217D01*
X130388420Y-133794453D01*
X130009656Y-133541371D01*
X129562873Y-133452500D01*
X129517127Y-133452500D01*
X129070344Y-133541371D01*
X128691580Y-133794453D01*
X128438498Y-134173217D01*
X128349627Y-134620000D01*
X127392500Y-134620000D01*
X127392500Y-132080000D01*
X128349627Y-132080000D01*
X128438498Y-132526783D01*
X128691580Y-132905547D01*
X129070344Y-133158629D01*
X129517127Y-133247500D01*
X129562873Y-133247500D01*
X130009656Y-133158629D01*
X130388420Y-132905547D01*
X130641502Y-132526783D01*
X130730373Y-132080000D01*
X176609627Y-132080000D01*
X176698498Y-132526783D01*
X176951580Y-132905547D01*
X177330344Y-133158629D01*
X177777127Y-133247500D01*
X177822873Y-133247500D01*
X178269656Y-133158629D01*
X178648420Y-132905547D01*
X178901502Y-132526783D01*
X178990373Y-132080000D01*
X178901502Y-131633217D01*
X178648420Y-131254453D01*
X178269656Y-131001371D01*
X177822873Y-130912500D01*
X177777127Y-130912500D01*
X177330344Y-131001371D01*
X176951580Y-131254453D01*
X176698498Y-131633217D01*
X176609627Y-132080000D01*
X130730373Y-132080000D01*
X130641502Y-131633217D01*
X130388420Y-131254453D01*
X130009656Y-131001371D01*
X129562873Y-130912500D01*
X129517127Y-130912500D01*
X129070344Y-131001371D01*
X128691580Y-131254453D01*
X128438498Y-131633217D01*
X128349627Y-132080000D01*
X127392500Y-132080000D01*
X127392500Y-129540000D01*
X128349627Y-129540000D01*
X128438498Y-129986783D01*
X128691580Y-130365547D01*
X129070344Y-130618629D01*
X129517127Y-130707500D01*
X129562873Y-130707500D01*
X130009656Y-130618629D01*
X130388420Y-130365547D01*
X130641502Y-129986783D01*
X130730373Y-129540000D01*
X176609627Y-129540000D01*
X176698498Y-129986783D01*
X176951580Y-130365547D01*
X177330344Y-130618629D01*
X177777127Y-130707500D01*
X177822873Y-130707500D01*
X178269656Y-130618629D01*
X178648420Y-130365547D01*
X178901502Y-129986783D01*
X178990373Y-129540000D01*
X178901502Y-129093217D01*
X178648420Y-128714453D01*
X178269656Y-128461371D01*
X177822873Y-128372500D01*
X177777127Y-128372500D01*
X177330344Y-128461371D01*
X176951580Y-128714453D01*
X176698498Y-129093217D01*
X176609627Y-129540000D01*
X130730373Y-129540000D01*
X130641502Y-129093217D01*
X130388420Y-128714453D01*
X130009656Y-128461371D01*
X129562873Y-128372500D01*
X129517127Y-128372500D01*
X129070344Y-128461371D01*
X128691580Y-128714453D01*
X128438498Y-129093217D01*
X128349627Y-129540000D01*
X127392500Y-129540000D01*
X127392500Y-126150000D01*
X128366280Y-126150000D01*
X128366280Y-127850000D01*
X128388419Y-127967658D01*
X128457955Y-128075721D01*
X128564055Y-128148215D01*
X128690000Y-128173720D01*
X130390000Y-128173720D01*
X130507658Y-128151581D01*
X130615721Y-128082045D01*
X130688215Y-127975945D01*
X130713720Y-127850000D01*
X130713720Y-127000000D01*
X176609627Y-127000000D01*
X176698498Y-127446783D01*
X176951580Y-127825547D01*
X177330344Y-128078629D01*
X177777127Y-128167500D01*
X177822873Y-128167500D01*
X178269656Y-128078629D01*
X178648420Y-127825547D01*
X178901502Y-127446783D01*
X178990373Y-127000000D01*
X178901502Y-126553217D01*
X178648420Y-126174453D01*
X178269656Y-125921371D01*
X177822873Y-125832500D01*
X177777127Y-125832500D01*
X177330344Y-125921371D01*
X176951580Y-126174453D01*
X176698498Y-126553217D01*
X176609627Y-127000000D01*
X130713720Y-127000000D01*
X130713720Y-126150000D01*
X130691581Y-126032342D01*
X130622045Y-125924279D01*
X130515945Y-125851785D01*
X130390000Y-125826280D01*
X128690000Y-125826280D01*
X128572342Y-125848419D01*
X128464279Y-125917955D01*
X128391785Y-126024055D01*
X128366280Y-126150000D01*
X127392500Y-126150000D01*
X127392500Y-124460000D01*
X176609627Y-124460000D01*
X176698498Y-124906783D01*
X176951580Y-125285547D01*
X177330344Y-125538629D01*
X177777127Y-125627500D01*
X177822873Y-125627500D01*
X178269656Y-125538629D01*
X178648420Y-125285547D01*
X178901502Y-124906783D01*
X178990373Y-124460000D01*
X178901502Y-124013217D01*
X178648420Y-123634453D01*
X178269656Y-123381371D01*
X177822873Y-123292500D01*
X177777127Y-123292500D01*
X177330344Y-123381371D01*
X176951580Y-123634453D01*
X176698498Y-124013217D01*
X176609627Y-124460000D01*
X127392500Y-124460000D01*
X127392500Y-121920000D01*
X128349627Y-121920000D01*
X128438498Y-122366783D01*
X128691580Y-122745547D01*
X129070344Y-122998629D01*
X129517127Y-123087500D01*
X129562873Y-123087500D01*
X130009656Y-122998629D01*
X130388420Y-122745547D01*
X130641502Y-122366783D01*
X130730373Y-121920000D01*
X130641502Y-121473217D01*
X130388420Y-121094453D01*
X130161755Y-120943000D01*
X136049780Y-120943000D01*
X136049780Y-122643000D01*
X136071919Y-122760658D01*
X136141455Y-122868721D01*
X136247555Y-122941215D01*
X136373500Y-122966720D01*
X138073500Y-122966720D01*
X138191158Y-122944581D01*
X138299221Y-122875045D01*
X138371715Y-122768945D01*
X138397220Y-122643000D01*
X138397220Y-120943000D01*
X147924280Y-120943000D01*
X147924280Y-122643000D01*
X147946419Y-122760658D01*
X148015955Y-122868721D01*
X148122055Y-122941215D01*
X148248000Y-122966720D01*
X149948000Y-122966720D01*
X150065658Y-122944581D01*
X150173721Y-122875045D01*
X150246215Y-122768945D01*
X150271720Y-122643000D01*
X150271720Y-120943000D01*
X159608280Y-120943000D01*
X159608280Y-122643000D01*
X159630419Y-122760658D01*
X159699955Y-122868721D01*
X159806055Y-122941215D01*
X159932000Y-122966720D01*
X161632000Y-122966720D01*
X161749658Y-122944581D01*
X161857721Y-122875045D01*
X161930215Y-122768945D01*
X161955720Y-122643000D01*
X161955720Y-120943000D01*
X171292280Y-120943000D01*
X171292280Y-122643000D01*
X171314419Y-122760658D01*
X171383955Y-122868721D01*
X171490055Y-122941215D01*
X171616000Y-122966720D01*
X173316000Y-122966720D01*
X173433658Y-122944581D01*
X173541721Y-122875045D01*
X173614215Y-122768945D01*
X173639720Y-122643000D01*
X173639720Y-121070000D01*
X176626280Y-121070000D01*
X176626280Y-122770000D01*
X176648419Y-122887658D01*
X176717955Y-122995721D01*
X176824055Y-123068215D01*
X176950000Y-123093720D01*
X178650000Y-123093720D01*
X178767658Y-123071581D01*
X178875721Y-123002045D01*
X178948215Y-122895945D01*
X178973720Y-122770000D01*
X178973720Y-121070000D01*
X178951581Y-120952342D01*
X178882045Y-120844279D01*
X178775945Y-120771785D01*
X178650000Y-120746280D01*
X176950000Y-120746280D01*
X176832342Y-120768419D01*
X176724279Y-120837955D01*
X176651785Y-120944055D01*
X176626280Y-121070000D01*
X173639720Y-121070000D01*
X173639720Y-120943000D01*
X173617581Y-120825342D01*
X173548045Y-120717279D01*
X173441945Y-120644785D01*
X173316000Y-120619280D01*
X171616000Y-120619280D01*
X171498342Y-120641419D01*
X171390279Y-120710955D01*
X171317785Y-120817055D01*
X171292280Y-120943000D01*
X161955720Y-120943000D01*
X161933581Y-120825342D01*
X161864045Y-120717279D01*
X161757945Y-120644785D01*
X161632000Y-120619280D01*
X159932000Y-120619280D01*
X159814342Y-120641419D01*
X159706279Y-120710955D01*
X159633785Y-120817055D01*
X159608280Y-120943000D01*
X150271720Y-120943000D01*
X150249581Y-120825342D01*
X150180045Y-120717279D01*
X150073945Y-120644785D01*
X149948000Y-120619280D01*
X148248000Y-120619280D01*
X148130342Y-120641419D01*
X148022279Y-120710955D01*
X147949785Y-120817055D01*
X147924280Y-120943000D01*
X138397220Y-120943000D01*
X138375081Y-120825342D01*
X138305545Y-120717279D01*
X138199445Y-120644785D01*
X138073500Y-120619280D01*
X136373500Y-120619280D01*
X136255842Y-120641419D01*
X136147779Y-120710955D01*
X136075285Y-120817055D01*
X136049780Y-120943000D01*
X130161755Y-120943000D01*
X130009656Y-120841371D01*
X129562873Y-120752500D01*
X129517127Y-120752500D01*
X129070344Y-120841371D01*
X128691580Y-121094453D01*
X128438498Y-121473217D01*
X128349627Y-121920000D01*
X127392500Y-121920000D01*
X127392500Y-119380000D01*
X128349627Y-119380000D01*
X128438498Y-119826783D01*
X128691580Y-120205547D01*
X129070344Y-120458629D01*
X129517127Y-120547500D01*
X129562873Y-120547500D01*
X130009656Y-120458629D01*
X130388420Y-120205547D01*
X130641502Y-119826783D01*
X130730373Y-119380000D01*
X130641502Y-118933217D01*
X130388420Y-118554453D01*
X130009656Y-118301371D01*
X129562873Y-118212500D01*
X129517127Y-118212500D01*
X129070344Y-118301371D01*
X128691580Y-118554453D01*
X128438498Y-118933217D01*
X128349627Y-119380000D01*
X127392500Y-119380000D01*
X127392500Y-116840000D01*
X128349627Y-116840000D01*
X128438498Y-117286783D01*
X128691580Y-117665547D01*
X129070344Y-117918629D01*
X129517127Y-118007500D01*
X129562873Y-118007500D01*
X130009656Y-117918629D01*
X130103386Y-117856000D01*
X176609627Y-117856000D01*
X176698498Y-118302783D01*
X176951580Y-118681547D01*
X177330344Y-118934629D01*
X177777127Y-119023500D01*
X177822873Y-119023500D01*
X178269656Y-118934629D01*
X178648420Y-118681547D01*
X178901502Y-118302783D01*
X178990373Y-117856000D01*
X178901502Y-117409217D01*
X178648420Y-117030453D01*
X178269656Y-116777371D01*
X177822873Y-116688500D01*
X177777127Y-116688500D01*
X177330344Y-116777371D01*
X176951580Y-117030453D01*
X176698498Y-117409217D01*
X176609627Y-117856000D01*
X130103386Y-117856000D01*
X130388420Y-117665547D01*
X130641502Y-117286783D01*
X130730373Y-116840000D01*
X130641502Y-116393217D01*
X130388420Y-116014453D01*
X130009656Y-115761371D01*
X129562873Y-115672500D01*
X129517127Y-115672500D01*
X129070344Y-115761371D01*
X128691580Y-116014453D01*
X128438498Y-116393217D01*
X128349627Y-116840000D01*
X127392500Y-116840000D01*
X127392500Y-115316000D01*
X176609627Y-115316000D01*
X176698498Y-115762783D01*
X176951580Y-116141547D01*
X177330344Y-116394629D01*
X177777127Y-116483500D01*
X177822873Y-116483500D01*
X178269656Y-116394629D01*
X178648420Y-116141547D01*
X178901502Y-115762783D01*
X178990373Y-115316000D01*
X178901502Y-114869217D01*
X178648420Y-114490453D01*
X178269656Y-114237371D01*
X177822873Y-114148500D01*
X177777127Y-114148500D01*
X177330344Y-114237371D01*
X176951580Y-114490453D01*
X176698498Y-114869217D01*
X176609627Y-115316000D01*
X127392500Y-115316000D01*
X127392500Y-111760000D01*
X128349627Y-111760000D01*
X128438498Y-112206783D01*
X128691580Y-112585547D01*
X129070344Y-112838629D01*
X129517127Y-112927500D01*
X129562873Y-112927500D01*
X130009656Y-112838629D01*
X130103386Y-112776000D01*
X176609627Y-112776000D01*
X176698498Y-113222783D01*
X176951580Y-113601547D01*
X177330344Y-113854629D01*
X177777127Y-113943500D01*
X177822873Y-113943500D01*
X178269656Y-113854629D01*
X178648420Y-113601547D01*
X178901502Y-113222783D01*
X178990373Y-112776000D01*
X178901502Y-112329217D01*
X178648420Y-111950453D01*
X178269656Y-111697371D01*
X177822873Y-111608500D01*
X177777127Y-111608500D01*
X177330344Y-111697371D01*
X176951580Y-111950453D01*
X176698498Y-112329217D01*
X176609627Y-112776000D01*
X130103386Y-112776000D01*
X130388420Y-112585547D01*
X130641502Y-112206783D01*
X130730373Y-111760000D01*
X130641502Y-111313217D01*
X130388420Y-110934453D01*
X130009656Y-110681371D01*
X129562873Y-110592500D01*
X129517127Y-110592500D01*
X129070344Y-110681371D01*
X128691580Y-110934453D01*
X128438498Y-111313217D01*
X128349627Y-111760000D01*
X127392500Y-111760000D01*
X127392500Y-109220000D01*
X128349627Y-109220000D01*
X128438498Y-109666783D01*
X128691580Y-110045547D01*
X129070344Y-110298629D01*
X129517127Y-110387500D01*
X129562873Y-110387500D01*
X130009656Y-110298629D01*
X130103386Y-110236000D01*
X176609627Y-110236000D01*
X176698498Y-110682783D01*
X176951580Y-111061547D01*
X177330344Y-111314629D01*
X177777127Y-111403500D01*
X177822873Y-111403500D01*
X178269656Y-111314629D01*
X178648420Y-111061547D01*
X178901502Y-110682783D01*
X178990373Y-110236000D01*
X178901502Y-109789217D01*
X178648420Y-109410453D01*
X178269656Y-109157371D01*
X177822873Y-109068500D01*
X177777127Y-109068500D01*
X177330344Y-109157371D01*
X176951580Y-109410453D01*
X176698498Y-109789217D01*
X176609627Y-110236000D01*
X130103386Y-110236000D01*
X130388420Y-110045547D01*
X130641502Y-109666783D01*
X130730373Y-109220000D01*
X130641502Y-108773217D01*
X130388420Y-108394453D01*
X130009656Y-108141371D01*
X129562873Y-108052500D01*
X129517127Y-108052500D01*
X129070344Y-108141371D01*
X128691580Y-108394453D01*
X128438498Y-108773217D01*
X128349627Y-109220000D01*
X127392500Y-109220000D01*
X127392500Y-106680000D01*
X128349627Y-106680000D01*
X128438498Y-107126783D01*
X128691580Y-107505547D01*
X129070344Y-107758629D01*
X129517127Y-107847500D01*
X129562873Y-107847500D01*
X130009656Y-107758629D01*
X130103386Y-107696000D01*
X176609627Y-107696000D01*
X176698498Y-108142783D01*
X176951580Y-108521547D01*
X177330344Y-108774629D01*
X177777127Y-108863500D01*
X177822873Y-108863500D01*
X178269656Y-108774629D01*
X178648420Y-108521547D01*
X178901502Y-108142783D01*
X178990373Y-107696000D01*
X178901502Y-107249217D01*
X178648420Y-106870453D01*
X178269656Y-106617371D01*
X177822873Y-106528500D01*
X177777127Y-106528500D01*
X177330344Y-106617371D01*
X176951580Y-106870453D01*
X176698498Y-107249217D01*
X176609627Y-107696000D01*
X130103386Y-107696000D01*
X130388420Y-107505547D01*
X130641502Y-107126783D01*
X130730373Y-106680000D01*
X130641502Y-106233217D01*
X130388420Y-105854453D01*
X130009656Y-105601371D01*
X129562873Y-105512500D01*
X129517127Y-105512500D01*
X129070344Y-105601371D01*
X128691580Y-105854453D01*
X128438498Y-106233217D01*
X128349627Y-106680000D01*
X127392500Y-106680000D01*
X127392500Y-103290000D01*
X128366280Y-103290000D01*
X128366280Y-104990000D01*
X128388419Y-105107658D01*
X128457955Y-105215721D01*
X128564055Y-105288215D01*
X128690000Y-105313720D01*
X130390000Y-105313720D01*
X130507658Y-105291581D01*
X130615721Y-105222045D01*
X130660846Y-105156000D01*
X176609627Y-105156000D01*
X176698498Y-105602783D01*
X176951580Y-105981547D01*
X177330344Y-106234629D01*
X177777127Y-106323500D01*
X177822873Y-106323500D01*
X178269656Y-106234629D01*
X178648420Y-105981547D01*
X178901502Y-105602783D01*
X178990373Y-105156000D01*
X178901502Y-104709217D01*
X178648420Y-104330453D01*
X178269656Y-104077371D01*
X177822873Y-103988500D01*
X177777127Y-103988500D01*
X177330344Y-104077371D01*
X176951580Y-104330453D01*
X176698498Y-104709217D01*
X176609627Y-105156000D01*
X130660846Y-105156000D01*
X130688215Y-105115945D01*
X130713720Y-104990000D01*
X130713720Y-103290000D01*
X130691581Y-103172342D01*
X130622045Y-103064279D01*
X130515945Y-102991785D01*
X130390000Y-102966280D01*
X128690000Y-102966280D01*
X128572342Y-102988419D01*
X128464279Y-103057955D01*
X128391785Y-103164055D01*
X128366280Y-103290000D01*
X127392500Y-103290000D01*
X127392500Y-102616000D01*
X176609627Y-102616000D01*
X176698498Y-103062783D01*
X176951580Y-103441547D01*
X177330344Y-103694629D01*
X177777127Y-103783500D01*
X177822873Y-103783500D01*
X178269656Y-103694629D01*
X178648420Y-103441547D01*
X178901502Y-103062783D01*
X178990373Y-102616000D01*
X178901502Y-102169217D01*
X178648420Y-101790453D01*
X178269656Y-101537371D01*
X177822873Y-101448500D01*
X177777127Y-101448500D01*
X177330344Y-101537371D01*
X176951580Y-101790453D01*
X176698498Y-102169217D01*
X176609627Y-102616000D01*
X127392500Y-102616000D01*
X127392500Y-99686210D01*
X172122997Y-99686210D01*
X172213678Y-99905675D01*
X172381442Y-100073732D01*
X172600748Y-100164796D01*
X172838210Y-100165003D01*
X173053613Y-100076000D01*
X176609627Y-100076000D01*
X176698498Y-100522783D01*
X176951580Y-100901547D01*
X177330344Y-101154629D01*
X177777127Y-101243500D01*
X177822873Y-101243500D01*
X178269656Y-101154629D01*
X178648420Y-100901547D01*
X178901502Y-100522783D01*
X178990373Y-100076000D01*
X178901502Y-99629217D01*
X178648420Y-99250453D01*
X178269656Y-98997371D01*
X177822873Y-98908500D01*
X177777127Y-98908500D01*
X177330344Y-98997371D01*
X176951580Y-99250453D01*
X176698498Y-99629217D01*
X176609627Y-100076000D01*
X173053613Y-100076000D01*
X173057675Y-100074322D01*
X173225732Y-99906558D01*
X173316796Y-99687252D01*
X173317003Y-99449790D01*
X173226322Y-99230325D01*
X173058558Y-99062268D01*
X172839252Y-98971204D01*
X172601790Y-98970997D01*
X172382325Y-99061678D01*
X172214268Y-99229442D01*
X172123204Y-99448748D01*
X172122997Y-99686210D01*
X127392500Y-99686210D01*
X127392500Y-97536000D01*
X176609627Y-97536000D01*
X176698498Y-97982783D01*
X176951580Y-98361547D01*
X177330344Y-98614629D01*
X177777127Y-98703500D01*
X177822873Y-98703500D01*
X178269656Y-98614629D01*
X178648420Y-98361547D01*
X178901502Y-97982783D01*
X178990373Y-97536000D01*
X178901502Y-97089217D01*
X178648420Y-96710453D01*
X178269656Y-96457371D01*
X177822873Y-96368500D01*
X177777127Y-96368500D01*
X177330344Y-96457371D01*
X176951580Y-96710453D01*
X176698498Y-97089217D01*
X176609627Y-97536000D01*
X127392500Y-97536000D01*
X127392500Y-94146000D01*
X176626280Y-94146000D01*
X176626280Y-95846000D01*
X176648419Y-95963658D01*
X176717955Y-96071721D01*
X176824055Y-96144215D01*
X176950000Y-96169720D01*
X178650000Y-96169720D01*
X178767658Y-96147581D01*
X178875721Y-96078045D01*
X178948215Y-95971945D01*
X178973720Y-95846000D01*
X178973720Y-94146000D01*
X178951581Y-94028342D01*
X178882045Y-93920279D01*
X178775945Y-93847785D01*
X178650000Y-93822280D01*
X176950000Y-93822280D01*
X176832342Y-93844419D01*
X176724279Y-93913955D01*
X176651785Y-94020055D01*
X176626280Y-94146000D01*
X127392500Y-94146000D01*
X127392500Y-92701210D01*
X165772997Y-92701210D01*
X165863678Y-92920675D01*
X166031442Y-93088732D01*
X166250748Y-93179796D01*
X166488210Y-93180003D01*
X166707675Y-93089322D01*
X166875732Y-92921558D01*
X166966796Y-92702252D01*
X166967003Y-92464790D01*
X166876322Y-92245325D01*
X166708558Y-92077268D01*
X166489252Y-91986204D01*
X166251790Y-91985997D01*
X166032325Y-92076678D01*
X165864268Y-92244442D01*
X165773204Y-92463748D01*
X165772997Y-92701210D01*
X127392500Y-92701210D01*
X127392500Y-91050210D01*
X174662997Y-91050210D01*
X174753678Y-91269675D01*
X174921442Y-91437732D01*
X175140748Y-91528796D01*
X175378210Y-91529003D01*
X175597675Y-91438322D01*
X175765732Y-91270558D01*
X175856796Y-91051252D01*
X175857003Y-90813790D01*
X175766322Y-90594325D01*
X175598558Y-90426268D01*
X175379252Y-90335204D01*
X175141790Y-90334997D01*
X174922325Y-90425678D01*
X174754268Y-90593442D01*
X174663204Y-90812748D01*
X174662997Y-91050210D01*
X127392500Y-91050210D01*
X127392500Y-89018210D01*
X166534997Y-89018210D01*
X166625678Y-89237675D01*
X166793442Y-89405732D01*
X167012748Y-89496796D01*
X167250210Y-89497003D01*
X167469675Y-89406322D01*
X167637732Y-89238558D01*
X167728796Y-89019252D01*
X167729003Y-88781790D01*
X167638322Y-88562325D01*
X167470558Y-88394268D01*
X167251252Y-88303204D01*
X167013790Y-88302997D01*
X166794325Y-88393678D01*
X166626268Y-88561442D01*
X166535204Y-88780748D01*
X166534997Y-89018210D01*
X127392500Y-89018210D01*
X127392500Y-86605210D01*
X147611997Y-86605210D01*
X147702678Y-86824675D01*
X147870442Y-86992732D01*
X148089748Y-87083796D01*
X148327210Y-87084003D01*
X148546675Y-86993322D01*
X148714732Y-86825558D01*
X148805796Y-86606252D01*
X148806003Y-86368790D01*
X148715322Y-86149325D01*
X148547558Y-85981268D01*
X148328252Y-85890204D01*
X148090790Y-85889997D01*
X147871325Y-85980678D01*
X147703268Y-86148442D01*
X147612204Y-86367748D01*
X147611997Y-86605210D01*
X127392500Y-86605210D01*
X127392500Y-79459294D01*
X127571093Y-79459294D01*
X127928030Y-80323146D01*
X128588378Y-80984647D01*
X129451605Y-81343091D01*
X130386294Y-81343907D01*
X131250146Y-80986970D01*
X131299201Y-80938000D01*
X132684280Y-80938000D01*
X132684280Y-82638000D01*
X132706419Y-82755658D01*
X132775955Y-82863721D01*
X132882055Y-82936215D01*
X133008000Y-82961720D01*
X134708000Y-82961720D01*
X134825658Y-82939581D01*
X134933721Y-82870045D01*
X135006215Y-82763945D01*
X135031720Y-82638000D01*
X135031720Y-80938000D01*
X136367280Y-80938000D01*
X136367280Y-82638000D01*
X136389419Y-82755658D01*
X136458955Y-82863721D01*
X136565055Y-82936215D01*
X136691000Y-82961720D01*
X138391000Y-82961720D01*
X138508658Y-82939581D01*
X138616721Y-82870045D01*
X138689215Y-82763945D01*
X138714720Y-82638000D01*
X138714720Y-80938000D01*
X140050280Y-80938000D01*
X140050280Y-82638000D01*
X140072419Y-82755658D01*
X140141955Y-82863721D01*
X140248055Y-82936215D01*
X140374000Y-82961720D01*
X142074000Y-82961720D01*
X142191658Y-82939581D01*
X142299721Y-82870045D01*
X142372215Y-82763945D01*
X142397720Y-82638000D01*
X142397720Y-80938000D01*
X143733280Y-80938000D01*
X143733280Y-82638000D01*
X143755419Y-82755658D01*
X143824955Y-82863721D01*
X143931055Y-82936215D01*
X144057000Y-82961720D01*
X145757000Y-82961720D01*
X145874658Y-82939581D01*
X145982721Y-82870045D01*
X146055215Y-82763945D01*
X146080720Y-82638000D01*
X146080720Y-80938000D01*
X147416280Y-80938000D01*
X147416280Y-82638000D01*
X147438419Y-82755658D01*
X147507955Y-82863721D01*
X147614055Y-82936215D01*
X147740000Y-82961720D01*
X149440000Y-82961720D01*
X149557658Y-82939581D01*
X149665721Y-82870045D01*
X149738215Y-82763945D01*
X149763720Y-82638000D01*
X149763720Y-80938000D01*
X151099280Y-80938000D01*
X151099280Y-82638000D01*
X151121419Y-82755658D01*
X151190955Y-82863721D01*
X151297055Y-82936215D01*
X151423000Y-82961720D01*
X153123000Y-82961720D01*
X153240658Y-82939581D01*
X153348721Y-82870045D01*
X153421215Y-82763945D01*
X153446720Y-82638000D01*
X153446720Y-80938000D01*
X154782280Y-80938000D01*
X154782280Y-82638000D01*
X154804419Y-82755658D01*
X154873955Y-82863721D01*
X154980055Y-82936215D01*
X155106000Y-82961720D01*
X156209904Y-82961720D01*
X158153151Y-84904966D01*
X158152997Y-85081210D01*
X158243678Y-85300675D01*
X158411442Y-85468732D01*
X158630748Y-85559796D01*
X158868210Y-85560003D01*
X159087675Y-85469322D01*
X159255732Y-85301558D01*
X159274649Y-85256000D01*
X162402280Y-85256000D01*
X162402280Y-86956000D01*
X162424419Y-87073658D01*
X162493955Y-87181721D01*
X162600055Y-87254215D01*
X162726000Y-87279720D01*
X164426000Y-87279720D01*
X164543658Y-87257581D01*
X164651721Y-87188045D01*
X164724215Y-87081945D01*
X164749720Y-86956000D01*
X164749720Y-85256000D01*
X164727581Y-85138342D01*
X164658045Y-85030279D01*
X164551945Y-84957785D01*
X164426000Y-84932280D01*
X162726000Y-84932280D01*
X162608342Y-84954419D01*
X162500279Y-85023955D01*
X162427785Y-85130055D01*
X162402280Y-85256000D01*
X159274649Y-85256000D01*
X159346796Y-85082252D01*
X159347003Y-84844790D01*
X159256322Y-84625325D01*
X159088558Y-84457268D01*
X158869252Y-84366204D01*
X158691864Y-84366049D01*
X157098348Y-82772532D01*
X157104215Y-82763945D01*
X157129720Y-82638000D01*
X157129720Y-80938000D01*
X158465280Y-80938000D01*
X158465280Y-82638000D01*
X158487419Y-82755658D01*
X158556955Y-82863721D01*
X158663055Y-82936215D01*
X158789000Y-82961720D01*
X160489000Y-82961720D01*
X160606658Y-82939581D01*
X160714721Y-82870045D01*
X160787215Y-82763945D01*
X160812720Y-82638000D01*
X160812720Y-81573000D01*
X162402280Y-81573000D01*
X162402280Y-83273000D01*
X162424419Y-83390658D01*
X162493955Y-83498721D01*
X162600055Y-83571215D01*
X162726000Y-83596720D01*
X164426000Y-83596720D01*
X164543658Y-83574581D01*
X164651721Y-83505045D01*
X164724215Y-83398945D01*
X164749720Y-83273000D01*
X164749720Y-81573000D01*
X164727581Y-81455342D01*
X164658045Y-81347279D01*
X164551945Y-81274785D01*
X164426000Y-81249280D01*
X162726000Y-81249280D01*
X162608342Y-81271419D01*
X162500279Y-81340955D01*
X162427785Y-81447055D01*
X162402280Y-81573000D01*
X160812720Y-81573000D01*
X160812720Y-80938000D01*
X160790581Y-80820342D01*
X160721045Y-80712279D01*
X160614945Y-80639785D01*
X160489000Y-80614280D01*
X158789000Y-80614280D01*
X158671342Y-80636419D01*
X158563279Y-80705955D01*
X158490785Y-80812055D01*
X158465280Y-80938000D01*
X157129720Y-80938000D01*
X157107581Y-80820342D01*
X157038045Y-80712279D01*
X156931945Y-80639785D01*
X156806000Y-80614280D01*
X155106000Y-80614280D01*
X154988342Y-80636419D01*
X154880279Y-80705955D01*
X154807785Y-80812055D01*
X154782280Y-80938000D01*
X153446720Y-80938000D01*
X153424581Y-80820342D01*
X153355045Y-80712279D01*
X153248945Y-80639785D01*
X153123000Y-80614280D01*
X151423000Y-80614280D01*
X151305342Y-80636419D01*
X151197279Y-80705955D01*
X151124785Y-80812055D01*
X151099280Y-80938000D01*
X149763720Y-80938000D01*
X149741581Y-80820342D01*
X149672045Y-80712279D01*
X149565945Y-80639785D01*
X149440000Y-80614280D01*
X147740000Y-80614280D01*
X147622342Y-80636419D01*
X147514279Y-80705955D01*
X147441785Y-80812055D01*
X147416280Y-80938000D01*
X146080720Y-80938000D01*
X146058581Y-80820342D01*
X145989045Y-80712279D01*
X145882945Y-80639785D01*
X145757000Y-80614280D01*
X144057000Y-80614280D01*
X143939342Y-80636419D01*
X143831279Y-80705955D01*
X143758785Y-80812055D01*
X143733280Y-80938000D01*
X142397720Y-80938000D01*
X142375581Y-80820342D01*
X142306045Y-80712279D01*
X142199945Y-80639785D01*
X142074000Y-80614280D01*
X140374000Y-80614280D01*
X140256342Y-80636419D01*
X140148279Y-80705955D01*
X140075785Y-80812055D01*
X140050280Y-80938000D01*
X138714720Y-80938000D01*
X138692581Y-80820342D01*
X138623045Y-80712279D01*
X138516945Y-80639785D01*
X138391000Y-80614280D01*
X136691000Y-80614280D01*
X136573342Y-80636419D01*
X136465279Y-80705955D01*
X136392785Y-80812055D01*
X136367280Y-80938000D01*
X135031720Y-80938000D01*
X135009581Y-80820342D01*
X134940045Y-80712279D01*
X134833945Y-80639785D01*
X134708000Y-80614280D01*
X133008000Y-80614280D01*
X132890342Y-80636419D01*
X132782279Y-80705955D01*
X132709785Y-80812055D01*
X132684280Y-80938000D01*
X131299201Y-80938000D01*
X131911647Y-80326622D01*
X132270091Y-79463395D01*
X132270907Y-78528706D01*
X131913970Y-77664854D01*
X131253622Y-77003353D01*
X130390395Y-76644909D01*
X129455706Y-76644093D01*
X128591854Y-77001030D01*
X127930353Y-77661378D01*
X127571909Y-78524605D01*
X127571093Y-79459294D01*
X127392500Y-79459294D01*
X127392500Y-76592500D01*
X174739207Y-76592500D01*
X174057854Y-76874030D01*
X174057854Y-76874030D01*
G37*
X174057854Y-76874030D02*
X173396353Y-77534378D01*
X173037909Y-78397605D01*
X173037093Y-79332294D01*
X173394030Y-80196146D01*
X174054378Y-80857647D01*
X174917605Y-81216091D01*
X175852294Y-81216907D01*
X176716146Y-80859970D01*
X177377647Y-80199622D01*
X177736091Y-79336395D01*
X177736907Y-78401706D01*
X177379970Y-77537854D01*
X176719622Y-76876353D01*
X176036030Y-76592500D01*
X179947500Y-76592500D01*
X179947500Y-144387500D01*
X127392500Y-144387500D01*
X127392500Y-143468023D01*
X132533205Y-143468023D01*
X132695852Y-143861659D01*
X132996757Y-144163089D01*
X133390108Y-144326423D01*
X133816023Y-144326795D01*
X134209659Y-144164148D01*
X134511089Y-143863243D01*
X134674423Y-143469892D01*
X134674424Y-143468023D01*
X137613205Y-143468023D01*
X137775852Y-143861659D01*
X138076757Y-144163089D01*
X138470108Y-144326423D01*
X138896023Y-144326795D01*
X139289659Y-144164148D01*
X139591089Y-143863243D01*
X139754423Y-143469892D01*
X139754424Y-143468023D01*
X144217205Y-143468023D01*
X144379852Y-143861659D01*
X144680757Y-144163089D01*
X145074108Y-144326423D01*
X145500023Y-144326795D01*
X145893659Y-144164148D01*
X146195089Y-143863243D01*
X146358423Y-143469892D01*
X146358424Y-143468023D01*
X149297205Y-143468023D01*
X149459852Y-143861659D01*
X149760757Y-144163089D01*
X150154108Y-144326423D01*
X150580023Y-144326795D01*
X150973659Y-144164148D01*
X151275089Y-143863243D01*
X151438423Y-143469892D01*
X151438424Y-143468023D01*
X155901205Y-143468023D01*
X156063852Y-143861659D01*
X156364757Y-144163089D01*
X156758108Y-144326423D01*
X157184023Y-144326795D01*
X157577659Y-144164148D01*
X157879089Y-143863243D01*
X158042423Y-143469892D01*
X158042424Y-143468023D01*
X160981205Y-143468023D01*
X161143852Y-143861659D01*
X161444757Y-144163089D01*
X161838108Y-144326423D01*
X162264023Y-144326795D01*
X162657659Y-144164148D01*
X162959089Y-143863243D01*
X163122423Y-143469892D01*
X163122424Y-143468023D01*
X167585205Y-143468023D01*
X167747852Y-143861659D01*
X168048757Y-144163089D01*
X168442108Y-144326423D01*
X168868023Y-144326795D01*
X169261659Y-144164148D01*
X169563089Y-143863243D01*
X169726423Y-143469892D01*
X169726424Y-143468023D01*
X172665205Y-143468023D01*
X172827852Y-143861659D01*
X173128757Y-144163089D01*
X173522108Y-144326423D01*
X173948023Y-144326795D01*
X174341659Y-144164148D01*
X174643089Y-143863243D01*
X174806423Y-143469892D01*
X174806795Y-143043977D01*
X174644148Y-142650341D01*
X174343243Y-142348911D01*
X173949892Y-142185577D01*
X173523977Y-142185205D01*
X173130341Y-142347852D01*
X172828911Y-142648757D01*
X172665577Y-143042108D01*
X172665205Y-143468023D01*
X169726424Y-143468023D01*
X169726795Y-143043977D01*
X169564148Y-142650341D01*
X169263243Y-142348911D01*
X168869892Y-142185577D01*
X168443977Y-142185205D01*
X168050341Y-142347852D01*
X167748911Y-142648757D01*
X167585577Y-143042108D01*
X167585205Y-143468023D01*
X163122424Y-143468023D01*
X163122795Y-143043977D01*
X162960148Y-142650341D01*
X162659243Y-142348911D01*
X162265892Y-142185577D01*
X161839977Y-142185205D01*
X161446341Y-142347852D01*
X161144911Y-142648757D01*
X160981577Y-143042108D01*
X160981205Y-143468023D01*
X158042424Y-143468023D01*
X158042795Y-143043977D01*
X157880148Y-142650341D01*
X157579243Y-142348911D01*
X157185892Y-142185577D01*
X156759977Y-142185205D01*
X156366341Y-142347852D01*
X156064911Y-142648757D01*
X155901577Y-143042108D01*
X155901205Y-143468023D01*
X151438424Y-143468023D01*
X151438795Y-143043977D01*
X151276148Y-142650341D01*
X150975243Y-142348911D01*
X150581892Y-142185577D01*
X150155977Y-142185205D01*
X149762341Y-142347852D01*
X149460911Y-142648757D01*
X149297577Y-143042108D01*
X149297205Y-143468023D01*
X146358424Y-143468023D01*
X146358795Y-143043977D01*
X146196148Y-142650341D01*
X145895243Y-142348911D01*
X145501892Y-142185577D01*
X145075977Y-142185205D01*
X144682341Y-142347852D01*
X144380911Y-142648757D01*
X144217577Y-143042108D01*
X144217205Y-143468023D01*
X139754424Y-143468023D01*
X139754795Y-143043977D01*
X139592148Y-142650341D01*
X139291243Y-142348911D01*
X138897892Y-142185577D01*
X138471977Y-142185205D01*
X138078341Y-142347852D01*
X137776911Y-142648757D01*
X137613577Y-143042108D01*
X137613205Y-143468023D01*
X134674424Y-143468023D01*
X134674795Y-143043977D01*
X134512148Y-142650341D01*
X134211243Y-142348911D01*
X133817892Y-142185577D01*
X133391977Y-142185205D01*
X132998341Y-142347852D01*
X132696911Y-142648757D01*
X132533577Y-143042108D01*
X132533205Y-143468023D01*
X127392500Y-143468023D01*
X127392500Y-140928023D01*
X135073205Y-140928023D01*
X135235852Y-141321659D01*
X135536757Y-141623089D01*
X135930108Y-141786423D01*
X136356023Y-141786795D01*
X136749659Y-141624148D01*
X137051089Y-141323243D01*
X137214423Y-140929892D01*
X137214424Y-140928023D01*
X146757205Y-140928023D01*
X146919852Y-141321659D01*
X147220757Y-141623089D01*
X147614108Y-141786423D01*
X148040023Y-141786795D01*
X148433659Y-141624148D01*
X148735089Y-141323243D01*
X148898423Y-140929892D01*
X148898424Y-140928023D01*
X158441205Y-140928023D01*
X158603852Y-141321659D01*
X158904757Y-141623089D01*
X159298108Y-141786423D01*
X159724023Y-141786795D01*
X160117659Y-141624148D01*
X160419089Y-141323243D01*
X160582423Y-140929892D01*
X160582424Y-140928023D01*
X170125205Y-140928023D01*
X170287852Y-141321659D01*
X170588757Y-141623089D01*
X170982108Y-141786423D01*
X171408023Y-141786795D01*
X171801659Y-141624148D01*
X172103089Y-141323243D01*
X172266423Y-140929892D01*
X172266795Y-140503977D01*
X172104148Y-140110341D01*
X171803243Y-139808911D01*
X171540957Y-139700000D01*
X176609627Y-139700000D01*
X176698498Y-140146783D01*
X176951580Y-140525547D01*
X177330344Y-140778629D01*
X177777127Y-140867500D01*
X177822873Y-140867500D01*
X178269656Y-140778629D01*
X178648420Y-140525547D01*
X178901502Y-140146783D01*
X178990373Y-139700000D01*
X178901502Y-139253217D01*
X178648420Y-138874453D01*
X178269656Y-138621371D01*
X177822873Y-138532500D01*
X177777127Y-138532500D01*
X177330344Y-138621371D01*
X176951580Y-138874453D01*
X176698498Y-139253217D01*
X176609627Y-139700000D01*
X171540957Y-139700000D01*
X171409892Y-139645577D01*
X170983977Y-139645205D01*
X170590341Y-139807852D01*
X170288911Y-140108757D01*
X170125577Y-140502108D01*
X170125205Y-140928023D01*
X160582424Y-140928023D01*
X160582795Y-140503977D01*
X160420148Y-140110341D01*
X160119243Y-139808911D01*
X159725892Y-139645577D01*
X159299977Y-139645205D01*
X158906341Y-139807852D01*
X158604911Y-140108757D01*
X158441577Y-140502108D01*
X158441205Y-140928023D01*
X148898424Y-140928023D01*
X148898795Y-140503977D01*
X148736148Y-140110341D01*
X148435243Y-139808911D01*
X148041892Y-139645577D01*
X147615977Y-139645205D01*
X147222341Y-139807852D01*
X146920911Y-140108757D01*
X146757577Y-140502108D01*
X146757205Y-140928023D01*
X137214424Y-140928023D01*
X137214795Y-140503977D01*
X137052148Y-140110341D01*
X136751243Y-139808911D01*
X136357892Y-139645577D01*
X135931977Y-139645205D01*
X135538341Y-139807852D01*
X135236911Y-140108757D01*
X135073577Y-140502108D01*
X135073205Y-140928023D01*
X127392500Y-140928023D01*
X127392500Y-139700000D01*
X128349627Y-139700000D01*
X128438498Y-140146783D01*
X128691580Y-140525547D01*
X129070344Y-140778629D01*
X129517127Y-140867500D01*
X129562873Y-140867500D01*
X130009656Y-140778629D01*
X130388420Y-140525547D01*
X130641502Y-140146783D01*
X130730373Y-139700000D01*
X130641502Y-139253217D01*
X130388420Y-138874453D01*
X130009656Y-138621371D01*
X129562873Y-138532500D01*
X129517127Y-138532500D01*
X129070344Y-138621371D01*
X128691580Y-138874453D01*
X128438498Y-139253217D01*
X128349627Y-139700000D01*
X127392500Y-139700000D01*
X127392500Y-138388023D01*
X132533205Y-138388023D01*
X132695852Y-138781659D01*
X132996757Y-139083089D01*
X133390108Y-139246423D01*
X133816023Y-139246795D01*
X134209659Y-139084148D01*
X134511089Y-138783243D01*
X134674423Y-138389892D01*
X134674424Y-138388023D01*
X137613205Y-138388023D01*
X137775852Y-138781659D01*
X138076757Y-139083089D01*
X138470108Y-139246423D01*
X138896023Y-139246795D01*
X139289659Y-139084148D01*
X139591089Y-138783243D01*
X139754423Y-138389892D01*
X139754424Y-138388023D01*
X144217205Y-138388023D01*
X144379852Y-138781659D01*
X144680757Y-139083089D01*
X145074108Y-139246423D01*
X145500023Y-139246795D01*
X145893659Y-139084148D01*
X146195089Y-138783243D01*
X146358423Y-138389892D01*
X146358424Y-138388023D01*
X149297205Y-138388023D01*
X149459852Y-138781659D01*
X149760757Y-139083089D01*
X150154108Y-139246423D01*
X150580023Y-139246795D01*
X150973659Y-139084148D01*
X151275089Y-138783243D01*
X151438423Y-138389892D01*
X151438424Y-138388023D01*
X155901205Y-138388023D01*
X156063852Y-138781659D01*
X156364757Y-139083089D01*
X156758108Y-139246423D01*
X157184023Y-139246795D01*
X157577659Y-139084148D01*
X157879089Y-138783243D01*
X158042423Y-138389892D01*
X158042424Y-138388023D01*
X160981205Y-138388023D01*
X161143852Y-138781659D01*
X161444757Y-139083089D01*
X161838108Y-139246423D01*
X162264023Y-139246795D01*
X162657659Y-139084148D01*
X162959089Y-138783243D01*
X163122423Y-138389892D01*
X163122424Y-138388023D01*
X167585205Y-138388023D01*
X167747852Y-138781659D01*
X168048757Y-139083089D01*
X168442108Y-139246423D01*
X168868023Y-139246795D01*
X169261659Y-139084148D01*
X169563089Y-138783243D01*
X169726423Y-138389892D01*
X169726424Y-138388023D01*
X172665205Y-138388023D01*
X172827852Y-138781659D01*
X173128757Y-139083089D01*
X173522108Y-139246423D01*
X173948023Y-139246795D01*
X174341659Y-139084148D01*
X174643089Y-138783243D01*
X174806423Y-138389892D01*
X174806795Y-137963977D01*
X174644148Y-137570341D01*
X174343243Y-137268911D01*
X174080957Y-137160000D01*
X176609627Y-137160000D01*
X176698498Y-137606783D01*
X176951580Y-137985547D01*
X177330344Y-138238629D01*
X177777127Y-138327500D01*
X177822873Y-138327500D01*
X178269656Y-138238629D01*
X178648420Y-137985547D01*
X178901502Y-137606783D01*
X178990373Y-137160000D01*
X178901502Y-136713217D01*
X178648420Y-136334453D01*
X178269656Y-136081371D01*
X177822873Y-135992500D01*
X177777127Y-135992500D01*
X177330344Y-136081371D01*
X176951580Y-136334453D01*
X176698498Y-136713217D01*
X176609627Y-137160000D01*
X174080957Y-137160000D01*
X173949892Y-137105577D01*
X173523977Y-137105205D01*
X173130341Y-137267852D01*
X172828911Y-137568757D01*
X172665577Y-137962108D01*
X172665205Y-138388023D01*
X169726424Y-138388023D01*
X169726795Y-137963977D01*
X169564148Y-137570341D01*
X169263243Y-137268911D01*
X168869892Y-137105577D01*
X168443977Y-137105205D01*
X168050341Y-137267852D01*
X167748911Y-137568757D01*
X167585577Y-137962108D01*
X167585205Y-138388023D01*
X163122424Y-138388023D01*
X163122795Y-137963977D01*
X162960148Y-137570341D01*
X162659243Y-137268911D01*
X162265892Y-137105577D01*
X161839977Y-137105205D01*
X161446341Y-137267852D01*
X161144911Y-137568757D01*
X160981577Y-137962108D01*
X160981205Y-138388023D01*
X158042424Y-138388023D01*
X158042795Y-137963977D01*
X157880148Y-137570341D01*
X157579243Y-137268911D01*
X157185892Y-137105577D01*
X156759977Y-137105205D01*
X156366341Y-137267852D01*
X156064911Y-137568757D01*
X155901577Y-137962108D01*
X155901205Y-138388023D01*
X151438424Y-138388023D01*
X151438795Y-137963977D01*
X151276148Y-137570341D01*
X150975243Y-137268911D01*
X150581892Y-137105577D01*
X150155977Y-137105205D01*
X149762341Y-137267852D01*
X149460911Y-137568757D01*
X149297577Y-137962108D01*
X149297205Y-138388023D01*
X146358424Y-138388023D01*
X146358795Y-137963977D01*
X146196148Y-137570341D01*
X145895243Y-137268911D01*
X145501892Y-137105577D01*
X145075977Y-137105205D01*
X144682341Y-137267852D01*
X144380911Y-137568757D01*
X144217577Y-137962108D01*
X144217205Y-138388023D01*
X139754424Y-138388023D01*
X139754795Y-137963977D01*
X139592148Y-137570341D01*
X139291243Y-137268911D01*
X138897892Y-137105577D01*
X138471977Y-137105205D01*
X138078341Y-137267852D01*
X137776911Y-137568757D01*
X137613577Y-137962108D01*
X137613205Y-138388023D01*
X134674424Y-138388023D01*
X134674795Y-137963977D01*
X134512148Y-137570341D01*
X134211243Y-137268911D01*
X133817892Y-137105577D01*
X133391977Y-137105205D01*
X132998341Y-137267852D01*
X132696911Y-137568757D01*
X132533577Y-137962108D01*
X132533205Y-138388023D01*
X127392500Y-138388023D01*
X127392500Y-137160000D01*
X128349627Y-137160000D01*
X128438498Y-137606783D01*
X128691580Y-137985547D01*
X129070344Y-138238629D01*
X129517127Y-138327500D01*
X129562873Y-138327500D01*
X130009656Y-138238629D01*
X130388420Y-137985547D01*
X130641502Y-137606783D01*
X130730373Y-137160000D01*
X130641502Y-136713217D01*
X130388420Y-136334453D01*
X130009656Y-136081371D01*
X129562873Y-135992500D01*
X129517127Y-135992500D01*
X129070344Y-136081371D01*
X128691580Y-136334453D01*
X128438498Y-136713217D01*
X128349627Y-137160000D01*
X127392500Y-137160000D01*
X127392500Y-134620000D01*
X128349627Y-134620000D01*
X128438498Y-135066783D01*
X128691580Y-135445547D01*
X129070344Y-135698629D01*
X129517127Y-135787500D01*
X129562873Y-135787500D01*
X130009656Y-135698629D01*
X130388420Y-135445547D01*
X130641502Y-135066783D01*
X130730373Y-134620000D01*
X176609627Y-134620000D01*
X176698498Y-135066783D01*
X176951580Y-135445547D01*
X177330344Y-135698629D01*
X177777127Y-135787500D01*
X177822873Y-135787500D01*
X178269656Y-135698629D01*
X178648420Y-135445547D01*
X178901502Y-135066783D01*
X178990373Y-134620000D01*
X178901502Y-134173217D01*
X178648420Y-133794453D01*
X178269656Y-133541371D01*
X177822873Y-133452500D01*
X177777127Y-133452500D01*
X177330344Y-133541371D01*
X176951580Y-133794453D01*
X176698498Y-134173217D01*
X176609627Y-134620000D01*
X130730373Y-134620000D01*
X130641502Y-134173217D01*
X130388420Y-133794453D01*
X130009656Y-133541371D01*
X129562873Y-133452500D01*
X129517127Y-133452500D01*
X129070344Y-133541371D01*
X128691580Y-133794453D01*
X128438498Y-134173217D01*
X128349627Y-134620000D01*
X127392500Y-134620000D01*
X127392500Y-132080000D01*
X128349627Y-132080000D01*
X128438498Y-132526783D01*
X128691580Y-132905547D01*
X129070344Y-133158629D01*
X129517127Y-133247500D01*
X129562873Y-133247500D01*
X130009656Y-133158629D01*
X130388420Y-132905547D01*
X130641502Y-132526783D01*
X130730373Y-132080000D01*
X176609627Y-132080000D01*
X176698498Y-132526783D01*
X176951580Y-132905547D01*
X177330344Y-133158629D01*
X177777127Y-133247500D01*
X177822873Y-133247500D01*
X178269656Y-133158629D01*
X178648420Y-132905547D01*
X178901502Y-132526783D01*
X178990373Y-132080000D01*
X178901502Y-131633217D01*
X178648420Y-131254453D01*
X178269656Y-131001371D01*
X177822873Y-130912500D01*
X177777127Y-130912500D01*
X177330344Y-131001371D01*
X176951580Y-131254453D01*
X176698498Y-131633217D01*
X176609627Y-132080000D01*
X130730373Y-132080000D01*
X130641502Y-131633217D01*
X130388420Y-131254453D01*
X130009656Y-131001371D01*
X129562873Y-130912500D01*
X129517127Y-130912500D01*
X129070344Y-131001371D01*
X128691580Y-131254453D01*
X128438498Y-131633217D01*
X128349627Y-132080000D01*
X127392500Y-132080000D01*
X127392500Y-129540000D01*
X128349627Y-129540000D01*
X128438498Y-129986783D01*
X128691580Y-130365547D01*
X129070344Y-130618629D01*
X129517127Y-130707500D01*
X129562873Y-130707500D01*
X130009656Y-130618629D01*
X130388420Y-130365547D01*
X130641502Y-129986783D01*
X130730373Y-129540000D01*
X176609627Y-129540000D01*
X176698498Y-129986783D01*
X176951580Y-130365547D01*
X177330344Y-130618629D01*
X177777127Y-130707500D01*
X177822873Y-130707500D01*
X178269656Y-130618629D01*
X178648420Y-130365547D01*
X178901502Y-129986783D01*
X178990373Y-129540000D01*
X178901502Y-129093217D01*
X178648420Y-128714453D01*
X178269656Y-128461371D01*
X177822873Y-128372500D01*
X177777127Y-128372500D01*
X177330344Y-128461371D01*
X176951580Y-128714453D01*
X176698498Y-129093217D01*
X176609627Y-129540000D01*
X130730373Y-129540000D01*
X130641502Y-129093217D01*
X130388420Y-128714453D01*
X130009656Y-128461371D01*
X129562873Y-128372500D01*
X129517127Y-128372500D01*
X129070344Y-128461371D01*
X128691580Y-128714453D01*
X128438498Y-129093217D01*
X128349627Y-129540000D01*
X127392500Y-129540000D01*
X127392500Y-126150000D01*
X128366280Y-126150000D01*
X128366280Y-127850000D01*
X128388419Y-127967658D01*
X128457955Y-128075721D01*
X128564055Y-128148215D01*
X128690000Y-128173720D01*
X130390000Y-128173720D01*
X130507658Y-128151581D01*
X130615721Y-128082045D01*
X130688215Y-127975945D01*
X130713720Y-127850000D01*
X130713720Y-127000000D01*
X176609627Y-127000000D01*
X176698498Y-127446783D01*
X176951580Y-127825547D01*
X177330344Y-128078629D01*
X177777127Y-128167500D01*
X177822873Y-128167500D01*
X178269656Y-128078629D01*
X178648420Y-127825547D01*
X178901502Y-127446783D01*
X178990373Y-127000000D01*
X178901502Y-126553217D01*
X178648420Y-126174453D01*
X178269656Y-125921371D01*
X177822873Y-125832500D01*
X177777127Y-125832500D01*
X177330344Y-125921371D01*
X176951580Y-126174453D01*
X176698498Y-126553217D01*
X176609627Y-127000000D01*
X130713720Y-127000000D01*
X130713720Y-126150000D01*
X130691581Y-126032342D01*
X130622045Y-125924279D01*
X130515945Y-125851785D01*
X130390000Y-125826280D01*
X128690000Y-125826280D01*
X128572342Y-125848419D01*
X128464279Y-125917955D01*
X128391785Y-126024055D01*
X128366280Y-126150000D01*
X127392500Y-126150000D01*
X127392500Y-124460000D01*
X176609627Y-124460000D01*
X176698498Y-124906783D01*
X176951580Y-125285547D01*
X177330344Y-125538629D01*
X177777127Y-125627500D01*
X177822873Y-125627500D01*
X178269656Y-125538629D01*
X178648420Y-125285547D01*
X178901502Y-124906783D01*
X178990373Y-124460000D01*
X178901502Y-124013217D01*
X178648420Y-123634453D01*
X178269656Y-123381371D01*
X177822873Y-123292500D01*
X177777127Y-123292500D01*
X177330344Y-123381371D01*
X176951580Y-123634453D01*
X176698498Y-124013217D01*
X176609627Y-124460000D01*
X127392500Y-124460000D01*
X127392500Y-121920000D01*
X128349627Y-121920000D01*
X128438498Y-122366783D01*
X128691580Y-122745547D01*
X129070344Y-122998629D01*
X129517127Y-123087500D01*
X129562873Y-123087500D01*
X130009656Y-122998629D01*
X130388420Y-122745547D01*
X130641502Y-122366783D01*
X130730373Y-121920000D01*
X130641502Y-121473217D01*
X130388420Y-121094453D01*
X130161755Y-120943000D01*
X136049780Y-120943000D01*
X136049780Y-122643000D01*
X136071919Y-122760658D01*
X136141455Y-122868721D01*
X136247555Y-122941215D01*
X136373500Y-122966720D01*
X138073500Y-122966720D01*
X138191158Y-122944581D01*
X138299221Y-122875045D01*
X138371715Y-122768945D01*
X138397220Y-122643000D01*
X138397220Y-120943000D01*
X147924280Y-120943000D01*
X147924280Y-122643000D01*
X147946419Y-122760658D01*
X148015955Y-122868721D01*
X148122055Y-122941215D01*
X148248000Y-122966720D01*
X149948000Y-122966720D01*
X150065658Y-122944581D01*
X150173721Y-122875045D01*
X150246215Y-122768945D01*
X150271720Y-122643000D01*
X150271720Y-120943000D01*
X159608280Y-120943000D01*
X159608280Y-122643000D01*
X159630419Y-122760658D01*
X159699955Y-122868721D01*
X159806055Y-122941215D01*
X159932000Y-122966720D01*
X161632000Y-122966720D01*
X161749658Y-122944581D01*
X161857721Y-122875045D01*
X161930215Y-122768945D01*
X161955720Y-122643000D01*
X161955720Y-120943000D01*
X171292280Y-120943000D01*
X171292280Y-122643000D01*
X171314419Y-122760658D01*
X171383955Y-122868721D01*
X171490055Y-122941215D01*
X171616000Y-122966720D01*
X173316000Y-122966720D01*
X173433658Y-122944581D01*
X173541721Y-122875045D01*
X173614215Y-122768945D01*
X173639720Y-122643000D01*
X173639720Y-121070000D01*
X176626280Y-121070000D01*
X176626280Y-122770000D01*
X176648419Y-122887658D01*
X176717955Y-122995721D01*
X176824055Y-123068215D01*
X176950000Y-123093720D01*
X178650000Y-123093720D01*
X178767658Y-123071581D01*
X178875721Y-123002045D01*
X178948215Y-122895945D01*
X178973720Y-122770000D01*
X178973720Y-121070000D01*
X178951581Y-120952342D01*
X178882045Y-120844279D01*
X178775945Y-120771785D01*
X178650000Y-120746280D01*
X176950000Y-120746280D01*
X176832342Y-120768419D01*
X176724279Y-120837955D01*
X176651785Y-120944055D01*
X176626280Y-121070000D01*
X173639720Y-121070000D01*
X173639720Y-120943000D01*
X173617581Y-120825342D01*
X173548045Y-120717279D01*
X173441945Y-120644785D01*
X173316000Y-120619280D01*
X171616000Y-120619280D01*
X171498342Y-120641419D01*
X171390279Y-120710955D01*
X171317785Y-120817055D01*
X171292280Y-120943000D01*
X161955720Y-120943000D01*
X161933581Y-120825342D01*
X161864045Y-120717279D01*
X161757945Y-120644785D01*
X161632000Y-120619280D01*
X159932000Y-120619280D01*
X159814342Y-120641419D01*
X159706279Y-120710955D01*
X159633785Y-120817055D01*
X159608280Y-120943000D01*
X150271720Y-120943000D01*
X150249581Y-120825342D01*
X150180045Y-120717279D01*
X150073945Y-120644785D01*
X149948000Y-120619280D01*
X148248000Y-120619280D01*
X148130342Y-120641419D01*
X148022279Y-120710955D01*
X147949785Y-120817055D01*
X147924280Y-120943000D01*
X138397220Y-120943000D01*
X138375081Y-120825342D01*
X138305545Y-120717279D01*
X138199445Y-120644785D01*
X138073500Y-120619280D01*
X136373500Y-120619280D01*
X136255842Y-120641419D01*
X136147779Y-120710955D01*
X136075285Y-120817055D01*
X136049780Y-120943000D01*
X130161755Y-120943000D01*
X130009656Y-120841371D01*
X129562873Y-120752500D01*
X129517127Y-120752500D01*
X129070344Y-120841371D01*
X128691580Y-121094453D01*
X128438498Y-121473217D01*
X128349627Y-121920000D01*
X127392500Y-121920000D01*
X127392500Y-119380000D01*
X128349627Y-119380000D01*
X128438498Y-119826783D01*
X128691580Y-120205547D01*
X129070344Y-120458629D01*
X129517127Y-120547500D01*
X129562873Y-120547500D01*
X130009656Y-120458629D01*
X130388420Y-120205547D01*
X130641502Y-119826783D01*
X130730373Y-119380000D01*
X130641502Y-118933217D01*
X130388420Y-118554453D01*
X130009656Y-118301371D01*
X129562873Y-118212500D01*
X129517127Y-118212500D01*
X129070344Y-118301371D01*
X128691580Y-118554453D01*
X128438498Y-118933217D01*
X128349627Y-119380000D01*
X127392500Y-119380000D01*
X127392500Y-116840000D01*
X128349627Y-116840000D01*
X128438498Y-117286783D01*
X128691580Y-117665547D01*
X129070344Y-117918629D01*
X129517127Y-118007500D01*
X129562873Y-118007500D01*
X130009656Y-117918629D01*
X130103386Y-117856000D01*
X176609627Y-117856000D01*
X176698498Y-118302783D01*
X176951580Y-118681547D01*
X177330344Y-118934629D01*
X177777127Y-119023500D01*
X177822873Y-119023500D01*
X178269656Y-118934629D01*
X178648420Y-118681547D01*
X178901502Y-118302783D01*
X178990373Y-117856000D01*
X178901502Y-117409217D01*
X178648420Y-117030453D01*
X178269656Y-116777371D01*
X177822873Y-116688500D01*
X177777127Y-116688500D01*
X177330344Y-116777371D01*
X176951580Y-117030453D01*
X176698498Y-117409217D01*
X176609627Y-117856000D01*
X130103386Y-117856000D01*
X130388420Y-117665547D01*
X130641502Y-117286783D01*
X130730373Y-116840000D01*
X130641502Y-116393217D01*
X130388420Y-116014453D01*
X130009656Y-115761371D01*
X129562873Y-115672500D01*
X129517127Y-115672500D01*
X129070344Y-115761371D01*
X128691580Y-116014453D01*
X128438498Y-116393217D01*
X128349627Y-116840000D01*
X127392500Y-116840000D01*
X127392500Y-115316000D01*
X176609627Y-115316000D01*
X176698498Y-115762783D01*
X176951580Y-116141547D01*
X177330344Y-116394629D01*
X177777127Y-116483500D01*
X177822873Y-116483500D01*
X178269656Y-116394629D01*
X178648420Y-116141547D01*
X178901502Y-115762783D01*
X178990373Y-115316000D01*
X178901502Y-114869217D01*
X178648420Y-114490453D01*
X178269656Y-114237371D01*
X177822873Y-114148500D01*
X177777127Y-114148500D01*
X177330344Y-114237371D01*
X176951580Y-114490453D01*
X176698498Y-114869217D01*
X176609627Y-115316000D01*
X127392500Y-115316000D01*
X127392500Y-111760000D01*
X128349627Y-111760000D01*
X128438498Y-112206783D01*
X128691580Y-112585547D01*
X129070344Y-112838629D01*
X129517127Y-112927500D01*
X129562873Y-112927500D01*
X130009656Y-112838629D01*
X130103386Y-112776000D01*
X176609627Y-112776000D01*
X176698498Y-113222783D01*
X176951580Y-113601547D01*
X177330344Y-113854629D01*
X177777127Y-113943500D01*
X177822873Y-113943500D01*
X178269656Y-113854629D01*
X178648420Y-113601547D01*
X178901502Y-113222783D01*
X178990373Y-112776000D01*
X178901502Y-112329217D01*
X178648420Y-111950453D01*
X178269656Y-111697371D01*
X177822873Y-111608500D01*
X177777127Y-111608500D01*
X177330344Y-111697371D01*
X176951580Y-111950453D01*
X176698498Y-112329217D01*
X176609627Y-112776000D01*
X130103386Y-112776000D01*
X130388420Y-112585547D01*
X130641502Y-112206783D01*
X130730373Y-111760000D01*
X130641502Y-111313217D01*
X130388420Y-110934453D01*
X130009656Y-110681371D01*
X129562873Y-110592500D01*
X129517127Y-110592500D01*
X129070344Y-110681371D01*
X128691580Y-110934453D01*
X128438498Y-111313217D01*
X128349627Y-111760000D01*
X127392500Y-111760000D01*
X127392500Y-109220000D01*
X128349627Y-109220000D01*
X128438498Y-109666783D01*
X128691580Y-110045547D01*
X129070344Y-110298629D01*
X129517127Y-110387500D01*
X129562873Y-110387500D01*
X130009656Y-110298629D01*
X130103386Y-110236000D01*
X176609627Y-110236000D01*
X176698498Y-110682783D01*
X176951580Y-111061547D01*
X177330344Y-111314629D01*
X177777127Y-111403500D01*
X177822873Y-111403500D01*
X178269656Y-111314629D01*
X178648420Y-111061547D01*
X178901502Y-110682783D01*
X178990373Y-110236000D01*
X178901502Y-109789217D01*
X178648420Y-109410453D01*
X178269656Y-109157371D01*
X177822873Y-109068500D01*
X177777127Y-109068500D01*
X177330344Y-109157371D01*
X176951580Y-109410453D01*
X176698498Y-109789217D01*
X176609627Y-110236000D01*
X130103386Y-110236000D01*
X130388420Y-110045547D01*
X130641502Y-109666783D01*
X130730373Y-109220000D01*
X130641502Y-108773217D01*
X130388420Y-108394453D01*
X130009656Y-108141371D01*
X129562873Y-108052500D01*
X129517127Y-108052500D01*
X129070344Y-108141371D01*
X128691580Y-108394453D01*
X128438498Y-108773217D01*
X128349627Y-109220000D01*
X127392500Y-109220000D01*
X127392500Y-106680000D01*
X128349627Y-106680000D01*
X128438498Y-107126783D01*
X128691580Y-107505547D01*
X129070344Y-107758629D01*
X129517127Y-107847500D01*
X129562873Y-107847500D01*
X130009656Y-107758629D01*
X130103386Y-107696000D01*
X176609627Y-107696000D01*
X176698498Y-108142783D01*
X176951580Y-108521547D01*
X177330344Y-108774629D01*
X177777127Y-108863500D01*
X177822873Y-108863500D01*
X178269656Y-108774629D01*
X178648420Y-108521547D01*
X178901502Y-108142783D01*
X178990373Y-107696000D01*
X178901502Y-107249217D01*
X178648420Y-106870453D01*
X178269656Y-106617371D01*
X177822873Y-106528500D01*
X177777127Y-106528500D01*
X177330344Y-106617371D01*
X176951580Y-106870453D01*
X176698498Y-107249217D01*
X176609627Y-107696000D01*
X130103386Y-107696000D01*
X130388420Y-107505547D01*
X130641502Y-107126783D01*
X130730373Y-106680000D01*
X130641502Y-106233217D01*
X130388420Y-105854453D01*
X130009656Y-105601371D01*
X129562873Y-105512500D01*
X129517127Y-105512500D01*
X129070344Y-105601371D01*
X128691580Y-105854453D01*
X128438498Y-106233217D01*
X128349627Y-106680000D01*
X127392500Y-106680000D01*
X127392500Y-103290000D01*
X128366280Y-103290000D01*
X128366280Y-104990000D01*
X128388419Y-105107658D01*
X128457955Y-105215721D01*
X128564055Y-105288215D01*
X128690000Y-105313720D01*
X130390000Y-105313720D01*
X130507658Y-105291581D01*
X130615721Y-105222045D01*
X130660846Y-105156000D01*
X176609627Y-105156000D01*
X176698498Y-105602783D01*
X176951580Y-105981547D01*
X177330344Y-106234629D01*
X177777127Y-106323500D01*
X177822873Y-106323500D01*
X178269656Y-106234629D01*
X178648420Y-105981547D01*
X178901502Y-105602783D01*
X178990373Y-105156000D01*
X178901502Y-104709217D01*
X178648420Y-104330453D01*
X178269656Y-104077371D01*
X177822873Y-103988500D01*
X177777127Y-103988500D01*
X177330344Y-104077371D01*
X176951580Y-104330453D01*
X176698498Y-104709217D01*
X176609627Y-105156000D01*
X130660846Y-105156000D01*
X130688215Y-105115945D01*
X130713720Y-104990000D01*
X130713720Y-103290000D01*
X130691581Y-103172342D01*
X130622045Y-103064279D01*
X130515945Y-102991785D01*
X130390000Y-102966280D01*
X128690000Y-102966280D01*
X128572342Y-102988419D01*
X128464279Y-103057955D01*
X128391785Y-103164055D01*
X128366280Y-103290000D01*
X127392500Y-103290000D01*
X127392500Y-102616000D01*
X176609627Y-102616000D01*
X176698498Y-103062783D01*
X176951580Y-103441547D01*
X177330344Y-103694629D01*
X177777127Y-103783500D01*
X177822873Y-103783500D01*
X178269656Y-103694629D01*
X178648420Y-103441547D01*
X178901502Y-103062783D01*
X178990373Y-102616000D01*
X178901502Y-102169217D01*
X178648420Y-101790453D01*
X178269656Y-101537371D01*
X177822873Y-101448500D01*
X177777127Y-101448500D01*
X177330344Y-101537371D01*
X176951580Y-101790453D01*
X176698498Y-102169217D01*
X176609627Y-102616000D01*
X127392500Y-102616000D01*
X127392500Y-99686210D01*
X172122997Y-99686210D01*
X172213678Y-99905675D01*
X172381442Y-100073732D01*
X172600748Y-100164796D01*
X172838210Y-100165003D01*
X173053613Y-100076000D01*
X176609627Y-100076000D01*
X176698498Y-100522783D01*
X176951580Y-100901547D01*
X177330344Y-101154629D01*
X177777127Y-101243500D01*
X177822873Y-101243500D01*
X178269656Y-101154629D01*
X178648420Y-100901547D01*
X178901502Y-100522783D01*
X178990373Y-100076000D01*
X178901502Y-99629217D01*
X178648420Y-99250453D01*
X178269656Y-98997371D01*
X177822873Y-98908500D01*
X177777127Y-98908500D01*
X177330344Y-98997371D01*
X176951580Y-99250453D01*
X176698498Y-99629217D01*
X176609627Y-100076000D01*
X173053613Y-100076000D01*
X173057675Y-100074322D01*
X173225732Y-99906558D01*
X173316796Y-99687252D01*
X173317003Y-99449790D01*
X173226322Y-99230325D01*
X173058558Y-99062268D01*
X172839252Y-98971204D01*
X172601790Y-98970997D01*
X172382325Y-99061678D01*
X172214268Y-99229442D01*
X172123204Y-99448748D01*
X172122997Y-99686210D01*
X127392500Y-99686210D01*
X127392500Y-97536000D01*
X176609627Y-97536000D01*
X176698498Y-97982783D01*
X176951580Y-98361547D01*
X177330344Y-98614629D01*
X177777127Y-98703500D01*
X177822873Y-98703500D01*
X178269656Y-98614629D01*
X178648420Y-98361547D01*
X178901502Y-97982783D01*
X178990373Y-97536000D01*
X178901502Y-97089217D01*
X178648420Y-96710453D01*
X178269656Y-96457371D01*
X177822873Y-96368500D01*
X177777127Y-96368500D01*
X177330344Y-96457371D01*
X176951580Y-96710453D01*
X176698498Y-97089217D01*
X176609627Y-97536000D01*
X127392500Y-97536000D01*
X127392500Y-94146000D01*
X176626280Y-94146000D01*
X176626280Y-95846000D01*
X176648419Y-95963658D01*
X176717955Y-96071721D01*
X176824055Y-96144215D01*
X176950000Y-96169720D01*
X178650000Y-96169720D01*
X178767658Y-96147581D01*
X178875721Y-96078045D01*
X178948215Y-95971945D01*
X178973720Y-95846000D01*
X178973720Y-94146000D01*
X178951581Y-94028342D01*
X178882045Y-93920279D01*
X178775945Y-93847785D01*
X178650000Y-93822280D01*
X176950000Y-93822280D01*
X176832342Y-93844419D01*
X176724279Y-93913955D01*
X176651785Y-94020055D01*
X176626280Y-94146000D01*
X127392500Y-94146000D01*
X127392500Y-92701210D01*
X165772997Y-92701210D01*
X165863678Y-92920675D01*
X166031442Y-93088732D01*
X166250748Y-93179796D01*
X166488210Y-93180003D01*
X166707675Y-93089322D01*
X166875732Y-92921558D01*
X166966796Y-92702252D01*
X166967003Y-92464790D01*
X166876322Y-92245325D01*
X166708558Y-92077268D01*
X166489252Y-91986204D01*
X166251790Y-91985997D01*
X166032325Y-92076678D01*
X165864268Y-92244442D01*
X165773204Y-92463748D01*
X165772997Y-92701210D01*
X127392500Y-92701210D01*
X127392500Y-91050210D01*
X174662997Y-91050210D01*
X174753678Y-91269675D01*
X174921442Y-91437732D01*
X175140748Y-91528796D01*
X175378210Y-91529003D01*
X175597675Y-91438322D01*
X175765732Y-91270558D01*
X175856796Y-91051252D01*
X175857003Y-90813790D01*
X175766322Y-90594325D01*
X175598558Y-90426268D01*
X175379252Y-90335204D01*
X175141790Y-90334997D01*
X174922325Y-90425678D01*
X174754268Y-90593442D01*
X174663204Y-90812748D01*
X174662997Y-91050210D01*
X127392500Y-91050210D01*
X127392500Y-89018210D01*
X166534997Y-89018210D01*
X166625678Y-89237675D01*
X166793442Y-89405732D01*
X167012748Y-89496796D01*
X167250210Y-89497003D01*
X167469675Y-89406322D01*
X167637732Y-89238558D01*
X167728796Y-89019252D01*
X167729003Y-88781790D01*
X167638322Y-88562325D01*
X167470558Y-88394268D01*
X167251252Y-88303204D01*
X167013790Y-88302997D01*
X166794325Y-88393678D01*
X166626268Y-88561442D01*
X166535204Y-88780748D01*
X166534997Y-89018210D01*
X127392500Y-89018210D01*
X127392500Y-86605210D01*
X147611997Y-86605210D01*
X147702678Y-86824675D01*
X147870442Y-86992732D01*
X148089748Y-87083796D01*
X148327210Y-87084003D01*
X148546675Y-86993322D01*
X148714732Y-86825558D01*
X148805796Y-86606252D01*
X148806003Y-86368790D01*
X148715322Y-86149325D01*
X148547558Y-85981268D01*
X148328252Y-85890204D01*
X148090790Y-85889997D01*
X147871325Y-85980678D01*
X147703268Y-86148442D01*
X147612204Y-86367748D01*
X147611997Y-86605210D01*
X127392500Y-86605210D01*
X127392500Y-79459294D01*
X127571093Y-79459294D01*
X127928030Y-80323146D01*
X128588378Y-80984647D01*
X129451605Y-81343091D01*
X130386294Y-81343907D01*
X131250146Y-80986970D01*
X131299201Y-80938000D01*
X132684280Y-80938000D01*
X132684280Y-82638000D01*
X132706419Y-82755658D01*
X132775955Y-82863721D01*
X132882055Y-82936215D01*
X133008000Y-82961720D01*
X134708000Y-82961720D01*
X134825658Y-82939581D01*
X134933721Y-82870045D01*
X135006215Y-82763945D01*
X135031720Y-82638000D01*
X135031720Y-80938000D01*
X136367280Y-80938000D01*
X136367280Y-82638000D01*
X136389419Y-82755658D01*
X136458955Y-82863721D01*
X136565055Y-82936215D01*
X136691000Y-82961720D01*
X138391000Y-82961720D01*
X138508658Y-82939581D01*
X138616721Y-82870045D01*
X138689215Y-82763945D01*
X138714720Y-82638000D01*
X138714720Y-80938000D01*
X140050280Y-80938000D01*
X140050280Y-82638000D01*
X140072419Y-82755658D01*
X140141955Y-82863721D01*
X140248055Y-82936215D01*
X140374000Y-82961720D01*
X142074000Y-82961720D01*
X142191658Y-82939581D01*
X142299721Y-82870045D01*
X142372215Y-82763945D01*
X142397720Y-82638000D01*
X142397720Y-80938000D01*
X143733280Y-80938000D01*
X143733280Y-82638000D01*
X143755419Y-82755658D01*
X143824955Y-82863721D01*
X143931055Y-82936215D01*
X144057000Y-82961720D01*
X145757000Y-82961720D01*
X145874658Y-82939581D01*
X145982721Y-82870045D01*
X146055215Y-82763945D01*
X146080720Y-82638000D01*
X146080720Y-80938000D01*
X147416280Y-80938000D01*
X147416280Y-82638000D01*
X147438419Y-82755658D01*
X147507955Y-82863721D01*
X147614055Y-82936215D01*
X147740000Y-82961720D01*
X149440000Y-82961720D01*
X149557658Y-82939581D01*
X149665721Y-82870045D01*
X149738215Y-82763945D01*
X149763720Y-82638000D01*
X149763720Y-80938000D01*
X151099280Y-80938000D01*
X151099280Y-82638000D01*
X151121419Y-82755658D01*
X151190955Y-82863721D01*
X151297055Y-82936215D01*
X151423000Y-82961720D01*
X153123000Y-82961720D01*
X153240658Y-82939581D01*
X153348721Y-82870045D01*
X153421215Y-82763945D01*
X153446720Y-82638000D01*
X153446720Y-80938000D01*
X154782280Y-80938000D01*
X154782280Y-82638000D01*
X154804419Y-82755658D01*
X154873955Y-82863721D01*
X154980055Y-82936215D01*
X155106000Y-82961720D01*
X156209904Y-82961720D01*
X158153151Y-84904966D01*
X158152997Y-85081210D01*
X158243678Y-85300675D01*
X158411442Y-85468732D01*
X158630748Y-85559796D01*
X158868210Y-85560003D01*
X159087675Y-85469322D01*
X159255732Y-85301558D01*
X159274649Y-85256000D01*
X162402280Y-85256000D01*
X162402280Y-86956000D01*
X162424419Y-87073658D01*
X162493955Y-87181721D01*
X162600055Y-87254215D01*
X162726000Y-87279720D01*
X164426000Y-87279720D01*
X164543658Y-87257581D01*
X164651721Y-87188045D01*
X164724215Y-87081945D01*
X164749720Y-86956000D01*
X164749720Y-85256000D01*
X164727581Y-85138342D01*
X164658045Y-85030279D01*
X164551945Y-84957785D01*
X164426000Y-84932280D01*
X162726000Y-84932280D01*
X162608342Y-84954419D01*
X162500279Y-85023955D01*
X162427785Y-85130055D01*
X162402280Y-85256000D01*
X159274649Y-85256000D01*
X159346796Y-85082252D01*
X159347003Y-84844790D01*
X159256322Y-84625325D01*
X159088558Y-84457268D01*
X158869252Y-84366204D01*
X158691864Y-84366049D01*
X157098348Y-82772532D01*
X157104215Y-82763945D01*
X157129720Y-82638000D01*
X157129720Y-80938000D01*
X158465280Y-80938000D01*
X158465280Y-82638000D01*
X158487419Y-82755658D01*
X158556955Y-82863721D01*
X158663055Y-82936215D01*
X158789000Y-82961720D01*
X160489000Y-82961720D01*
X160606658Y-82939581D01*
X160714721Y-82870045D01*
X160787215Y-82763945D01*
X160812720Y-82638000D01*
X160812720Y-81573000D01*
X162402280Y-81573000D01*
X162402280Y-83273000D01*
X162424419Y-83390658D01*
X162493955Y-83498721D01*
X162600055Y-83571215D01*
X162726000Y-83596720D01*
X164426000Y-83596720D01*
X164543658Y-83574581D01*
X164651721Y-83505045D01*
X164724215Y-83398945D01*
X164749720Y-83273000D01*
X164749720Y-81573000D01*
X164727581Y-81455342D01*
X164658045Y-81347279D01*
X164551945Y-81274785D01*
X164426000Y-81249280D01*
X162726000Y-81249280D01*
X162608342Y-81271419D01*
X162500279Y-81340955D01*
X162427785Y-81447055D01*
X162402280Y-81573000D01*
X160812720Y-81573000D01*
X160812720Y-80938000D01*
X160790581Y-80820342D01*
X160721045Y-80712279D01*
X160614945Y-80639785D01*
X160489000Y-80614280D01*
X158789000Y-80614280D01*
X158671342Y-80636419D01*
X158563279Y-80705955D01*
X158490785Y-80812055D01*
X158465280Y-80938000D01*
X157129720Y-80938000D01*
X157107581Y-80820342D01*
X157038045Y-80712279D01*
X156931945Y-80639785D01*
X156806000Y-80614280D01*
X155106000Y-80614280D01*
X154988342Y-80636419D01*
X154880279Y-80705955D01*
X154807785Y-80812055D01*
X154782280Y-80938000D01*
X153446720Y-80938000D01*
X153424581Y-80820342D01*
X153355045Y-80712279D01*
X153248945Y-80639785D01*
X153123000Y-80614280D01*
X151423000Y-80614280D01*
X151305342Y-80636419D01*
X151197279Y-80705955D01*
X151124785Y-80812055D01*
X151099280Y-80938000D01*
X149763720Y-80938000D01*
X149741581Y-80820342D01*
X149672045Y-80712279D01*
X149565945Y-80639785D01*
X149440000Y-80614280D01*
X147740000Y-80614280D01*
X147622342Y-80636419D01*
X147514279Y-80705955D01*
X147441785Y-80812055D01*
X147416280Y-80938000D01*
X146080720Y-80938000D01*
X146058581Y-80820342D01*
X145989045Y-80712279D01*
X145882945Y-80639785D01*
X145757000Y-80614280D01*
X144057000Y-80614280D01*
X143939342Y-80636419D01*
X143831279Y-80705955D01*
X143758785Y-80812055D01*
X143733280Y-80938000D01*
X142397720Y-80938000D01*
X142375581Y-80820342D01*
X142306045Y-80712279D01*
X142199945Y-80639785D01*
X142074000Y-80614280D01*
X140374000Y-80614280D01*
X140256342Y-80636419D01*
X140148279Y-80705955D01*
X140075785Y-80812055D01*
X140050280Y-80938000D01*
X138714720Y-80938000D01*
X138692581Y-80820342D01*
X138623045Y-80712279D01*
X138516945Y-80639785D01*
X138391000Y-80614280D01*
X136691000Y-80614280D01*
X136573342Y-80636419D01*
X136465279Y-80705955D01*
X136392785Y-80812055D01*
X136367280Y-80938000D01*
X135031720Y-80938000D01*
X135009581Y-80820342D01*
X134940045Y-80712279D01*
X134833945Y-80639785D01*
X134708000Y-80614280D01*
X133008000Y-80614280D01*
X132890342Y-80636419D01*
X132782279Y-80705955D01*
X132709785Y-80812055D01*
X132684280Y-80938000D01*
X131299201Y-80938000D01*
X131911647Y-80326622D01*
X132270091Y-79463395D01*
X132270907Y-78528706D01*
X131913970Y-77664854D01*
X131253622Y-77003353D01*
X130390395Y-76644909D01*
X129455706Y-76644093D01*
X128591854Y-77001030D01*
X127930353Y-77661378D01*
X127571909Y-78524605D01*
X127571093Y-79459294D01*
X127392500Y-79459294D01*
X127392500Y-76592500D01*
X174739207Y-76592500D01*
X174057854Y-76874030D01*
M02*
