G04 #@! TF.FileFunction,Copper,L2,Inr,Signal*
%FSLAX46Y46*%
G04 Gerber Fmt 4.6, Leading zero omitted, Abs format (unit mm)*
G04 Created by KiCad (PCBNEW 4.0.7) date 04/28/18 13:58:35*
%MOMM*%
%LPD*%
G01*
G04 APERTURE LIST*
%ADD10C,0.100000*%
%ADD11C,1.506220*%
%ADD12C,4.064000*%
%ADD13R,1.700000X1.700000*%
%ADD14O,1.700000X1.700000*%
%ADD15C,0.558800*%
%ADD16C,0.127000*%
G04 APERTURE END LIST*
D10*
D11*
X159512000Y-140716000D03*
X162052000Y-138176000D03*
X162052000Y-143256000D03*
X156972000Y-138176000D03*
X156972000Y-143256000D03*
D12*
X175387000Y-78867000D03*
D11*
X136144000Y-140716000D03*
X138684000Y-138176000D03*
X138684000Y-143256000D03*
X133604000Y-138176000D03*
X133604000Y-143256000D03*
X147828000Y-140716000D03*
X150368000Y-138176000D03*
X150368000Y-143256000D03*
X145288000Y-138176000D03*
X145288000Y-143256000D03*
X171196000Y-140716000D03*
X173736000Y-138176000D03*
X173736000Y-143256000D03*
X168656000Y-138176000D03*
X168656000Y-143256000D03*
D13*
X177800000Y-94996000D03*
D14*
X177800000Y-97536000D03*
X177800000Y-100076000D03*
X177800000Y-102616000D03*
X177800000Y-105156000D03*
X177800000Y-107696000D03*
X177800000Y-110236000D03*
X177800000Y-112776000D03*
X177800000Y-115316000D03*
X177800000Y-117856000D03*
D13*
X129540000Y-104140000D03*
D14*
X129540000Y-106680000D03*
X129540000Y-109220000D03*
X129540000Y-111760000D03*
X129540000Y-114300000D03*
X129540000Y-116840000D03*
X129540000Y-119380000D03*
X129540000Y-121920000D03*
D13*
X177800000Y-121920000D03*
D14*
X177800000Y-124460000D03*
X177800000Y-127000000D03*
X177800000Y-129540000D03*
X177800000Y-132080000D03*
X177800000Y-134620000D03*
X177800000Y-137160000D03*
X177800000Y-139700000D03*
D13*
X129540000Y-127000000D03*
D14*
X129540000Y-129540000D03*
X129540000Y-132080000D03*
X129540000Y-134620000D03*
X129540000Y-137160000D03*
X129540000Y-139700000D03*
D13*
X137223500Y-121793000D03*
X149098000Y-121793000D03*
X160782000Y-121793000D03*
X163576000Y-82423000D03*
X163576000Y-86106000D03*
X172466000Y-121793000D03*
X133858000Y-81788000D03*
X141224000Y-81788000D03*
X148590000Y-81788000D03*
X155956000Y-81788000D03*
X137541000Y-81788000D03*
X144907000Y-81788000D03*
X152273000Y-81788000D03*
X159639000Y-81788000D03*
D12*
X129921000Y-78994000D03*
D15*
X162560000Y-92710000D03*
X162560000Y-88900000D03*
X175260000Y-99060000D03*
X175260000Y-104140000D03*
X168910000Y-104140000D03*
X168910000Y-110490000D03*
X175260000Y-110490000D03*
X170180000Y-116840000D03*
X175260000Y-116840000D03*
X175260000Y-121920000D03*
X175260000Y-128270000D03*
X168910000Y-121920000D03*
X166370000Y-116840000D03*
X162560000Y-111760000D03*
X162560000Y-116840000D03*
X162560000Y-121920000D03*
X162560000Y-128270000D03*
X167640000Y-128270000D03*
X151130000Y-116840000D03*
X156210000Y-116840000D03*
X151130000Y-128270000D03*
X151130000Y-121920000D03*
X156210000Y-121920000D03*
X139700000Y-128270000D03*
X139700000Y-121920000D03*
X144780000Y-115570000D03*
X144780000Y-121920000D03*
X156210000Y-128270000D03*
X144780000Y-128270000D03*
X139700000Y-101600000D03*
X139700000Y-115570000D03*
X139700000Y-109220000D03*
X133350000Y-121920000D03*
X139700000Y-93980000D03*
X139700000Y-88900000D03*
X133350000Y-88900000D03*
X133350000Y-95250000D03*
X133350000Y-101600000D03*
X133350000Y-109220000D03*
X133350000Y-115570000D03*
X133350000Y-128270000D03*
X148209000Y-86487000D03*
X151892000Y-91313000D03*
X167132000Y-88900000D03*
X175260000Y-90932000D03*
X166370000Y-92583000D03*
X146558000Y-99949000D03*
X159766000Y-97917000D03*
X158369000Y-97282000D03*
X168275000Y-100203000D03*
X154432000Y-108204000D03*
X153416000Y-107950000D03*
X145415000Y-98044000D03*
X169291000Y-100838000D03*
X172720000Y-99568000D03*
X158369000Y-98552000D03*
X144907000Y-86233000D03*
X138557000Y-94488000D03*
X151892000Y-90424000D03*
X157226000Y-114046000D03*
X171958000Y-102108000D03*
X159131000Y-94488000D03*
X157734000Y-95504000D03*
X153670000Y-95504000D03*
X149987000Y-93853000D03*
X147701000Y-93853000D03*
X151235409Y-94667704D03*
X148209000Y-94488000D03*
D16*
X133350000Y-101600000D02*
X139700000Y-101600000D01*
X133350000Y-109220000D02*
X139700000Y-109220000D01*
X139700000Y-88900000D02*
X139700000Y-93980000D01*
X133350000Y-95250000D02*
X133350000Y-88900000D01*
X133350000Y-109220000D02*
X133350000Y-101600000D01*
X133350000Y-121920000D02*
X133350000Y-115570000D01*
X133350000Y-128270000D02*
X133350000Y-121920000D01*
X159766000Y-97917000D02*
X157734000Y-99949000D01*
X157734000Y-99949000D02*
X146558000Y-99949000D01*
X168275000Y-100203000D02*
X165354000Y-97282000D01*
X165354000Y-97282000D02*
X158369000Y-97282000D01*
X153416000Y-107950000D02*
X154178000Y-107950000D01*
X154178000Y-107950000D02*
X154432000Y-108204000D01*
X145567399Y-101117399D02*
X145415000Y-100965000D01*
X145415000Y-100965000D02*
X145415000Y-98044000D01*
X169291000Y-100838000D02*
X169011601Y-101117399D01*
X169011601Y-101117399D02*
X145567399Y-101117399D01*
X158369000Y-98552000D02*
X157861000Y-98044000D01*
X157861000Y-98044000D02*
X157861000Y-97028000D01*
X157861000Y-97028000D02*
X159131000Y-95758000D01*
X159131000Y-95758000D02*
X159131000Y-94488000D01*
X153670000Y-95504000D02*
X157734000Y-95504000D01*
X147701000Y-93853000D02*
X149987000Y-93853000D01*
X148668103Y-94947103D02*
X150956010Y-94947103D01*
X150956010Y-94947103D02*
X151235409Y-94667704D01*
X148209000Y-94488000D02*
X148668103Y-94947103D01*
G36*
X179947500Y-144387500D02*
X127392500Y-144387500D01*
X127392500Y-140928023D01*
X135073205Y-140928023D01*
X135235852Y-141321659D01*
X135536757Y-141623089D01*
X135930108Y-141786423D01*
X136356023Y-141786795D01*
X136749659Y-141624148D01*
X137051089Y-141323243D01*
X137214423Y-140929892D01*
X137214424Y-140928023D01*
X146757205Y-140928023D01*
X146919852Y-141321659D01*
X147220757Y-141623089D01*
X147614108Y-141786423D01*
X148040023Y-141786795D01*
X148433659Y-141624148D01*
X148735089Y-141323243D01*
X148898423Y-140929892D01*
X148898424Y-140928023D01*
X158441205Y-140928023D01*
X158603852Y-141321659D01*
X158904757Y-141623089D01*
X159298108Y-141786423D01*
X159724023Y-141786795D01*
X160117659Y-141624148D01*
X160419089Y-141323243D01*
X160582423Y-140929892D01*
X160582424Y-140928023D01*
X170125205Y-140928023D01*
X170287852Y-141321659D01*
X170588757Y-141623089D01*
X170982108Y-141786423D01*
X171408023Y-141786795D01*
X171801659Y-141624148D01*
X172103089Y-141323243D01*
X172266423Y-140929892D01*
X172266795Y-140503977D01*
X172104148Y-140110341D01*
X171803243Y-139808911D01*
X171540957Y-139700000D01*
X176609627Y-139700000D01*
X176698498Y-140146783D01*
X176951580Y-140525547D01*
X177330344Y-140778629D01*
X177777127Y-140867500D01*
X177822873Y-140867500D01*
X178269656Y-140778629D01*
X178648420Y-140525547D01*
X178901502Y-140146783D01*
X178990373Y-139700000D01*
X178901502Y-139253217D01*
X178648420Y-138874453D01*
X178269656Y-138621371D01*
X177822873Y-138532500D01*
X177777127Y-138532500D01*
X177330344Y-138621371D01*
X176951580Y-138874453D01*
X176698498Y-139253217D01*
X176609627Y-139700000D01*
X171540957Y-139700000D01*
X171409892Y-139645577D01*
X170983977Y-139645205D01*
X170590341Y-139807852D01*
X170288911Y-140108757D01*
X170125577Y-140502108D01*
X170125205Y-140928023D01*
X160582424Y-140928023D01*
X160582795Y-140503977D01*
X160420148Y-140110341D01*
X160119243Y-139808911D01*
X159725892Y-139645577D01*
X159299977Y-139645205D01*
X158906341Y-139807852D01*
X158604911Y-140108757D01*
X158441577Y-140502108D01*
X158441205Y-140928023D01*
X148898424Y-140928023D01*
X148898795Y-140503977D01*
X148736148Y-140110341D01*
X148435243Y-139808911D01*
X148041892Y-139645577D01*
X147615977Y-139645205D01*
X147222341Y-139807852D01*
X146920911Y-140108757D01*
X146757577Y-140502108D01*
X146757205Y-140928023D01*
X137214424Y-140928023D01*
X137214795Y-140503977D01*
X137052148Y-140110341D01*
X136751243Y-139808911D01*
X136357892Y-139645577D01*
X135931977Y-139645205D01*
X135538341Y-139807852D01*
X135236911Y-140108757D01*
X135073577Y-140502108D01*
X135073205Y-140928023D01*
X127392500Y-140928023D01*
X127392500Y-139700000D01*
X128349627Y-139700000D01*
X128438498Y-140146783D01*
X128691580Y-140525547D01*
X129070344Y-140778629D01*
X129517127Y-140867500D01*
X129562873Y-140867500D01*
X130009656Y-140778629D01*
X130388420Y-140525547D01*
X130641502Y-140146783D01*
X130730373Y-139700000D01*
X130641502Y-139253217D01*
X130388420Y-138874453D01*
X130009656Y-138621371D01*
X129562873Y-138532500D01*
X129517127Y-138532500D01*
X129070344Y-138621371D01*
X128691580Y-138874453D01*
X128438498Y-139253217D01*
X128349627Y-139700000D01*
X127392500Y-139700000D01*
X127392500Y-137160000D01*
X128349627Y-137160000D01*
X128438498Y-137606783D01*
X128691580Y-137985547D01*
X129070344Y-138238629D01*
X129517127Y-138327500D01*
X129562873Y-138327500D01*
X130009656Y-138238629D01*
X130388420Y-137985547D01*
X130641502Y-137606783D01*
X130730373Y-137160000D01*
X176609627Y-137160000D01*
X176698498Y-137606783D01*
X176951580Y-137985547D01*
X177330344Y-138238629D01*
X177777127Y-138327500D01*
X177822873Y-138327500D01*
X178269656Y-138238629D01*
X178648420Y-137985547D01*
X178901502Y-137606783D01*
X178990373Y-137160000D01*
X178901502Y-136713217D01*
X178648420Y-136334453D01*
X178269656Y-136081371D01*
X177822873Y-135992500D01*
X177777127Y-135992500D01*
X177330344Y-136081371D01*
X176951580Y-136334453D01*
X176698498Y-136713217D01*
X176609627Y-137160000D01*
X130730373Y-137160000D01*
X130641502Y-136713217D01*
X130388420Y-136334453D01*
X130009656Y-136081371D01*
X129562873Y-135992500D01*
X129517127Y-135992500D01*
X129070344Y-136081371D01*
X128691580Y-136334453D01*
X128438498Y-136713217D01*
X128349627Y-137160000D01*
X127392500Y-137160000D01*
X127392500Y-134620000D01*
X128349627Y-134620000D01*
X128438498Y-135066783D01*
X128691580Y-135445547D01*
X129070344Y-135698629D01*
X129517127Y-135787500D01*
X129562873Y-135787500D01*
X130009656Y-135698629D01*
X130388420Y-135445547D01*
X130641502Y-135066783D01*
X130730373Y-134620000D01*
X176609627Y-134620000D01*
X176698498Y-135066783D01*
X176951580Y-135445547D01*
X177330344Y-135698629D01*
X177777127Y-135787500D01*
X177822873Y-135787500D01*
X178269656Y-135698629D01*
X178648420Y-135445547D01*
X178901502Y-135066783D01*
X178990373Y-134620000D01*
X178901502Y-134173217D01*
X178648420Y-133794453D01*
X178269656Y-133541371D01*
X177822873Y-133452500D01*
X177777127Y-133452500D01*
X177330344Y-133541371D01*
X176951580Y-133794453D01*
X176698498Y-134173217D01*
X176609627Y-134620000D01*
X130730373Y-134620000D01*
X130641502Y-134173217D01*
X130388420Y-133794453D01*
X130009656Y-133541371D01*
X129562873Y-133452500D01*
X129517127Y-133452500D01*
X129070344Y-133541371D01*
X128691580Y-133794453D01*
X128438498Y-134173217D01*
X128349627Y-134620000D01*
X127392500Y-134620000D01*
X127392500Y-132080000D01*
X128349627Y-132080000D01*
X128438498Y-132526783D01*
X128691580Y-132905547D01*
X129070344Y-133158629D01*
X129517127Y-133247500D01*
X129562873Y-133247500D01*
X130009656Y-133158629D01*
X130388420Y-132905547D01*
X130641502Y-132526783D01*
X130730373Y-132080000D01*
X176609627Y-132080000D01*
X176698498Y-132526783D01*
X176951580Y-132905547D01*
X177330344Y-133158629D01*
X177777127Y-133247500D01*
X177822873Y-133247500D01*
X178269656Y-133158629D01*
X178648420Y-132905547D01*
X178901502Y-132526783D01*
X178990373Y-132080000D01*
X178901502Y-131633217D01*
X178648420Y-131254453D01*
X178269656Y-131001371D01*
X177822873Y-130912500D01*
X177777127Y-130912500D01*
X177330344Y-131001371D01*
X176951580Y-131254453D01*
X176698498Y-131633217D01*
X176609627Y-132080000D01*
X130730373Y-132080000D01*
X130641502Y-131633217D01*
X130388420Y-131254453D01*
X130009656Y-131001371D01*
X129562873Y-130912500D01*
X129517127Y-130912500D01*
X129070344Y-131001371D01*
X128691580Y-131254453D01*
X128438498Y-131633217D01*
X128349627Y-132080000D01*
X127392500Y-132080000D01*
X127392500Y-129540000D01*
X128349627Y-129540000D01*
X128438498Y-129986783D01*
X128691580Y-130365547D01*
X129070344Y-130618629D01*
X129517127Y-130707500D01*
X129562873Y-130707500D01*
X130009656Y-130618629D01*
X130388420Y-130365547D01*
X130641502Y-129986783D01*
X130730373Y-129540000D01*
X176609627Y-129540000D01*
X176698498Y-129986783D01*
X176951580Y-130365547D01*
X177330344Y-130618629D01*
X177777127Y-130707500D01*
X177822873Y-130707500D01*
X178269656Y-130618629D01*
X178648420Y-130365547D01*
X178901502Y-129986783D01*
X178990373Y-129540000D01*
X178901502Y-129093217D01*
X178648420Y-128714453D01*
X178269656Y-128461371D01*
X177822873Y-128372500D01*
X177777127Y-128372500D01*
X177330344Y-128461371D01*
X176951580Y-128714453D01*
X176698498Y-129093217D01*
X176609627Y-129540000D01*
X130730373Y-129540000D01*
X130641502Y-129093217D01*
X130388420Y-128714453D01*
X130009656Y-128461371D01*
X129641853Y-128388210D01*
X139102997Y-128388210D01*
X139193678Y-128607675D01*
X139361442Y-128775732D01*
X139580748Y-128866796D01*
X139818210Y-128867003D01*
X140037675Y-128776322D01*
X140205732Y-128608558D01*
X140296796Y-128389252D01*
X140296796Y-128388210D01*
X150532997Y-128388210D01*
X150623678Y-128607675D01*
X150791442Y-128775732D01*
X151010748Y-128866796D01*
X151248210Y-128867003D01*
X151467675Y-128776322D01*
X151635732Y-128608558D01*
X151726796Y-128389252D01*
X151726796Y-128388210D01*
X161962997Y-128388210D01*
X162053678Y-128607675D01*
X162221442Y-128775732D01*
X162440748Y-128866796D01*
X162678210Y-128867003D01*
X162897675Y-128776322D01*
X163065732Y-128608558D01*
X163156796Y-128389252D01*
X163156796Y-128388210D01*
X167042997Y-128388210D01*
X167133678Y-128607675D01*
X167301442Y-128775732D01*
X167520748Y-128866796D01*
X167758210Y-128867003D01*
X167977675Y-128776322D01*
X168145732Y-128608558D01*
X168236796Y-128389252D01*
X168236796Y-128388210D01*
X174662997Y-128388210D01*
X174753678Y-128607675D01*
X174921442Y-128775732D01*
X175140748Y-128866796D01*
X175378210Y-128867003D01*
X175597675Y-128776322D01*
X175765732Y-128608558D01*
X175856796Y-128389252D01*
X175857003Y-128151790D01*
X175766322Y-127932325D01*
X175598558Y-127764268D01*
X175379252Y-127673204D01*
X175141790Y-127672997D01*
X174922325Y-127763678D01*
X174754268Y-127931442D01*
X174663204Y-128150748D01*
X174662997Y-128388210D01*
X168236796Y-128388210D01*
X168237003Y-128151790D01*
X168146322Y-127932325D01*
X167978558Y-127764268D01*
X167759252Y-127673204D01*
X167521790Y-127672997D01*
X167302325Y-127763678D01*
X167134268Y-127931442D01*
X167043204Y-128150748D01*
X167042997Y-128388210D01*
X163156796Y-128388210D01*
X163157003Y-128151790D01*
X163066322Y-127932325D01*
X162898558Y-127764268D01*
X162679252Y-127673204D01*
X162441790Y-127672997D01*
X162222325Y-127763678D01*
X162054268Y-127931442D01*
X161963204Y-128150748D01*
X161962997Y-128388210D01*
X151726796Y-128388210D01*
X151727003Y-128151790D01*
X151636322Y-127932325D01*
X151468558Y-127764268D01*
X151249252Y-127673204D01*
X151011790Y-127672997D01*
X150792325Y-127763678D01*
X150624268Y-127931442D01*
X150533204Y-128150748D01*
X150532997Y-128388210D01*
X140296796Y-128388210D01*
X140297003Y-128151790D01*
X140206322Y-127932325D01*
X140038558Y-127764268D01*
X139819252Y-127673204D01*
X139581790Y-127672997D01*
X139362325Y-127763678D01*
X139194268Y-127931442D01*
X139103204Y-128150748D01*
X139102997Y-128388210D01*
X129641853Y-128388210D01*
X129562873Y-128372500D01*
X129517127Y-128372500D01*
X129070344Y-128461371D01*
X128691580Y-128714453D01*
X128438498Y-129093217D01*
X128349627Y-129540000D01*
X127392500Y-129540000D01*
X127392500Y-126150000D01*
X128366280Y-126150000D01*
X128366280Y-127850000D01*
X128388419Y-127967658D01*
X128457955Y-128075721D01*
X128564055Y-128148215D01*
X128690000Y-128173720D01*
X130390000Y-128173720D01*
X130507658Y-128151581D01*
X130615721Y-128082045D01*
X130688215Y-127975945D01*
X130713720Y-127850000D01*
X130713720Y-127000000D01*
X176609627Y-127000000D01*
X176698498Y-127446783D01*
X176951580Y-127825547D01*
X177330344Y-128078629D01*
X177777127Y-128167500D01*
X177822873Y-128167500D01*
X178269656Y-128078629D01*
X178648420Y-127825547D01*
X178901502Y-127446783D01*
X178990373Y-127000000D01*
X178901502Y-126553217D01*
X178648420Y-126174453D01*
X178269656Y-125921371D01*
X177822873Y-125832500D01*
X177777127Y-125832500D01*
X177330344Y-125921371D01*
X176951580Y-126174453D01*
X176698498Y-126553217D01*
X176609627Y-127000000D01*
X130713720Y-127000000D01*
X130713720Y-126150000D01*
X130691581Y-126032342D01*
X130622045Y-125924279D01*
X130515945Y-125851785D01*
X130390000Y-125826280D01*
X128690000Y-125826280D01*
X128572342Y-125848419D01*
X128464279Y-125917955D01*
X128391785Y-126024055D01*
X128366280Y-126150000D01*
X127392500Y-126150000D01*
X127392500Y-124460000D01*
X176609627Y-124460000D01*
X176698498Y-124906783D01*
X176951580Y-125285547D01*
X177330344Y-125538629D01*
X177777127Y-125627500D01*
X177822873Y-125627500D01*
X178269656Y-125538629D01*
X178648420Y-125285547D01*
X178901502Y-124906783D01*
X178990373Y-124460000D01*
X178901502Y-124013217D01*
X178648420Y-123634453D01*
X178269656Y-123381371D01*
X177822873Y-123292500D01*
X177777127Y-123292500D01*
X177330344Y-123381371D01*
X176951580Y-123634453D01*
X176698498Y-124013217D01*
X176609627Y-124460000D01*
X127392500Y-124460000D01*
X127392500Y-121920000D01*
X128349627Y-121920000D01*
X128438498Y-122366783D01*
X128691580Y-122745547D01*
X129070344Y-122998629D01*
X129517127Y-123087500D01*
X129562873Y-123087500D01*
X130009656Y-122998629D01*
X130388420Y-122745547D01*
X130641502Y-122366783D01*
X130730373Y-121920000D01*
X130641502Y-121473217D01*
X130388420Y-121094453D01*
X130161755Y-120943000D01*
X136049780Y-120943000D01*
X136049780Y-122643000D01*
X136071919Y-122760658D01*
X136141455Y-122868721D01*
X136247555Y-122941215D01*
X136373500Y-122966720D01*
X138073500Y-122966720D01*
X138191158Y-122944581D01*
X138299221Y-122875045D01*
X138371715Y-122768945D01*
X138397220Y-122643000D01*
X138397220Y-122038210D01*
X139102997Y-122038210D01*
X139193678Y-122257675D01*
X139361442Y-122425732D01*
X139580748Y-122516796D01*
X139818210Y-122517003D01*
X140037675Y-122426322D01*
X140205732Y-122258558D01*
X140296796Y-122039252D01*
X140296796Y-122038210D01*
X144182997Y-122038210D01*
X144273678Y-122257675D01*
X144441442Y-122425732D01*
X144660748Y-122516796D01*
X144898210Y-122517003D01*
X145117675Y-122426322D01*
X145285732Y-122258558D01*
X145376796Y-122039252D01*
X145377003Y-121801790D01*
X145286322Y-121582325D01*
X145118558Y-121414268D01*
X144899252Y-121323204D01*
X144661790Y-121322997D01*
X144442325Y-121413678D01*
X144274268Y-121581442D01*
X144183204Y-121800748D01*
X144182997Y-122038210D01*
X140296796Y-122038210D01*
X140297003Y-121801790D01*
X140206322Y-121582325D01*
X140038558Y-121414268D01*
X139819252Y-121323204D01*
X139581790Y-121322997D01*
X139362325Y-121413678D01*
X139194268Y-121581442D01*
X139103204Y-121800748D01*
X139102997Y-122038210D01*
X138397220Y-122038210D01*
X138397220Y-120943000D01*
X147924280Y-120943000D01*
X147924280Y-122643000D01*
X147946419Y-122760658D01*
X148015955Y-122868721D01*
X148122055Y-122941215D01*
X148248000Y-122966720D01*
X149948000Y-122966720D01*
X150065658Y-122944581D01*
X150173721Y-122875045D01*
X150246215Y-122768945D01*
X150271720Y-122643000D01*
X150271720Y-122038210D01*
X150532997Y-122038210D01*
X150623678Y-122257675D01*
X150791442Y-122425732D01*
X151010748Y-122516796D01*
X151248210Y-122517003D01*
X151467675Y-122426322D01*
X151635732Y-122258558D01*
X151726796Y-122039252D01*
X151726796Y-122038210D01*
X155612997Y-122038210D01*
X155703678Y-122257675D01*
X155871442Y-122425732D01*
X156090748Y-122516796D01*
X156328210Y-122517003D01*
X156547675Y-122426322D01*
X156715732Y-122258558D01*
X156806796Y-122039252D01*
X156807003Y-121801790D01*
X156716322Y-121582325D01*
X156548558Y-121414268D01*
X156329252Y-121323204D01*
X156091790Y-121322997D01*
X155872325Y-121413678D01*
X155704268Y-121581442D01*
X155613204Y-121800748D01*
X155612997Y-122038210D01*
X151726796Y-122038210D01*
X151727003Y-121801790D01*
X151636322Y-121582325D01*
X151468558Y-121414268D01*
X151249252Y-121323204D01*
X151011790Y-121322997D01*
X150792325Y-121413678D01*
X150624268Y-121581442D01*
X150533204Y-121800748D01*
X150532997Y-122038210D01*
X150271720Y-122038210D01*
X150271720Y-120943000D01*
X159608280Y-120943000D01*
X159608280Y-122643000D01*
X159630419Y-122760658D01*
X159699955Y-122868721D01*
X159806055Y-122941215D01*
X159932000Y-122966720D01*
X161632000Y-122966720D01*
X161749658Y-122944581D01*
X161857721Y-122875045D01*
X161930215Y-122768945D01*
X161955720Y-122643000D01*
X161955720Y-122038210D01*
X161962997Y-122038210D01*
X162053678Y-122257675D01*
X162221442Y-122425732D01*
X162440748Y-122516796D01*
X162678210Y-122517003D01*
X162897675Y-122426322D01*
X163065732Y-122258558D01*
X163156796Y-122039252D01*
X163156796Y-122038210D01*
X168312997Y-122038210D01*
X168403678Y-122257675D01*
X168571442Y-122425732D01*
X168790748Y-122516796D01*
X169028210Y-122517003D01*
X169247675Y-122426322D01*
X169415732Y-122258558D01*
X169506796Y-122039252D01*
X169507003Y-121801790D01*
X169416322Y-121582325D01*
X169248558Y-121414268D01*
X169029252Y-121323204D01*
X168791790Y-121322997D01*
X168572325Y-121413678D01*
X168404268Y-121581442D01*
X168313204Y-121800748D01*
X168312997Y-122038210D01*
X163156796Y-122038210D01*
X163157003Y-121801790D01*
X163066322Y-121582325D01*
X162898558Y-121414268D01*
X162679252Y-121323204D01*
X162441790Y-121322997D01*
X162222325Y-121413678D01*
X162054268Y-121581442D01*
X161963204Y-121800748D01*
X161962997Y-122038210D01*
X161955720Y-122038210D01*
X161955720Y-120943000D01*
X171292280Y-120943000D01*
X171292280Y-122643000D01*
X171314419Y-122760658D01*
X171383955Y-122868721D01*
X171490055Y-122941215D01*
X171616000Y-122966720D01*
X173316000Y-122966720D01*
X173433658Y-122944581D01*
X173541721Y-122875045D01*
X173614215Y-122768945D01*
X173639720Y-122643000D01*
X173639720Y-122038210D01*
X174662997Y-122038210D01*
X174753678Y-122257675D01*
X174921442Y-122425732D01*
X175140748Y-122516796D01*
X175378210Y-122517003D01*
X175597675Y-122426322D01*
X175765732Y-122258558D01*
X175856796Y-122039252D01*
X175857003Y-121801790D01*
X175766322Y-121582325D01*
X175598558Y-121414268D01*
X175379252Y-121323204D01*
X175141790Y-121322997D01*
X174922325Y-121413678D01*
X174754268Y-121581442D01*
X174663204Y-121800748D01*
X174662997Y-122038210D01*
X173639720Y-122038210D01*
X173639720Y-121070000D01*
X176626280Y-121070000D01*
X176626280Y-122770000D01*
X176648419Y-122887658D01*
X176717955Y-122995721D01*
X176824055Y-123068215D01*
X176950000Y-123093720D01*
X178650000Y-123093720D01*
X178767658Y-123071581D01*
X178875721Y-123002045D01*
X178948215Y-122895945D01*
X178973720Y-122770000D01*
X178973720Y-121070000D01*
X178951581Y-120952342D01*
X178882045Y-120844279D01*
X178775945Y-120771785D01*
X178650000Y-120746280D01*
X176950000Y-120746280D01*
X176832342Y-120768419D01*
X176724279Y-120837955D01*
X176651785Y-120944055D01*
X176626280Y-121070000D01*
X173639720Y-121070000D01*
X173639720Y-120943000D01*
X173617581Y-120825342D01*
X173548045Y-120717279D01*
X173441945Y-120644785D01*
X173316000Y-120619280D01*
X171616000Y-120619280D01*
X171498342Y-120641419D01*
X171390279Y-120710955D01*
X171317785Y-120817055D01*
X171292280Y-120943000D01*
X161955720Y-120943000D01*
X161933581Y-120825342D01*
X161864045Y-120717279D01*
X161757945Y-120644785D01*
X161632000Y-120619280D01*
X159932000Y-120619280D01*
X159814342Y-120641419D01*
X159706279Y-120710955D01*
X159633785Y-120817055D01*
X159608280Y-120943000D01*
X150271720Y-120943000D01*
X150249581Y-120825342D01*
X150180045Y-120717279D01*
X150073945Y-120644785D01*
X149948000Y-120619280D01*
X148248000Y-120619280D01*
X148130342Y-120641419D01*
X148022279Y-120710955D01*
X147949785Y-120817055D01*
X147924280Y-120943000D01*
X138397220Y-120943000D01*
X138375081Y-120825342D01*
X138305545Y-120717279D01*
X138199445Y-120644785D01*
X138073500Y-120619280D01*
X136373500Y-120619280D01*
X136255842Y-120641419D01*
X136147779Y-120710955D01*
X136075285Y-120817055D01*
X136049780Y-120943000D01*
X130161755Y-120943000D01*
X130009656Y-120841371D01*
X129562873Y-120752500D01*
X129517127Y-120752500D01*
X129070344Y-120841371D01*
X128691580Y-121094453D01*
X128438498Y-121473217D01*
X128349627Y-121920000D01*
X127392500Y-121920000D01*
X127392500Y-117856000D01*
X176609627Y-117856000D01*
X176698498Y-118302783D01*
X176951580Y-118681547D01*
X177330344Y-118934629D01*
X177777127Y-119023500D01*
X177822873Y-119023500D01*
X178269656Y-118934629D01*
X178648420Y-118681547D01*
X178901502Y-118302783D01*
X178990373Y-117856000D01*
X178901502Y-117409217D01*
X178648420Y-117030453D01*
X178269656Y-116777371D01*
X177822873Y-116688500D01*
X177777127Y-116688500D01*
X177330344Y-116777371D01*
X176951580Y-117030453D01*
X176698498Y-117409217D01*
X176609627Y-117856000D01*
X127392500Y-117856000D01*
X127392500Y-116958210D01*
X150532997Y-116958210D01*
X150623678Y-117177675D01*
X150791442Y-117345732D01*
X151010748Y-117436796D01*
X151248210Y-117437003D01*
X151467675Y-117346322D01*
X151635732Y-117178558D01*
X151726796Y-116959252D01*
X151726796Y-116958210D01*
X155612997Y-116958210D01*
X155703678Y-117177675D01*
X155871442Y-117345732D01*
X156090748Y-117436796D01*
X156328210Y-117437003D01*
X156547675Y-117346322D01*
X156715732Y-117178558D01*
X156806796Y-116959252D01*
X156806796Y-116958210D01*
X161962997Y-116958210D01*
X162053678Y-117177675D01*
X162221442Y-117345732D01*
X162440748Y-117436796D01*
X162678210Y-117437003D01*
X162897675Y-117346322D01*
X163065732Y-117178558D01*
X163156796Y-116959252D01*
X163156796Y-116958210D01*
X165772997Y-116958210D01*
X165863678Y-117177675D01*
X166031442Y-117345732D01*
X166250748Y-117436796D01*
X166488210Y-117437003D01*
X166707675Y-117346322D01*
X166875732Y-117178558D01*
X166966796Y-116959252D01*
X166966796Y-116958210D01*
X169582997Y-116958210D01*
X169673678Y-117177675D01*
X169841442Y-117345732D01*
X170060748Y-117436796D01*
X170298210Y-117437003D01*
X170517675Y-117346322D01*
X170685732Y-117178558D01*
X170776796Y-116959252D01*
X170776796Y-116958210D01*
X174662997Y-116958210D01*
X174753678Y-117177675D01*
X174921442Y-117345732D01*
X175140748Y-117436796D01*
X175378210Y-117437003D01*
X175597675Y-117346322D01*
X175765732Y-117178558D01*
X175856796Y-116959252D01*
X175857003Y-116721790D01*
X175766322Y-116502325D01*
X175598558Y-116334268D01*
X175379252Y-116243204D01*
X175141790Y-116242997D01*
X174922325Y-116333678D01*
X174754268Y-116501442D01*
X174663204Y-116720748D01*
X174662997Y-116958210D01*
X170776796Y-116958210D01*
X170777003Y-116721790D01*
X170686322Y-116502325D01*
X170518558Y-116334268D01*
X170299252Y-116243204D01*
X170061790Y-116242997D01*
X169842325Y-116333678D01*
X169674268Y-116501442D01*
X169583204Y-116720748D01*
X169582997Y-116958210D01*
X166966796Y-116958210D01*
X166967003Y-116721790D01*
X166876322Y-116502325D01*
X166708558Y-116334268D01*
X166489252Y-116243204D01*
X166251790Y-116242997D01*
X166032325Y-116333678D01*
X165864268Y-116501442D01*
X165773204Y-116720748D01*
X165772997Y-116958210D01*
X163156796Y-116958210D01*
X163157003Y-116721790D01*
X163066322Y-116502325D01*
X162898558Y-116334268D01*
X162679252Y-116243204D01*
X162441790Y-116242997D01*
X162222325Y-116333678D01*
X162054268Y-116501442D01*
X161963204Y-116720748D01*
X161962997Y-116958210D01*
X156806796Y-116958210D01*
X156807003Y-116721790D01*
X156716322Y-116502325D01*
X156548558Y-116334268D01*
X156329252Y-116243204D01*
X156091790Y-116242997D01*
X155872325Y-116333678D01*
X155704268Y-116501442D01*
X155613204Y-116720748D01*
X155612997Y-116958210D01*
X151726796Y-116958210D01*
X151727003Y-116721790D01*
X151636322Y-116502325D01*
X151468558Y-116334268D01*
X151249252Y-116243204D01*
X151011790Y-116242997D01*
X150792325Y-116333678D01*
X150624268Y-116501442D01*
X150533204Y-116720748D01*
X150532997Y-116958210D01*
X127392500Y-116958210D01*
X127392500Y-115688210D01*
X144182997Y-115688210D01*
X144273678Y-115907675D01*
X144441442Y-116075732D01*
X144660748Y-116166796D01*
X144898210Y-116167003D01*
X145117675Y-116076322D01*
X145285732Y-115908558D01*
X145376796Y-115689252D01*
X145377003Y-115451790D01*
X145320896Y-115316000D01*
X176609627Y-115316000D01*
X176698498Y-115762783D01*
X176951580Y-116141547D01*
X177330344Y-116394629D01*
X177777127Y-116483500D01*
X177822873Y-116483500D01*
X178269656Y-116394629D01*
X178648420Y-116141547D01*
X178901502Y-115762783D01*
X178990373Y-115316000D01*
X178901502Y-114869217D01*
X178648420Y-114490453D01*
X178269656Y-114237371D01*
X177822873Y-114148500D01*
X177777127Y-114148500D01*
X177330344Y-114237371D01*
X176951580Y-114490453D01*
X176698498Y-114869217D01*
X176609627Y-115316000D01*
X145320896Y-115316000D01*
X145286322Y-115232325D01*
X145118558Y-115064268D01*
X144899252Y-114973204D01*
X144661790Y-114972997D01*
X144442325Y-115063678D01*
X144274268Y-115231442D01*
X144183204Y-115450748D01*
X144182997Y-115688210D01*
X127392500Y-115688210D01*
X127392500Y-114300000D01*
X128349627Y-114300000D01*
X128438498Y-114746783D01*
X128691580Y-115125547D01*
X129070344Y-115378629D01*
X129517127Y-115467500D01*
X129562873Y-115467500D01*
X130009656Y-115378629D01*
X130388420Y-115125547D01*
X130641502Y-114746783D01*
X130730373Y-114300000D01*
X130703363Y-114164210D01*
X156628997Y-114164210D01*
X156719678Y-114383675D01*
X156887442Y-114551732D01*
X157106748Y-114642796D01*
X157344210Y-114643003D01*
X157563675Y-114552322D01*
X157731732Y-114384558D01*
X157822796Y-114165252D01*
X157823003Y-113927790D01*
X157732322Y-113708325D01*
X157564558Y-113540268D01*
X157345252Y-113449204D01*
X157107790Y-113448997D01*
X156888325Y-113539678D01*
X156720268Y-113707442D01*
X156629204Y-113926748D01*
X156628997Y-114164210D01*
X130703363Y-114164210D01*
X130641502Y-113853217D01*
X130388420Y-113474453D01*
X130009656Y-113221371D01*
X129562873Y-113132500D01*
X129517127Y-113132500D01*
X129070344Y-113221371D01*
X128691580Y-113474453D01*
X128438498Y-113853217D01*
X128349627Y-114300000D01*
X127392500Y-114300000D01*
X127392500Y-111760000D01*
X128349627Y-111760000D01*
X128438498Y-112206783D01*
X128691580Y-112585547D01*
X129070344Y-112838629D01*
X129517127Y-112927500D01*
X129562873Y-112927500D01*
X130009656Y-112838629D01*
X130103386Y-112776000D01*
X176609627Y-112776000D01*
X176698498Y-113222783D01*
X176951580Y-113601547D01*
X177330344Y-113854629D01*
X177777127Y-113943500D01*
X177822873Y-113943500D01*
X178269656Y-113854629D01*
X178648420Y-113601547D01*
X178901502Y-113222783D01*
X178990373Y-112776000D01*
X178901502Y-112329217D01*
X178648420Y-111950453D01*
X178269656Y-111697371D01*
X177822873Y-111608500D01*
X177777127Y-111608500D01*
X177330344Y-111697371D01*
X176951580Y-111950453D01*
X176698498Y-112329217D01*
X176609627Y-112776000D01*
X130103386Y-112776000D01*
X130388420Y-112585547D01*
X130641502Y-112206783D01*
X130706859Y-111878210D01*
X161962997Y-111878210D01*
X162053678Y-112097675D01*
X162221442Y-112265732D01*
X162440748Y-112356796D01*
X162678210Y-112357003D01*
X162897675Y-112266322D01*
X163065732Y-112098558D01*
X163156796Y-111879252D01*
X163157003Y-111641790D01*
X163066322Y-111422325D01*
X162898558Y-111254268D01*
X162679252Y-111163204D01*
X162441790Y-111162997D01*
X162222325Y-111253678D01*
X162054268Y-111421442D01*
X161963204Y-111640748D01*
X161962997Y-111878210D01*
X130706859Y-111878210D01*
X130730373Y-111760000D01*
X130641502Y-111313217D01*
X130388420Y-110934453D01*
X130009656Y-110681371D01*
X129641853Y-110608210D01*
X168312997Y-110608210D01*
X168403678Y-110827675D01*
X168571442Y-110995732D01*
X168790748Y-111086796D01*
X169028210Y-111087003D01*
X169247675Y-110996322D01*
X169415732Y-110828558D01*
X169506796Y-110609252D01*
X169506796Y-110608210D01*
X174662997Y-110608210D01*
X174753678Y-110827675D01*
X174921442Y-110995732D01*
X175140748Y-111086796D01*
X175378210Y-111087003D01*
X175597675Y-110996322D01*
X175765732Y-110828558D01*
X175856796Y-110609252D01*
X175857003Y-110371790D01*
X175800896Y-110236000D01*
X176609627Y-110236000D01*
X176698498Y-110682783D01*
X176951580Y-111061547D01*
X177330344Y-111314629D01*
X177777127Y-111403500D01*
X177822873Y-111403500D01*
X178269656Y-111314629D01*
X178648420Y-111061547D01*
X178901502Y-110682783D01*
X178990373Y-110236000D01*
X178901502Y-109789217D01*
X178648420Y-109410453D01*
X178269656Y-109157371D01*
X177822873Y-109068500D01*
X177777127Y-109068500D01*
X177330344Y-109157371D01*
X176951580Y-109410453D01*
X176698498Y-109789217D01*
X176609627Y-110236000D01*
X175800896Y-110236000D01*
X175766322Y-110152325D01*
X175598558Y-109984268D01*
X175379252Y-109893204D01*
X175141790Y-109892997D01*
X174922325Y-109983678D01*
X174754268Y-110151442D01*
X174663204Y-110370748D01*
X174662997Y-110608210D01*
X169506796Y-110608210D01*
X169507003Y-110371790D01*
X169416322Y-110152325D01*
X169248558Y-109984268D01*
X169029252Y-109893204D01*
X168791790Y-109892997D01*
X168572325Y-109983678D01*
X168404268Y-110151442D01*
X168313204Y-110370748D01*
X168312997Y-110608210D01*
X129641853Y-110608210D01*
X129562873Y-110592500D01*
X129517127Y-110592500D01*
X129070344Y-110681371D01*
X128691580Y-110934453D01*
X128438498Y-111313217D01*
X128349627Y-111760000D01*
X127392500Y-111760000D01*
X127392500Y-109220000D01*
X128349627Y-109220000D01*
X128438498Y-109666783D01*
X128691580Y-110045547D01*
X129070344Y-110298629D01*
X129517127Y-110387500D01*
X129562873Y-110387500D01*
X130009656Y-110298629D01*
X130388420Y-110045547D01*
X130641502Y-109666783D01*
X130730373Y-109220000D01*
X130641502Y-108773217D01*
X130388420Y-108394453D01*
X130009656Y-108141371D01*
X129641853Y-108068210D01*
X152818997Y-108068210D01*
X152909678Y-108287675D01*
X153077442Y-108455732D01*
X153296748Y-108546796D01*
X153534210Y-108547003D01*
X153753675Y-108456322D01*
X153850481Y-108359685D01*
X153925678Y-108541675D01*
X154093442Y-108709732D01*
X154312748Y-108800796D01*
X154550210Y-108801003D01*
X154769675Y-108710322D01*
X154937732Y-108542558D01*
X155028796Y-108323252D01*
X155029003Y-108085790D01*
X154938322Y-107866325D01*
X154770558Y-107698268D01*
X154765097Y-107696000D01*
X176609627Y-107696000D01*
X176698498Y-108142783D01*
X176951580Y-108521547D01*
X177330344Y-108774629D01*
X177777127Y-108863500D01*
X177822873Y-108863500D01*
X178269656Y-108774629D01*
X178648420Y-108521547D01*
X178901502Y-108142783D01*
X178990373Y-107696000D01*
X178901502Y-107249217D01*
X178648420Y-106870453D01*
X178269656Y-106617371D01*
X177822873Y-106528500D01*
X177777127Y-106528500D01*
X177330344Y-106617371D01*
X176951580Y-106870453D01*
X176698498Y-107249217D01*
X176609627Y-107696000D01*
X154765097Y-107696000D01*
X154551252Y-107607204D01*
X154337296Y-107607017D01*
X154323803Y-107598002D01*
X154178000Y-107569000D01*
X153879073Y-107569000D01*
X153754558Y-107444268D01*
X153535252Y-107353204D01*
X153297790Y-107352997D01*
X153078325Y-107443678D01*
X152910268Y-107611442D01*
X152819204Y-107830748D01*
X152818997Y-108068210D01*
X129641853Y-108068210D01*
X129562873Y-108052500D01*
X129517127Y-108052500D01*
X129070344Y-108141371D01*
X128691580Y-108394453D01*
X128438498Y-108773217D01*
X128349627Y-109220000D01*
X127392500Y-109220000D01*
X127392500Y-106680000D01*
X128349627Y-106680000D01*
X128438498Y-107126783D01*
X128691580Y-107505547D01*
X129070344Y-107758629D01*
X129517127Y-107847500D01*
X129562873Y-107847500D01*
X130009656Y-107758629D01*
X130388420Y-107505547D01*
X130641502Y-107126783D01*
X130730373Y-106680000D01*
X130641502Y-106233217D01*
X130388420Y-105854453D01*
X130009656Y-105601371D01*
X129562873Y-105512500D01*
X129517127Y-105512500D01*
X129070344Y-105601371D01*
X128691580Y-105854453D01*
X128438498Y-106233217D01*
X128349627Y-106680000D01*
X127392500Y-106680000D01*
X127392500Y-103290000D01*
X128366280Y-103290000D01*
X128366280Y-104990000D01*
X128388419Y-105107658D01*
X128457955Y-105215721D01*
X128564055Y-105288215D01*
X128690000Y-105313720D01*
X130390000Y-105313720D01*
X130507658Y-105291581D01*
X130615721Y-105222045D01*
X130660846Y-105156000D01*
X176609627Y-105156000D01*
X176698498Y-105602783D01*
X176951580Y-105981547D01*
X177330344Y-106234629D01*
X177777127Y-106323500D01*
X177822873Y-106323500D01*
X178269656Y-106234629D01*
X178648420Y-105981547D01*
X178901502Y-105602783D01*
X178990373Y-105156000D01*
X178901502Y-104709217D01*
X178648420Y-104330453D01*
X178269656Y-104077371D01*
X177822873Y-103988500D01*
X177777127Y-103988500D01*
X177330344Y-104077371D01*
X176951580Y-104330453D01*
X176698498Y-104709217D01*
X176609627Y-105156000D01*
X130660846Y-105156000D01*
X130688215Y-105115945D01*
X130713720Y-104990000D01*
X130713720Y-104258210D01*
X168312997Y-104258210D01*
X168403678Y-104477675D01*
X168571442Y-104645732D01*
X168790748Y-104736796D01*
X169028210Y-104737003D01*
X169247675Y-104646322D01*
X169415732Y-104478558D01*
X169506796Y-104259252D01*
X169506796Y-104258210D01*
X174662997Y-104258210D01*
X174753678Y-104477675D01*
X174921442Y-104645732D01*
X175140748Y-104736796D01*
X175378210Y-104737003D01*
X175597675Y-104646322D01*
X175765732Y-104478558D01*
X175856796Y-104259252D01*
X175857003Y-104021790D01*
X175766322Y-103802325D01*
X175598558Y-103634268D01*
X175379252Y-103543204D01*
X175141790Y-103542997D01*
X174922325Y-103633678D01*
X174754268Y-103801442D01*
X174663204Y-104020748D01*
X174662997Y-104258210D01*
X169506796Y-104258210D01*
X169507003Y-104021790D01*
X169416322Y-103802325D01*
X169248558Y-103634268D01*
X169029252Y-103543204D01*
X168791790Y-103542997D01*
X168572325Y-103633678D01*
X168404268Y-103801442D01*
X168313204Y-104020748D01*
X168312997Y-104258210D01*
X130713720Y-104258210D01*
X130713720Y-103290000D01*
X130691581Y-103172342D01*
X130622045Y-103064279D01*
X130515945Y-102991785D01*
X130390000Y-102966280D01*
X128690000Y-102966280D01*
X128572342Y-102988419D01*
X128464279Y-103057955D01*
X128391785Y-103164055D01*
X128366280Y-103290000D01*
X127392500Y-103290000D01*
X127392500Y-102226210D01*
X171360997Y-102226210D01*
X171451678Y-102445675D01*
X171619442Y-102613732D01*
X171838748Y-102704796D01*
X172076210Y-102705003D01*
X172291613Y-102616000D01*
X176609627Y-102616000D01*
X176698498Y-103062783D01*
X176951580Y-103441547D01*
X177330344Y-103694629D01*
X177777127Y-103783500D01*
X177822873Y-103783500D01*
X178269656Y-103694629D01*
X178648420Y-103441547D01*
X178901502Y-103062783D01*
X178990373Y-102616000D01*
X178901502Y-102169217D01*
X178648420Y-101790453D01*
X178269656Y-101537371D01*
X177822873Y-101448500D01*
X177777127Y-101448500D01*
X177330344Y-101537371D01*
X176951580Y-101790453D01*
X176698498Y-102169217D01*
X176609627Y-102616000D01*
X172291613Y-102616000D01*
X172295675Y-102614322D01*
X172463732Y-102446558D01*
X172554796Y-102227252D01*
X172555003Y-101989790D01*
X172464322Y-101770325D01*
X172296558Y-101602268D01*
X172077252Y-101511204D01*
X171839790Y-101510997D01*
X171620325Y-101601678D01*
X171452268Y-101769442D01*
X171361204Y-101988748D01*
X171360997Y-102226210D01*
X127392500Y-102226210D01*
X127392500Y-98162210D01*
X144817997Y-98162210D01*
X144908678Y-98381675D01*
X145034000Y-98507216D01*
X145034000Y-100965000D01*
X145063002Y-101110803D01*
X145145592Y-101234408D01*
X145297989Y-101386804D01*
X145297991Y-101386807D01*
X145390322Y-101448500D01*
X145421597Y-101469397D01*
X145567399Y-101498400D01*
X145567404Y-101498399D01*
X169011601Y-101498399D01*
X169157404Y-101469397D01*
X169209139Y-101434829D01*
X169409210Y-101435003D01*
X169628675Y-101344322D01*
X169796732Y-101176558D01*
X169887796Y-100957252D01*
X169888003Y-100719790D01*
X169797322Y-100500325D01*
X169629558Y-100332268D01*
X169410252Y-100241204D01*
X169172790Y-100240997D01*
X168953325Y-100331678D01*
X168807390Y-100477359D01*
X168871796Y-100322252D01*
X168872003Y-100084790D01*
X168781322Y-99865325D01*
X168613558Y-99697268D01*
X168586928Y-99686210D01*
X172122997Y-99686210D01*
X172213678Y-99905675D01*
X172381442Y-100073732D01*
X172600748Y-100164796D01*
X172838210Y-100165003D01*
X173053613Y-100076000D01*
X176609627Y-100076000D01*
X176698498Y-100522783D01*
X176951580Y-100901547D01*
X177330344Y-101154629D01*
X177777127Y-101243500D01*
X177822873Y-101243500D01*
X178269656Y-101154629D01*
X178648420Y-100901547D01*
X178901502Y-100522783D01*
X178990373Y-100076000D01*
X178901502Y-99629217D01*
X178648420Y-99250453D01*
X178269656Y-98997371D01*
X177822873Y-98908500D01*
X177777127Y-98908500D01*
X177330344Y-98997371D01*
X176951580Y-99250453D01*
X176698498Y-99629217D01*
X176609627Y-100076000D01*
X173053613Y-100076000D01*
X173057675Y-100074322D01*
X173225732Y-99906558D01*
X173316796Y-99687252D01*
X173317003Y-99449790D01*
X173226322Y-99230325D01*
X173174298Y-99178210D01*
X174662997Y-99178210D01*
X174753678Y-99397675D01*
X174921442Y-99565732D01*
X175140748Y-99656796D01*
X175378210Y-99657003D01*
X175597675Y-99566322D01*
X175765732Y-99398558D01*
X175856796Y-99179252D01*
X175857003Y-98941790D01*
X175766322Y-98722325D01*
X175598558Y-98554268D01*
X175379252Y-98463204D01*
X175141790Y-98462997D01*
X174922325Y-98553678D01*
X174754268Y-98721442D01*
X174663204Y-98940748D01*
X174662997Y-99178210D01*
X173174298Y-99178210D01*
X173058558Y-99062268D01*
X172839252Y-98971204D01*
X172601790Y-98970997D01*
X172382325Y-99061678D01*
X172214268Y-99229442D01*
X172123204Y-99448748D01*
X172122997Y-99686210D01*
X168586928Y-99686210D01*
X168394252Y-99606204D01*
X168216865Y-99606049D01*
X166146816Y-97536000D01*
X176609627Y-97536000D01*
X176698498Y-97982783D01*
X176951580Y-98361547D01*
X177330344Y-98614629D01*
X177777127Y-98703500D01*
X177822873Y-98703500D01*
X178269656Y-98614629D01*
X178648420Y-98361547D01*
X178901502Y-97982783D01*
X178990373Y-97536000D01*
X178901502Y-97089217D01*
X178648420Y-96710453D01*
X178269656Y-96457371D01*
X177822873Y-96368500D01*
X177777127Y-96368500D01*
X177330344Y-96457371D01*
X176951580Y-96710453D01*
X176698498Y-97089217D01*
X176609627Y-97536000D01*
X166146816Y-97536000D01*
X165623408Y-97012592D01*
X165499803Y-96930002D01*
X165354000Y-96901000D01*
X158832073Y-96901000D01*
X158707558Y-96776268D01*
X158667982Y-96759834D01*
X159400408Y-96027408D01*
X159482998Y-95903803D01*
X159512000Y-95758000D01*
X159512000Y-94951073D01*
X159636732Y-94826558D01*
X159727796Y-94607252D01*
X159728003Y-94369790D01*
X159637322Y-94150325D01*
X159633005Y-94146000D01*
X176626280Y-94146000D01*
X176626280Y-95846000D01*
X176648419Y-95963658D01*
X176717955Y-96071721D01*
X176824055Y-96144215D01*
X176950000Y-96169720D01*
X178650000Y-96169720D01*
X178767658Y-96147581D01*
X178875721Y-96078045D01*
X178948215Y-95971945D01*
X178973720Y-95846000D01*
X178973720Y-94146000D01*
X178951581Y-94028342D01*
X178882045Y-93920279D01*
X178775945Y-93847785D01*
X178650000Y-93822280D01*
X176950000Y-93822280D01*
X176832342Y-93844419D01*
X176724279Y-93913955D01*
X176651785Y-94020055D01*
X176626280Y-94146000D01*
X159633005Y-94146000D01*
X159469558Y-93982268D01*
X159250252Y-93891204D01*
X159012790Y-93890997D01*
X158793325Y-93981678D01*
X158625268Y-94149442D01*
X158534204Y-94368748D01*
X158533997Y-94606210D01*
X158624678Y-94825675D01*
X158750000Y-94951216D01*
X158750000Y-95600184D01*
X157591592Y-96758592D01*
X157509002Y-96882197D01*
X157509002Y-96882198D01*
X157480000Y-97028000D01*
X157480000Y-98044000D01*
X157509002Y-98189803D01*
X157591592Y-98313408D01*
X157772151Y-98493966D01*
X157771997Y-98670210D01*
X157862678Y-98889675D01*
X158030442Y-99057732D01*
X158070018Y-99074166D01*
X157576184Y-99568000D01*
X147021073Y-99568000D01*
X146896558Y-99443268D01*
X146677252Y-99352204D01*
X146439790Y-99351997D01*
X146220325Y-99442678D01*
X146052268Y-99610442D01*
X145961204Y-99829748D01*
X145960997Y-100067210D01*
X146051678Y-100286675D01*
X146219442Y-100454732D01*
X146438748Y-100545796D01*
X146676210Y-100546003D01*
X146895675Y-100455322D01*
X147021216Y-100330000D01*
X157734000Y-100330000D01*
X157879803Y-100300998D01*
X158003408Y-100218408D01*
X159707967Y-98513849D01*
X159884210Y-98514003D01*
X160103675Y-98423322D01*
X160271732Y-98255558D01*
X160362796Y-98036252D01*
X160363003Y-97798790D01*
X160306896Y-97663000D01*
X165196184Y-97663000D01*
X167678151Y-100144967D01*
X167677997Y-100321210D01*
X167768678Y-100540675D01*
X167936442Y-100708732D01*
X168003071Y-100736399D01*
X145796000Y-100736399D01*
X145796000Y-98507073D01*
X145920732Y-98382558D01*
X146011796Y-98163252D01*
X146012003Y-97925790D01*
X145921322Y-97706325D01*
X145753558Y-97538268D01*
X145534252Y-97447204D01*
X145296790Y-97446997D01*
X145077325Y-97537678D01*
X144909268Y-97705442D01*
X144818204Y-97924748D01*
X144817997Y-98162210D01*
X127392500Y-98162210D01*
X127392500Y-95622210D01*
X153072997Y-95622210D01*
X153163678Y-95841675D01*
X153331442Y-96009732D01*
X153550748Y-96100796D01*
X153788210Y-96101003D01*
X154007675Y-96010322D01*
X154133216Y-95885000D01*
X157270927Y-95885000D01*
X157395442Y-96009732D01*
X157614748Y-96100796D01*
X157852210Y-96101003D01*
X158071675Y-96010322D01*
X158239732Y-95842558D01*
X158330796Y-95623252D01*
X158331003Y-95385790D01*
X158240322Y-95166325D01*
X158072558Y-94998268D01*
X157853252Y-94907204D01*
X157615790Y-94906997D01*
X157396325Y-94997678D01*
X157270784Y-95123000D01*
X154133073Y-95123000D01*
X154008558Y-94998268D01*
X153789252Y-94907204D01*
X153551790Y-94906997D01*
X153332325Y-94997678D01*
X153164268Y-95165442D01*
X153073204Y-95384748D01*
X153072997Y-95622210D01*
X127392500Y-95622210D01*
X127392500Y-94606210D01*
X137959997Y-94606210D01*
X138050678Y-94825675D01*
X138218442Y-94993732D01*
X138437748Y-95084796D01*
X138675210Y-95085003D01*
X138894675Y-94994322D01*
X139062732Y-94826558D01*
X139153796Y-94607252D01*
X139154003Y-94369790D01*
X139063322Y-94150325D01*
X138895558Y-93982268D01*
X138868928Y-93971210D01*
X147103997Y-93971210D01*
X147194678Y-94190675D01*
X147362442Y-94358732D01*
X147581748Y-94449796D01*
X147612133Y-94449822D01*
X147611997Y-94606210D01*
X147702678Y-94825675D01*
X147870442Y-94993732D01*
X148089748Y-95084796D01*
X148267135Y-95084951D01*
X148398693Y-95216508D01*
X148398695Y-95216511D01*
X148522301Y-95299101D01*
X148668103Y-95328104D01*
X148668108Y-95328103D01*
X150956010Y-95328103D01*
X151101813Y-95299101D01*
X151153548Y-95264533D01*
X151353619Y-95264707D01*
X151573084Y-95174026D01*
X151741141Y-95006262D01*
X151832205Y-94786956D01*
X151832412Y-94549494D01*
X151741731Y-94330029D01*
X151573967Y-94161972D01*
X151354661Y-94070908D01*
X151117199Y-94070701D01*
X150897734Y-94161382D01*
X150729677Y-94329146D01*
X150638613Y-94548452D01*
X150638598Y-94566103D01*
X148825918Y-94566103D01*
X148805849Y-94546034D01*
X148806003Y-94369790D01*
X148749896Y-94234000D01*
X149523927Y-94234000D01*
X149648442Y-94358732D01*
X149867748Y-94449796D01*
X150105210Y-94450003D01*
X150324675Y-94359322D01*
X150492732Y-94191558D01*
X150583796Y-93972252D01*
X150584003Y-93734790D01*
X150493322Y-93515325D01*
X150325558Y-93347268D01*
X150106252Y-93256204D01*
X149868790Y-93255997D01*
X149649325Y-93346678D01*
X149523784Y-93472000D01*
X148164073Y-93472000D01*
X148039558Y-93347268D01*
X147820252Y-93256204D01*
X147582790Y-93255997D01*
X147363325Y-93346678D01*
X147195268Y-93514442D01*
X147104204Y-93733748D01*
X147103997Y-93971210D01*
X138868928Y-93971210D01*
X138676252Y-93891204D01*
X138438790Y-93890997D01*
X138219325Y-93981678D01*
X138051268Y-94149442D01*
X137960204Y-94368748D01*
X137959997Y-94606210D01*
X127392500Y-94606210D01*
X127392500Y-92828210D01*
X161962997Y-92828210D01*
X162053678Y-93047675D01*
X162221442Y-93215732D01*
X162440748Y-93306796D01*
X162678210Y-93307003D01*
X162897675Y-93216322D01*
X163065732Y-93048558D01*
X163156796Y-92829252D01*
X163157003Y-92591790D01*
X163066322Y-92372325D01*
X162898558Y-92204268D01*
X162679252Y-92113204D01*
X162441790Y-92112997D01*
X162222325Y-92203678D01*
X162054268Y-92371442D01*
X161963204Y-92590748D01*
X161962997Y-92828210D01*
X127392500Y-92828210D01*
X127392500Y-90542210D01*
X151294997Y-90542210D01*
X151385678Y-90761675D01*
X151553442Y-90929732D01*
X151772748Y-91020796D01*
X152010210Y-91021003D01*
X152229675Y-90930322D01*
X152397732Y-90762558D01*
X152488796Y-90543252D01*
X152489003Y-90305790D01*
X152398322Y-90086325D01*
X152230558Y-89918268D01*
X152011252Y-89827204D01*
X151773790Y-89826997D01*
X151554325Y-89917678D01*
X151386268Y-90085442D01*
X151295204Y-90304748D01*
X151294997Y-90542210D01*
X127392500Y-90542210D01*
X127392500Y-89018210D01*
X161962997Y-89018210D01*
X162053678Y-89237675D01*
X162221442Y-89405732D01*
X162440748Y-89496796D01*
X162678210Y-89497003D01*
X162897675Y-89406322D01*
X163065732Y-89238558D01*
X163156796Y-89019252D01*
X163157003Y-88781790D01*
X163066322Y-88562325D01*
X162898558Y-88394268D01*
X162679252Y-88303204D01*
X162441790Y-88302997D01*
X162222325Y-88393678D01*
X162054268Y-88561442D01*
X161963204Y-88780748D01*
X161962997Y-89018210D01*
X127392500Y-89018210D01*
X127392500Y-86351210D01*
X144309997Y-86351210D01*
X144400678Y-86570675D01*
X144568442Y-86738732D01*
X144787748Y-86829796D01*
X145025210Y-86830003D01*
X145244675Y-86739322D01*
X145412732Y-86571558D01*
X145503796Y-86352252D01*
X145504003Y-86114790D01*
X145413322Y-85895325D01*
X145245558Y-85727268D01*
X145026252Y-85636204D01*
X144788790Y-85635997D01*
X144569325Y-85726678D01*
X144401268Y-85894442D01*
X144310204Y-86113748D01*
X144309997Y-86351210D01*
X127392500Y-86351210D01*
X127392500Y-85256000D01*
X162402280Y-85256000D01*
X162402280Y-86956000D01*
X162424419Y-87073658D01*
X162493955Y-87181721D01*
X162600055Y-87254215D01*
X162726000Y-87279720D01*
X164426000Y-87279720D01*
X164543658Y-87257581D01*
X164651721Y-87188045D01*
X164724215Y-87081945D01*
X164749720Y-86956000D01*
X164749720Y-85256000D01*
X164727581Y-85138342D01*
X164658045Y-85030279D01*
X164551945Y-84957785D01*
X164426000Y-84932280D01*
X162726000Y-84932280D01*
X162608342Y-84954419D01*
X162500279Y-85023955D01*
X162427785Y-85130055D01*
X162402280Y-85256000D01*
X127392500Y-85256000D01*
X127392500Y-80938000D01*
X132684280Y-80938000D01*
X132684280Y-82638000D01*
X132706419Y-82755658D01*
X132775955Y-82863721D01*
X132882055Y-82936215D01*
X133008000Y-82961720D01*
X134708000Y-82961720D01*
X134825658Y-82939581D01*
X134933721Y-82870045D01*
X135006215Y-82763945D01*
X135031720Y-82638000D01*
X135031720Y-80938000D01*
X136367280Y-80938000D01*
X136367280Y-82638000D01*
X136389419Y-82755658D01*
X136458955Y-82863721D01*
X136565055Y-82936215D01*
X136691000Y-82961720D01*
X138391000Y-82961720D01*
X138508658Y-82939581D01*
X138616721Y-82870045D01*
X138689215Y-82763945D01*
X138714720Y-82638000D01*
X138714720Y-80938000D01*
X140050280Y-80938000D01*
X140050280Y-82638000D01*
X140072419Y-82755658D01*
X140141955Y-82863721D01*
X140248055Y-82936215D01*
X140374000Y-82961720D01*
X142074000Y-82961720D01*
X142191658Y-82939581D01*
X142299721Y-82870045D01*
X142372215Y-82763945D01*
X142397720Y-82638000D01*
X142397720Y-80938000D01*
X143733280Y-80938000D01*
X143733280Y-82638000D01*
X143755419Y-82755658D01*
X143824955Y-82863721D01*
X143931055Y-82936215D01*
X144057000Y-82961720D01*
X145757000Y-82961720D01*
X145874658Y-82939581D01*
X145982721Y-82870045D01*
X146055215Y-82763945D01*
X146080720Y-82638000D01*
X146080720Y-80938000D01*
X147416280Y-80938000D01*
X147416280Y-82638000D01*
X147438419Y-82755658D01*
X147507955Y-82863721D01*
X147614055Y-82936215D01*
X147740000Y-82961720D01*
X149440000Y-82961720D01*
X149557658Y-82939581D01*
X149665721Y-82870045D01*
X149738215Y-82763945D01*
X149763720Y-82638000D01*
X149763720Y-80938000D01*
X151099280Y-80938000D01*
X151099280Y-82638000D01*
X151121419Y-82755658D01*
X151190955Y-82863721D01*
X151297055Y-82936215D01*
X151423000Y-82961720D01*
X153123000Y-82961720D01*
X153240658Y-82939581D01*
X153348721Y-82870045D01*
X153421215Y-82763945D01*
X153446720Y-82638000D01*
X153446720Y-80938000D01*
X154782280Y-80938000D01*
X154782280Y-82638000D01*
X154804419Y-82755658D01*
X154873955Y-82863721D01*
X154980055Y-82936215D01*
X155106000Y-82961720D01*
X156806000Y-82961720D01*
X156923658Y-82939581D01*
X157031721Y-82870045D01*
X157104215Y-82763945D01*
X157129720Y-82638000D01*
X157129720Y-80938000D01*
X158465280Y-80938000D01*
X158465280Y-82638000D01*
X158487419Y-82755658D01*
X158556955Y-82863721D01*
X158663055Y-82936215D01*
X158789000Y-82961720D01*
X160489000Y-82961720D01*
X160606658Y-82939581D01*
X160714721Y-82870045D01*
X160787215Y-82763945D01*
X160812720Y-82638000D01*
X160812720Y-81573000D01*
X162402280Y-81573000D01*
X162402280Y-83273000D01*
X162424419Y-83390658D01*
X162493955Y-83498721D01*
X162600055Y-83571215D01*
X162726000Y-83596720D01*
X164426000Y-83596720D01*
X164543658Y-83574581D01*
X164651721Y-83505045D01*
X164724215Y-83398945D01*
X164749720Y-83273000D01*
X164749720Y-81573000D01*
X164727581Y-81455342D01*
X164658045Y-81347279D01*
X164551945Y-81274785D01*
X164426000Y-81249280D01*
X162726000Y-81249280D01*
X162608342Y-81271419D01*
X162500279Y-81340955D01*
X162427785Y-81447055D01*
X162402280Y-81573000D01*
X160812720Y-81573000D01*
X160812720Y-80938000D01*
X160790581Y-80820342D01*
X160721045Y-80712279D01*
X160614945Y-80639785D01*
X160489000Y-80614280D01*
X158789000Y-80614280D01*
X158671342Y-80636419D01*
X158563279Y-80705955D01*
X158490785Y-80812055D01*
X158465280Y-80938000D01*
X157129720Y-80938000D01*
X157107581Y-80820342D01*
X157038045Y-80712279D01*
X156931945Y-80639785D01*
X156806000Y-80614280D01*
X155106000Y-80614280D01*
X154988342Y-80636419D01*
X154880279Y-80705955D01*
X154807785Y-80812055D01*
X154782280Y-80938000D01*
X153446720Y-80938000D01*
X153424581Y-80820342D01*
X153355045Y-80712279D01*
X153248945Y-80639785D01*
X153123000Y-80614280D01*
X151423000Y-80614280D01*
X151305342Y-80636419D01*
X151197279Y-80705955D01*
X151124785Y-80812055D01*
X151099280Y-80938000D01*
X149763720Y-80938000D01*
X149741581Y-80820342D01*
X149672045Y-80712279D01*
X149565945Y-80639785D01*
X149440000Y-80614280D01*
X147740000Y-80614280D01*
X147622342Y-80636419D01*
X147514279Y-80705955D01*
X147441785Y-80812055D01*
X147416280Y-80938000D01*
X146080720Y-80938000D01*
X146058581Y-80820342D01*
X145989045Y-80712279D01*
X145882945Y-80639785D01*
X145757000Y-80614280D01*
X144057000Y-80614280D01*
X143939342Y-80636419D01*
X143831279Y-80705955D01*
X143758785Y-80812055D01*
X143733280Y-80938000D01*
X142397720Y-80938000D01*
X142375581Y-80820342D01*
X142306045Y-80712279D01*
X142199945Y-80639785D01*
X142074000Y-80614280D01*
X140374000Y-80614280D01*
X140256342Y-80636419D01*
X140148279Y-80705955D01*
X140075785Y-80812055D01*
X140050280Y-80938000D01*
X138714720Y-80938000D01*
X138692581Y-80820342D01*
X138623045Y-80712279D01*
X138516945Y-80639785D01*
X138391000Y-80614280D01*
X136691000Y-80614280D01*
X136573342Y-80636419D01*
X136465279Y-80705955D01*
X136392785Y-80812055D01*
X136367280Y-80938000D01*
X135031720Y-80938000D01*
X135009581Y-80820342D01*
X134940045Y-80712279D01*
X134833945Y-80639785D01*
X134708000Y-80614280D01*
X133008000Y-80614280D01*
X132890342Y-80636419D01*
X132782279Y-80705955D01*
X132709785Y-80812055D01*
X132684280Y-80938000D01*
X127392500Y-80938000D01*
X127392500Y-76592500D01*
X179947500Y-76592500D01*
X179947500Y-144387500D01*
X179947500Y-144387500D01*
G37*
X179947500Y-144387500D02*
X127392500Y-144387500D01*
X127392500Y-140928023D01*
X135073205Y-140928023D01*
X135235852Y-141321659D01*
X135536757Y-141623089D01*
X135930108Y-141786423D01*
X136356023Y-141786795D01*
X136749659Y-141624148D01*
X137051089Y-141323243D01*
X137214423Y-140929892D01*
X137214424Y-140928023D01*
X146757205Y-140928023D01*
X146919852Y-141321659D01*
X147220757Y-141623089D01*
X147614108Y-141786423D01*
X148040023Y-141786795D01*
X148433659Y-141624148D01*
X148735089Y-141323243D01*
X148898423Y-140929892D01*
X148898424Y-140928023D01*
X158441205Y-140928023D01*
X158603852Y-141321659D01*
X158904757Y-141623089D01*
X159298108Y-141786423D01*
X159724023Y-141786795D01*
X160117659Y-141624148D01*
X160419089Y-141323243D01*
X160582423Y-140929892D01*
X160582424Y-140928023D01*
X170125205Y-140928023D01*
X170287852Y-141321659D01*
X170588757Y-141623089D01*
X170982108Y-141786423D01*
X171408023Y-141786795D01*
X171801659Y-141624148D01*
X172103089Y-141323243D01*
X172266423Y-140929892D01*
X172266795Y-140503977D01*
X172104148Y-140110341D01*
X171803243Y-139808911D01*
X171540957Y-139700000D01*
X176609627Y-139700000D01*
X176698498Y-140146783D01*
X176951580Y-140525547D01*
X177330344Y-140778629D01*
X177777127Y-140867500D01*
X177822873Y-140867500D01*
X178269656Y-140778629D01*
X178648420Y-140525547D01*
X178901502Y-140146783D01*
X178990373Y-139700000D01*
X178901502Y-139253217D01*
X178648420Y-138874453D01*
X178269656Y-138621371D01*
X177822873Y-138532500D01*
X177777127Y-138532500D01*
X177330344Y-138621371D01*
X176951580Y-138874453D01*
X176698498Y-139253217D01*
X176609627Y-139700000D01*
X171540957Y-139700000D01*
X171409892Y-139645577D01*
X170983977Y-139645205D01*
X170590341Y-139807852D01*
X170288911Y-140108757D01*
X170125577Y-140502108D01*
X170125205Y-140928023D01*
X160582424Y-140928023D01*
X160582795Y-140503977D01*
X160420148Y-140110341D01*
X160119243Y-139808911D01*
X159725892Y-139645577D01*
X159299977Y-139645205D01*
X158906341Y-139807852D01*
X158604911Y-140108757D01*
X158441577Y-140502108D01*
X158441205Y-140928023D01*
X148898424Y-140928023D01*
X148898795Y-140503977D01*
X148736148Y-140110341D01*
X148435243Y-139808911D01*
X148041892Y-139645577D01*
X147615977Y-139645205D01*
X147222341Y-139807852D01*
X146920911Y-140108757D01*
X146757577Y-140502108D01*
X146757205Y-140928023D01*
X137214424Y-140928023D01*
X137214795Y-140503977D01*
X137052148Y-140110341D01*
X136751243Y-139808911D01*
X136357892Y-139645577D01*
X135931977Y-139645205D01*
X135538341Y-139807852D01*
X135236911Y-140108757D01*
X135073577Y-140502108D01*
X135073205Y-140928023D01*
X127392500Y-140928023D01*
X127392500Y-139700000D01*
X128349627Y-139700000D01*
X128438498Y-140146783D01*
X128691580Y-140525547D01*
X129070344Y-140778629D01*
X129517127Y-140867500D01*
X129562873Y-140867500D01*
X130009656Y-140778629D01*
X130388420Y-140525547D01*
X130641502Y-140146783D01*
X130730373Y-139700000D01*
X130641502Y-139253217D01*
X130388420Y-138874453D01*
X130009656Y-138621371D01*
X129562873Y-138532500D01*
X129517127Y-138532500D01*
X129070344Y-138621371D01*
X128691580Y-138874453D01*
X128438498Y-139253217D01*
X128349627Y-139700000D01*
X127392500Y-139700000D01*
X127392500Y-137160000D01*
X128349627Y-137160000D01*
X128438498Y-137606783D01*
X128691580Y-137985547D01*
X129070344Y-138238629D01*
X129517127Y-138327500D01*
X129562873Y-138327500D01*
X130009656Y-138238629D01*
X130388420Y-137985547D01*
X130641502Y-137606783D01*
X130730373Y-137160000D01*
X176609627Y-137160000D01*
X176698498Y-137606783D01*
X176951580Y-137985547D01*
X177330344Y-138238629D01*
X177777127Y-138327500D01*
X177822873Y-138327500D01*
X178269656Y-138238629D01*
X178648420Y-137985547D01*
X178901502Y-137606783D01*
X178990373Y-137160000D01*
X178901502Y-136713217D01*
X178648420Y-136334453D01*
X178269656Y-136081371D01*
X177822873Y-135992500D01*
X177777127Y-135992500D01*
X177330344Y-136081371D01*
X176951580Y-136334453D01*
X176698498Y-136713217D01*
X176609627Y-137160000D01*
X130730373Y-137160000D01*
X130641502Y-136713217D01*
X130388420Y-136334453D01*
X130009656Y-136081371D01*
X129562873Y-135992500D01*
X129517127Y-135992500D01*
X129070344Y-136081371D01*
X128691580Y-136334453D01*
X128438498Y-136713217D01*
X128349627Y-137160000D01*
X127392500Y-137160000D01*
X127392500Y-134620000D01*
X128349627Y-134620000D01*
X128438498Y-135066783D01*
X128691580Y-135445547D01*
X129070344Y-135698629D01*
X129517127Y-135787500D01*
X129562873Y-135787500D01*
X130009656Y-135698629D01*
X130388420Y-135445547D01*
X130641502Y-135066783D01*
X130730373Y-134620000D01*
X176609627Y-134620000D01*
X176698498Y-135066783D01*
X176951580Y-135445547D01*
X177330344Y-135698629D01*
X177777127Y-135787500D01*
X177822873Y-135787500D01*
X178269656Y-135698629D01*
X178648420Y-135445547D01*
X178901502Y-135066783D01*
X178990373Y-134620000D01*
X178901502Y-134173217D01*
X178648420Y-133794453D01*
X178269656Y-133541371D01*
X177822873Y-133452500D01*
X177777127Y-133452500D01*
X177330344Y-133541371D01*
X176951580Y-133794453D01*
X176698498Y-134173217D01*
X176609627Y-134620000D01*
X130730373Y-134620000D01*
X130641502Y-134173217D01*
X130388420Y-133794453D01*
X130009656Y-133541371D01*
X129562873Y-133452500D01*
X129517127Y-133452500D01*
X129070344Y-133541371D01*
X128691580Y-133794453D01*
X128438498Y-134173217D01*
X128349627Y-134620000D01*
X127392500Y-134620000D01*
X127392500Y-132080000D01*
X128349627Y-132080000D01*
X128438498Y-132526783D01*
X128691580Y-132905547D01*
X129070344Y-133158629D01*
X129517127Y-133247500D01*
X129562873Y-133247500D01*
X130009656Y-133158629D01*
X130388420Y-132905547D01*
X130641502Y-132526783D01*
X130730373Y-132080000D01*
X176609627Y-132080000D01*
X176698498Y-132526783D01*
X176951580Y-132905547D01*
X177330344Y-133158629D01*
X177777127Y-133247500D01*
X177822873Y-133247500D01*
X178269656Y-133158629D01*
X178648420Y-132905547D01*
X178901502Y-132526783D01*
X178990373Y-132080000D01*
X178901502Y-131633217D01*
X178648420Y-131254453D01*
X178269656Y-131001371D01*
X177822873Y-130912500D01*
X177777127Y-130912500D01*
X177330344Y-131001371D01*
X176951580Y-131254453D01*
X176698498Y-131633217D01*
X176609627Y-132080000D01*
X130730373Y-132080000D01*
X130641502Y-131633217D01*
X130388420Y-131254453D01*
X130009656Y-131001371D01*
X129562873Y-130912500D01*
X129517127Y-130912500D01*
X129070344Y-131001371D01*
X128691580Y-131254453D01*
X128438498Y-131633217D01*
X128349627Y-132080000D01*
X127392500Y-132080000D01*
X127392500Y-129540000D01*
X128349627Y-129540000D01*
X128438498Y-129986783D01*
X128691580Y-130365547D01*
X129070344Y-130618629D01*
X129517127Y-130707500D01*
X129562873Y-130707500D01*
X130009656Y-130618629D01*
X130388420Y-130365547D01*
X130641502Y-129986783D01*
X130730373Y-129540000D01*
X176609627Y-129540000D01*
X176698498Y-129986783D01*
X176951580Y-130365547D01*
X177330344Y-130618629D01*
X177777127Y-130707500D01*
X177822873Y-130707500D01*
X178269656Y-130618629D01*
X178648420Y-130365547D01*
X178901502Y-129986783D01*
X178990373Y-129540000D01*
X178901502Y-129093217D01*
X178648420Y-128714453D01*
X178269656Y-128461371D01*
X177822873Y-128372500D01*
X177777127Y-128372500D01*
X177330344Y-128461371D01*
X176951580Y-128714453D01*
X176698498Y-129093217D01*
X176609627Y-129540000D01*
X130730373Y-129540000D01*
X130641502Y-129093217D01*
X130388420Y-128714453D01*
X130009656Y-128461371D01*
X129641853Y-128388210D01*
X139102997Y-128388210D01*
X139193678Y-128607675D01*
X139361442Y-128775732D01*
X139580748Y-128866796D01*
X139818210Y-128867003D01*
X140037675Y-128776322D01*
X140205732Y-128608558D01*
X140296796Y-128389252D01*
X140296796Y-128388210D01*
X150532997Y-128388210D01*
X150623678Y-128607675D01*
X150791442Y-128775732D01*
X151010748Y-128866796D01*
X151248210Y-128867003D01*
X151467675Y-128776322D01*
X151635732Y-128608558D01*
X151726796Y-128389252D01*
X151726796Y-128388210D01*
X161962997Y-128388210D01*
X162053678Y-128607675D01*
X162221442Y-128775732D01*
X162440748Y-128866796D01*
X162678210Y-128867003D01*
X162897675Y-128776322D01*
X163065732Y-128608558D01*
X163156796Y-128389252D01*
X163156796Y-128388210D01*
X167042997Y-128388210D01*
X167133678Y-128607675D01*
X167301442Y-128775732D01*
X167520748Y-128866796D01*
X167758210Y-128867003D01*
X167977675Y-128776322D01*
X168145732Y-128608558D01*
X168236796Y-128389252D01*
X168236796Y-128388210D01*
X174662997Y-128388210D01*
X174753678Y-128607675D01*
X174921442Y-128775732D01*
X175140748Y-128866796D01*
X175378210Y-128867003D01*
X175597675Y-128776322D01*
X175765732Y-128608558D01*
X175856796Y-128389252D01*
X175857003Y-128151790D01*
X175766322Y-127932325D01*
X175598558Y-127764268D01*
X175379252Y-127673204D01*
X175141790Y-127672997D01*
X174922325Y-127763678D01*
X174754268Y-127931442D01*
X174663204Y-128150748D01*
X174662997Y-128388210D01*
X168236796Y-128388210D01*
X168237003Y-128151790D01*
X168146322Y-127932325D01*
X167978558Y-127764268D01*
X167759252Y-127673204D01*
X167521790Y-127672997D01*
X167302325Y-127763678D01*
X167134268Y-127931442D01*
X167043204Y-128150748D01*
X167042997Y-128388210D01*
X163156796Y-128388210D01*
X163157003Y-128151790D01*
X163066322Y-127932325D01*
X162898558Y-127764268D01*
X162679252Y-127673204D01*
X162441790Y-127672997D01*
X162222325Y-127763678D01*
X162054268Y-127931442D01*
X161963204Y-128150748D01*
X161962997Y-128388210D01*
X151726796Y-128388210D01*
X151727003Y-128151790D01*
X151636322Y-127932325D01*
X151468558Y-127764268D01*
X151249252Y-127673204D01*
X151011790Y-127672997D01*
X150792325Y-127763678D01*
X150624268Y-127931442D01*
X150533204Y-128150748D01*
X150532997Y-128388210D01*
X140296796Y-128388210D01*
X140297003Y-128151790D01*
X140206322Y-127932325D01*
X140038558Y-127764268D01*
X139819252Y-127673204D01*
X139581790Y-127672997D01*
X139362325Y-127763678D01*
X139194268Y-127931442D01*
X139103204Y-128150748D01*
X139102997Y-128388210D01*
X129641853Y-128388210D01*
X129562873Y-128372500D01*
X129517127Y-128372500D01*
X129070344Y-128461371D01*
X128691580Y-128714453D01*
X128438498Y-129093217D01*
X128349627Y-129540000D01*
X127392500Y-129540000D01*
X127392500Y-126150000D01*
X128366280Y-126150000D01*
X128366280Y-127850000D01*
X128388419Y-127967658D01*
X128457955Y-128075721D01*
X128564055Y-128148215D01*
X128690000Y-128173720D01*
X130390000Y-128173720D01*
X130507658Y-128151581D01*
X130615721Y-128082045D01*
X130688215Y-127975945D01*
X130713720Y-127850000D01*
X130713720Y-127000000D01*
X176609627Y-127000000D01*
X176698498Y-127446783D01*
X176951580Y-127825547D01*
X177330344Y-128078629D01*
X177777127Y-128167500D01*
X177822873Y-128167500D01*
X178269656Y-128078629D01*
X178648420Y-127825547D01*
X178901502Y-127446783D01*
X178990373Y-127000000D01*
X178901502Y-126553217D01*
X178648420Y-126174453D01*
X178269656Y-125921371D01*
X177822873Y-125832500D01*
X177777127Y-125832500D01*
X177330344Y-125921371D01*
X176951580Y-126174453D01*
X176698498Y-126553217D01*
X176609627Y-127000000D01*
X130713720Y-127000000D01*
X130713720Y-126150000D01*
X130691581Y-126032342D01*
X130622045Y-125924279D01*
X130515945Y-125851785D01*
X130390000Y-125826280D01*
X128690000Y-125826280D01*
X128572342Y-125848419D01*
X128464279Y-125917955D01*
X128391785Y-126024055D01*
X128366280Y-126150000D01*
X127392500Y-126150000D01*
X127392500Y-124460000D01*
X176609627Y-124460000D01*
X176698498Y-124906783D01*
X176951580Y-125285547D01*
X177330344Y-125538629D01*
X177777127Y-125627500D01*
X177822873Y-125627500D01*
X178269656Y-125538629D01*
X178648420Y-125285547D01*
X178901502Y-124906783D01*
X178990373Y-124460000D01*
X178901502Y-124013217D01*
X178648420Y-123634453D01*
X178269656Y-123381371D01*
X177822873Y-123292500D01*
X177777127Y-123292500D01*
X177330344Y-123381371D01*
X176951580Y-123634453D01*
X176698498Y-124013217D01*
X176609627Y-124460000D01*
X127392500Y-124460000D01*
X127392500Y-121920000D01*
X128349627Y-121920000D01*
X128438498Y-122366783D01*
X128691580Y-122745547D01*
X129070344Y-122998629D01*
X129517127Y-123087500D01*
X129562873Y-123087500D01*
X130009656Y-122998629D01*
X130388420Y-122745547D01*
X130641502Y-122366783D01*
X130730373Y-121920000D01*
X130641502Y-121473217D01*
X130388420Y-121094453D01*
X130161755Y-120943000D01*
X136049780Y-120943000D01*
X136049780Y-122643000D01*
X136071919Y-122760658D01*
X136141455Y-122868721D01*
X136247555Y-122941215D01*
X136373500Y-122966720D01*
X138073500Y-122966720D01*
X138191158Y-122944581D01*
X138299221Y-122875045D01*
X138371715Y-122768945D01*
X138397220Y-122643000D01*
X138397220Y-122038210D01*
X139102997Y-122038210D01*
X139193678Y-122257675D01*
X139361442Y-122425732D01*
X139580748Y-122516796D01*
X139818210Y-122517003D01*
X140037675Y-122426322D01*
X140205732Y-122258558D01*
X140296796Y-122039252D01*
X140296796Y-122038210D01*
X144182997Y-122038210D01*
X144273678Y-122257675D01*
X144441442Y-122425732D01*
X144660748Y-122516796D01*
X144898210Y-122517003D01*
X145117675Y-122426322D01*
X145285732Y-122258558D01*
X145376796Y-122039252D01*
X145377003Y-121801790D01*
X145286322Y-121582325D01*
X145118558Y-121414268D01*
X144899252Y-121323204D01*
X144661790Y-121322997D01*
X144442325Y-121413678D01*
X144274268Y-121581442D01*
X144183204Y-121800748D01*
X144182997Y-122038210D01*
X140296796Y-122038210D01*
X140297003Y-121801790D01*
X140206322Y-121582325D01*
X140038558Y-121414268D01*
X139819252Y-121323204D01*
X139581790Y-121322997D01*
X139362325Y-121413678D01*
X139194268Y-121581442D01*
X139103204Y-121800748D01*
X139102997Y-122038210D01*
X138397220Y-122038210D01*
X138397220Y-120943000D01*
X147924280Y-120943000D01*
X147924280Y-122643000D01*
X147946419Y-122760658D01*
X148015955Y-122868721D01*
X148122055Y-122941215D01*
X148248000Y-122966720D01*
X149948000Y-122966720D01*
X150065658Y-122944581D01*
X150173721Y-122875045D01*
X150246215Y-122768945D01*
X150271720Y-122643000D01*
X150271720Y-122038210D01*
X150532997Y-122038210D01*
X150623678Y-122257675D01*
X150791442Y-122425732D01*
X151010748Y-122516796D01*
X151248210Y-122517003D01*
X151467675Y-122426322D01*
X151635732Y-122258558D01*
X151726796Y-122039252D01*
X151726796Y-122038210D01*
X155612997Y-122038210D01*
X155703678Y-122257675D01*
X155871442Y-122425732D01*
X156090748Y-122516796D01*
X156328210Y-122517003D01*
X156547675Y-122426322D01*
X156715732Y-122258558D01*
X156806796Y-122039252D01*
X156807003Y-121801790D01*
X156716322Y-121582325D01*
X156548558Y-121414268D01*
X156329252Y-121323204D01*
X156091790Y-121322997D01*
X155872325Y-121413678D01*
X155704268Y-121581442D01*
X155613204Y-121800748D01*
X155612997Y-122038210D01*
X151726796Y-122038210D01*
X151727003Y-121801790D01*
X151636322Y-121582325D01*
X151468558Y-121414268D01*
X151249252Y-121323204D01*
X151011790Y-121322997D01*
X150792325Y-121413678D01*
X150624268Y-121581442D01*
X150533204Y-121800748D01*
X150532997Y-122038210D01*
X150271720Y-122038210D01*
X150271720Y-120943000D01*
X159608280Y-120943000D01*
X159608280Y-122643000D01*
X159630419Y-122760658D01*
X159699955Y-122868721D01*
X159806055Y-122941215D01*
X159932000Y-122966720D01*
X161632000Y-122966720D01*
X161749658Y-122944581D01*
X161857721Y-122875045D01*
X161930215Y-122768945D01*
X161955720Y-122643000D01*
X161955720Y-122038210D01*
X161962997Y-122038210D01*
X162053678Y-122257675D01*
X162221442Y-122425732D01*
X162440748Y-122516796D01*
X162678210Y-122517003D01*
X162897675Y-122426322D01*
X163065732Y-122258558D01*
X163156796Y-122039252D01*
X163156796Y-122038210D01*
X168312997Y-122038210D01*
X168403678Y-122257675D01*
X168571442Y-122425732D01*
X168790748Y-122516796D01*
X169028210Y-122517003D01*
X169247675Y-122426322D01*
X169415732Y-122258558D01*
X169506796Y-122039252D01*
X169507003Y-121801790D01*
X169416322Y-121582325D01*
X169248558Y-121414268D01*
X169029252Y-121323204D01*
X168791790Y-121322997D01*
X168572325Y-121413678D01*
X168404268Y-121581442D01*
X168313204Y-121800748D01*
X168312997Y-122038210D01*
X163156796Y-122038210D01*
X163157003Y-121801790D01*
X163066322Y-121582325D01*
X162898558Y-121414268D01*
X162679252Y-121323204D01*
X162441790Y-121322997D01*
X162222325Y-121413678D01*
X162054268Y-121581442D01*
X161963204Y-121800748D01*
X161962997Y-122038210D01*
X161955720Y-122038210D01*
X161955720Y-120943000D01*
X171292280Y-120943000D01*
X171292280Y-122643000D01*
X171314419Y-122760658D01*
X171383955Y-122868721D01*
X171490055Y-122941215D01*
X171616000Y-122966720D01*
X173316000Y-122966720D01*
X173433658Y-122944581D01*
X173541721Y-122875045D01*
X173614215Y-122768945D01*
X173639720Y-122643000D01*
X173639720Y-122038210D01*
X174662997Y-122038210D01*
X174753678Y-122257675D01*
X174921442Y-122425732D01*
X175140748Y-122516796D01*
X175378210Y-122517003D01*
X175597675Y-122426322D01*
X175765732Y-122258558D01*
X175856796Y-122039252D01*
X175857003Y-121801790D01*
X175766322Y-121582325D01*
X175598558Y-121414268D01*
X175379252Y-121323204D01*
X175141790Y-121322997D01*
X174922325Y-121413678D01*
X174754268Y-121581442D01*
X174663204Y-121800748D01*
X174662997Y-122038210D01*
X173639720Y-122038210D01*
X173639720Y-121070000D01*
X176626280Y-121070000D01*
X176626280Y-122770000D01*
X176648419Y-122887658D01*
X176717955Y-122995721D01*
X176824055Y-123068215D01*
X176950000Y-123093720D01*
X178650000Y-123093720D01*
X178767658Y-123071581D01*
X178875721Y-123002045D01*
X178948215Y-122895945D01*
X178973720Y-122770000D01*
X178973720Y-121070000D01*
X178951581Y-120952342D01*
X178882045Y-120844279D01*
X178775945Y-120771785D01*
X178650000Y-120746280D01*
X176950000Y-120746280D01*
X176832342Y-120768419D01*
X176724279Y-120837955D01*
X176651785Y-120944055D01*
X176626280Y-121070000D01*
X173639720Y-121070000D01*
X173639720Y-120943000D01*
X173617581Y-120825342D01*
X173548045Y-120717279D01*
X173441945Y-120644785D01*
X173316000Y-120619280D01*
X171616000Y-120619280D01*
X171498342Y-120641419D01*
X171390279Y-120710955D01*
X171317785Y-120817055D01*
X171292280Y-120943000D01*
X161955720Y-120943000D01*
X161933581Y-120825342D01*
X161864045Y-120717279D01*
X161757945Y-120644785D01*
X161632000Y-120619280D01*
X159932000Y-120619280D01*
X159814342Y-120641419D01*
X159706279Y-120710955D01*
X159633785Y-120817055D01*
X159608280Y-120943000D01*
X150271720Y-120943000D01*
X150249581Y-120825342D01*
X150180045Y-120717279D01*
X150073945Y-120644785D01*
X149948000Y-120619280D01*
X148248000Y-120619280D01*
X148130342Y-120641419D01*
X148022279Y-120710955D01*
X147949785Y-120817055D01*
X147924280Y-120943000D01*
X138397220Y-120943000D01*
X138375081Y-120825342D01*
X138305545Y-120717279D01*
X138199445Y-120644785D01*
X138073500Y-120619280D01*
X136373500Y-120619280D01*
X136255842Y-120641419D01*
X136147779Y-120710955D01*
X136075285Y-120817055D01*
X136049780Y-120943000D01*
X130161755Y-120943000D01*
X130009656Y-120841371D01*
X129562873Y-120752500D01*
X129517127Y-120752500D01*
X129070344Y-120841371D01*
X128691580Y-121094453D01*
X128438498Y-121473217D01*
X128349627Y-121920000D01*
X127392500Y-121920000D01*
X127392500Y-117856000D01*
X176609627Y-117856000D01*
X176698498Y-118302783D01*
X176951580Y-118681547D01*
X177330344Y-118934629D01*
X177777127Y-119023500D01*
X177822873Y-119023500D01*
X178269656Y-118934629D01*
X178648420Y-118681547D01*
X178901502Y-118302783D01*
X178990373Y-117856000D01*
X178901502Y-117409217D01*
X178648420Y-117030453D01*
X178269656Y-116777371D01*
X177822873Y-116688500D01*
X177777127Y-116688500D01*
X177330344Y-116777371D01*
X176951580Y-117030453D01*
X176698498Y-117409217D01*
X176609627Y-117856000D01*
X127392500Y-117856000D01*
X127392500Y-116958210D01*
X150532997Y-116958210D01*
X150623678Y-117177675D01*
X150791442Y-117345732D01*
X151010748Y-117436796D01*
X151248210Y-117437003D01*
X151467675Y-117346322D01*
X151635732Y-117178558D01*
X151726796Y-116959252D01*
X151726796Y-116958210D01*
X155612997Y-116958210D01*
X155703678Y-117177675D01*
X155871442Y-117345732D01*
X156090748Y-117436796D01*
X156328210Y-117437003D01*
X156547675Y-117346322D01*
X156715732Y-117178558D01*
X156806796Y-116959252D01*
X156806796Y-116958210D01*
X161962997Y-116958210D01*
X162053678Y-117177675D01*
X162221442Y-117345732D01*
X162440748Y-117436796D01*
X162678210Y-117437003D01*
X162897675Y-117346322D01*
X163065732Y-117178558D01*
X163156796Y-116959252D01*
X163156796Y-116958210D01*
X165772997Y-116958210D01*
X165863678Y-117177675D01*
X166031442Y-117345732D01*
X166250748Y-117436796D01*
X166488210Y-117437003D01*
X166707675Y-117346322D01*
X166875732Y-117178558D01*
X166966796Y-116959252D01*
X166966796Y-116958210D01*
X169582997Y-116958210D01*
X169673678Y-117177675D01*
X169841442Y-117345732D01*
X170060748Y-117436796D01*
X170298210Y-117437003D01*
X170517675Y-117346322D01*
X170685732Y-117178558D01*
X170776796Y-116959252D01*
X170776796Y-116958210D01*
X174662997Y-116958210D01*
X174753678Y-117177675D01*
X174921442Y-117345732D01*
X175140748Y-117436796D01*
X175378210Y-117437003D01*
X175597675Y-117346322D01*
X175765732Y-117178558D01*
X175856796Y-116959252D01*
X175857003Y-116721790D01*
X175766322Y-116502325D01*
X175598558Y-116334268D01*
X175379252Y-116243204D01*
X175141790Y-116242997D01*
X174922325Y-116333678D01*
X174754268Y-116501442D01*
X174663204Y-116720748D01*
X174662997Y-116958210D01*
X170776796Y-116958210D01*
X170777003Y-116721790D01*
X170686322Y-116502325D01*
X170518558Y-116334268D01*
X170299252Y-116243204D01*
X170061790Y-116242997D01*
X169842325Y-116333678D01*
X169674268Y-116501442D01*
X169583204Y-116720748D01*
X169582997Y-116958210D01*
X166966796Y-116958210D01*
X166967003Y-116721790D01*
X166876322Y-116502325D01*
X166708558Y-116334268D01*
X166489252Y-116243204D01*
X166251790Y-116242997D01*
X166032325Y-116333678D01*
X165864268Y-116501442D01*
X165773204Y-116720748D01*
X165772997Y-116958210D01*
X163156796Y-116958210D01*
X163157003Y-116721790D01*
X163066322Y-116502325D01*
X162898558Y-116334268D01*
X162679252Y-116243204D01*
X162441790Y-116242997D01*
X162222325Y-116333678D01*
X162054268Y-116501442D01*
X161963204Y-116720748D01*
X161962997Y-116958210D01*
X156806796Y-116958210D01*
X156807003Y-116721790D01*
X156716322Y-116502325D01*
X156548558Y-116334268D01*
X156329252Y-116243204D01*
X156091790Y-116242997D01*
X155872325Y-116333678D01*
X155704268Y-116501442D01*
X155613204Y-116720748D01*
X155612997Y-116958210D01*
X151726796Y-116958210D01*
X151727003Y-116721790D01*
X151636322Y-116502325D01*
X151468558Y-116334268D01*
X151249252Y-116243204D01*
X151011790Y-116242997D01*
X150792325Y-116333678D01*
X150624268Y-116501442D01*
X150533204Y-116720748D01*
X150532997Y-116958210D01*
X127392500Y-116958210D01*
X127392500Y-115688210D01*
X144182997Y-115688210D01*
X144273678Y-115907675D01*
X144441442Y-116075732D01*
X144660748Y-116166796D01*
X144898210Y-116167003D01*
X145117675Y-116076322D01*
X145285732Y-115908558D01*
X145376796Y-115689252D01*
X145377003Y-115451790D01*
X145320896Y-115316000D01*
X176609627Y-115316000D01*
X176698498Y-115762783D01*
X176951580Y-116141547D01*
X177330344Y-116394629D01*
X177777127Y-116483500D01*
X177822873Y-116483500D01*
X178269656Y-116394629D01*
X178648420Y-116141547D01*
X178901502Y-115762783D01*
X178990373Y-115316000D01*
X178901502Y-114869217D01*
X178648420Y-114490453D01*
X178269656Y-114237371D01*
X177822873Y-114148500D01*
X177777127Y-114148500D01*
X177330344Y-114237371D01*
X176951580Y-114490453D01*
X176698498Y-114869217D01*
X176609627Y-115316000D01*
X145320896Y-115316000D01*
X145286322Y-115232325D01*
X145118558Y-115064268D01*
X144899252Y-114973204D01*
X144661790Y-114972997D01*
X144442325Y-115063678D01*
X144274268Y-115231442D01*
X144183204Y-115450748D01*
X144182997Y-115688210D01*
X127392500Y-115688210D01*
X127392500Y-114300000D01*
X128349627Y-114300000D01*
X128438498Y-114746783D01*
X128691580Y-115125547D01*
X129070344Y-115378629D01*
X129517127Y-115467500D01*
X129562873Y-115467500D01*
X130009656Y-115378629D01*
X130388420Y-115125547D01*
X130641502Y-114746783D01*
X130730373Y-114300000D01*
X130703363Y-114164210D01*
X156628997Y-114164210D01*
X156719678Y-114383675D01*
X156887442Y-114551732D01*
X157106748Y-114642796D01*
X157344210Y-114643003D01*
X157563675Y-114552322D01*
X157731732Y-114384558D01*
X157822796Y-114165252D01*
X157823003Y-113927790D01*
X157732322Y-113708325D01*
X157564558Y-113540268D01*
X157345252Y-113449204D01*
X157107790Y-113448997D01*
X156888325Y-113539678D01*
X156720268Y-113707442D01*
X156629204Y-113926748D01*
X156628997Y-114164210D01*
X130703363Y-114164210D01*
X130641502Y-113853217D01*
X130388420Y-113474453D01*
X130009656Y-113221371D01*
X129562873Y-113132500D01*
X129517127Y-113132500D01*
X129070344Y-113221371D01*
X128691580Y-113474453D01*
X128438498Y-113853217D01*
X128349627Y-114300000D01*
X127392500Y-114300000D01*
X127392500Y-111760000D01*
X128349627Y-111760000D01*
X128438498Y-112206783D01*
X128691580Y-112585547D01*
X129070344Y-112838629D01*
X129517127Y-112927500D01*
X129562873Y-112927500D01*
X130009656Y-112838629D01*
X130103386Y-112776000D01*
X176609627Y-112776000D01*
X176698498Y-113222783D01*
X176951580Y-113601547D01*
X177330344Y-113854629D01*
X177777127Y-113943500D01*
X177822873Y-113943500D01*
X178269656Y-113854629D01*
X178648420Y-113601547D01*
X178901502Y-113222783D01*
X178990373Y-112776000D01*
X178901502Y-112329217D01*
X178648420Y-111950453D01*
X178269656Y-111697371D01*
X177822873Y-111608500D01*
X177777127Y-111608500D01*
X177330344Y-111697371D01*
X176951580Y-111950453D01*
X176698498Y-112329217D01*
X176609627Y-112776000D01*
X130103386Y-112776000D01*
X130388420Y-112585547D01*
X130641502Y-112206783D01*
X130706859Y-111878210D01*
X161962997Y-111878210D01*
X162053678Y-112097675D01*
X162221442Y-112265732D01*
X162440748Y-112356796D01*
X162678210Y-112357003D01*
X162897675Y-112266322D01*
X163065732Y-112098558D01*
X163156796Y-111879252D01*
X163157003Y-111641790D01*
X163066322Y-111422325D01*
X162898558Y-111254268D01*
X162679252Y-111163204D01*
X162441790Y-111162997D01*
X162222325Y-111253678D01*
X162054268Y-111421442D01*
X161963204Y-111640748D01*
X161962997Y-111878210D01*
X130706859Y-111878210D01*
X130730373Y-111760000D01*
X130641502Y-111313217D01*
X130388420Y-110934453D01*
X130009656Y-110681371D01*
X129641853Y-110608210D01*
X168312997Y-110608210D01*
X168403678Y-110827675D01*
X168571442Y-110995732D01*
X168790748Y-111086796D01*
X169028210Y-111087003D01*
X169247675Y-110996322D01*
X169415732Y-110828558D01*
X169506796Y-110609252D01*
X169506796Y-110608210D01*
X174662997Y-110608210D01*
X174753678Y-110827675D01*
X174921442Y-110995732D01*
X175140748Y-111086796D01*
X175378210Y-111087003D01*
X175597675Y-110996322D01*
X175765732Y-110828558D01*
X175856796Y-110609252D01*
X175857003Y-110371790D01*
X175800896Y-110236000D01*
X176609627Y-110236000D01*
X176698498Y-110682783D01*
X176951580Y-111061547D01*
X177330344Y-111314629D01*
X177777127Y-111403500D01*
X177822873Y-111403500D01*
X178269656Y-111314629D01*
X178648420Y-111061547D01*
X178901502Y-110682783D01*
X178990373Y-110236000D01*
X178901502Y-109789217D01*
X178648420Y-109410453D01*
X178269656Y-109157371D01*
X177822873Y-109068500D01*
X177777127Y-109068500D01*
X177330344Y-109157371D01*
X176951580Y-109410453D01*
X176698498Y-109789217D01*
X176609627Y-110236000D01*
X175800896Y-110236000D01*
X175766322Y-110152325D01*
X175598558Y-109984268D01*
X175379252Y-109893204D01*
X175141790Y-109892997D01*
X174922325Y-109983678D01*
X174754268Y-110151442D01*
X174663204Y-110370748D01*
X174662997Y-110608210D01*
X169506796Y-110608210D01*
X169507003Y-110371790D01*
X169416322Y-110152325D01*
X169248558Y-109984268D01*
X169029252Y-109893204D01*
X168791790Y-109892997D01*
X168572325Y-109983678D01*
X168404268Y-110151442D01*
X168313204Y-110370748D01*
X168312997Y-110608210D01*
X129641853Y-110608210D01*
X129562873Y-110592500D01*
X129517127Y-110592500D01*
X129070344Y-110681371D01*
X128691580Y-110934453D01*
X128438498Y-111313217D01*
X128349627Y-111760000D01*
X127392500Y-111760000D01*
X127392500Y-109220000D01*
X128349627Y-109220000D01*
X128438498Y-109666783D01*
X128691580Y-110045547D01*
X129070344Y-110298629D01*
X129517127Y-110387500D01*
X129562873Y-110387500D01*
X130009656Y-110298629D01*
X130388420Y-110045547D01*
X130641502Y-109666783D01*
X130730373Y-109220000D01*
X130641502Y-108773217D01*
X130388420Y-108394453D01*
X130009656Y-108141371D01*
X129641853Y-108068210D01*
X152818997Y-108068210D01*
X152909678Y-108287675D01*
X153077442Y-108455732D01*
X153296748Y-108546796D01*
X153534210Y-108547003D01*
X153753675Y-108456322D01*
X153850481Y-108359685D01*
X153925678Y-108541675D01*
X154093442Y-108709732D01*
X154312748Y-108800796D01*
X154550210Y-108801003D01*
X154769675Y-108710322D01*
X154937732Y-108542558D01*
X155028796Y-108323252D01*
X155029003Y-108085790D01*
X154938322Y-107866325D01*
X154770558Y-107698268D01*
X154765097Y-107696000D01*
X176609627Y-107696000D01*
X176698498Y-108142783D01*
X176951580Y-108521547D01*
X177330344Y-108774629D01*
X177777127Y-108863500D01*
X177822873Y-108863500D01*
X178269656Y-108774629D01*
X178648420Y-108521547D01*
X178901502Y-108142783D01*
X178990373Y-107696000D01*
X178901502Y-107249217D01*
X178648420Y-106870453D01*
X178269656Y-106617371D01*
X177822873Y-106528500D01*
X177777127Y-106528500D01*
X177330344Y-106617371D01*
X176951580Y-106870453D01*
X176698498Y-107249217D01*
X176609627Y-107696000D01*
X154765097Y-107696000D01*
X154551252Y-107607204D01*
X154337296Y-107607017D01*
X154323803Y-107598002D01*
X154178000Y-107569000D01*
X153879073Y-107569000D01*
X153754558Y-107444268D01*
X153535252Y-107353204D01*
X153297790Y-107352997D01*
X153078325Y-107443678D01*
X152910268Y-107611442D01*
X152819204Y-107830748D01*
X152818997Y-108068210D01*
X129641853Y-108068210D01*
X129562873Y-108052500D01*
X129517127Y-108052500D01*
X129070344Y-108141371D01*
X128691580Y-108394453D01*
X128438498Y-108773217D01*
X128349627Y-109220000D01*
X127392500Y-109220000D01*
X127392500Y-106680000D01*
X128349627Y-106680000D01*
X128438498Y-107126783D01*
X128691580Y-107505547D01*
X129070344Y-107758629D01*
X129517127Y-107847500D01*
X129562873Y-107847500D01*
X130009656Y-107758629D01*
X130388420Y-107505547D01*
X130641502Y-107126783D01*
X130730373Y-106680000D01*
X130641502Y-106233217D01*
X130388420Y-105854453D01*
X130009656Y-105601371D01*
X129562873Y-105512500D01*
X129517127Y-105512500D01*
X129070344Y-105601371D01*
X128691580Y-105854453D01*
X128438498Y-106233217D01*
X128349627Y-106680000D01*
X127392500Y-106680000D01*
X127392500Y-103290000D01*
X128366280Y-103290000D01*
X128366280Y-104990000D01*
X128388419Y-105107658D01*
X128457955Y-105215721D01*
X128564055Y-105288215D01*
X128690000Y-105313720D01*
X130390000Y-105313720D01*
X130507658Y-105291581D01*
X130615721Y-105222045D01*
X130660846Y-105156000D01*
X176609627Y-105156000D01*
X176698498Y-105602783D01*
X176951580Y-105981547D01*
X177330344Y-106234629D01*
X177777127Y-106323500D01*
X177822873Y-106323500D01*
X178269656Y-106234629D01*
X178648420Y-105981547D01*
X178901502Y-105602783D01*
X178990373Y-105156000D01*
X178901502Y-104709217D01*
X178648420Y-104330453D01*
X178269656Y-104077371D01*
X177822873Y-103988500D01*
X177777127Y-103988500D01*
X177330344Y-104077371D01*
X176951580Y-104330453D01*
X176698498Y-104709217D01*
X176609627Y-105156000D01*
X130660846Y-105156000D01*
X130688215Y-105115945D01*
X130713720Y-104990000D01*
X130713720Y-104258210D01*
X168312997Y-104258210D01*
X168403678Y-104477675D01*
X168571442Y-104645732D01*
X168790748Y-104736796D01*
X169028210Y-104737003D01*
X169247675Y-104646322D01*
X169415732Y-104478558D01*
X169506796Y-104259252D01*
X169506796Y-104258210D01*
X174662997Y-104258210D01*
X174753678Y-104477675D01*
X174921442Y-104645732D01*
X175140748Y-104736796D01*
X175378210Y-104737003D01*
X175597675Y-104646322D01*
X175765732Y-104478558D01*
X175856796Y-104259252D01*
X175857003Y-104021790D01*
X175766322Y-103802325D01*
X175598558Y-103634268D01*
X175379252Y-103543204D01*
X175141790Y-103542997D01*
X174922325Y-103633678D01*
X174754268Y-103801442D01*
X174663204Y-104020748D01*
X174662997Y-104258210D01*
X169506796Y-104258210D01*
X169507003Y-104021790D01*
X169416322Y-103802325D01*
X169248558Y-103634268D01*
X169029252Y-103543204D01*
X168791790Y-103542997D01*
X168572325Y-103633678D01*
X168404268Y-103801442D01*
X168313204Y-104020748D01*
X168312997Y-104258210D01*
X130713720Y-104258210D01*
X130713720Y-103290000D01*
X130691581Y-103172342D01*
X130622045Y-103064279D01*
X130515945Y-102991785D01*
X130390000Y-102966280D01*
X128690000Y-102966280D01*
X128572342Y-102988419D01*
X128464279Y-103057955D01*
X128391785Y-103164055D01*
X128366280Y-103290000D01*
X127392500Y-103290000D01*
X127392500Y-102226210D01*
X171360997Y-102226210D01*
X171451678Y-102445675D01*
X171619442Y-102613732D01*
X171838748Y-102704796D01*
X172076210Y-102705003D01*
X172291613Y-102616000D01*
X176609627Y-102616000D01*
X176698498Y-103062783D01*
X176951580Y-103441547D01*
X177330344Y-103694629D01*
X177777127Y-103783500D01*
X177822873Y-103783500D01*
X178269656Y-103694629D01*
X178648420Y-103441547D01*
X178901502Y-103062783D01*
X178990373Y-102616000D01*
X178901502Y-102169217D01*
X178648420Y-101790453D01*
X178269656Y-101537371D01*
X177822873Y-101448500D01*
X177777127Y-101448500D01*
X177330344Y-101537371D01*
X176951580Y-101790453D01*
X176698498Y-102169217D01*
X176609627Y-102616000D01*
X172291613Y-102616000D01*
X172295675Y-102614322D01*
X172463732Y-102446558D01*
X172554796Y-102227252D01*
X172555003Y-101989790D01*
X172464322Y-101770325D01*
X172296558Y-101602268D01*
X172077252Y-101511204D01*
X171839790Y-101510997D01*
X171620325Y-101601678D01*
X171452268Y-101769442D01*
X171361204Y-101988748D01*
X171360997Y-102226210D01*
X127392500Y-102226210D01*
X127392500Y-98162210D01*
X144817997Y-98162210D01*
X144908678Y-98381675D01*
X145034000Y-98507216D01*
X145034000Y-100965000D01*
X145063002Y-101110803D01*
X145145592Y-101234408D01*
X145297989Y-101386804D01*
X145297991Y-101386807D01*
X145390322Y-101448500D01*
X145421597Y-101469397D01*
X145567399Y-101498400D01*
X145567404Y-101498399D01*
X169011601Y-101498399D01*
X169157404Y-101469397D01*
X169209139Y-101434829D01*
X169409210Y-101435003D01*
X169628675Y-101344322D01*
X169796732Y-101176558D01*
X169887796Y-100957252D01*
X169888003Y-100719790D01*
X169797322Y-100500325D01*
X169629558Y-100332268D01*
X169410252Y-100241204D01*
X169172790Y-100240997D01*
X168953325Y-100331678D01*
X168807390Y-100477359D01*
X168871796Y-100322252D01*
X168872003Y-100084790D01*
X168781322Y-99865325D01*
X168613558Y-99697268D01*
X168586928Y-99686210D01*
X172122997Y-99686210D01*
X172213678Y-99905675D01*
X172381442Y-100073732D01*
X172600748Y-100164796D01*
X172838210Y-100165003D01*
X173053613Y-100076000D01*
X176609627Y-100076000D01*
X176698498Y-100522783D01*
X176951580Y-100901547D01*
X177330344Y-101154629D01*
X177777127Y-101243500D01*
X177822873Y-101243500D01*
X178269656Y-101154629D01*
X178648420Y-100901547D01*
X178901502Y-100522783D01*
X178990373Y-100076000D01*
X178901502Y-99629217D01*
X178648420Y-99250453D01*
X178269656Y-98997371D01*
X177822873Y-98908500D01*
X177777127Y-98908500D01*
X177330344Y-98997371D01*
X176951580Y-99250453D01*
X176698498Y-99629217D01*
X176609627Y-100076000D01*
X173053613Y-100076000D01*
X173057675Y-100074322D01*
X173225732Y-99906558D01*
X173316796Y-99687252D01*
X173317003Y-99449790D01*
X173226322Y-99230325D01*
X173174298Y-99178210D01*
X174662997Y-99178210D01*
X174753678Y-99397675D01*
X174921442Y-99565732D01*
X175140748Y-99656796D01*
X175378210Y-99657003D01*
X175597675Y-99566322D01*
X175765732Y-99398558D01*
X175856796Y-99179252D01*
X175857003Y-98941790D01*
X175766322Y-98722325D01*
X175598558Y-98554268D01*
X175379252Y-98463204D01*
X175141790Y-98462997D01*
X174922325Y-98553678D01*
X174754268Y-98721442D01*
X174663204Y-98940748D01*
X174662997Y-99178210D01*
X173174298Y-99178210D01*
X173058558Y-99062268D01*
X172839252Y-98971204D01*
X172601790Y-98970997D01*
X172382325Y-99061678D01*
X172214268Y-99229442D01*
X172123204Y-99448748D01*
X172122997Y-99686210D01*
X168586928Y-99686210D01*
X168394252Y-99606204D01*
X168216865Y-99606049D01*
X166146816Y-97536000D01*
X176609627Y-97536000D01*
X176698498Y-97982783D01*
X176951580Y-98361547D01*
X177330344Y-98614629D01*
X177777127Y-98703500D01*
X177822873Y-98703500D01*
X178269656Y-98614629D01*
X178648420Y-98361547D01*
X178901502Y-97982783D01*
X178990373Y-97536000D01*
X178901502Y-97089217D01*
X178648420Y-96710453D01*
X178269656Y-96457371D01*
X177822873Y-96368500D01*
X177777127Y-96368500D01*
X177330344Y-96457371D01*
X176951580Y-96710453D01*
X176698498Y-97089217D01*
X176609627Y-97536000D01*
X166146816Y-97536000D01*
X165623408Y-97012592D01*
X165499803Y-96930002D01*
X165354000Y-96901000D01*
X158832073Y-96901000D01*
X158707558Y-96776268D01*
X158667982Y-96759834D01*
X159400408Y-96027408D01*
X159482998Y-95903803D01*
X159512000Y-95758000D01*
X159512000Y-94951073D01*
X159636732Y-94826558D01*
X159727796Y-94607252D01*
X159728003Y-94369790D01*
X159637322Y-94150325D01*
X159633005Y-94146000D01*
X176626280Y-94146000D01*
X176626280Y-95846000D01*
X176648419Y-95963658D01*
X176717955Y-96071721D01*
X176824055Y-96144215D01*
X176950000Y-96169720D01*
X178650000Y-96169720D01*
X178767658Y-96147581D01*
X178875721Y-96078045D01*
X178948215Y-95971945D01*
X178973720Y-95846000D01*
X178973720Y-94146000D01*
X178951581Y-94028342D01*
X178882045Y-93920279D01*
X178775945Y-93847785D01*
X178650000Y-93822280D01*
X176950000Y-93822280D01*
X176832342Y-93844419D01*
X176724279Y-93913955D01*
X176651785Y-94020055D01*
X176626280Y-94146000D01*
X159633005Y-94146000D01*
X159469558Y-93982268D01*
X159250252Y-93891204D01*
X159012790Y-93890997D01*
X158793325Y-93981678D01*
X158625268Y-94149442D01*
X158534204Y-94368748D01*
X158533997Y-94606210D01*
X158624678Y-94825675D01*
X158750000Y-94951216D01*
X158750000Y-95600184D01*
X157591592Y-96758592D01*
X157509002Y-96882197D01*
X157509002Y-96882198D01*
X157480000Y-97028000D01*
X157480000Y-98044000D01*
X157509002Y-98189803D01*
X157591592Y-98313408D01*
X157772151Y-98493966D01*
X157771997Y-98670210D01*
X157862678Y-98889675D01*
X158030442Y-99057732D01*
X158070018Y-99074166D01*
X157576184Y-99568000D01*
X147021073Y-99568000D01*
X146896558Y-99443268D01*
X146677252Y-99352204D01*
X146439790Y-99351997D01*
X146220325Y-99442678D01*
X146052268Y-99610442D01*
X145961204Y-99829748D01*
X145960997Y-100067210D01*
X146051678Y-100286675D01*
X146219442Y-100454732D01*
X146438748Y-100545796D01*
X146676210Y-100546003D01*
X146895675Y-100455322D01*
X147021216Y-100330000D01*
X157734000Y-100330000D01*
X157879803Y-100300998D01*
X158003408Y-100218408D01*
X159707967Y-98513849D01*
X159884210Y-98514003D01*
X160103675Y-98423322D01*
X160271732Y-98255558D01*
X160362796Y-98036252D01*
X160363003Y-97798790D01*
X160306896Y-97663000D01*
X165196184Y-97663000D01*
X167678151Y-100144967D01*
X167677997Y-100321210D01*
X167768678Y-100540675D01*
X167936442Y-100708732D01*
X168003071Y-100736399D01*
X145796000Y-100736399D01*
X145796000Y-98507073D01*
X145920732Y-98382558D01*
X146011796Y-98163252D01*
X146012003Y-97925790D01*
X145921322Y-97706325D01*
X145753558Y-97538268D01*
X145534252Y-97447204D01*
X145296790Y-97446997D01*
X145077325Y-97537678D01*
X144909268Y-97705442D01*
X144818204Y-97924748D01*
X144817997Y-98162210D01*
X127392500Y-98162210D01*
X127392500Y-95622210D01*
X153072997Y-95622210D01*
X153163678Y-95841675D01*
X153331442Y-96009732D01*
X153550748Y-96100796D01*
X153788210Y-96101003D01*
X154007675Y-96010322D01*
X154133216Y-95885000D01*
X157270927Y-95885000D01*
X157395442Y-96009732D01*
X157614748Y-96100796D01*
X157852210Y-96101003D01*
X158071675Y-96010322D01*
X158239732Y-95842558D01*
X158330796Y-95623252D01*
X158331003Y-95385790D01*
X158240322Y-95166325D01*
X158072558Y-94998268D01*
X157853252Y-94907204D01*
X157615790Y-94906997D01*
X157396325Y-94997678D01*
X157270784Y-95123000D01*
X154133073Y-95123000D01*
X154008558Y-94998268D01*
X153789252Y-94907204D01*
X153551790Y-94906997D01*
X153332325Y-94997678D01*
X153164268Y-95165442D01*
X153073204Y-95384748D01*
X153072997Y-95622210D01*
X127392500Y-95622210D01*
X127392500Y-94606210D01*
X137959997Y-94606210D01*
X138050678Y-94825675D01*
X138218442Y-94993732D01*
X138437748Y-95084796D01*
X138675210Y-95085003D01*
X138894675Y-94994322D01*
X139062732Y-94826558D01*
X139153796Y-94607252D01*
X139154003Y-94369790D01*
X139063322Y-94150325D01*
X138895558Y-93982268D01*
X138868928Y-93971210D01*
X147103997Y-93971210D01*
X147194678Y-94190675D01*
X147362442Y-94358732D01*
X147581748Y-94449796D01*
X147612133Y-94449822D01*
X147611997Y-94606210D01*
X147702678Y-94825675D01*
X147870442Y-94993732D01*
X148089748Y-95084796D01*
X148267135Y-95084951D01*
X148398693Y-95216508D01*
X148398695Y-95216511D01*
X148522301Y-95299101D01*
X148668103Y-95328104D01*
X148668108Y-95328103D01*
X150956010Y-95328103D01*
X151101813Y-95299101D01*
X151153548Y-95264533D01*
X151353619Y-95264707D01*
X151573084Y-95174026D01*
X151741141Y-95006262D01*
X151832205Y-94786956D01*
X151832412Y-94549494D01*
X151741731Y-94330029D01*
X151573967Y-94161972D01*
X151354661Y-94070908D01*
X151117199Y-94070701D01*
X150897734Y-94161382D01*
X150729677Y-94329146D01*
X150638613Y-94548452D01*
X150638598Y-94566103D01*
X148825918Y-94566103D01*
X148805849Y-94546034D01*
X148806003Y-94369790D01*
X148749896Y-94234000D01*
X149523927Y-94234000D01*
X149648442Y-94358732D01*
X149867748Y-94449796D01*
X150105210Y-94450003D01*
X150324675Y-94359322D01*
X150492732Y-94191558D01*
X150583796Y-93972252D01*
X150584003Y-93734790D01*
X150493322Y-93515325D01*
X150325558Y-93347268D01*
X150106252Y-93256204D01*
X149868790Y-93255997D01*
X149649325Y-93346678D01*
X149523784Y-93472000D01*
X148164073Y-93472000D01*
X148039558Y-93347268D01*
X147820252Y-93256204D01*
X147582790Y-93255997D01*
X147363325Y-93346678D01*
X147195268Y-93514442D01*
X147104204Y-93733748D01*
X147103997Y-93971210D01*
X138868928Y-93971210D01*
X138676252Y-93891204D01*
X138438790Y-93890997D01*
X138219325Y-93981678D01*
X138051268Y-94149442D01*
X137960204Y-94368748D01*
X137959997Y-94606210D01*
X127392500Y-94606210D01*
X127392500Y-92828210D01*
X161962997Y-92828210D01*
X162053678Y-93047675D01*
X162221442Y-93215732D01*
X162440748Y-93306796D01*
X162678210Y-93307003D01*
X162897675Y-93216322D01*
X163065732Y-93048558D01*
X163156796Y-92829252D01*
X163157003Y-92591790D01*
X163066322Y-92372325D01*
X162898558Y-92204268D01*
X162679252Y-92113204D01*
X162441790Y-92112997D01*
X162222325Y-92203678D01*
X162054268Y-92371442D01*
X161963204Y-92590748D01*
X161962997Y-92828210D01*
X127392500Y-92828210D01*
X127392500Y-90542210D01*
X151294997Y-90542210D01*
X151385678Y-90761675D01*
X151553442Y-90929732D01*
X151772748Y-91020796D01*
X152010210Y-91021003D01*
X152229675Y-90930322D01*
X152397732Y-90762558D01*
X152488796Y-90543252D01*
X152489003Y-90305790D01*
X152398322Y-90086325D01*
X152230558Y-89918268D01*
X152011252Y-89827204D01*
X151773790Y-89826997D01*
X151554325Y-89917678D01*
X151386268Y-90085442D01*
X151295204Y-90304748D01*
X151294997Y-90542210D01*
X127392500Y-90542210D01*
X127392500Y-89018210D01*
X161962997Y-89018210D01*
X162053678Y-89237675D01*
X162221442Y-89405732D01*
X162440748Y-89496796D01*
X162678210Y-89497003D01*
X162897675Y-89406322D01*
X163065732Y-89238558D01*
X163156796Y-89019252D01*
X163157003Y-88781790D01*
X163066322Y-88562325D01*
X162898558Y-88394268D01*
X162679252Y-88303204D01*
X162441790Y-88302997D01*
X162222325Y-88393678D01*
X162054268Y-88561442D01*
X161963204Y-88780748D01*
X161962997Y-89018210D01*
X127392500Y-89018210D01*
X127392500Y-86351210D01*
X144309997Y-86351210D01*
X144400678Y-86570675D01*
X144568442Y-86738732D01*
X144787748Y-86829796D01*
X145025210Y-86830003D01*
X145244675Y-86739322D01*
X145412732Y-86571558D01*
X145503796Y-86352252D01*
X145504003Y-86114790D01*
X145413322Y-85895325D01*
X145245558Y-85727268D01*
X145026252Y-85636204D01*
X144788790Y-85635997D01*
X144569325Y-85726678D01*
X144401268Y-85894442D01*
X144310204Y-86113748D01*
X144309997Y-86351210D01*
X127392500Y-86351210D01*
X127392500Y-85256000D01*
X162402280Y-85256000D01*
X162402280Y-86956000D01*
X162424419Y-87073658D01*
X162493955Y-87181721D01*
X162600055Y-87254215D01*
X162726000Y-87279720D01*
X164426000Y-87279720D01*
X164543658Y-87257581D01*
X164651721Y-87188045D01*
X164724215Y-87081945D01*
X164749720Y-86956000D01*
X164749720Y-85256000D01*
X164727581Y-85138342D01*
X164658045Y-85030279D01*
X164551945Y-84957785D01*
X164426000Y-84932280D01*
X162726000Y-84932280D01*
X162608342Y-84954419D01*
X162500279Y-85023955D01*
X162427785Y-85130055D01*
X162402280Y-85256000D01*
X127392500Y-85256000D01*
X127392500Y-80938000D01*
X132684280Y-80938000D01*
X132684280Y-82638000D01*
X132706419Y-82755658D01*
X132775955Y-82863721D01*
X132882055Y-82936215D01*
X133008000Y-82961720D01*
X134708000Y-82961720D01*
X134825658Y-82939581D01*
X134933721Y-82870045D01*
X135006215Y-82763945D01*
X135031720Y-82638000D01*
X135031720Y-80938000D01*
X136367280Y-80938000D01*
X136367280Y-82638000D01*
X136389419Y-82755658D01*
X136458955Y-82863721D01*
X136565055Y-82936215D01*
X136691000Y-82961720D01*
X138391000Y-82961720D01*
X138508658Y-82939581D01*
X138616721Y-82870045D01*
X138689215Y-82763945D01*
X138714720Y-82638000D01*
X138714720Y-80938000D01*
X140050280Y-80938000D01*
X140050280Y-82638000D01*
X140072419Y-82755658D01*
X140141955Y-82863721D01*
X140248055Y-82936215D01*
X140374000Y-82961720D01*
X142074000Y-82961720D01*
X142191658Y-82939581D01*
X142299721Y-82870045D01*
X142372215Y-82763945D01*
X142397720Y-82638000D01*
X142397720Y-80938000D01*
X143733280Y-80938000D01*
X143733280Y-82638000D01*
X143755419Y-82755658D01*
X143824955Y-82863721D01*
X143931055Y-82936215D01*
X144057000Y-82961720D01*
X145757000Y-82961720D01*
X145874658Y-82939581D01*
X145982721Y-82870045D01*
X146055215Y-82763945D01*
X146080720Y-82638000D01*
X146080720Y-80938000D01*
X147416280Y-80938000D01*
X147416280Y-82638000D01*
X147438419Y-82755658D01*
X147507955Y-82863721D01*
X147614055Y-82936215D01*
X147740000Y-82961720D01*
X149440000Y-82961720D01*
X149557658Y-82939581D01*
X149665721Y-82870045D01*
X149738215Y-82763945D01*
X149763720Y-82638000D01*
X149763720Y-80938000D01*
X151099280Y-80938000D01*
X151099280Y-82638000D01*
X151121419Y-82755658D01*
X151190955Y-82863721D01*
X151297055Y-82936215D01*
X151423000Y-82961720D01*
X153123000Y-82961720D01*
X153240658Y-82939581D01*
X153348721Y-82870045D01*
X153421215Y-82763945D01*
X153446720Y-82638000D01*
X153446720Y-80938000D01*
X154782280Y-80938000D01*
X154782280Y-82638000D01*
X154804419Y-82755658D01*
X154873955Y-82863721D01*
X154980055Y-82936215D01*
X155106000Y-82961720D01*
X156806000Y-82961720D01*
X156923658Y-82939581D01*
X157031721Y-82870045D01*
X157104215Y-82763945D01*
X157129720Y-82638000D01*
X157129720Y-80938000D01*
X158465280Y-80938000D01*
X158465280Y-82638000D01*
X158487419Y-82755658D01*
X158556955Y-82863721D01*
X158663055Y-82936215D01*
X158789000Y-82961720D01*
X160489000Y-82961720D01*
X160606658Y-82939581D01*
X160714721Y-82870045D01*
X160787215Y-82763945D01*
X160812720Y-82638000D01*
X160812720Y-81573000D01*
X162402280Y-81573000D01*
X162402280Y-83273000D01*
X162424419Y-83390658D01*
X162493955Y-83498721D01*
X162600055Y-83571215D01*
X162726000Y-83596720D01*
X164426000Y-83596720D01*
X164543658Y-83574581D01*
X164651721Y-83505045D01*
X164724215Y-83398945D01*
X164749720Y-83273000D01*
X164749720Y-81573000D01*
X164727581Y-81455342D01*
X164658045Y-81347279D01*
X164551945Y-81274785D01*
X164426000Y-81249280D01*
X162726000Y-81249280D01*
X162608342Y-81271419D01*
X162500279Y-81340955D01*
X162427785Y-81447055D01*
X162402280Y-81573000D01*
X160812720Y-81573000D01*
X160812720Y-80938000D01*
X160790581Y-80820342D01*
X160721045Y-80712279D01*
X160614945Y-80639785D01*
X160489000Y-80614280D01*
X158789000Y-80614280D01*
X158671342Y-80636419D01*
X158563279Y-80705955D01*
X158490785Y-80812055D01*
X158465280Y-80938000D01*
X157129720Y-80938000D01*
X157107581Y-80820342D01*
X157038045Y-80712279D01*
X156931945Y-80639785D01*
X156806000Y-80614280D01*
X155106000Y-80614280D01*
X154988342Y-80636419D01*
X154880279Y-80705955D01*
X154807785Y-80812055D01*
X154782280Y-80938000D01*
X153446720Y-80938000D01*
X153424581Y-80820342D01*
X153355045Y-80712279D01*
X153248945Y-80639785D01*
X153123000Y-80614280D01*
X151423000Y-80614280D01*
X151305342Y-80636419D01*
X151197279Y-80705955D01*
X151124785Y-80812055D01*
X151099280Y-80938000D01*
X149763720Y-80938000D01*
X149741581Y-80820342D01*
X149672045Y-80712279D01*
X149565945Y-80639785D01*
X149440000Y-80614280D01*
X147740000Y-80614280D01*
X147622342Y-80636419D01*
X147514279Y-80705955D01*
X147441785Y-80812055D01*
X147416280Y-80938000D01*
X146080720Y-80938000D01*
X146058581Y-80820342D01*
X145989045Y-80712279D01*
X145882945Y-80639785D01*
X145757000Y-80614280D01*
X144057000Y-80614280D01*
X143939342Y-80636419D01*
X143831279Y-80705955D01*
X143758785Y-80812055D01*
X143733280Y-80938000D01*
X142397720Y-80938000D01*
X142375581Y-80820342D01*
X142306045Y-80712279D01*
X142199945Y-80639785D01*
X142074000Y-80614280D01*
X140374000Y-80614280D01*
X140256342Y-80636419D01*
X140148279Y-80705955D01*
X140075785Y-80812055D01*
X140050280Y-80938000D01*
X138714720Y-80938000D01*
X138692581Y-80820342D01*
X138623045Y-80712279D01*
X138516945Y-80639785D01*
X138391000Y-80614280D01*
X136691000Y-80614280D01*
X136573342Y-80636419D01*
X136465279Y-80705955D01*
X136392785Y-80812055D01*
X136367280Y-80938000D01*
X135031720Y-80938000D01*
X135009581Y-80820342D01*
X134940045Y-80712279D01*
X134833945Y-80639785D01*
X134708000Y-80614280D01*
X133008000Y-80614280D01*
X132890342Y-80636419D01*
X132782279Y-80705955D01*
X132709785Y-80812055D01*
X132684280Y-80938000D01*
X127392500Y-80938000D01*
X127392500Y-76592500D01*
X179947500Y-76592500D01*
X179947500Y-144387500D01*
M02*
