M48
;DRILL file {KiCad 4.0.7} date 04/28/18 13:58:43
;FORMAT={-:-/ absolute / inch / decimal}
FMAT,2
INCH,TZ
T1C0.012
T2C0.039
T3C0.039
T4C0.120
%
G90
G05
M72
T1
X5.455Y-3.72
X5.705Y-3.395
X5.835Y-3.405
X5.98Y-3.56
X6.19Y-4.49
X6.265Y-3.72
X6.55Y-3.645
X6.58Y-3.5
X6.77Y-4.02
X6.8Y-3.92
X6.9Y-3.58
T2
X5.26Y-5.44
X5.26Y-5.64
X5.36Y-5.54
X5.46Y-5.44
X5.46Y-5.64
X5.72Y-5.44
X5.72Y-5.64
X5.82Y-5.54
X5.92Y-5.44
X5.92Y-5.64
X6.18Y-5.44
X6.18Y-5.64
X6.28Y-5.54
X6.38Y-5.44
X6.38Y-5.64
X6.64Y-5.44
X6.64Y-5.64
X6.74Y-5.54
X6.84Y-5.44
X6.84Y-5.64
T3
X5.1Y-4.1
X5.1Y-4.2
X5.1Y-4.3
X5.1Y-4.4
X5.1Y-4.5
X5.1Y-4.6
X5.1Y-4.7
X5.1Y-4.8
X5.1Y-5.
X5.1Y-5.1
X5.1Y-5.2
X5.1Y-5.3
X5.1Y-5.4
X5.1Y-5.5
X5.27Y-3.22
X5.4025Y-4.795
X5.415Y-3.22
X5.56Y-3.22
X5.705Y-3.22
X5.85Y-3.22
X5.87Y-4.795
X5.995Y-3.22
X6.14Y-3.22
X6.285Y-3.22
X6.33Y-4.795
X6.44Y-3.245
X6.44Y-3.39
X6.79Y-4.795
X7.Y-3.74
X7.Y-3.84
X7.Y-3.94
X7.Y-4.04
X7.Y-4.14
X7.Y-4.24
X7.Y-4.34
X7.Y-4.44
X7.Y-4.54
X7.Y-4.64
X7.Y-4.8
X7.Y-4.9
X7.Y-5.
X7.Y-5.1
X7.Y-5.2
X7.Y-5.3
X7.Y-5.4
X7.Y-5.5
T4
X5.115Y-3.11
X6.905Y-3.105
T0
M30
