G04 #@! TF.FileFunction,Copper,L4,Bot,Signal*
%FSLAX46Y46*%
G04 Gerber Fmt 4.6, Leading zero omitted, Abs format (unit mm)*
G04 Created by KiCad (PCBNEW 4.0.7) date 04/28/18 13:58:35*
%MOMM*%
%LPD*%
G01*
G04 APERTURE LIST*
%ADD10C,0.100000*%
%ADD11C,1.506220*%
%ADD12C,4.064000*%
%ADD13R,1.700000X1.700000*%
%ADD14O,1.700000X1.700000*%
%ADD15R,1.550000X0.600000*%
%ADD16R,1.200000X0.750000*%
%ADD17R,1.500000X1.250000*%
%ADD18R,0.900000X1.200000*%
%ADD19R,1.200000X0.900000*%
%ADD20R,2.000000X2.500000*%
%ADD21C,0.558800*%
%ADD22C,0.127000*%
G04 APERTURE END LIST*
D10*
D11*
X159512000Y-140716000D03*
X162052000Y-138176000D03*
X162052000Y-143256000D03*
X156972000Y-138176000D03*
X156972000Y-143256000D03*
D12*
X175387000Y-78867000D03*
D11*
X136144000Y-140716000D03*
X138684000Y-138176000D03*
X138684000Y-143256000D03*
X133604000Y-138176000D03*
X133604000Y-143256000D03*
X147828000Y-140716000D03*
X150368000Y-138176000D03*
X150368000Y-143256000D03*
X145288000Y-138176000D03*
X145288000Y-143256000D03*
X171196000Y-140716000D03*
X173736000Y-138176000D03*
X173736000Y-143256000D03*
X168656000Y-138176000D03*
X168656000Y-143256000D03*
D13*
X177800000Y-94996000D03*
D14*
X177800000Y-97536000D03*
X177800000Y-100076000D03*
X177800000Y-102616000D03*
X177800000Y-105156000D03*
X177800000Y-107696000D03*
X177800000Y-110236000D03*
X177800000Y-112776000D03*
X177800000Y-115316000D03*
X177800000Y-117856000D03*
D13*
X129540000Y-104140000D03*
D14*
X129540000Y-106680000D03*
X129540000Y-109220000D03*
X129540000Y-111760000D03*
X129540000Y-114300000D03*
X129540000Y-116840000D03*
X129540000Y-119380000D03*
X129540000Y-121920000D03*
D13*
X177800000Y-121920000D03*
D14*
X177800000Y-124460000D03*
X177800000Y-127000000D03*
X177800000Y-129540000D03*
X177800000Y-132080000D03*
X177800000Y-134620000D03*
X177800000Y-137160000D03*
X177800000Y-139700000D03*
D13*
X129540000Y-127000000D03*
D14*
X129540000Y-129540000D03*
X129540000Y-132080000D03*
X129540000Y-134620000D03*
X129540000Y-137160000D03*
X129540000Y-139700000D03*
D15*
X141412000Y-106045000D03*
X141412000Y-104775000D03*
X141412000Y-103505000D03*
X141412000Y-102235000D03*
X146812000Y-102235000D03*
X146812000Y-103505000D03*
X146812000Y-104775000D03*
X146812000Y-106045000D03*
X160401000Y-106045000D03*
X160401000Y-104775000D03*
X160401000Y-103505000D03*
X160401000Y-102235000D03*
X165801000Y-102235000D03*
X165801000Y-103505000D03*
X165801000Y-104775000D03*
X165801000Y-106045000D03*
D13*
X137223500Y-121793000D03*
X149098000Y-121793000D03*
X160782000Y-121793000D03*
X163576000Y-82423000D03*
X163576000Y-86106000D03*
X172466000Y-121793000D03*
X133858000Y-81788000D03*
X141224000Y-81788000D03*
X148590000Y-81788000D03*
X155956000Y-81788000D03*
X137541000Y-81788000D03*
X144907000Y-81788000D03*
X152273000Y-81788000D03*
X159639000Y-81788000D03*
D16*
X136652000Y-97536000D03*
X138552000Y-97536000D03*
X155575000Y-97536000D03*
X157475000Y-97536000D03*
X147000000Y-107823000D03*
X145100000Y-107823000D03*
X165923000Y-107823000D03*
X164023000Y-107823000D03*
X141351000Y-109474000D03*
X143251000Y-109474000D03*
X160213000Y-109474000D03*
X162113000Y-109474000D03*
X142936000Y-97536000D03*
X141036000Y-97536000D03*
X161859000Y-97536000D03*
X159959000Y-97536000D03*
D17*
X139085000Y-118364000D03*
X141585000Y-118364000D03*
D16*
X151511000Y-97536000D03*
X149611000Y-97536000D03*
X170429000Y-97536000D03*
X168529000Y-97536000D03*
X147000000Y-109474000D03*
X145100000Y-109474000D03*
X165923000Y-109474000D03*
X164023000Y-109474000D03*
X145161000Y-97536000D03*
X147061000Y-97536000D03*
X164216000Y-97536000D03*
X166116000Y-97536000D03*
D18*
X136525000Y-101008000D03*
X136525000Y-103208000D03*
X155448000Y-101051000D03*
X155448000Y-103251000D03*
D19*
X136631500Y-99187000D03*
X138831500Y-99187000D03*
X155491000Y-99187000D03*
X157691000Y-99187000D03*
X136652000Y-95885000D03*
X138852000Y-95885000D03*
X155491000Y-95885000D03*
X157691000Y-95885000D03*
D18*
X138176000Y-109558000D03*
X138176000Y-107358000D03*
X157099000Y-109558000D03*
X157099000Y-107358000D03*
D19*
X140759000Y-95885000D03*
X142959000Y-95885000D03*
X159682000Y-95885000D03*
X161882000Y-95885000D03*
X142959000Y-99187000D03*
X140759000Y-99187000D03*
X161882000Y-99187000D03*
X159682000Y-99187000D03*
D18*
X138176000Y-105494000D03*
X138176000Y-103294000D03*
X157099000Y-105494000D03*
X157099000Y-103294000D03*
D19*
X136947000Y-114808000D03*
X134747000Y-114808000D03*
X134706000Y-116459000D03*
X136906000Y-116459000D03*
D18*
X151638000Y-101051000D03*
X151638000Y-103251000D03*
X170561000Y-100965000D03*
X170561000Y-103165000D03*
D19*
X151468000Y-99187000D03*
X149268000Y-99187000D03*
X170475000Y-99187000D03*
X168275000Y-99187000D03*
X151468000Y-95885000D03*
X149268000Y-95885000D03*
X170434000Y-95885000D03*
X168234000Y-95885000D03*
D18*
X149987000Y-109642000D03*
X149987000Y-107442000D03*
X168910000Y-109558000D03*
X168910000Y-107358000D03*
D19*
X147320000Y-95885000D03*
X145120000Y-95885000D03*
X166327000Y-95885000D03*
X164127000Y-95885000D03*
X145120000Y-99187000D03*
X147320000Y-99187000D03*
X164127000Y-99187000D03*
X166327000Y-99187000D03*
D18*
X149987000Y-105494000D03*
X149987000Y-103294000D03*
X168910000Y-105494000D03*
X168910000Y-103294000D03*
D20*
X139224000Y-115697000D03*
X143224000Y-115697000D03*
D12*
X129921000Y-78994000D03*
D21*
X148209000Y-86487000D03*
X167132000Y-88900000D03*
X175260000Y-90932000D03*
X166370000Y-92583000D03*
X172720000Y-99568000D03*
X158750000Y-84963000D03*
X144907000Y-86233000D03*
X138557000Y-94488000D03*
X151892000Y-90424000D03*
X157226000Y-114046000D03*
X171958000Y-102108000D03*
X159131000Y-94488000D03*
D22*
X136652000Y-95885000D02*
X136502000Y-95885000D01*
X136502000Y-95885000D02*
X133858000Y-93241000D01*
X133858000Y-93241000D02*
X133858000Y-82765000D01*
X133858000Y-82765000D02*
X133858000Y-81788000D01*
X136652000Y-95885000D02*
X136652000Y-96462000D01*
X136652000Y-96462000D02*
X136652000Y-97536000D01*
X138552000Y-97536000D02*
X138552000Y-98907500D01*
X138552000Y-98907500D02*
X138831500Y-99187000D01*
X155491000Y-95885000D02*
X155491000Y-95308000D01*
X155491000Y-95308000D02*
X157734000Y-93065000D01*
X147066000Y-79375000D02*
X146431000Y-80010000D01*
X157734000Y-93065000D02*
X157734000Y-80518000D01*
X146431000Y-80010000D02*
X146431000Y-83312000D01*
X157734000Y-80518000D02*
X156591000Y-79375000D01*
X156591000Y-79375000D02*
X147066000Y-79375000D01*
X145923000Y-83820000D02*
X141859000Y-83820000D01*
X141859000Y-83820000D02*
X141224000Y-83185000D01*
X146431000Y-83312000D02*
X145923000Y-83820000D01*
X141224000Y-83185000D02*
X141224000Y-81788000D01*
X155575000Y-97536000D02*
X155575000Y-95969000D01*
X155575000Y-95969000D02*
X155491000Y-95885000D01*
X157475000Y-97536000D02*
X157475000Y-98971000D01*
X157475000Y-98971000D02*
X157691000Y-99187000D01*
X172720000Y-106426000D02*
X172720000Y-99568000D01*
X129540000Y-111760000D02*
X132588000Y-114808000D01*
X132588000Y-114808000D02*
X134747000Y-114808000D01*
X141351000Y-108458000D02*
X132842000Y-108458000D01*
X132842000Y-108458000D02*
X129540000Y-111760000D01*
X143764000Y-106045000D02*
X141351000Y-108458000D01*
X146812000Y-106045000D02*
X143764000Y-106045000D01*
X147000000Y-107823000D02*
X147000000Y-106233000D01*
X147000000Y-106233000D02*
X146812000Y-106045000D01*
X160655000Y-108458000D02*
X148362000Y-108458000D01*
X148362000Y-108458000D02*
X147727000Y-107823000D01*
X147727000Y-107823000D02*
X147000000Y-107823000D01*
X163068000Y-106045000D02*
X160655000Y-108458000D01*
X165801000Y-106045000D02*
X163068000Y-106045000D01*
X170997499Y-108148501D02*
X172720000Y-106426000D01*
X165923000Y-107823000D02*
X166650000Y-107823000D01*
X166650000Y-107823000D02*
X166975501Y-108148501D01*
X166975501Y-108148501D02*
X170997499Y-108148501D01*
X165801000Y-106045000D02*
X165801000Y-107701000D01*
X165801000Y-107701000D02*
X165923000Y-107823000D01*
X138176000Y-109558000D02*
X138176000Y-110285000D01*
X145034000Y-114300000D02*
X145034000Y-117348000D01*
X135382000Y-127000000D02*
X129540000Y-127000000D01*
X138176000Y-110285000D02*
X141302000Y-113411000D01*
X141302000Y-113411000D02*
X144145000Y-113411000D01*
X144145000Y-113411000D02*
X145034000Y-114300000D01*
X145034000Y-117348000D02*
X135382000Y-127000000D01*
X138176000Y-109558000D02*
X141267000Y-109558000D01*
X141267000Y-109558000D02*
X141351000Y-109474000D01*
X157099000Y-109558000D02*
X160129000Y-109558000D01*
X160129000Y-109558000D02*
X160213000Y-109474000D01*
X129540000Y-132080000D02*
X133985000Y-132080000D01*
X156507000Y-109558000D02*
X157099000Y-109558000D01*
X133985000Y-132080000D02*
X156507000Y-109558000D01*
X142959000Y-90594000D02*
X148590000Y-84963000D01*
X148590000Y-84963000D02*
X148590000Y-81788000D01*
X142959000Y-95885000D02*
X142959000Y-90594000D01*
X142936000Y-97536000D02*
X142936000Y-95908000D01*
X142936000Y-95908000D02*
X142959000Y-95885000D01*
X141036000Y-97536000D02*
X141036000Y-98910000D01*
X141036000Y-98910000D02*
X140759000Y-99187000D01*
X161882000Y-92794000D02*
X158750000Y-89662000D01*
X158750000Y-89662000D02*
X158750000Y-84963000D01*
X161882000Y-95885000D02*
X161882000Y-92794000D01*
X161859000Y-97536000D02*
X161859000Y-95908000D01*
X161859000Y-95908000D02*
X161882000Y-95885000D01*
X159959000Y-97536000D02*
X159959000Y-98910000D01*
X159959000Y-98910000D02*
X159682000Y-99187000D01*
X136525000Y-103208000D02*
X136525000Y-103935000D01*
X128675501Y-110719499D02*
X128499499Y-110895501D01*
X136525000Y-103935000D02*
X129740501Y-110719499D01*
X129740501Y-110719499D02*
X128675501Y-110719499D01*
X128499499Y-110895501D02*
X128499499Y-112751499D01*
X128499499Y-112751499D02*
X129007499Y-113259499D01*
X129007499Y-113259499D02*
X130531499Y-113259499D01*
X132715000Y-115443000D02*
X132715000Y-116586000D01*
X130531499Y-113259499D02*
X132715000Y-115443000D01*
X132715000Y-116586000D02*
X134493000Y-118364000D01*
X134493000Y-118364000D02*
X139085000Y-118364000D01*
X138468902Y-104394000D02*
X137561000Y-104394000D01*
X137561000Y-104394000D02*
X136525000Y-103358000D01*
X136525000Y-103358000D02*
X136525000Y-103208000D01*
X142748000Y-105410000D02*
X139484902Y-105410000D01*
X139484902Y-105410000D02*
X138468902Y-104394000D01*
X143873501Y-104284499D02*
X142748000Y-105410000D01*
X151222000Y-104394000D02*
X151112499Y-104284499D01*
X151112499Y-104284499D02*
X143873501Y-104284499D01*
X151638000Y-103251000D02*
X151638000Y-103978000D01*
X151638000Y-103978000D02*
X151222000Y-104394000D01*
X155448000Y-103251000D02*
X151638000Y-103251000D01*
X157861000Y-104394000D02*
X156441000Y-104394000D01*
X156441000Y-104394000D02*
X155448000Y-103401000D01*
X155448000Y-103401000D02*
X155448000Y-103251000D01*
X158732501Y-105265501D02*
X157861000Y-104394000D01*
X162796501Y-104284499D02*
X161815499Y-105265501D01*
X161815499Y-105265501D02*
X158732501Y-105265501D01*
X170561000Y-103165000D02*
X170561000Y-103892000D01*
X170561000Y-103892000D02*
X170168501Y-104284499D01*
X170168501Y-104284499D02*
X162796501Y-104284499D01*
X139224000Y-115697000D02*
X139224000Y-118225000D01*
X139224000Y-118225000D02*
X139085000Y-118364000D01*
X136947000Y-114808000D02*
X138335000Y-114808000D01*
X138335000Y-114808000D02*
X139224000Y-115697000D01*
X136947000Y-114808000D02*
X136947000Y-116418000D01*
X136947000Y-116418000D02*
X136906000Y-116459000D01*
X151468000Y-95885000D02*
X151468000Y-93388000D01*
X151468000Y-93388000D02*
X154305000Y-90551000D01*
X154305000Y-90551000D02*
X154305000Y-80518000D01*
X154305000Y-80518000D02*
X153670000Y-79883000D01*
X138303000Y-85090000D02*
X137541000Y-84328000D01*
X153670000Y-79883000D02*
X147320000Y-79883000D01*
X146939000Y-80264000D02*
X146939000Y-83820000D01*
X147320000Y-79883000D02*
X146939000Y-80264000D01*
X146939000Y-83820000D02*
X145669000Y-85090000D01*
X145669000Y-85090000D02*
X138303000Y-85090000D01*
X137541000Y-84328000D02*
X137541000Y-81788000D01*
X151468000Y-95885000D02*
X151468000Y-97493000D01*
X151468000Y-97493000D02*
X151511000Y-97536000D01*
X149611000Y-97536000D02*
X149611000Y-98844000D01*
X149611000Y-98844000D02*
X149268000Y-99187000D01*
X170434000Y-95885000D02*
X170434000Y-83820000D01*
X170434000Y-83820000D02*
X165354000Y-78740000D01*
X146978000Y-78740000D02*
X144907000Y-80811000D01*
X165354000Y-78740000D02*
X146978000Y-78740000D01*
X144907000Y-80811000D02*
X144907000Y-81788000D01*
X170429000Y-97536000D02*
X170429000Y-95890000D01*
X170429000Y-95890000D02*
X170434000Y-95885000D01*
X168529000Y-97536000D02*
X168529000Y-98933000D01*
X168529000Y-98933000D02*
X168275000Y-99187000D01*
X129540000Y-129540000D02*
X135255000Y-129540000D01*
X135255000Y-129540000D02*
X147000000Y-117795000D01*
X147000000Y-117795000D02*
X147000000Y-116017000D01*
X147000000Y-116017000D02*
X147000000Y-109474000D01*
X149987000Y-109642000D02*
X147168000Y-109642000D01*
X147168000Y-109642000D02*
X147000000Y-109474000D01*
X165923000Y-109474000D02*
X165698000Y-109474000D01*
X165698000Y-109474000D02*
X140552000Y-134620000D01*
X140552000Y-134620000D02*
X129540000Y-134620000D01*
X165923000Y-109474000D02*
X168826000Y-109474000D01*
X168826000Y-109474000D02*
X168910000Y-109558000D01*
X145120000Y-92116000D02*
X152273000Y-84963000D01*
X152273000Y-84963000D02*
X152273000Y-81788000D01*
X145120000Y-95885000D02*
X145120000Y-92116000D01*
X145161000Y-97536000D02*
X145161000Y-95926000D01*
X145161000Y-95926000D02*
X145120000Y-95885000D01*
X147061000Y-97536000D02*
X147061000Y-98928000D01*
X147061000Y-98928000D02*
X147320000Y-99187000D01*
X161417000Y-88773000D02*
X159639000Y-86995000D01*
X159639000Y-86995000D02*
X159639000Y-81788000D01*
X164338000Y-88773000D02*
X161417000Y-88773000D01*
X165455000Y-89890000D02*
X164338000Y-88773000D01*
X165455000Y-93980000D02*
X165455000Y-89890000D01*
X164127000Y-95885000D02*
X164127000Y-95308000D01*
X164127000Y-95308000D02*
X165455000Y-93980000D01*
X164216000Y-97536000D02*
X164216000Y-95974000D01*
X164216000Y-95974000D02*
X164127000Y-95885000D01*
X166116000Y-97536000D02*
X166116000Y-98976000D01*
X166116000Y-98976000D02*
X166327000Y-99187000D01*
X136525000Y-101008000D02*
X138767098Y-101008000D01*
X140510000Y-102750902D02*
X140510000Y-103078000D01*
X140937000Y-103505000D02*
X141412000Y-103505000D01*
X138767098Y-101008000D02*
X140510000Y-102750902D01*
X140510000Y-103078000D02*
X140937000Y-103505000D01*
X136631500Y-99187000D02*
X136631500Y-100901500D01*
X136631500Y-100901500D02*
X136525000Y-101008000D01*
X155448000Y-101051000D02*
X156248902Y-101051000D01*
X156248902Y-101051000D02*
X158702902Y-103505000D01*
X158702902Y-103505000D02*
X159499000Y-103505000D01*
X159499000Y-103505000D02*
X160401000Y-103505000D01*
X155491000Y-99187000D02*
X155491000Y-101008000D01*
X155491000Y-101008000D02*
X155448000Y-101051000D01*
X138176000Y-105494000D02*
X138176000Y-106221000D01*
X138176000Y-106221000D02*
X138176000Y-107358000D01*
X141412000Y-106045000D02*
X138727000Y-106045000D01*
X138727000Y-106045000D02*
X138176000Y-105494000D01*
X157099000Y-105494000D02*
X157099000Y-107358000D01*
X158326000Y-105494000D02*
X158877000Y-106045000D01*
X158877000Y-106045000D02*
X160401000Y-106045000D01*
X157099000Y-105494000D02*
X158326000Y-105494000D01*
X143002000Y-99807000D02*
X143002000Y-103660000D01*
X143002000Y-103660000D02*
X141887000Y-104775000D01*
X141887000Y-104775000D02*
X141412000Y-104775000D01*
X142959000Y-99187000D02*
X142959000Y-99764000D01*
X142959000Y-99764000D02*
X143002000Y-99807000D01*
X138176000Y-103294000D02*
X138753000Y-103294000D01*
X138753000Y-103294000D02*
X140234000Y-104775000D01*
X140234000Y-104775000D02*
X140510000Y-104775000D01*
X140510000Y-104775000D02*
X141412000Y-104775000D01*
X160401000Y-104775000D02*
X161303000Y-104775000D01*
X161303000Y-104775000D02*
X161882000Y-104196000D01*
X161882000Y-104196000D02*
X161882000Y-99764000D01*
X161882000Y-99764000D02*
X161882000Y-99187000D01*
X157099000Y-103294000D02*
X157676000Y-103294000D01*
X157676000Y-103294000D02*
X159157000Y-104775000D01*
X159157000Y-104775000D02*
X159499000Y-104775000D01*
X159499000Y-104775000D02*
X160401000Y-104775000D01*
X151638000Y-101051000D02*
X147569000Y-101051000D01*
X147569000Y-101051000D02*
X146812000Y-101808000D01*
X146812000Y-101808000D02*
X146812000Y-102235000D01*
X151468000Y-99187000D02*
X151468000Y-100881000D01*
X151468000Y-100881000D02*
X151638000Y-101051000D01*
X170561000Y-100965000D02*
X166644000Y-100965000D01*
X166644000Y-100965000D02*
X165801000Y-101808000D01*
X165801000Y-101808000D02*
X165801000Y-102235000D01*
X170475000Y-99187000D02*
X170475000Y-100879000D01*
X170475000Y-100879000D02*
X170561000Y-100965000D01*
X149987000Y-105494000D02*
X149987000Y-107442000D01*
X146812000Y-104775000D02*
X149268000Y-104775000D01*
X149410000Y-104767000D02*
X149987000Y-105344000D01*
X149268000Y-104775000D02*
X149276000Y-104767000D01*
X149276000Y-104767000D02*
X149410000Y-104767000D01*
X149987000Y-105344000D02*
X149987000Y-105494000D01*
X168910000Y-105494000D02*
X168910000Y-106221000D01*
X168910000Y-106221000D02*
X168910000Y-107358000D01*
X165801000Y-104775000D02*
X168191000Y-104775000D01*
X168191000Y-104775000D02*
X168199000Y-104767000D01*
X168199000Y-104767000D02*
X168333000Y-104767000D01*
X168333000Y-104767000D02*
X168910000Y-105344000D01*
X168910000Y-105344000D02*
X168910000Y-105494000D01*
X146812000Y-103505000D02*
X146337000Y-103505000D01*
X146337000Y-103505000D02*
X145120000Y-102288000D01*
X145120000Y-102288000D02*
X145120000Y-99764000D01*
X145120000Y-99764000D02*
X145120000Y-99187000D01*
X146812000Y-103505000D02*
X149776000Y-103505000D01*
X149776000Y-103505000D02*
X149987000Y-103294000D01*
X165801000Y-103505000D02*
X164899000Y-103505000D01*
X164899000Y-103505000D02*
X164127000Y-102733000D01*
X164127000Y-102733000D02*
X164127000Y-99764000D01*
X164127000Y-99764000D02*
X164127000Y-99187000D01*
X165801000Y-103505000D02*
X168699000Y-103505000D01*
X168699000Y-103505000D02*
X168910000Y-103294000D01*
G36*
X179947500Y-144387500D02*
X127392500Y-144387500D01*
X127392500Y-140928023D01*
X135073205Y-140928023D01*
X135235852Y-141321659D01*
X135536757Y-141623089D01*
X135930108Y-141786423D01*
X136356023Y-141786795D01*
X136749659Y-141624148D01*
X137051089Y-141323243D01*
X137214423Y-140929892D01*
X137214424Y-140928023D01*
X146757205Y-140928023D01*
X146919852Y-141321659D01*
X147220757Y-141623089D01*
X147614108Y-141786423D01*
X148040023Y-141786795D01*
X148433659Y-141624148D01*
X148735089Y-141323243D01*
X148898423Y-140929892D01*
X148898424Y-140928023D01*
X158441205Y-140928023D01*
X158603852Y-141321659D01*
X158904757Y-141623089D01*
X159298108Y-141786423D01*
X159724023Y-141786795D01*
X160117659Y-141624148D01*
X160419089Y-141323243D01*
X160582423Y-140929892D01*
X160582424Y-140928023D01*
X170125205Y-140928023D01*
X170287852Y-141321659D01*
X170588757Y-141623089D01*
X170982108Y-141786423D01*
X171408023Y-141786795D01*
X171801659Y-141624148D01*
X172103089Y-141323243D01*
X172266423Y-140929892D01*
X172266795Y-140503977D01*
X172104148Y-140110341D01*
X171803243Y-139808911D01*
X171540957Y-139700000D01*
X176609627Y-139700000D01*
X176698498Y-140146783D01*
X176951580Y-140525547D01*
X177330344Y-140778629D01*
X177777127Y-140867500D01*
X177822873Y-140867500D01*
X178269656Y-140778629D01*
X178648420Y-140525547D01*
X178901502Y-140146783D01*
X178990373Y-139700000D01*
X178901502Y-139253217D01*
X178648420Y-138874453D01*
X178269656Y-138621371D01*
X177822873Y-138532500D01*
X177777127Y-138532500D01*
X177330344Y-138621371D01*
X176951580Y-138874453D01*
X176698498Y-139253217D01*
X176609627Y-139700000D01*
X171540957Y-139700000D01*
X171409892Y-139645577D01*
X170983977Y-139645205D01*
X170590341Y-139807852D01*
X170288911Y-140108757D01*
X170125577Y-140502108D01*
X170125205Y-140928023D01*
X160582424Y-140928023D01*
X160582795Y-140503977D01*
X160420148Y-140110341D01*
X160119243Y-139808911D01*
X159725892Y-139645577D01*
X159299977Y-139645205D01*
X158906341Y-139807852D01*
X158604911Y-140108757D01*
X158441577Y-140502108D01*
X158441205Y-140928023D01*
X148898424Y-140928023D01*
X148898795Y-140503977D01*
X148736148Y-140110341D01*
X148435243Y-139808911D01*
X148041892Y-139645577D01*
X147615977Y-139645205D01*
X147222341Y-139807852D01*
X146920911Y-140108757D01*
X146757577Y-140502108D01*
X146757205Y-140928023D01*
X137214424Y-140928023D01*
X137214795Y-140503977D01*
X137052148Y-140110341D01*
X136751243Y-139808911D01*
X136357892Y-139645577D01*
X135931977Y-139645205D01*
X135538341Y-139807852D01*
X135236911Y-140108757D01*
X135073577Y-140502108D01*
X135073205Y-140928023D01*
X127392500Y-140928023D01*
X127392500Y-139700000D01*
X128349627Y-139700000D01*
X128438498Y-140146783D01*
X128691580Y-140525547D01*
X129070344Y-140778629D01*
X129517127Y-140867500D01*
X129562873Y-140867500D01*
X130009656Y-140778629D01*
X130388420Y-140525547D01*
X130641502Y-140146783D01*
X130730373Y-139700000D01*
X130641502Y-139253217D01*
X130388420Y-138874453D01*
X130009656Y-138621371D01*
X129562873Y-138532500D01*
X129517127Y-138532500D01*
X129070344Y-138621371D01*
X128691580Y-138874453D01*
X128438498Y-139253217D01*
X128349627Y-139700000D01*
X127392500Y-139700000D01*
X127392500Y-137160000D01*
X128349627Y-137160000D01*
X128438498Y-137606783D01*
X128691580Y-137985547D01*
X129070344Y-138238629D01*
X129517127Y-138327500D01*
X129562873Y-138327500D01*
X130009656Y-138238629D01*
X130388420Y-137985547D01*
X130641502Y-137606783D01*
X130730373Y-137160000D01*
X176609627Y-137160000D01*
X176698498Y-137606783D01*
X176951580Y-137985547D01*
X177330344Y-138238629D01*
X177777127Y-138327500D01*
X177822873Y-138327500D01*
X178269656Y-138238629D01*
X178648420Y-137985547D01*
X178901502Y-137606783D01*
X178990373Y-137160000D01*
X178901502Y-136713217D01*
X178648420Y-136334453D01*
X178269656Y-136081371D01*
X177822873Y-135992500D01*
X177777127Y-135992500D01*
X177330344Y-136081371D01*
X176951580Y-136334453D01*
X176698498Y-136713217D01*
X176609627Y-137160000D01*
X130730373Y-137160000D01*
X130641502Y-136713217D01*
X130388420Y-136334453D01*
X130009656Y-136081371D01*
X129562873Y-135992500D01*
X129517127Y-135992500D01*
X129070344Y-136081371D01*
X128691580Y-136334453D01*
X128438498Y-136713217D01*
X128349627Y-137160000D01*
X127392500Y-137160000D01*
X127392500Y-134620000D01*
X128349627Y-134620000D01*
X128438498Y-135066783D01*
X128691580Y-135445547D01*
X129070344Y-135698629D01*
X129517127Y-135787500D01*
X129562873Y-135787500D01*
X130009656Y-135698629D01*
X130388420Y-135445547D01*
X130641502Y-135066783D01*
X130654587Y-135001000D01*
X140552000Y-135001000D01*
X140697803Y-134971998D01*
X140821408Y-134889408D01*
X141090816Y-134620000D01*
X176609627Y-134620000D01*
X176698498Y-135066783D01*
X176951580Y-135445547D01*
X177330344Y-135698629D01*
X177777127Y-135787500D01*
X177822873Y-135787500D01*
X178269656Y-135698629D01*
X178648420Y-135445547D01*
X178901502Y-135066783D01*
X178990373Y-134620000D01*
X178901502Y-134173217D01*
X178648420Y-133794453D01*
X178269656Y-133541371D01*
X177822873Y-133452500D01*
X177777127Y-133452500D01*
X177330344Y-133541371D01*
X176951580Y-133794453D01*
X176698498Y-134173217D01*
X176609627Y-134620000D01*
X141090816Y-134620000D01*
X143630816Y-132080000D01*
X176609627Y-132080000D01*
X176698498Y-132526783D01*
X176951580Y-132905547D01*
X177330344Y-133158629D01*
X177777127Y-133247500D01*
X177822873Y-133247500D01*
X178269656Y-133158629D01*
X178648420Y-132905547D01*
X178901502Y-132526783D01*
X178990373Y-132080000D01*
X178901502Y-131633217D01*
X178648420Y-131254453D01*
X178269656Y-131001371D01*
X177822873Y-130912500D01*
X177777127Y-130912500D01*
X177330344Y-131001371D01*
X176951580Y-131254453D01*
X176698498Y-131633217D01*
X176609627Y-132080000D01*
X143630816Y-132080000D01*
X146170816Y-129540000D01*
X176609627Y-129540000D01*
X176698498Y-129986783D01*
X176951580Y-130365547D01*
X177330344Y-130618629D01*
X177777127Y-130707500D01*
X177822873Y-130707500D01*
X178269656Y-130618629D01*
X178648420Y-130365547D01*
X178901502Y-129986783D01*
X178990373Y-129540000D01*
X178901502Y-129093217D01*
X178648420Y-128714453D01*
X178269656Y-128461371D01*
X177822873Y-128372500D01*
X177777127Y-128372500D01*
X177330344Y-128461371D01*
X176951580Y-128714453D01*
X176698498Y-129093217D01*
X176609627Y-129540000D01*
X146170816Y-129540000D01*
X148710816Y-127000000D01*
X176609627Y-127000000D01*
X176698498Y-127446783D01*
X176951580Y-127825547D01*
X177330344Y-128078629D01*
X177777127Y-128167500D01*
X177822873Y-128167500D01*
X178269656Y-128078629D01*
X178648420Y-127825547D01*
X178901502Y-127446783D01*
X178990373Y-127000000D01*
X178901502Y-126553217D01*
X178648420Y-126174453D01*
X178269656Y-125921371D01*
X177822873Y-125832500D01*
X177777127Y-125832500D01*
X177330344Y-125921371D01*
X176951580Y-126174453D01*
X176698498Y-126553217D01*
X176609627Y-127000000D01*
X148710816Y-127000000D01*
X151250816Y-124460000D01*
X176609627Y-124460000D01*
X176698498Y-124906783D01*
X176951580Y-125285547D01*
X177330344Y-125538629D01*
X177777127Y-125627500D01*
X177822873Y-125627500D01*
X178269656Y-125538629D01*
X178648420Y-125285547D01*
X178901502Y-124906783D01*
X178990373Y-124460000D01*
X178901502Y-124013217D01*
X178648420Y-123634453D01*
X178269656Y-123381371D01*
X177822873Y-123292500D01*
X177777127Y-123292500D01*
X177330344Y-123381371D01*
X176951580Y-123634453D01*
X176698498Y-124013217D01*
X176609627Y-124460000D01*
X151250816Y-124460000D01*
X154767816Y-120943000D01*
X159608280Y-120943000D01*
X159608280Y-122643000D01*
X159630419Y-122760658D01*
X159699955Y-122868721D01*
X159806055Y-122941215D01*
X159932000Y-122966720D01*
X161632000Y-122966720D01*
X161749658Y-122944581D01*
X161857721Y-122875045D01*
X161930215Y-122768945D01*
X161955720Y-122643000D01*
X161955720Y-120943000D01*
X171292280Y-120943000D01*
X171292280Y-122643000D01*
X171314419Y-122760658D01*
X171383955Y-122868721D01*
X171490055Y-122941215D01*
X171616000Y-122966720D01*
X173316000Y-122966720D01*
X173433658Y-122944581D01*
X173541721Y-122875045D01*
X173614215Y-122768945D01*
X173639720Y-122643000D01*
X173639720Y-121070000D01*
X176626280Y-121070000D01*
X176626280Y-122770000D01*
X176648419Y-122887658D01*
X176717955Y-122995721D01*
X176824055Y-123068215D01*
X176950000Y-123093720D01*
X178650000Y-123093720D01*
X178767658Y-123071581D01*
X178875721Y-123002045D01*
X178948215Y-122895945D01*
X178973720Y-122770000D01*
X178973720Y-121070000D01*
X178951581Y-120952342D01*
X178882045Y-120844279D01*
X178775945Y-120771785D01*
X178650000Y-120746280D01*
X176950000Y-120746280D01*
X176832342Y-120768419D01*
X176724279Y-120837955D01*
X176651785Y-120944055D01*
X176626280Y-121070000D01*
X173639720Y-121070000D01*
X173639720Y-120943000D01*
X173617581Y-120825342D01*
X173548045Y-120717279D01*
X173441945Y-120644785D01*
X173316000Y-120619280D01*
X171616000Y-120619280D01*
X171498342Y-120641419D01*
X171390279Y-120710955D01*
X171317785Y-120817055D01*
X171292280Y-120943000D01*
X161955720Y-120943000D01*
X161933581Y-120825342D01*
X161864045Y-120717279D01*
X161757945Y-120644785D01*
X161632000Y-120619280D01*
X159932000Y-120619280D01*
X159814342Y-120641419D01*
X159706279Y-120710955D01*
X159633785Y-120817055D01*
X159608280Y-120943000D01*
X154767816Y-120943000D01*
X157854816Y-117856000D01*
X176609627Y-117856000D01*
X176698498Y-118302783D01*
X176951580Y-118681547D01*
X177330344Y-118934629D01*
X177777127Y-119023500D01*
X177822873Y-119023500D01*
X178269656Y-118934629D01*
X178648420Y-118681547D01*
X178901502Y-118302783D01*
X178990373Y-117856000D01*
X178901502Y-117409217D01*
X178648420Y-117030453D01*
X178269656Y-116777371D01*
X177822873Y-116688500D01*
X177777127Y-116688500D01*
X177330344Y-116777371D01*
X176951580Y-117030453D01*
X176698498Y-117409217D01*
X176609627Y-117856000D01*
X157854816Y-117856000D01*
X160394816Y-115316000D01*
X176609627Y-115316000D01*
X176698498Y-115762783D01*
X176951580Y-116141547D01*
X177330344Y-116394629D01*
X177777127Y-116483500D01*
X177822873Y-116483500D01*
X178269656Y-116394629D01*
X178648420Y-116141547D01*
X178901502Y-115762783D01*
X178990373Y-115316000D01*
X178901502Y-114869217D01*
X178648420Y-114490453D01*
X178269656Y-114237371D01*
X177822873Y-114148500D01*
X177777127Y-114148500D01*
X177330344Y-114237371D01*
X176951580Y-114490453D01*
X176698498Y-114869217D01*
X176609627Y-115316000D01*
X160394816Y-115316000D01*
X162934816Y-112776000D01*
X176609627Y-112776000D01*
X176698498Y-113222783D01*
X176951580Y-113601547D01*
X177330344Y-113854629D01*
X177777127Y-113943500D01*
X177822873Y-113943500D01*
X178269656Y-113854629D01*
X178648420Y-113601547D01*
X178901502Y-113222783D01*
X178990373Y-112776000D01*
X178901502Y-112329217D01*
X178648420Y-111950453D01*
X178269656Y-111697371D01*
X177822873Y-111608500D01*
X177777127Y-111608500D01*
X177330344Y-111697371D01*
X176951580Y-111950453D01*
X176698498Y-112329217D01*
X176609627Y-112776000D01*
X162934816Y-112776000D01*
X165538096Y-110172720D01*
X166523000Y-110172720D01*
X166640658Y-110150581D01*
X166748721Y-110081045D01*
X166821215Y-109974945D01*
X166845505Y-109855000D01*
X168136280Y-109855000D01*
X168136280Y-110158000D01*
X168158419Y-110275658D01*
X168227955Y-110383721D01*
X168334055Y-110456215D01*
X168460000Y-110481720D01*
X169360000Y-110481720D01*
X169477658Y-110459581D01*
X169585721Y-110390045D01*
X169658215Y-110283945D01*
X169667924Y-110236000D01*
X176609627Y-110236000D01*
X176698498Y-110682783D01*
X176951580Y-111061547D01*
X177330344Y-111314629D01*
X177777127Y-111403500D01*
X177822873Y-111403500D01*
X178269656Y-111314629D01*
X178648420Y-111061547D01*
X178901502Y-110682783D01*
X178990373Y-110236000D01*
X178901502Y-109789217D01*
X178648420Y-109410453D01*
X178269656Y-109157371D01*
X177822873Y-109068500D01*
X177777127Y-109068500D01*
X177330344Y-109157371D01*
X176951580Y-109410453D01*
X176698498Y-109789217D01*
X176609627Y-110236000D01*
X169667924Y-110236000D01*
X169683720Y-110158000D01*
X169683720Y-108958000D01*
X169661581Y-108840342D01*
X169592045Y-108732279D01*
X169485945Y-108659785D01*
X169360000Y-108634280D01*
X168460000Y-108634280D01*
X168342342Y-108656419D01*
X168234279Y-108725955D01*
X168161785Y-108832055D01*
X168136280Y-108958000D01*
X168136280Y-109093000D01*
X166845591Y-109093000D01*
X166824581Y-108981342D01*
X166755045Y-108873279D01*
X166648945Y-108800785D01*
X166523000Y-108775280D01*
X165323000Y-108775280D01*
X165205342Y-108797419D01*
X165097279Y-108866955D01*
X165024785Y-108973055D01*
X164999280Y-109099000D01*
X164999280Y-109633904D01*
X140394184Y-134239000D01*
X130654587Y-134239000D01*
X130641502Y-134173217D01*
X130388420Y-133794453D01*
X130009656Y-133541371D01*
X129562873Y-133452500D01*
X129517127Y-133452500D01*
X129070344Y-133541371D01*
X128691580Y-133794453D01*
X128438498Y-134173217D01*
X128349627Y-134620000D01*
X127392500Y-134620000D01*
X127392500Y-121920000D01*
X128349627Y-121920000D01*
X128438498Y-122366783D01*
X128691580Y-122745547D01*
X129070344Y-122998629D01*
X129517127Y-123087500D01*
X129562873Y-123087500D01*
X130009656Y-122998629D01*
X130388420Y-122745547D01*
X130641502Y-122366783D01*
X130730373Y-121920000D01*
X130641502Y-121473217D01*
X130388420Y-121094453D01*
X130161755Y-120943000D01*
X136049780Y-120943000D01*
X136049780Y-122643000D01*
X136071919Y-122760658D01*
X136141455Y-122868721D01*
X136247555Y-122941215D01*
X136373500Y-122966720D01*
X138073500Y-122966720D01*
X138191158Y-122944581D01*
X138299221Y-122875045D01*
X138371715Y-122768945D01*
X138397220Y-122643000D01*
X138397220Y-120943000D01*
X138375081Y-120825342D01*
X138305545Y-120717279D01*
X138199445Y-120644785D01*
X138073500Y-120619280D01*
X136373500Y-120619280D01*
X136255842Y-120641419D01*
X136147779Y-120710955D01*
X136075285Y-120817055D01*
X136049780Y-120943000D01*
X130161755Y-120943000D01*
X130009656Y-120841371D01*
X129562873Y-120752500D01*
X129517127Y-120752500D01*
X129070344Y-120841371D01*
X128691580Y-121094453D01*
X128438498Y-121473217D01*
X128349627Y-121920000D01*
X127392500Y-121920000D01*
X127392500Y-110895501D01*
X128118499Y-110895501D01*
X128118499Y-112751499D01*
X128147501Y-112897302D01*
X128230091Y-113020907D01*
X128688399Y-113479214D01*
X128438498Y-113853217D01*
X128349627Y-114300000D01*
X128438498Y-114746783D01*
X128691580Y-115125547D01*
X129070344Y-115378629D01*
X129517127Y-115467500D01*
X129562873Y-115467500D01*
X130009656Y-115378629D01*
X130388420Y-115125547D01*
X130641502Y-114746783D01*
X130730373Y-114300000D01*
X130655184Y-113922000D01*
X132334000Y-115600815D01*
X132334000Y-116586000D01*
X132363002Y-116731803D01*
X132445592Y-116855408D01*
X134223590Y-118633405D01*
X134223592Y-118633408D01*
X134295638Y-118681547D01*
X134347198Y-118715998D01*
X134493000Y-118745001D01*
X134493005Y-118745000D01*
X138011280Y-118745000D01*
X138011280Y-118989000D01*
X138033419Y-119106658D01*
X138102955Y-119214721D01*
X138209055Y-119287215D01*
X138335000Y-119312720D01*
X139835000Y-119312720D01*
X139952658Y-119290581D01*
X140060721Y-119221045D01*
X140133215Y-119114945D01*
X140158720Y-118989000D01*
X140158720Y-117739000D01*
X140136581Y-117621342D01*
X140067045Y-117513279D01*
X139960945Y-117440785D01*
X139835000Y-117415280D01*
X139605000Y-117415280D01*
X139605000Y-117270720D01*
X140224000Y-117270720D01*
X140341658Y-117248581D01*
X140449721Y-117179045D01*
X140522215Y-117072945D01*
X140547720Y-116947000D01*
X140547720Y-114447000D01*
X140525581Y-114329342D01*
X140456045Y-114221279D01*
X140349945Y-114148785D01*
X140224000Y-114123280D01*
X138224000Y-114123280D01*
X138106342Y-114145419D01*
X137998279Y-114214955D01*
X137925785Y-114321055D01*
X137904330Y-114427000D01*
X137870720Y-114427000D01*
X137870720Y-114358000D01*
X137848581Y-114240342D01*
X137779045Y-114132279D01*
X137672945Y-114059785D01*
X137547000Y-114034280D01*
X136347000Y-114034280D01*
X136229342Y-114056419D01*
X136121279Y-114125955D01*
X136048785Y-114232055D01*
X136023280Y-114358000D01*
X136023280Y-115258000D01*
X136045419Y-115375658D01*
X136114955Y-115483721D01*
X136221055Y-115556215D01*
X136347000Y-115581720D01*
X136566000Y-115581720D01*
X136566000Y-115685280D01*
X136306000Y-115685280D01*
X136188342Y-115707419D01*
X136080279Y-115776955D01*
X136007785Y-115883055D01*
X135982280Y-116009000D01*
X135982280Y-116909000D01*
X136004419Y-117026658D01*
X136073955Y-117134721D01*
X136180055Y-117207215D01*
X136306000Y-117232720D01*
X137506000Y-117232720D01*
X137623658Y-117210581D01*
X137731721Y-117141045D01*
X137804215Y-117034945D01*
X137829720Y-116909000D01*
X137829720Y-116009000D01*
X137807581Y-115891342D01*
X137738045Y-115783279D01*
X137631945Y-115710785D01*
X137506000Y-115685280D01*
X137328000Y-115685280D01*
X137328000Y-115581720D01*
X137547000Y-115581720D01*
X137664658Y-115559581D01*
X137772721Y-115490045D01*
X137845215Y-115383945D01*
X137870720Y-115258000D01*
X137870720Y-115189000D01*
X137900280Y-115189000D01*
X137900280Y-116947000D01*
X137922419Y-117064658D01*
X137991955Y-117172721D01*
X138098055Y-117245215D01*
X138224000Y-117270720D01*
X138843000Y-117270720D01*
X138843000Y-117415280D01*
X138335000Y-117415280D01*
X138217342Y-117437419D01*
X138109279Y-117506955D01*
X138036785Y-117613055D01*
X138011280Y-117739000D01*
X138011280Y-117983000D01*
X134650815Y-117983000D01*
X133096000Y-116428184D01*
X133096000Y-115443005D01*
X133096001Y-115443000D01*
X133066998Y-115297198D01*
X132994703Y-115189000D01*
X133823280Y-115189000D01*
X133823280Y-115258000D01*
X133845419Y-115375658D01*
X133914955Y-115483721D01*
X134021055Y-115556215D01*
X134147000Y-115581720D01*
X135347000Y-115581720D01*
X135464658Y-115559581D01*
X135572721Y-115490045D01*
X135645215Y-115383945D01*
X135670720Y-115258000D01*
X135670720Y-114358000D01*
X135648581Y-114240342D01*
X135579045Y-114132279D01*
X135472945Y-114059785D01*
X135347000Y-114034280D01*
X134147000Y-114034280D01*
X134029342Y-114056419D01*
X133921279Y-114125955D01*
X133848785Y-114232055D01*
X133823280Y-114358000D01*
X133823280Y-114427000D01*
X132745816Y-114427000D01*
X130595078Y-112276262D01*
X130641502Y-112206783D01*
X130730373Y-111760000D01*
X130641502Y-111313217D01*
X130595078Y-111243738D01*
X132999816Y-108839000D01*
X137426379Y-108839000D01*
X137402280Y-108958000D01*
X137402280Y-110158000D01*
X137424419Y-110275658D01*
X137493955Y-110383721D01*
X137600055Y-110456215D01*
X137726000Y-110481720D01*
X137858024Y-110481720D01*
X137906592Y-110554408D01*
X141032590Y-113680405D01*
X141032592Y-113680408D01*
X141156198Y-113762998D01*
X141302000Y-113792001D01*
X141302005Y-113792000D01*
X143987184Y-113792000D01*
X144653000Y-114457816D01*
X144653000Y-117190185D01*
X135224184Y-126619000D01*
X130713720Y-126619000D01*
X130713720Y-126150000D01*
X130691581Y-126032342D01*
X130622045Y-125924279D01*
X130515945Y-125851785D01*
X130390000Y-125826280D01*
X128690000Y-125826280D01*
X128572342Y-125848419D01*
X128464279Y-125917955D01*
X128391785Y-126024055D01*
X128366280Y-126150000D01*
X128366280Y-127850000D01*
X128388419Y-127967658D01*
X128457955Y-128075721D01*
X128564055Y-128148215D01*
X128690000Y-128173720D01*
X130390000Y-128173720D01*
X130507658Y-128151581D01*
X130615721Y-128082045D01*
X130688215Y-127975945D01*
X130713720Y-127850000D01*
X130713720Y-127381000D01*
X135382000Y-127381000D01*
X135527803Y-127351998D01*
X135651408Y-127269408D01*
X145303405Y-117617410D01*
X145303408Y-117617408D01*
X145377210Y-117506955D01*
X145385998Y-117493803D01*
X145415000Y-117348000D01*
X145415000Y-114300005D01*
X145415001Y-114300000D01*
X145385998Y-114154198D01*
X145303408Y-114030592D01*
X144414408Y-113141592D01*
X144290803Y-113059002D01*
X144145000Y-113030000D01*
X141459815Y-113030000D01*
X138832335Y-110402519D01*
X138851721Y-110390045D01*
X138924215Y-110283945D01*
X138949720Y-110158000D01*
X138949720Y-109939000D01*
X140444215Y-109939000D01*
X140449419Y-109966658D01*
X140518955Y-110074721D01*
X140625055Y-110147215D01*
X140751000Y-110172720D01*
X141951000Y-110172720D01*
X142068658Y-110150581D01*
X142176721Y-110081045D01*
X142249215Y-109974945D01*
X142274720Y-109849000D01*
X142274720Y-109099000D01*
X142252581Y-108981342D01*
X142183045Y-108873279D01*
X142076945Y-108800785D01*
X141951000Y-108775280D01*
X141548762Y-108775280D01*
X141620408Y-108727408D01*
X143921815Y-106426000D01*
X145728521Y-106426000D01*
X145735419Y-106462658D01*
X145804955Y-106570721D01*
X145911055Y-106643215D01*
X146037000Y-106668720D01*
X146619000Y-106668720D01*
X146619000Y-107124280D01*
X146400000Y-107124280D01*
X146282342Y-107146419D01*
X146174279Y-107215955D01*
X146101785Y-107322055D01*
X146076280Y-107448000D01*
X146076280Y-108198000D01*
X146098419Y-108315658D01*
X146167955Y-108423721D01*
X146274055Y-108496215D01*
X146400000Y-108521720D01*
X147600000Y-108521720D01*
X147717658Y-108499581D01*
X147807168Y-108441983D01*
X148092590Y-108727405D01*
X148092592Y-108727408D01*
X148197372Y-108797419D01*
X148216198Y-108809998D01*
X148362000Y-108839001D01*
X148362005Y-108839000D01*
X149291434Y-108839000D01*
X149238785Y-108916055D01*
X149213280Y-109042000D01*
X149213280Y-109261000D01*
X147923720Y-109261000D01*
X147923720Y-109099000D01*
X147901581Y-108981342D01*
X147832045Y-108873279D01*
X147725945Y-108800785D01*
X147600000Y-108775280D01*
X146400000Y-108775280D01*
X146282342Y-108797419D01*
X146174279Y-108866955D01*
X146101785Y-108973055D01*
X146076280Y-109099000D01*
X146076280Y-109849000D01*
X146098419Y-109966658D01*
X146167955Y-110074721D01*
X146274055Y-110147215D01*
X146400000Y-110172720D01*
X146619000Y-110172720D01*
X146619000Y-117637185D01*
X135097184Y-129159000D01*
X130654587Y-129159000D01*
X130641502Y-129093217D01*
X130388420Y-128714453D01*
X130009656Y-128461371D01*
X129562873Y-128372500D01*
X129517127Y-128372500D01*
X129070344Y-128461371D01*
X128691580Y-128714453D01*
X128438498Y-129093217D01*
X128349627Y-129540000D01*
X128438498Y-129986783D01*
X128691580Y-130365547D01*
X129070344Y-130618629D01*
X129517127Y-130707500D01*
X129562873Y-130707500D01*
X130009656Y-130618629D01*
X130388420Y-130365547D01*
X130641502Y-129986783D01*
X130654587Y-129921000D01*
X135255000Y-129921000D01*
X135400803Y-129891998D01*
X135524408Y-129809408D01*
X147269405Y-118064410D01*
X147269408Y-118064408D01*
X147342116Y-117955592D01*
X147351998Y-117940803D01*
X147381000Y-117795000D01*
X147381000Y-110172720D01*
X147600000Y-110172720D01*
X147717658Y-110150581D01*
X147825721Y-110081045D01*
X147865381Y-110023000D01*
X149213280Y-110023000D01*
X149213280Y-110242000D01*
X149235419Y-110359658D01*
X149304955Y-110467721D01*
X149411055Y-110540215D01*
X149537000Y-110565720D01*
X150437000Y-110565720D01*
X150554658Y-110543581D01*
X150662721Y-110474045D01*
X150735215Y-110367945D01*
X150760720Y-110242000D01*
X150760720Y-109042000D01*
X150738581Y-108924342D01*
X150683665Y-108839000D01*
X156349379Y-108839000D01*
X156325280Y-108958000D01*
X156325280Y-109230001D01*
X156237592Y-109288592D01*
X133827184Y-131699000D01*
X130654587Y-131699000D01*
X130641502Y-131633217D01*
X130388420Y-131254453D01*
X130009656Y-131001371D01*
X129562873Y-130912500D01*
X129517127Y-130912500D01*
X129070344Y-131001371D01*
X128691580Y-131254453D01*
X128438498Y-131633217D01*
X128349627Y-132080000D01*
X128438498Y-132526783D01*
X128691580Y-132905547D01*
X129070344Y-133158629D01*
X129517127Y-133247500D01*
X129562873Y-133247500D01*
X130009656Y-133158629D01*
X130388420Y-132905547D01*
X130641502Y-132526783D01*
X130654587Y-132461000D01*
X133985000Y-132461000D01*
X134130803Y-132431998D01*
X134254408Y-132349408D01*
X145660816Y-120943000D01*
X147924280Y-120943000D01*
X147924280Y-122643000D01*
X147946419Y-122760658D01*
X148015955Y-122868721D01*
X148122055Y-122941215D01*
X148248000Y-122966720D01*
X149948000Y-122966720D01*
X150065658Y-122944581D01*
X150173721Y-122875045D01*
X150246215Y-122768945D01*
X150271720Y-122643000D01*
X150271720Y-120943000D01*
X150249581Y-120825342D01*
X150180045Y-120717279D01*
X150073945Y-120644785D01*
X149948000Y-120619280D01*
X148248000Y-120619280D01*
X148130342Y-120641419D01*
X148022279Y-120710955D01*
X147949785Y-120817055D01*
X147924280Y-120943000D01*
X145660816Y-120943000D01*
X152439606Y-114164210D01*
X156628997Y-114164210D01*
X156719678Y-114383675D01*
X156887442Y-114551732D01*
X157106748Y-114642796D01*
X157344210Y-114643003D01*
X157563675Y-114552322D01*
X157731732Y-114384558D01*
X157822796Y-114165252D01*
X157823003Y-113927790D01*
X157732322Y-113708325D01*
X157564558Y-113540268D01*
X157345252Y-113449204D01*
X157107790Y-113448997D01*
X156888325Y-113539678D01*
X156720268Y-113707442D01*
X156629204Y-113926748D01*
X156628997Y-114164210D01*
X152439606Y-114164210D01*
X156344369Y-110259447D01*
X156347419Y-110275658D01*
X156416955Y-110383721D01*
X156523055Y-110456215D01*
X156649000Y-110481720D01*
X157549000Y-110481720D01*
X157666658Y-110459581D01*
X157774721Y-110390045D01*
X157847215Y-110283945D01*
X157872720Y-110158000D01*
X157872720Y-109939000D01*
X159306215Y-109939000D01*
X159311419Y-109966658D01*
X159380955Y-110074721D01*
X159487055Y-110147215D01*
X159613000Y-110172720D01*
X160813000Y-110172720D01*
X160930658Y-110150581D01*
X161038721Y-110081045D01*
X161111215Y-109974945D01*
X161136720Y-109849000D01*
X161136720Y-109099000D01*
X161114581Y-108981342D01*
X161045045Y-108873279D01*
X160938945Y-108800785D01*
X160843514Y-108781459D01*
X160924408Y-108727408D01*
X163225815Y-106426000D01*
X164717521Y-106426000D01*
X164724419Y-106462658D01*
X164793955Y-106570721D01*
X164900055Y-106643215D01*
X165026000Y-106668720D01*
X165420000Y-106668720D01*
X165420000Y-107124280D01*
X165323000Y-107124280D01*
X165205342Y-107146419D01*
X165097279Y-107215955D01*
X165024785Y-107322055D01*
X164999280Y-107448000D01*
X164999280Y-108198000D01*
X165021419Y-108315658D01*
X165090955Y-108423721D01*
X165197055Y-108496215D01*
X165323000Y-108521720D01*
X166523000Y-108521720D01*
X166640658Y-108499581D01*
X166736258Y-108438065D01*
X166829698Y-108500499D01*
X166975501Y-108529501D01*
X170997499Y-108529501D01*
X171143302Y-108500499D01*
X171266907Y-108417909D01*
X171988815Y-107696000D01*
X176609627Y-107696000D01*
X176698498Y-108142783D01*
X176951580Y-108521547D01*
X177330344Y-108774629D01*
X177777127Y-108863500D01*
X177822873Y-108863500D01*
X178269656Y-108774629D01*
X178648420Y-108521547D01*
X178901502Y-108142783D01*
X178990373Y-107696000D01*
X178901502Y-107249217D01*
X178648420Y-106870453D01*
X178269656Y-106617371D01*
X177822873Y-106528500D01*
X177777127Y-106528500D01*
X177330344Y-106617371D01*
X176951580Y-106870453D01*
X176698498Y-107249217D01*
X176609627Y-107696000D01*
X171988815Y-107696000D01*
X172989405Y-106695410D01*
X172989408Y-106695408D01*
X173068495Y-106577045D01*
X173071998Y-106571803D01*
X173101000Y-106426000D01*
X173101000Y-105156000D01*
X176609627Y-105156000D01*
X176698498Y-105602783D01*
X176951580Y-105981547D01*
X177330344Y-106234629D01*
X177777127Y-106323500D01*
X177822873Y-106323500D01*
X178269656Y-106234629D01*
X178648420Y-105981547D01*
X178901502Y-105602783D01*
X178990373Y-105156000D01*
X178901502Y-104709217D01*
X178648420Y-104330453D01*
X178269656Y-104077371D01*
X177822873Y-103988500D01*
X177777127Y-103988500D01*
X177330344Y-104077371D01*
X176951580Y-104330453D01*
X176698498Y-104709217D01*
X176609627Y-105156000D01*
X173101000Y-105156000D01*
X173101000Y-102616000D01*
X176609627Y-102616000D01*
X176698498Y-103062783D01*
X176951580Y-103441547D01*
X177330344Y-103694629D01*
X177777127Y-103783500D01*
X177822873Y-103783500D01*
X178269656Y-103694629D01*
X178648420Y-103441547D01*
X178901502Y-103062783D01*
X178990373Y-102616000D01*
X178901502Y-102169217D01*
X178648420Y-101790453D01*
X178269656Y-101537371D01*
X177822873Y-101448500D01*
X177777127Y-101448500D01*
X177330344Y-101537371D01*
X176951580Y-101790453D01*
X176698498Y-102169217D01*
X176609627Y-102616000D01*
X173101000Y-102616000D01*
X173101000Y-100076000D01*
X176609627Y-100076000D01*
X176698498Y-100522783D01*
X176951580Y-100901547D01*
X177330344Y-101154629D01*
X177777127Y-101243500D01*
X177822873Y-101243500D01*
X178269656Y-101154629D01*
X178648420Y-100901547D01*
X178901502Y-100522783D01*
X178990373Y-100076000D01*
X178901502Y-99629217D01*
X178648420Y-99250453D01*
X178269656Y-98997371D01*
X177822873Y-98908500D01*
X177777127Y-98908500D01*
X177330344Y-98997371D01*
X176951580Y-99250453D01*
X176698498Y-99629217D01*
X176609627Y-100076000D01*
X173101000Y-100076000D01*
X173101000Y-100031073D01*
X173225732Y-99906558D01*
X173316796Y-99687252D01*
X173317003Y-99449790D01*
X173226322Y-99230325D01*
X173058558Y-99062268D01*
X172839252Y-98971204D01*
X172601790Y-98970997D01*
X172382325Y-99061678D01*
X172214268Y-99229442D01*
X172123204Y-99448748D01*
X172122997Y-99686210D01*
X172213678Y-99905675D01*
X172339000Y-100031216D01*
X172339000Y-101644784D01*
X172296558Y-101602268D01*
X172077252Y-101511204D01*
X171839790Y-101510997D01*
X171620325Y-101601678D01*
X171452268Y-101769442D01*
X171361204Y-101988748D01*
X171360997Y-102226210D01*
X171451678Y-102445675D01*
X171619442Y-102613732D01*
X171838748Y-102704796D01*
X172076210Y-102705003D01*
X172295675Y-102614322D01*
X172339000Y-102571073D01*
X172339000Y-106268185D01*
X170839683Y-107767501D01*
X169683720Y-107767501D01*
X169683720Y-106758000D01*
X169661581Y-106640342D01*
X169592045Y-106532279D01*
X169485945Y-106459785D01*
X169360000Y-106434280D01*
X169291000Y-106434280D01*
X169291000Y-106417720D01*
X169360000Y-106417720D01*
X169477658Y-106395581D01*
X169585721Y-106326045D01*
X169658215Y-106219945D01*
X169683720Y-106094000D01*
X169683720Y-104894000D01*
X169661581Y-104776342D01*
X169592045Y-104668279D01*
X169587976Y-104665499D01*
X170168501Y-104665499D01*
X170314304Y-104636497D01*
X170437909Y-104553907D01*
X170830405Y-104161410D01*
X170830408Y-104161408D01*
X170878976Y-104088720D01*
X171011000Y-104088720D01*
X171128658Y-104066581D01*
X171236721Y-103997045D01*
X171309215Y-103890945D01*
X171334720Y-103765000D01*
X171334720Y-102565000D01*
X171312581Y-102447342D01*
X171243045Y-102339279D01*
X171136945Y-102266785D01*
X171011000Y-102241280D01*
X170111000Y-102241280D01*
X169993342Y-102263419D01*
X169885279Y-102332955D01*
X169812785Y-102439055D01*
X169787280Y-102565000D01*
X169787280Y-103765000D01*
X169809419Y-103882658D01*
X169822830Y-103903499D01*
X169681796Y-103903499D01*
X169683720Y-103894000D01*
X169683720Y-102694000D01*
X169661581Y-102576342D01*
X169592045Y-102468279D01*
X169485945Y-102395785D01*
X169360000Y-102370280D01*
X168460000Y-102370280D01*
X168342342Y-102392419D01*
X168234279Y-102461955D01*
X168161785Y-102568055D01*
X168136280Y-102694000D01*
X168136280Y-103124000D01*
X166884479Y-103124000D01*
X166877581Y-103087342D01*
X166808045Y-102979279D01*
X166701945Y-102906785D01*
X166576000Y-102881280D01*
X165026000Y-102881280D01*
X164908342Y-102903419D01*
X164864467Y-102931651D01*
X164508000Y-102575184D01*
X164508000Y-101935000D01*
X164702280Y-101935000D01*
X164702280Y-102535000D01*
X164724419Y-102652658D01*
X164793955Y-102760721D01*
X164900055Y-102833215D01*
X165026000Y-102858720D01*
X166576000Y-102858720D01*
X166693658Y-102836581D01*
X166801721Y-102767045D01*
X166874215Y-102660945D01*
X166899720Y-102535000D01*
X166899720Y-101935000D01*
X166877581Y-101817342D01*
X166808045Y-101709279D01*
X166701945Y-101636785D01*
X166576000Y-101611280D01*
X166536536Y-101611280D01*
X166801816Y-101346000D01*
X169787280Y-101346000D01*
X169787280Y-101565000D01*
X169809419Y-101682658D01*
X169878955Y-101790721D01*
X169985055Y-101863215D01*
X170111000Y-101888720D01*
X171011000Y-101888720D01*
X171128658Y-101866581D01*
X171236721Y-101797045D01*
X171309215Y-101690945D01*
X171334720Y-101565000D01*
X171334720Y-100365000D01*
X171312581Y-100247342D01*
X171243045Y-100139279D01*
X171136945Y-100066785D01*
X171011000Y-100041280D01*
X170856000Y-100041280D01*
X170856000Y-99960720D01*
X171075000Y-99960720D01*
X171192658Y-99938581D01*
X171300721Y-99869045D01*
X171373215Y-99762945D01*
X171398720Y-99637000D01*
X171398720Y-98737000D01*
X171376581Y-98619342D01*
X171307045Y-98511279D01*
X171200945Y-98438785D01*
X171075000Y-98413280D01*
X169875000Y-98413280D01*
X169757342Y-98435419D01*
X169649279Y-98504955D01*
X169576785Y-98611055D01*
X169551280Y-98737000D01*
X169551280Y-99637000D01*
X169573419Y-99754658D01*
X169642955Y-99862721D01*
X169749055Y-99935215D01*
X169875000Y-99960720D01*
X170094000Y-99960720D01*
X170094000Y-100044479D01*
X169993342Y-100063419D01*
X169885279Y-100132955D01*
X169812785Y-100239055D01*
X169787280Y-100365000D01*
X169787280Y-100584000D01*
X166644000Y-100584000D01*
X166498197Y-100613002D01*
X166374592Y-100695592D01*
X165531592Y-101538592D01*
X165483024Y-101611280D01*
X165026000Y-101611280D01*
X164908342Y-101633419D01*
X164800279Y-101702955D01*
X164727785Y-101809055D01*
X164702280Y-101935000D01*
X164508000Y-101935000D01*
X164508000Y-99960720D01*
X164727000Y-99960720D01*
X164844658Y-99938581D01*
X164952721Y-99869045D01*
X165025215Y-99762945D01*
X165050720Y-99637000D01*
X165050720Y-98737000D01*
X165028581Y-98619342D01*
X164959045Y-98511279D01*
X164852945Y-98438785D01*
X164727000Y-98413280D01*
X163527000Y-98413280D01*
X163409342Y-98435419D01*
X163301279Y-98504955D01*
X163228785Y-98611055D01*
X163203280Y-98737000D01*
X163203280Y-99637000D01*
X163225419Y-99754658D01*
X163294955Y-99862721D01*
X163401055Y-99935215D01*
X163527000Y-99960720D01*
X163746000Y-99960720D01*
X163746000Y-102733000D01*
X163775002Y-102878803D01*
X163857592Y-103002408D01*
X164629592Y-103774408D01*
X164706149Y-103825561D01*
X164720814Y-103903499D01*
X162796501Y-103903499D01*
X162650698Y-103932501D01*
X162601189Y-103965582D01*
X162527093Y-104015091D01*
X162527091Y-104015094D01*
X162242345Y-104299840D01*
X162263001Y-104196000D01*
X162263000Y-104195995D01*
X162263000Y-99960720D01*
X162482000Y-99960720D01*
X162599658Y-99938581D01*
X162707721Y-99869045D01*
X162780215Y-99762945D01*
X162805720Y-99637000D01*
X162805720Y-98737000D01*
X162783581Y-98619342D01*
X162714045Y-98511279D01*
X162607945Y-98438785D01*
X162482000Y-98413280D01*
X161282000Y-98413280D01*
X161164342Y-98435419D01*
X161056279Y-98504955D01*
X160983785Y-98611055D01*
X160958280Y-98737000D01*
X160958280Y-99637000D01*
X160980419Y-99754658D01*
X161049955Y-99862721D01*
X161156055Y-99935215D01*
X161282000Y-99960720D01*
X161501000Y-99960720D01*
X161501000Y-104038185D01*
X161337860Y-104201324D01*
X161301945Y-104176785D01*
X161176000Y-104151280D01*
X159626000Y-104151280D01*
X159508342Y-104173419D01*
X159400279Y-104242955D01*
X159327785Y-104349055D01*
X159318683Y-104394000D01*
X159314815Y-104394000D01*
X158806815Y-103886000D01*
X159317521Y-103886000D01*
X159324419Y-103922658D01*
X159393955Y-104030721D01*
X159500055Y-104103215D01*
X159626000Y-104128720D01*
X161176000Y-104128720D01*
X161293658Y-104106581D01*
X161401721Y-104037045D01*
X161474215Y-103930945D01*
X161499720Y-103805000D01*
X161499720Y-103205000D01*
X161477581Y-103087342D01*
X161408045Y-102979279D01*
X161301945Y-102906785D01*
X161176000Y-102881280D01*
X159626000Y-102881280D01*
X159508342Y-102903419D01*
X159400279Y-102972955D01*
X159327785Y-103079055D01*
X159318683Y-103124000D01*
X158860718Y-103124000D01*
X156518310Y-100781592D01*
X156394705Y-100699002D01*
X156248902Y-100670000D01*
X156221720Y-100670000D01*
X156221720Y-100451000D01*
X156199581Y-100333342D01*
X156130045Y-100225279D01*
X156023945Y-100152785D01*
X155898000Y-100127280D01*
X155872000Y-100127280D01*
X155872000Y-99960720D01*
X156091000Y-99960720D01*
X156208658Y-99938581D01*
X156316721Y-99869045D01*
X156389215Y-99762945D01*
X156414720Y-99637000D01*
X156414720Y-98737000D01*
X156392581Y-98619342D01*
X156323045Y-98511279D01*
X156216945Y-98438785D01*
X156091000Y-98413280D01*
X154891000Y-98413280D01*
X154773342Y-98435419D01*
X154665279Y-98504955D01*
X154592785Y-98611055D01*
X154567280Y-98737000D01*
X154567280Y-99637000D01*
X154589419Y-99754658D01*
X154658955Y-99862721D01*
X154765055Y-99935215D01*
X154891000Y-99960720D01*
X155110000Y-99960720D01*
X155110000Y-100127280D01*
X154998000Y-100127280D01*
X154880342Y-100149419D01*
X154772279Y-100218955D01*
X154699785Y-100325055D01*
X154674280Y-100451000D01*
X154674280Y-101651000D01*
X154696419Y-101768658D01*
X154765955Y-101876721D01*
X154872055Y-101949215D01*
X154998000Y-101974720D01*
X155898000Y-101974720D01*
X156015658Y-101952581D01*
X156123721Y-101883045D01*
X156196215Y-101776945D01*
X156221720Y-101651000D01*
X156221720Y-101562634D01*
X157029366Y-102370280D01*
X156649000Y-102370280D01*
X156531342Y-102392419D01*
X156423279Y-102461955D01*
X156350785Y-102568055D01*
X156325280Y-102694000D01*
X156325280Y-103739464D01*
X156221720Y-103635904D01*
X156221720Y-102651000D01*
X156199581Y-102533342D01*
X156130045Y-102425279D01*
X156023945Y-102352785D01*
X155898000Y-102327280D01*
X154998000Y-102327280D01*
X154880342Y-102349419D01*
X154772279Y-102418955D01*
X154699785Y-102525055D01*
X154674280Y-102651000D01*
X154674280Y-102870000D01*
X152411720Y-102870000D01*
X152411720Y-102651000D01*
X152389581Y-102533342D01*
X152320045Y-102425279D01*
X152213945Y-102352785D01*
X152088000Y-102327280D01*
X151188000Y-102327280D01*
X151070342Y-102349419D01*
X150962279Y-102418955D01*
X150889785Y-102525055D01*
X150864280Y-102651000D01*
X150864280Y-103851000D01*
X150874158Y-103903499D01*
X150758796Y-103903499D01*
X150760720Y-103894000D01*
X150760720Y-102694000D01*
X150738581Y-102576342D01*
X150669045Y-102468279D01*
X150562945Y-102395785D01*
X150437000Y-102370280D01*
X149537000Y-102370280D01*
X149419342Y-102392419D01*
X149311279Y-102461955D01*
X149238785Y-102568055D01*
X149213280Y-102694000D01*
X149213280Y-103124000D01*
X147895479Y-103124000D01*
X147888581Y-103087342D01*
X147819045Y-102979279D01*
X147712945Y-102906785D01*
X147587000Y-102881280D01*
X146252096Y-102881280D01*
X146229536Y-102858720D01*
X147587000Y-102858720D01*
X147704658Y-102836581D01*
X147812721Y-102767045D01*
X147885215Y-102660945D01*
X147910720Y-102535000D01*
X147910720Y-101935000D01*
X147888581Y-101817342D01*
X147819045Y-101709279D01*
X147712945Y-101636785D01*
X147587000Y-101611280D01*
X147547535Y-101611280D01*
X147726815Y-101432000D01*
X150864280Y-101432000D01*
X150864280Y-101651000D01*
X150886419Y-101768658D01*
X150955955Y-101876721D01*
X151062055Y-101949215D01*
X151188000Y-101974720D01*
X152088000Y-101974720D01*
X152205658Y-101952581D01*
X152313721Y-101883045D01*
X152386215Y-101776945D01*
X152411720Y-101651000D01*
X152411720Y-100451000D01*
X152389581Y-100333342D01*
X152320045Y-100225279D01*
X152213945Y-100152785D01*
X152088000Y-100127280D01*
X151849000Y-100127280D01*
X151849000Y-99960720D01*
X152068000Y-99960720D01*
X152185658Y-99938581D01*
X152293721Y-99869045D01*
X152366215Y-99762945D01*
X152391720Y-99637000D01*
X152391720Y-98737000D01*
X152369581Y-98619342D01*
X152300045Y-98511279D01*
X152193945Y-98438785D01*
X152068000Y-98413280D01*
X150868000Y-98413280D01*
X150750342Y-98435419D01*
X150642279Y-98504955D01*
X150569785Y-98611055D01*
X150544280Y-98737000D01*
X150544280Y-99637000D01*
X150566419Y-99754658D01*
X150635955Y-99862721D01*
X150742055Y-99935215D01*
X150868000Y-99960720D01*
X151087000Y-99960720D01*
X151087000Y-100146285D01*
X151070342Y-100149419D01*
X150962279Y-100218955D01*
X150889785Y-100325055D01*
X150864280Y-100451000D01*
X150864280Y-100670000D01*
X147569005Y-100670000D01*
X147569000Y-100669999D01*
X147440341Y-100695592D01*
X147423198Y-100699002D01*
X147299592Y-100781592D01*
X147299590Y-100781595D01*
X146542592Y-101538592D01*
X146494024Y-101611280D01*
X146037000Y-101611280D01*
X145919342Y-101633419D01*
X145811279Y-101702955D01*
X145738785Y-101809055D01*
X145713280Y-101935000D01*
X145713280Y-102342464D01*
X145501000Y-102130184D01*
X145501000Y-99960720D01*
X145720000Y-99960720D01*
X145837658Y-99938581D01*
X145945721Y-99869045D01*
X146018215Y-99762945D01*
X146043720Y-99637000D01*
X146043720Y-98737000D01*
X146021581Y-98619342D01*
X145952045Y-98511279D01*
X145845945Y-98438785D01*
X145720000Y-98413280D01*
X144520000Y-98413280D01*
X144402342Y-98435419D01*
X144294279Y-98504955D01*
X144221785Y-98611055D01*
X144196280Y-98737000D01*
X144196280Y-99637000D01*
X144218419Y-99754658D01*
X144287955Y-99862721D01*
X144394055Y-99935215D01*
X144520000Y-99960720D01*
X144739000Y-99960720D01*
X144739000Y-102288000D01*
X144768002Y-102433803D01*
X144850592Y-102557408D01*
X145713280Y-103420096D01*
X145713280Y-103805000D01*
X145731814Y-103903499D01*
X143873506Y-103903499D01*
X143873501Y-103903498D01*
X143727699Y-103932501D01*
X143604093Y-104015091D01*
X142590184Y-105029000D01*
X142510720Y-105029000D01*
X142510720Y-104690096D01*
X143271408Y-103929408D01*
X143353998Y-103805803D01*
X143383000Y-103660000D01*
X143383000Y-99960720D01*
X143559000Y-99960720D01*
X143676658Y-99938581D01*
X143784721Y-99869045D01*
X143857215Y-99762945D01*
X143882720Y-99637000D01*
X143882720Y-98737000D01*
X143860581Y-98619342D01*
X143791045Y-98511279D01*
X143684945Y-98438785D01*
X143559000Y-98413280D01*
X142359000Y-98413280D01*
X142241342Y-98435419D01*
X142133279Y-98504955D01*
X142060785Y-98611055D01*
X142035280Y-98737000D01*
X142035280Y-99637000D01*
X142057419Y-99754658D01*
X142126955Y-99862721D01*
X142233055Y-99935215D01*
X142359000Y-99960720D01*
X142621000Y-99960720D01*
X142621000Y-103502184D01*
X142510720Y-103612464D01*
X142510720Y-103205000D01*
X142488581Y-103087342D01*
X142419045Y-102979279D01*
X142312945Y-102906785D01*
X142187000Y-102881280D01*
X140891000Y-102881280D01*
X140891000Y-102750907D01*
X140891001Y-102750902D01*
X140861998Y-102605100D01*
X140842783Y-102576342D01*
X140779408Y-102481494D01*
X140779405Y-102481492D01*
X139036506Y-100738592D01*
X138912901Y-100656002D01*
X138767098Y-100627000D01*
X137298720Y-100627000D01*
X137298720Y-100408000D01*
X137276581Y-100290342D01*
X137207045Y-100182279D01*
X137100945Y-100109785D01*
X137012500Y-100091874D01*
X137012500Y-99960720D01*
X137231500Y-99960720D01*
X137349158Y-99938581D01*
X137457221Y-99869045D01*
X137529715Y-99762945D01*
X137555220Y-99637000D01*
X137555220Y-98737000D01*
X137533081Y-98619342D01*
X137463545Y-98511279D01*
X137357445Y-98438785D01*
X137231500Y-98413280D01*
X136031500Y-98413280D01*
X135913842Y-98435419D01*
X135805779Y-98504955D01*
X135733285Y-98611055D01*
X135707780Y-98737000D01*
X135707780Y-99637000D01*
X135729919Y-99754658D01*
X135799455Y-99862721D01*
X135905555Y-99935215D01*
X136031500Y-99960720D01*
X136250500Y-99960720D01*
X136250500Y-100084280D01*
X136075000Y-100084280D01*
X135957342Y-100106419D01*
X135849279Y-100175955D01*
X135776785Y-100282055D01*
X135751280Y-100408000D01*
X135751280Y-101608000D01*
X135773419Y-101725658D01*
X135842955Y-101833721D01*
X135949055Y-101906215D01*
X136075000Y-101931720D01*
X136975000Y-101931720D01*
X137092658Y-101909581D01*
X137200721Y-101840045D01*
X137273215Y-101733945D01*
X137298720Y-101608000D01*
X137298720Y-101389000D01*
X138609282Y-101389000D01*
X140129000Y-102908717D01*
X140129000Y-103078000D01*
X140158002Y-103223803D01*
X140240592Y-103347408D01*
X140313280Y-103420096D01*
X140313280Y-103805000D01*
X140335419Y-103922658D01*
X140404955Y-104030721D01*
X140511055Y-104103215D01*
X140637000Y-104128720D01*
X141994464Y-104128720D01*
X141971904Y-104151280D01*
X140637000Y-104151280D01*
X140519342Y-104173419D01*
X140411279Y-104242955D01*
X140342067Y-104344252D01*
X139022408Y-103024592D01*
X138949720Y-102976024D01*
X138949720Y-102694000D01*
X138927581Y-102576342D01*
X138858045Y-102468279D01*
X138751945Y-102395785D01*
X138626000Y-102370280D01*
X137726000Y-102370280D01*
X137608342Y-102392419D01*
X137500279Y-102461955D01*
X137427785Y-102568055D01*
X137402280Y-102694000D01*
X137402280Y-103696464D01*
X137298720Y-103592904D01*
X137298720Y-102608000D01*
X137276581Y-102490342D01*
X137207045Y-102382279D01*
X137100945Y-102309785D01*
X136975000Y-102284280D01*
X136075000Y-102284280D01*
X135957342Y-102306419D01*
X135849279Y-102375955D01*
X135776785Y-102482055D01*
X135751280Y-102608000D01*
X135751280Y-103808000D01*
X135773419Y-103925658D01*
X135842955Y-104033721D01*
X135869397Y-104051788D01*
X130725530Y-109195654D01*
X130641502Y-108773217D01*
X130388420Y-108394453D01*
X130009656Y-108141371D01*
X129562873Y-108052500D01*
X129517127Y-108052500D01*
X129070344Y-108141371D01*
X128691580Y-108394453D01*
X128438498Y-108773217D01*
X128349627Y-109220000D01*
X128438498Y-109666783D01*
X128691580Y-110045547D01*
X129070344Y-110298629D01*
X129270783Y-110338499D01*
X128675501Y-110338499D01*
X128529699Y-110367501D01*
X128406093Y-110450091D01*
X128406091Y-110450094D01*
X128230091Y-110626093D01*
X128147501Y-110749698D01*
X128147501Y-110749699D01*
X128118499Y-110895501D01*
X127392500Y-110895501D01*
X127392500Y-106680000D01*
X128349627Y-106680000D01*
X128438498Y-107126783D01*
X128691580Y-107505547D01*
X129070344Y-107758629D01*
X129517127Y-107847500D01*
X129562873Y-107847500D01*
X130009656Y-107758629D01*
X130388420Y-107505547D01*
X130641502Y-107126783D01*
X130730373Y-106680000D01*
X130641502Y-106233217D01*
X130388420Y-105854453D01*
X130009656Y-105601371D01*
X129562873Y-105512500D01*
X129517127Y-105512500D01*
X129070344Y-105601371D01*
X128691580Y-105854453D01*
X128438498Y-106233217D01*
X128349627Y-106680000D01*
X127392500Y-106680000D01*
X127392500Y-103290000D01*
X128366280Y-103290000D01*
X128366280Y-104990000D01*
X128388419Y-105107658D01*
X128457955Y-105215721D01*
X128564055Y-105288215D01*
X128690000Y-105313720D01*
X130390000Y-105313720D01*
X130507658Y-105291581D01*
X130615721Y-105222045D01*
X130688215Y-105115945D01*
X130713720Y-104990000D01*
X130713720Y-103290000D01*
X130691581Y-103172342D01*
X130622045Y-103064279D01*
X130515945Y-102991785D01*
X130390000Y-102966280D01*
X128690000Y-102966280D01*
X128572342Y-102988419D01*
X128464279Y-103057955D01*
X128391785Y-103164055D01*
X128366280Y-103290000D01*
X127392500Y-103290000D01*
X127392500Y-80938000D01*
X132684280Y-80938000D01*
X132684280Y-82638000D01*
X132706419Y-82755658D01*
X132775955Y-82863721D01*
X132882055Y-82936215D01*
X133008000Y-82961720D01*
X133477000Y-82961720D01*
X133477000Y-93241000D01*
X133506002Y-93386803D01*
X133588592Y-93510408D01*
X135728280Y-95650095D01*
X135728280Y-96335000D01*
X135750419Y-96452658D01*
X135819955Y-96560721D01*
X135926055Y-96633215D01*
X136052000Y-96658720D01*
X136271000Y-96658720D01*
X136271000Y-96837280D01*
X136052000Y-96837280D01*
X135934342Y-96859419D01*
X135826279Y-96928955D01*
X135753785Y-97035055D01*
X135728280Y-97161000D01*
X135728280Y-97911000D01*
X135750419Y-98028658D01*
X135819955Y-98136721D01*
X135926055Y-98209215D01*
X136052000Y-98234720D01*
X137252000Y-98234720D01*
X137369658Y-98212581D01*
X137477721Y-98143045D01*
X137550215Y-98036945D01*
X137575720Y-97911000D01*
X137575720Y-97161000D01*
X137628280Y-97161000D01*
X137628280Y-97911000D01*
X137650419Y-98028658D01*
X137719955Y-98136721D01*
X137826055Y-98209215D01*
X137952000Y-98234720D01*
X138171000Y-98234720D01*
X138171000Y-98424664D01*
X138113842Y-98435419D01*
X138005779Y-98504955D01*
X137933285Y-98611055D01*
X137907780Y-98737000D01*
X137907780Y-99637000D01*
X137929919Y-99754658D01*
X137999455Y-99862721D01*
X138105555Y-99935215D01*
X138231500Y-99960720D01*
X139431500Y-99960720D01*
X139549158Y-99938581D01*
X139657221Y-99869045D01*
X139729715Y-99762945D01*
X139755220Y-99637000D01*
X139755220Y-98737000D01*
X139835280Y-98737000D01*
X139835280Y-99637000D01*
X139857419Y-99754658D01*
X139926955Y-99862721D01*
X140033055Y-99935215D01*
X140159000Y-99960720D01*
X141359000Y-99960720D01*
X141476658Y-99938581D01*
X141584721Y-99869045D01*
X141657215Y-99762945D01*
X141682720Y-99637000D01*
X141682720Y-98737000D01*
X141660581Y-98619342D01*
X141591045Y-98511279D01*
X141484945Y-98438785D01*
X141417000Y-98425026D01*
X141417000Y-98234720D01*
X141636000Y-98234720D01*
X141753658Y-98212581D01*
X141861721Y-98143045D01*
X141934215Y-98036945D01*
X141959720Y-97911000D01*
X141959720Y-97161000D01*
X142012280Y-97161000D01*
X142012280Y-97911000D01*
X142034419Y-98028658D01*
X142103955Y-98136721D01*
X142210055Y-98209215D01*
X142336000Y-98234720D01*
X143536000Y-98234720D01*
X143653658Y-98212581D01*
X143761721Y-98143045D01*
X143834215Y-98036945D01*
X143859720Y-97911000D01*
X143859720Y-97161000D01*
X143837581Y-97043342D01*
X143768045Y-96935279D01*
X143661945Y-96862785D01*
X143536000Y-96837280D01*
X143317000Y-96837280D01*
X143317000Y-96658720D01*
X143559000Y-96658720D01*
X143676658Y-96636581D01*
X143784721Y-96567045D01*
X143857215Y-96460945D01*
X143882720Y-96335000D01*
X143882720Y-95435000D01*
X144196280Y-95435000D01*
X144196280Y-96335000D01*
X144218419Y-96452658D01*
X144287955Y-96560721D01*
X144394055Y-96633215D01*
X144520000Y-96658720D01*
X144780000Y-96658720D01*
X144780000Y-96837280D01*
X144561000Y-96837280D01*
X144443342Y-96859419D01*
X144335279Y-96928955D01*
X144262785Y-97035055D01*
X144237280Y-97161000D01*
X144237280Y-97911000D01*
X144259419Y-98028658D01*
X144328955Y-98136721D01*
X144435055Y-98209215D01*
X144561000Y-98234720D01*
X145761000Y-98234720D01*
X145878658Y-98212581D01*
X145986721Y-98143045D01*
X146059215Y-98036945D01*
X146084720Y-97911000D01*
X146084720Y-97161000D01*
X146137280Y-97161000D01*
X146137280Y-97911000D01*
X146159419Y-98028658D01*
X146228955Y-98136721D01*
X146335055Y-98209215D01*
X146461000Y-98234720D01*
X146680000Y-98234720D01*
X146680000Y-98420807D01*
X146602342Y-98435419D01*
X146494279Y-98504955D01*
X146421785Y-98611055D01*
X146396280Y-98737000D01*
X146396280Y-99637000D01*
X146418419Y-99754658D01*
X146487955Y-99862721D01*
X146594055Y-99935215D01*
X146720000Y-99960720D01*
X147920000Y-99960720D01*
X148037658Y-99938581D01*
X148145721Y-99869045D01*
X148218215Y-99762945D01*
X148243720Y-99637000D01*
X148243720Y-98737000D01*
X148344280Y-98737000D01*
X148344280Y-99637000D01*
X148366419Y-99754658D01*
X148435955Y-99862721D01*
X148542055Y-99935215D01*
X148668000Y-99960720D01*
X149868000Y-99960720D01*
X149985658Y-99938581D01*
X150093721Y-99869045D01*
X150166215Y-99762945D01*
X150191720Y-99637000D01*
X150191720Y-98737000D01*
X150169581Y-98619342D01*
X150100045Y-98511279D01*
X149993945Y-98438785D01*
X149992000Y-98438391D01*
X149992000Y-98234720D01*
X150211000Y-98234720D01*
X150328658Y-98212581D01*
X150436721Y-98143045D01*
X150509215Y-98036945D01*
X150534720Y-97911000D01*
X150534720Y-97161000D01*
X150512581Y-97043342D01*
X150443045Y-96935279D01*
X150336945Y-96862785D01*
X150211000Y-96837280D01*
X149011000Y-96837280D01*
X148893342Y-96859419D01*
X148785279Y-96928955D01*
X148712785Y-97035055D01*
X148687280Y-97161000D01*
X148687280Y-97911000D01*
X148709419Y-98028658D01*
X148778955Y-98136721D01*
X148885055Y-98209215D01*
X149011000Y-98234720D01*
X149230000Y-98234720D01*
X149230000Y-98413280D01*
X148668000Y-98413280D01*
X148550342Y-98435419D01*
X148442279Y-98504955D01*
X148369785Y-98611055D01*
X148344280Y-98737000D01*
X148243720Y-98737000D01*
X148221581Y-98619342D01*
X148152045Y-98511279D01*
X148045945Y-98438785D01*
X147920000Y-98413280D01*
X147442000Y-98413280D01*
X147442000Y-98234720D01*
X147661000Y-98234720D01*
X147778658Y-98212581D01*
X147886721Y-98143045D01*
X147959215Y-98036945D01*
X147984720Y-97911000D01*
X147984720Y-97161000D01*
X147962581Y-97043342D01*
X147893045Y-96935279D01*
X147786945Y-96862785D01*
X147661000Y-96837280D01*
X146461000Y-96837280D01*
X146343342Y-96859419D01*
X146235279Y-96928955D01*
X146162785Y-97035055D01*
X146137280Y-97161000D01*
X146084720Y-97161000D01*
X146062581Y-97043342D01*
X145993045Y-96935279D01*
X145886945Y-96862785D01*
X145761000Y-96837280D01*
X145542000Y-96837280D01*
X145542000Y-96658720D01*
X145720000Y-96658720D01*
X145837658Y-96636581D01*
X145945721Y-96567045D01*
X146018215Y-96460945D01*
X146043720Y-96335000D01*
X146043720Y-95435000D01*
X146021581Y-95317342D01*
X145952045Y-95209279D01*
X145845945Y-95136785D01*
X145720000Y-95111280D01*
X145501000Y-95111280D01*
X145501000Y-92273816D01*
X147232605Y-90542210D01*
X151294997Y-90542210D01*
X151385678Y-90761675D01*
X151553442Y-90929732D01*
X151772748Y-91020796D01*
X152010210Y-91021003D01*
X152229675Y-90930322D01*
X152397732Y-90762558D01*
X152488796Y-90543252D01*
X152489003Y-90305790D01*
X152398322Y-90086325D01*
X152230558Y-89918268D01*
X152011252Y-89827204D01*
X151773790Y-89826997D01*
X151554325Y-89917678D01*
X151386268Y-90085442D01*
X151295204Y-90304748D01*
X151294997Y-90542210D01*
X147232605Y-90542210D01*
X152542405Y-85232410D01*
X152542408Y-85232408D01*
X152624998Y-85108802D01*
X152630279Y-85082252D01*
X152654001Y-84963000D01*
X152654000Y-84962995D01*
X152654000Y-82961720D01*
X153123000Y-82961720D01*
X153240658Y-82939581D01*
X153348721Y-82870045D01*
X153421215Y-82763945D01*
X153446720Y-82638000D01*
X153446720Y-80938000D01*
X153424581Y-80820342D01*
X153355045Y-80712279D01*
X153248945Y-80639785D01*
X153123000Y-80614280D01*
X151423000Y-80614280D01*
X151305342Y-80636419D01*
X151197279Y-80705955D01*
X151124785Y-80812055D01*
X151099280Y-80938000D01*
X151099280Y-82638000D01*
X151121419Y-82755658D01*
X151190955Y-82863721D01*
X151297055Y-82936215D01*
X151423000Y-82961720D01*
X151892000Y-82961720D01*
X151892000Y-84805185D01*
X144850592Y-91846592D01*
X144768002Y-91970197D01*
X144768002Y-91970198D01*
X144739000Y-92116000D01*
X144739000Y-95111280D01*
X144520000Y-95111280D01*
X144402342Y-95133419D01*
X144294279Y-95202955D01*
X144221785Y-95309055D01*
X144196280Y-95435000D01*
X143882720Y-95435000D01*
X143860581Y-95317342D01*
X143791045Y-95209279D01*
X143684945Y-95136785D01*
X143559000Y-95111280D01*
X143340000Y-95111280D01*
X143340000Y-90751816D01*
X148859405Y-85232410D01*
X148859408Y-85232408D01*
X148941998Y-85108802D01*
X148947279Y-85082252D01*
X148971001Y-84963000D01*
X148971000Y-84962995D01*
X148971000Y-82961720D01*
X149440000Y-82961720D01*
X149557658Y-82939581D01*
X149665721Y-82870045D01*
X149738215Y-82763945D01*
X149763720Y-82638000D01*
X149763720Y-80938000D01*
X149741581Y-80820342D01*
X149672045Y-80712279D01*
X149565945Y-80639785D01*
X149440000Y-80614280D01*
X147740000Y-80614280D01*
X147622342Y-80636419D01*
X147514279Y-80705955D01*
X147441785Y-80812055D01*
X147416280Y-80938000D01*
X147416280Y-82638000D01*
X147438419Y-82755658D01*
X147507955Y-82863721D01*
X147614055Y-82936215D01*
X147740000Y-82961720D01*
X148209000Y-82961720D01*
X148209000Y-84805185D01*
X142689592Y-90324592D01*
X142607002Y-90448197D01*
X142607002Y-90448198D01*
X142578000Y-90594000D01*
X142578000Y-95111280D01*
X142359000Y-95111280D01*
X142241342Y-95133419D01*
X142133279Y-95202955D01*
X142060785Y-95309055D01*
X142035280Y-95435000D01*
X142035280Y-96335000D01*
X142057419Y-96452658D01*
X142126955Y-96560721D01*
X142233055Y-96633215D01*
X142359000Y-96658720D01*
X142555000Y-96658720D01*
X142555000Y-96837280D01*
X142336000Y-96837280D01*
X142218342Y-96859419D01*
X142110279Y-96928955D01*
X142037785Y-97035055D01*
X142012280Y-97161000D01*
X141959720Y-97161000D01*
X141937581Y-97043342D01*
X141868045Y-96935279D01*
X141761945Y-96862785D01*
X141636000Y-96837280D01*
X140436000Y-96837280D01*
X140318342Y-96859419D01*
X140210279Y-96928955D01*
X140137785Y-97035055D01*
X140112280Y-97161000D01*
X140112280Y-97911000D01*
X140134419Y-98028658D01*
X140203955Y-98136721D01*
X140310055Y-98209215D01*
X140436000Y-98234720D01*
X140655000Y-98234720D01*
X140655000Y-98413280D01*
X140159000Y-98413280D01*
X140041342Y-98435419D01*
X139933279Y-98504955D01*
X139860785Y-98611055D01*
X139835280Y-98737000D01*
X139755220Y-98737000D01*
X139733081Y-98619342D01*
X139663545Y-98511279D01*
X139557445Y-98438785D01*
X139431500Y-98413280D01*
X138933000Y-98413280D01*
X138933000Y-98234720D01*
X139152000Y-98234720D01*
X139269658Y-98212581D01*
X139377721Y-98143045D01*
X139450215Y-98036945D01*
X139475720Y-97911000D01*
X139475720Y-97161000D01*
X139453581Y-97043342D01*
X139384045Y-96935279D01*
X139277945Y-96862785D01*
X139152000Y-96837280D01*
X137952000Y-96837280D01*
X137834342Y-96859419D01*
X137726279Y-96928955D01*
X137653785Y-97035055D01*
X137628280Y-97161000D01*
X137575720Y-97161000D01*
X137553581Y-97043342D01*
X137484045Y-96935279D01*
X137377945Y-96862785D01*
X137252000Y-96837280D01*
X137033000Y-96837280D01*
X137033000Y-96658720D01*
X137252000Y-96658720D01*
X137369658Y-96636581D01*
X137477721Y-96567045D01*
X137550215Y-96460945D01*
X137575720Y-96335000D01*
X137575720Y-95435000D01*
X137553581Y-95317342D01*
X137484045Y-95209279D01*
X137377945Y-95136785D01*
X137252000Y-95111280D01*
X136267095Y-95111280D01*
X135762026Y-94606210D01*
X137959997Y-94606210D01*
X138050678Y-94825675D01*
X138218442Y-94993732D01*
X138437748Y-95084796D01*
X138675210Y-95085003D01*
X138894675Y-94994322D01*
X139062732Y-94826558D01*
X139153796Y-94607252D01*
X139154003Y-94369790D01*
X139063322Y-94150325D01*
X138895558Y-93982268D01*
X138676252Y-93891204D01*
X138438790Y-93890997D01*
X138219325Y-93981678D01*
X138051268Y-94149442D01*
X137960204Y-94368748D01*
X137959997Y-94606210D01*
X135762026Y-94606210D01*
X134239000Y-93083184D01*
X134239000Y-86351210D01*
X144309997Y-86351210D01*
X144400678Y-86570675D01*
X144568442Y-86738732D01*
X144787748Y-86829796D01*
X145025210Y-86830003D01*
X145244675Y-86739322D01*
X145412732Y-86571558D01*
X145503796Y-86352252D01*
X145504003Y-86114790D01*
X145413322Y-85895325D01*
X145245558Y-85727268D01*
X145026252Y-85636204D01*
X144788790Y-85635997D01*
X144569325Y-85726678D01*
X144401268Y-85894442D01*
X144310204Y-86113748D01*
X144309997Y-86351210D01*
X134239000Y-86351210D01*
X134239000Y-82961720D01*
X134708000Y-82961720D01*
X134825658Y-82939581D01*
X134933721Y-82870045D01*
X135006215Y-82763945D01*
X135031720Y-82638000D01*
X135031720Y-80938000D01*
X136367280Y-80938000D01*
X136367280Y-82638000D01*
X136389419Y-82755658D01*
X136458955Y-82863721D01*
X136565055Y-82936215D01*
X136691000Y-82961720D01*
X137160000Y-82961720D01*
X137160000Y-84328000D01*
X137189002Y-84473803D01*
X137271592Y-84597408D01*
X138033590Y-85359405D01*
X138033592Y-85359408D01*
X138157198Y-85441998D01*
X138303000Y-85471001D01*
X138303005Y-85471000D01*
X145669000Y-85471000D01*
X145814803Y-85441998D01*
X145938408Y-85359408D01*
X147208408Y-84089408D01*
X147290998Y-83965803D01*
X147320000Y-83820000D01*
X147320000Y-80421816D01*
X147477815Y-80264000D01*
X153512184Y-80264000D01*
X153924000Y-80675815D01*
X153924000Y-90393184D01*
X151198592Y-93118592D01*
X151116002Y-93242197D01*
X151116002Y-93242198D01*
X151087000Y-93388000D01*
X151087000Y-95111280D01*
X150868000Y-95111280D01*
X150750342Y-95133419D01*
X150642279Y-95202955D01*
X150569785Y-95309055D01*
X150544280Y-95435000D01*
X150544280Y-96335000D01*
X150566419Y-96452658D01*
X150635955Y-96560721D01*
X150742055Y-96633215D01*
X150868000Y-96658720D01*
X151087000Y-96658720D01*
X151087000Y-96837280D01*
X150911000Y-96837280D01*
X150793342Y-96859419D01*
X150685279Y-96928955D01*
X150612785Y-97035055D01*
X150587280Y-97161000D01*
X150587280Y-97911000D01*
X150609419Y-98028658D01*
X150678955Y-98136721D01*
X150785055Y-98209215D01*
X150911000Y-98234720D01*
X152111000Y-98234720D01*
X152228658Y-98212581D01*
X152336721Y-98143045D01*
X152409215Y-98036945D01*
X152434720Y-97911000D01*
X152434720Y-97161000D01*
X152412581Y-97043342D01*
X152343045Y-96935279D01*
X152236945Y-96862785D01*
X152111000Y-96837280D01*
X151849000Y-96837280D01*
X151849000Y-96658720D01*
X152068000Y-96658720D01*
X152185658Y-96636581D01*
X152293721Y-96567045D01*
X152366215Y-96460945D01*
X152391720Y-96335000D01*
X152391720Y-95435000D01*
X152369581Y-95317342D01*
X152300045Y-95209279D01*
X152193945Y-95136785D01*
X152068000Y-95111280D01*
X151849000Y-95111280D01*
X151849000Y-93545816D01*
X154574408Y-90820408D01*
X154656998Y-90696803D01*
X154686001Y-90551000D01*
X154686000Y-90550995D01*
X154686000Y-80938000D01*
X154782280Y-80938000D01*
X154782280Y-82638000D01*
X154804419Y-82755658D01*
X154873955Y-82863721D01*
X154980055Y-82936215D01*
X155106000Y-82961720D01*
X156806000Y-82961720D01*
X156923658Y-82939581D01*
X157031721Y-82870045D01*
X157104215Y-82763945D01*
X157129720Y-82638000D01*
X157129720Y-80938000D01*
X157107581Y-80820342D01*
X157038045Y-80712279D01*
X156931945Y-80639785D01*
X156806000Y-80614280D01*
X155106000Y-80614280D01*
X154988342Y-80636419D01*
X154880279Y-80705955D01*
X154807785Y-80812055D01*
X154782280Y-80938000D01*
X154686000Y-80938000D01*
X154686000Y-80518005D01*
X154686001Y-80518000D01*
X154656998Y-80372198D01*
X154584703Y-80264000D01*
X154574408Y-80248592D01*
X154574405Y-80248590D01*
X154081816Y-79756000D01*
X156433184Y-79756000D01*
X157353000Y-80675816D01*
X157353000Y-92907184D01*
X155221592Y-95038592D01*
X155173024Y-95111280D01*
X154891000Y-95111280D01*
X154773342Y-95133419D01*
X154665279Y-95202955D01*
X154592785Y-95309055D01*
X154567280Y-95435000D01*
X154567280Y-96335000D01*
X154589419Y-96452658D01*
X154658955Y-96560721D01*
X154765055Y-96633215D01*
X154891000Y-96658720D01*
X155194000Y-96658720D01*
X155194000Y-96837280D01*
X154975000Y-96837280D01*
X154857342Y-96859419D01*
X154749279Y-96928955D01*
X154676785Y-97035055D01*
X154651280Y-97161000D01*
X154651280Y-97911000D01*
X154673419Y-98028658D01*
X154742955Y-98136721D01*
X154849055Y-98209215D01*
X154975000Y-98234720D01*
X156175000Y-98234720D01*
X156292658Y-98212581D01*
X156400721Y-98143045D01*
X156473215Y-98036945D01*
X156498720Y-97911000D01*
X156498720Y-97161000D01*
X156551280Y-97161000D01*
X156551280Y-97911000D01*
X156573419Y-98028658D01*
X156642955Y-98136721D01*
X156749055Y-98209215D01*
X156875000Y-98234720D01*
X157094000Y-98234720D01*
X157094000Y-98413280D01*
X157091000Y-98413280D01*
X156973342Y-98435419D01*
X156865279Y-98504955D01*
X156792785Y-98611055D01*
X156767280Y-98737000D01*
X156767280Y-99637000D01*
X156789419Y-99754658D01*
X156858955Y-99862721D01*
X156965055Y-99935215D01*
X157091000Y-99960720D01*
X158291000Y-99960720D01*
X158408658Y-99938581D01*
X158516721Y-99869045D01*
X158589215Y-99762945D01*
X158614720Y-99637000D01*
X158614720Y-98737000D01*
X158758280Y-98737000D01*
X158758280Y-99637000D01*
X158780419Y-99754658D01*
X158849955Y-99862721D01*
X158956055Y-99935215D01*
X159082000Y-99960720D01*
X160282000Y-99960720D01*
X160399658Y-99938581D01*
X160507721Y-99869045D01*
X160580215Y-99762945D01*
X160605720Y-99637000D01*
X160605720Y-98737000D01*
X160583581Y-98619342D01*
X160514045Y-98511279D01*
X160407945Y-98438785D01*
X160340000Y-98425026D01*
X160340000Y-98234720D01*
X160559000Y-98234720D01*
X160676658Y-98212581D01*
X160784721Y-98143045D01*
X160857215Y-98036945D01*
X160882720Y-97911000D01*
X160882720Y-97161000D01*
X160860581Y-97043342D01*
X160791045Y-96935279D01*
X160684945Y-96862785D01*
X160559000Y-96837280D01*
X159359000Y-96837280D01*
X159241342Y-96859419D01*
X159133279Y-96928955D01*
X159060785Y-97035055D01*
X159035280Y-97161000D01*
X159035280Y-97911000D01*
X159057419Y-98028658D01*
X159126955Y-98136721D01*
X159233055Y-98209215D01*
X159359000Y-98234720D01*
X159578000Y-98234720D01*
X159578000Y-98413280D01*
X159082000Y-98413280D01*
X158964342Y-98435419D01*
X158856279Y-98504955D01*
X158783785Y-98611055D01*
X158758280Y-98737000D01*
X158614720Y-98737000D01*
X158592581Y-98619342D01*
X158523045Y-98511279D01*
X158416945Y-98438785D01*
X158291000Y-98413280D01*
X157856000Y-98413280D01*
X157856000Y-98234720D01*
X158075000Y-98234720D01*
X158192658Y-98212581D01*
X158300721Y-98143045D01*
X158373215Y-98036945D01*
X158398720Y-97911000D01*
X158398720Y-97161000D01*
X158376581Y-97043342D01*
X158307045Y-96935279D01*
X158200945Y-96862785D01*
X158075000Y-96837280D01*
X156875000Y-96837280D01*
X156757342Y-96859419D01*
X156649279Y-96928955D01*
X156576785Y-97035055D01*
X156551280Y-97161000D01*
X156498720Y-97161000D01*
X156476581Y-97043342D01*
X156407045Y-96935279D01*
X156300945Y-96862785D01*
X156175000Y-96837280D01*
X155956000Y-96837280D01*
X155956000Y-96658720D01*
X156091000Y-96658720D01*
X156208658Y-96636581D01*
X156316721Y-96567045D01*
X156389215Y-96460945D01*
X156414720Y-96335000D01*
X156414720Y-95435000D01*
X156392581Y-95317342D01*
X156323045Y-95209279D01*
X156216945Y-95136785D01*
X156203711Y-95134105D01*
X156731606Y-94606210D01*
X158533997Y-94606210D01*
X158624678Y-94825675D01*
X158792442Y-94993732D01*
X159011748Y-95084796D01*
X159249210Y-95085003D01*
X159468675Y-94994322D01*
X159636732Y-94826558D01*
X159727796Y-94607252D01*
X159728003Y-94369790D01*
X159637322Y-94150325D01*
X159469558Y-93982268D01*
X159250252Y-93891204D01*
X159012790Y-93890997D01*
X158793325Y-93981678D01*
X158625268Y-94149442D01*
X158534204Y-94368748D01*
X158533997Y-94606210D01*
X156731606Y-94606210D01*
X158003408Y-93334408D01*
X158085998Y-93210803D01*
X158115000Y-93065000D01*
X158115000Y-85081210D01*
X158152997Y-85081210D01*
X158243678Y-85300675D01*
X158369000Y-85426216D01*
X158369000Y-89662000D01*
X158398002Y-89807803D01*
X158480592Y-89931408D01*
X161501000Y-92951816D01*
X161501000Y-95111280D01*
X161282000Y-95111280D01*
X161164342Y-95133419D01*
X161056279Y-95202955D01*
X160983785Y-95309055D01*
X160958280Y-95435000D01*
X160958280Y-96335000D01*
X160980419Y-96452658D01*
X161049955Y-96560721D01*
X161156055Y-96633215D01*
X161282000Y-96658720D01*
X161478000Y-96658720D01*
X161478000Y-96837280D01*
X161259000Y-96837280D01*
X161141342Y-96859419D01*
X161033279Y-96928955D01*
X160960785Y-97035055D01*
X160935280Y-97161000D01*
X160935280Y-97911000D01*
X160957419Y-98028658D01*
X161026955Y-98136721D01*
X161133055Y-98209215D01*
X161259000Y-98234720D01*
X162459000Y-98234720D01*
X162576658Y-98212581D01*
X162684721Y-98143045D01*
X162757215Y-98036945D01*
X162782720Y-97911000D01*
X162782720Y-97161000D01*
X162760581Y-97043342D01*
X162691045Y-96935279D01*
X162584945Y-96862785D01*
X162459000Y-96837280D01*
X162240000Y-96837280D01*
X162240000Y-96658720D01*
X162482000Y-96658720D01*
X162599658Y-96636581D01*
X162707721Y-96567045D01*
X162780215Y-96460945D01*
X162805720Y-96335000D01*
X162805720Y-95435000D01*
X162783581Y-95317342D01*
X162714045Y-95209279D01*
X162607945Y-95136785D01*
X162482000Y-95111280D01*
X162263000Y-95111280D01*
X162263000Y-92794005D01*
X162263001Y-92794000D01*
X162233998Y-92648197D01*
X162151408Y-92524592D01*
X159131000Y-89504184D01*
X159131000Y-85426073D01*
X159255732Y-85301558D01*
X159258000Y-85296096D01*
X159258000Y-86995000D01*
X159287002Y-87140803D01*
X159369592Y-87264408D01*
X161147590Y-89042405D01*
X161147592Y-89042408D01*
X161271198Y-89124998D01*
X161417000Y-89154001D01*
X161417005Y-89154000D01*
X164180184Y-89154000D01*
X165074000Y-90047815D01*
X165074000Y-93822185D01*
X163857592Y-95038592D01*
X163809024Y-95111280D01*
X163527000Y-95111280D01*
X163409342Y-95133419D01*
X163301279Y-95202955D01*
X163228785Y-95309055D01*
X163203280Y-95435000D01*
X163203280Y-96335000D01*
X163225419Y-96452658D01*
X163294955Y-96560721D01*
X163401055Y-96633215D01*
X163527000Y-96658720D01*
X163835000Y-96658720D01*
X163835000Y-96837280D01*
X163616000Y-96837280D01*
X163498342Y-96859419D01*
X163390279Y-96928955D01*
X163317785Y-97035055D01*
X163292280Y-97161000D01*
X163292280Y-97911000D01*
X163314419Y-98028658D01*
X163383955Y-98136721D01*
X163490055Y-98209215D01*
X163616000Y-98234720D01*
X164816000Y-98234720D01*
X164933658Y-98212581D01*
X165041721Y-98143045D01*
X165114215Y-98036945D01*
X165139720Y-97911000D01*
X165139720Y-97161000D01*
X165192280Y-97161000D01*
X165192280Y-97911000D01*
X165214419Y-98028658D01*
X165283955Y-98136721D01*
X165390055Y-98209215D01*
X165516000Y-98234720D01*
X165735000Y-98234720D01*
X165735000Y-98413280D01*
X165727000Y-98413280D01*
X165609342Y-98435419D01*
X165501279Y-98504955D01*
X165428785Y-98611055D01*
X165403280Y-98737000D01*
X165403280Y-99637000D01*
X165425419Y-99754658D01*
X165494955Y-99862721D01*
X165601055Y-99935215D01*
X165727000Y-99960720D01*
X166927000Y-99960720D01*
X167044658Y-99938581D01*
X167152721Y-99869045D01*
X167225215Y-99762945D01*
X167250720Y-99637000D01*
X167250720Y-98737000D01*
X167351280Y-98737000D01*
X167351280Y-99637000D01*
X167373419Y-99754658D01*
X167442955Y-99862721D01*
X167549055Y-99935215D01*
X167675000Y-99960720D01*
X168875000Y-99960720D01*
X168992658Y-99938581D01*
X169100721Y-99869045D01*
X169173215Y-99762945D01*
X169198720Y-99637000D01*
X169198720Y-98737000D01*
X169176581Y-98619342D01*
X169107045Y-98511279D01*
X169000945Y-98438785D01*
X168910000Y-98420368D01*
X168910000Y-98234720D01*
X169129000Y-98234720D01*
X169246658Y-98212581D01*
X169354721Y-98143045D01*
X169427215Y-98036945D01*
X169452720Y-97911000D01*
X169452720Y-97161000D01*
X169430581Y-97043342D01*
X169361045Y-96935279D01*
X169254945Y-96862785D01*
X169129000Y-96837280D01*
X167929000Y-96837280D01*
X167811342Y-96859419D01*
X167703279Y-96928955D01*
X167630785Y-97035055D01*
X167605280Y-97161000D01*
X167605280Y-97911000D01*
X167627419Y-98028658D01*
X167696955Y-98136721D01*
X167803055Y-98209215D01*
X167929000Y-98234720D01*
X168148000Y-98234720D01*
X168148000Y-98413280D01*
X167675000Y-98413280D01*
X167557342Y-98435419D01*
X167449279Y-98504955D01*
X167376785Y-98611055D01*
X167351280Y-98737000D01*
X167250720Y-98737000D01*
X167228581Y-98619342D01*
X167159045Y-98511279D01*
X167052945Y-98438785D01*
X166927000Y-98413280D01*
X166497000Y-98413280D01*
X166497000Y-98234720D01*
X166716000Y-98234720D01*
X166833658Y-98212581D01*
X166941721Y-98143045D01*
X167014215Y-98036945D01*
X167039720Y-97911000D01*
X167039720Y-97161000D01*
X167017581Y-97043342D01*
X166948045Y-96935279D01*
X166841945Y-96862785D01*
X166716000Y-96837280D01*
X165516000Y-96837280D01*
X165398342Y-96859419D01*
X165290279Y-96928955D01*
X165217785Y-97035055D01*
X165192280Y-97161000D01*
X165139720Y-97161000D01*
X165117581Y-97043342D01*
X165048045Y-96935279D01*
X164941945Y-96862785D01*
X164816000Y-96837280D01*
X164597000Y-96837280D01*
X164597000Y-96658720D01*
X164727000Y-96658720D01*
X164844658Y-96636581D01*
X164952721Y-96567045D01*
X165025215Y-96460945D01*
X165050720Y-96335000D01*
X165050720Y-95435000D01*
X165028581Y-95317342D01*
X164959045Y-95209279D01*
X164852945Y-95136785D01*
X164839711Y-95134105D01*
X165724405Y-94249410D01*
X165724408Y-94249408D01*
X165806998Y-94125802D01*
X165836001Y-93980000D01*
X165836000Y-93979995D01*
X165836000Y-89890005D01*
X165836001Y-89890000D01*
X165806998Y-89744198D01*
X165724408Y-89620592D01*
X165724405Y-89620590D01*
X164607408Y-88503592D01*
X164483803Y-88421002D01*
X164338000Y-88392000D01*
X161574815Y-88392000D01*
X160020000Y-86837184D01*
X160020000Y-85256000D01*
X162402280Y-85256000D01*
X162402280Y-86956000D01*
X162424419Y-87073658D01*
X162493955Y-87181721D01*
X162600055Y-87254215D01*
X162726000Y-87279720D01*
X164426000Y-87279720D01*
X164543658Y-87257581D01*
X164651721Y-87188045D01*
X164724215Y-87081945D01*
X164749720Y-86956000D01*
X164749720Y-85256000D01*
X164727581Y-85138342D01*
X164658045Y-85030279D01*
X164551945Y-84957785D01*
X164426000Y-84932280D01*
X162726000Y-84932280D01*
X162608342Y-84954419D01*
X162500279Y-85023955D01*
X162427785Y-85130055D01*
X162402280Y-85256000D01*
X160020000Y-85256000D01*
X160020000Y-82961720D01*
X160489000Y-82961720D01*
X160606658Y-82939581D01*
X160714721Y-82870045D01*
X160787215Y-82763945D01*
X160812720Y-82638000D01*
X160812720Y-81573000D01*
X162402280Y-81573000D01*
X162402280Y-83273000D01*
X162424419Y-83390658D01*
X162493955Y-83498721D01*
X162600055Y-83571215D01*
X162726000Y-83596720D01*
X164426000Y-83596720D01*
X164543658Y-83574581D01*
X164651721Y-83505045D01*
X164724215Y-83398945D01*
X164749720Y-83273000D01*
X164749720Y-81573000D01*
X164727581Y-81455342D01*
X164658045Y-81347279D01*
X164551945Y-81274785D01*
X164426000Y-81249280D01*
X162726000Y-81249280D01*
X162608342Y-81271419D01*
X162500279Y-81340955D01*
X162427785Y-81447055D01*
X162402280Y-81573000D01*
X160812720Y-81573000D01*
X160812720Y-80938000D01*
X160790581Y-80820342D01*
X160721045Y-80712279D01*
X160614945Y-80639785D01*
X160489000Y-80614280D01*
X158789000Y-80614280D01*
X158671342Y-80636419D01*
X158563279Y-80705955D01*
X158490785Y-80812055D01*
X158465280Y-80938000D01*
X158465280Y-82638000D01*
X158487419Y-82755658D01*
X158556955Y-82863721D01*
X158663055Y-82936215D01*
X158789000Y-82961720D01*
X159258000Y-82961720D01*
X159258000Y-84629386D01*
X159256322Y-84625325D01*
X159088558Y-84457268D01*
X158869252Y-84366204D01*
X158631790Y-84365997D01*
X158412325Y-84456678D01*
X158244268Y-84624442D01*
X158153204Y-84843748D01*
X158152997Y-85081210D01*
X158115000Y-85081210D01*
X158115000Y-80518000D01*
X158085998Y-80372197D01*
X158003408Y-80248592D01*
X156875816Y-79121000D01*
X165196184Y-79121000D01*
X170053000Y-83977816D01*
X170053000Y-95111280D01*
X169834000Y-95111280D01*
X169716342Y-95133419D01*
X169608279Y-95202955D01*
X169535785Y-95309055D01*
X169510280Y-95435000D01*
X169510280Y-96335000D01*
X169532419Y-96452658D01*
X169601955Y-96560721D01*
X169708055Y-96633215D01*
X169834000Y-96658720D01*
X170048000Y-96658720D01*
X170048000Y-96837280D01*
X169829000Y-96837280D01*
X169711342Y-96859419D01*
X169603279Y-96928955D01*
X169530785Y-97035055D01*
X169505280Y-97161000D01*
X169505280Y-97911000D01*
X169527419Y-98028658D01*
X169596955Y-98136721D01*
X169703055Y-98209215D01*
X169829000Y-98234720D01*
X171029000Y-98234720D01*
X171146658Y-98212581D01*
X171254721Y-98143045D01*
X171327215Y-98036945D01*
X171352720Y-97911000D01*
X171352720Y-97536000D01*
X176609627Y-97536000D01*
X176698498Y-97982783D01*
X176951580Y-98361547D01*
X177330344Y-98614629D01*
X177777127Y-98703500D01*
X177822873Y-98703500D01*
X178269656Y-98614629D01*
X178648420Y-98361547D01*
X178901502Y-97982783D01*
X178990373Y-97536000D01*
X178901502Y-97089217D01*
X178648420Y-96710453D01*
X178269656Y-96457371D01*
X177822873Y-96368500D01*
X177777127Y-96368500D01*
X177330344Y-96457371D01*
X176951580Y-96710453D01*
X176698498Y-97089217D01*
X176609627Y-97536000D01*
X171352720Y-97536000D01*
X171352720Y-97161000D01*
X171330581Y-97043342D01*
X171261045Y-96935279D01*
X171154945Y-96862785D01*
X171029000Y-96837280D01*
X170810000Y-96837280D01*
X170810000Y-96658720D01*
X171034000Y-96658720D01*
X171151658Y-96636581D01*
X171259721Y-96567045D01*
X171332215Y-96460945D01*
X171357720Y-96335000D01*
X171357720Y-95435000D01*
X171335581Y-95317342D01*
X171266045Y-95209279D01*
X171159945Y-95136785D01*
X171034000Y-95111280D01*
X170815000Y-95111280D01*
X170815000Y-94146000D01*
X176626280Y-94146000D01*
X176626280Y-95846000D01*
X176648419Y-95963658D01*
X176717955Y-96071721D01*
X176824055Y-96144215D01*
X176950000Y-96169720D01*
X178650000Y-96169720D01*
X178767658Y-96147581D01*
X178875721Y-96078045D01*
X178948215Y-95971945D01*
X178973720Y-95846000D01*
X178973720Y-94146000D01*
X178951581Y-94028342D01*
X178882045Y-93920279D01*
X178775945Y-93847785D01*
X178650000Y-93822280D01*
X176950000Y-93822280D01*
X176832342Y-93844419D01*
X176724279Y-93913955D01*
X176651785Y-94020055D01*
X176626280Y-94146000D01*
X170815000Y-94146000D01*
X170815000Y-83820005D01*
X170815001Y-83820000D01*
X170785998Y-83674197D01*
X170703408Y-83550592D01*
X165623408Y-78470592D01*
X165499803Y-78388002D01*
X165354000Y-78359000D01*
X146978000Y-78359000D01*
X146832197Y-78388002D01*
X146782688Y-78421083D01*
X146708592Y-78470592D01*
X146708590Y-78470595D01*
X144637592Y-80541592D01*
X144589024Y-80614280D01*
X144057000Y-80614280D01*
X143939342Y-80636419D01*
X143831279Y-80705955D01*
X143758785Y-80812055D01*
X143733280Y-80938000D01*
X143733280Y-82638000D01*
X143755419Y-82755658D01*
X143824955Y-82863721D01*
X143931055Y-82936215D01*
X144057000Y-82961720D01*
X145757000Y-82961720D01*
X145874658Y-82939581D01*
X145982721Y-82870045D01*
X146050000Y-82771578D01*
X146050000Y-83154185D01*
X145765184Y-83439000D01*
X142016815Y-83439000D01*
X141605000Y-83027184D01*
X141605000Y-82961720D01*
X142074000Y-82961720D01*
X142191658Y-82939581D01*
X142299721Y-82870045D01*
X142372215Y-82763945D01*
X142397720Y-82638000D01*
X142397720Y-80938000D01*
X142375581Y-80820342D01*
X142306045Y-80712279D01*
X142199945Y-80639785D01*
X142074000Y-80614280D01*
X140374000Y-80614280D01*
X140256342Y-80636419D01*
X140148279Y-80705955D01*
X140075785Y-80812055D01*
X140050280Y-80938000D01*
X140050280Y-82638000D01*
X140072419Y-82755658D01*
X140141955Y-82863721D01*
X140248055Y-82936215D01*
X140374000Y-82961720D01*
X140843000Y-82961720D01*
X140843000Y-83185000D01*
X140872002Y-83330803D01*
X140954592Y-83454408D01*
X141589590Y-84089405D01*
X141589592Y-84089408D01*
X141713198Y-84171998D01*
X141859000Y-84201001D01*
X141859005Y-84201000D01*
X145923000Y-84201000D01*
X146043067Y-84177117D01*
X145511184Y-84709000D01*
X138460815Y-84709000D01*
X137922000Y-84170184D01*
X137922000Y-82961720D01*
X138391000Y-82961720D01*
X138508658Y-82939581D01*
X138616721Y-82870045D01*
X138689215Y-82763945D01*
X138714720Y-82638000D01*
X138714720Y-80938000D01*
X138692581Y-80820342D01*
X138623045Y-80712279D01*
X138516945Y-80639785D01*
X138391000Y-80614280D01*
X136691000Y-80614280D01*
X136573342Y-80636419D01*
X136465279Y-80705955D01*
X136392785Y-80812055D01*
X136367280Y-80938000D01*
X135031720Y-80938000D01*
X135009581Y-80820342D01*
X134940045Y-80712279D01*
X134833945Y-80639785D01*
X134708000Y-80614280D01*
X133008000Y-80614280D01*
X132890342Y-80636419D01*
X132782279Y-80705955D01*
X132709785Y-80812055D01*
X132684280Y-80938000D01*
X127392500Y-80938000D01*
X127392500Y-76592500D01*
X179947500Y-76592500D01*
X179947500Y-144387500D01*
X179947500Y-144387500D01*
G37*
X179947500Y-144387500D02*
X127392500Y-144387500D01*
X127392500Y-140928023D01*
X135073205Y-140928023D01*
X135235852Y-141321659D01*
X135536757Y-141623089D01*
X135930108Y-141786423D01*
X136356023Y-141786795D01*
X136749659Y-141624148D01*
X137051089Y-141323243D01*
X137214423Y-140929892D01*
X137214424Y-140928023D01*
X146757205Y-140928023D01*
X146919852Y-141321659D01*
X147220757Y-141623089D01*
X147614108Y-141786423D01*
X148040023Y-141786795D01*
X148433659Y-141624148D01*
X148735089Y-141323243D01*
X148898423Y-140929892D01*
X148898424Y-140928023D01*
X158441205Y-140928023D01*
X158603852Y-141321659D01*
X158904757Y-141623089D01*
X159298108Y-141786423D01*
X159724023Y-141786795D01*
X160117659Y-141624148D01*
X160419089Y-141323243D01*
X160582423Y-140929892D01*
X160582424Y-140928023D01*
X170125205Y-140928023D01*
X170287852Y-141321659D01*
X170588757Y-141623089D01*
X170982108Y-141786423D01*
X171408023Y-141786795D01*
X171801659Y-141624148D01*
X172103089Y-141323243D01*
X172266423Y-140929892D01*
X172266795Y-140503977D01*
X172104148Y-140110341D01*
X171803243Y-139808911D01*
X171540957Y-139700000D01*
X176609627Y-139700000D01*
X176698498Y-140146783D01*
X176951580Y-140525547D01*
X177330344Y-140778629D01*
X177777127Y-140867500D01*
X177822873Y-140867500D01*
X178269656Y-140778629D01*
X178648420Y-140525547D01*
X178901502Y-140146783D01*
X178990373Y-139700000D01*
X178901502Y-139253217D01*
X178648420Y-138874453D01*
X178269656Y-138621371D01*
X177822873Y-138532500D01*
X177777127Y-138532500D01*
X177330344Y-138621371D01*
X176951580Y-138874453D01*
X176698498Y-139253217D01*
X176609627Y-139700000D01*
X171540957Y-139700000D01*
X171409892Y-139645577D01*
X170983977Y-139645205D01*
X170590341Y-139807852D01*
X170288911Y-140108757D01*
X170125577Y-140502108D01*
X170125205Y-140928023D01*
X160582424Y-140928023D01*
X160582795Y-140503977D01*
X160420148Y-140110341D01*
X160119243Y-139808911D01*
X159725892Y-139645577D01*
X159299977Y-139645205D01*
X158906341Y-139807852D01*
X158604911Y-140108757D01*
X158441577Y-140502108D01*
X158441205Y-140928023D01*
X148898424Y-140928023D01*
X148898795Y-140503977D01*
X148736148Y-140110341D01*
X148435243Y-139808911D01*
X148041892Y-139645577D01*
X147615977Y-139645205D01*
X147222341Y-139807852D01*
X146920911Y-140108757D01*
X146757577Y-140502108D01*
X146757205Y-140928023D01*
X137214424Y-140928023D01*
X137214795Y-140503977D01*
X137052148Y-140110341D01*
X136751243Y-139808911D01*
X136357892Y-139645577D01*
X135931977Y-139645205D01*
X135538341Y-139807852D01*
X135236911Y-140108757D01*
X135073577Y-140502108D01*
X135073205Y-140928023D01*
X127392500Y-140928023D01*
X127392500Y-139700000D01*
X128349627Y-139700000D01*
X128438498Y-140146783D01*
X128691580Y-140525547D01*
X129070344Y-140778629D01*
X129517127Y-140867500D01*
X129562873Y-140867500D01*
X130009656Y-140778629D01*
X130388420Y-140525547D01*
X130641502Y-140146783D01*
X130730373Y-139700000D01*
X130641502Y-139253217D01*
X130388420Y-138874453D01*
X130009656Y-138621371D01*
X129562873Y-138532500D01*
X129517127Y-138532500D01*
X129070344Y-138621371D01*
X128691580Y-138874453D01*
X128438498Y-139253217D01*
X128349627Y-139700000D01*
X127392500Y-139700000D01*
X127392500Y-137160000D01*
X128349627Y-137160000D01*
X128438498Y-137606783D01*
X128691580Y-137985547D01*
X129070344Y-138238629D01*
X129517127Y-138327500D01*
X129562873Y-138327500D01*
X130009656Y-138238629D01*
X130388420Y-137985547D01*
X130641502Y-137606783D01*
X130730373Y-137160000D01*
X176609627Y-137160000D01*
X176698498Y-137606783D01*
X176951580Y-137985547D01*
X177330344Y-138238629D01*
X177777127Y-138327500D01*
X177822873Y-138327500D01*
X178269656Y-138238629D01*
X178648420Y-137985547D01*
X178901502Y-137606783D01*
X178990373Y-137160000D01*
X178901502Y-136713217D01*
X178648420Y-136334453D01*
X178269656Y-136081371D01*
X177822873Y-135992500D01*
X177777127Y-135992500D01*
X177330344Y-136081371D01*
X176951580Y-136334453D01*
X176698498Y-136713217D01*
X176609627Y-137160000D01*
X130730373Y-137160000D01*
X130641502Y-136713217D01*
X130388420Y-136334453D01*
X130009656Y-136081371D01*
X129562873Y-135992500D01*
X129517127Y-135992500D01*
X129070344Y-136081371D01*
X128691580Y-136334453D01*
X128438498Y-136713217D01*
X128349627Y-137160000D01*
X127392500Y-137160000D01*
X127392500Y-134620000D01*
X128349627Y-134620000D01*
X128438498Y-135066783D01*
X128691580Y-135445547D01*
X129070344Y-135698629D01*
X129517127Y-135787500D01*
X129562873Y-135787500D01*
X130009656Y-135698629D01*
X130388420Y-135445547D01*
X130641502Y-135066783D01*
X130654587Y-135001000D01*
X140552000Y-135001000D01*
X140697803Y-134971998D01*
X140821408Y-134889408D01*
X141090816Y-134620000D01*
X176609627Y-134620000D01*
X176698498Y-135066783D01*
X176951580Y-135445547D01*
X177330344Y-135698629D01*
X177777127Y-135787500D01*
X177822873Y-135787500D01*
X178269656Y-135698629D01*
X178648420Y-135445547D01*
X178901502Y-135066783D01*
X178990373Y-134620000D01*
X178901502Y-134173217D01*
X178648420Y-133794453D01*
X178269656Y-133541371D01*
X177822873Y-133452500D01*
X177777127Y-133452500D01*
X177330344Y-133541371D01*
X176951580Y-133794453D01*
X176698498Y-134173217D01*
X176609627Y-134620000D01*
X141090816Y-134620000D01*
X143630816Y-132080000D01*
X176609627Y-132080000D01*
X176698498Y-132526783D01*
X176951580Y-132905547D01*
X177330344Y-133158629D01*
X177777127Y-133247500D01*
X177822873Y-133247500D01*
X178269656Y-133158629D01*
X178648420Y-132905547D01*
X178901502Y-132526783D01*
X178990373Y-132080000D01*
X178901502Y-131633217D01*
X178648420Y-131254453D01*
X178269656Y-131001371D01*
X177822873Y-130912500D01*
X177777127Y-130912500D01*
X177330344Y-131001371D01*
X176951580Y-131254453D01*
X176698498Y-131633217D01*
X176609627Y-132080000D01*
X143630816Y-132080000D01*
X146170816Y-129540000D01*
X176609627Y-129540000D01*
X176698498Y-129986783D01*
X176951580Y-130365547D01*
X177330344Y-130618629D01*
X177777127Y-130707500D01*
X177822873Y-130707500D01*
X178269656Y-130618629D01*
X178648420Y-130365547D01*
X178901502Y-129986783D01*
X178990373Y-129540000D01*
X178901502Y-129093217D01*
X178648420Y-128714453D01*
X178269656Y-128461371D01*
X177822873Y-128372500D01*
X177777127Y-128372500D01*
X177330344Y-128461371D01*
X176951580Y-128714453D01*
X176698498Y-129093217D01*
X176609627Y-129540000D01*
X146170816Y-129540000D01*
X148710816Y-127000000D01*
X176609627Y-127000000D01*
X176698498Y-127446783D01*
X176951580Y-127825547D01*
X177330344Y-128078629D01*
X177777127Y-128167500D01*
X177822873Y-128167500D01*
X178269656Y-128078629D01*
X178648420Y-127825547D01*
X178901502Y-127446783D01*
X178990373Y-127000000D01*
X178901502Y-126553217D01*
X178648420Y-126174453D01*
X178269656Y-125921371D01*
X177822873Y-125832500D01*
X177777127Y-125832500D01*
X177330344Y-125921371D01*
X176951580Y-126174453D01*
X176698498Y-126553217D01*
X176609627Y-127000000D01*
X148710816Y-127000000D01*
X151250816Y-124460000D01*
X176609627Y-124460000D01*
X176698498Y-124906783D01*
X176951580Y-125285547D01*
X177330344Y-125538629D01*
X177777127Y-125627500D01*
X177822873Y-125627500D01*
X178269656Y-125538629D01*
X178648420Y-125285547D01*
X178901502Y-124906783D01*
X178990373Y-124460000D01*
X178901502Y-124013217D01*
X178648420Y-123634453D01*
X178269656Y-123381371D01*
X177822873Y-123292500D01*
X177777127Y-123292500D01*
X177330344Y-123381371D01*
X176951580Y-123634453D01*
X176698498Y-124013217D01*
X176609627Y-124460000D01*
X151250816Y-124460000D01*
X154767816Y-120943000D01*
X159608280Y-120943000D01*
X159608280Y-122643000D01*
X159630419Y-122760658D01*
X159699955Y-122868721D01*
X159806055Y-122941215D01*
X159932000Y-122966720D01*
X161632000Y-122966720D01*
X161749658Y-122944581D01*
X161857721Y-122875045D01*
X161930215Y-122768945D01*
X161955720Y-122643000D01*
X161955720Y-120943000D01*
X171292280Y-120943000D01*
X171292280Y-122643000D01*
X171314419Y-122760658D01*
X171383955Y-122868721D01*
X171490055Y-122941215D01*
X171616000Y-122966720D01*
X173316000Y-122966720D01*
X173433658Y-122944581D01*
X173541721Y-122875045D01*
X173614215Y-122768945D01*
X173639720Y-122643000D01*
X173639720Y-121070000D01*
X176626280Y-121070000D01*
X176626280Y-122770000D01*
X176648419Y-122887658D01*
X176717955Y-122995721D01*
X176824055Y-123068215D01*
X176950000Y-123093720D01*
X178650000Y-123093720D01*
X178767658Y-123071581D01*
X178875721Y-123002045D01*
X178948215Y-122895945D01*
X178973720Y-122770000D01*
X178973720Y-121070000D01*
X178951581Y-120952342D01*
X178882045Y-120844279D01*
X178775945Y-120771785D01*
X178650000Y-120746280D01*
X176950000Y-120746280D01*
X176832342Y-120768419D01*
X176724279Y-120837955D01*
X176651785Y-120944055D01*
X176626280Y-121070000D01*
X173639720Y-121070000D01*
X173639720Y-120943000D01*
X173617581Y-120825342D01*
X173548045Y-120717279D01*
X173441945Y-120644785D01*
X173316000Y-120619280D01*
X171616000Y-120619280D01*
X171498342Y-120641419D01*
X171390279Y-120710955D01*
X171317785Y-120817055D01*
X171292280Y-120943000D01*
X161955720Y-120943000D01*
X161933581Y-120825342D01*
X161864045Y-120717279D01*
X161757945Y-120644785D01*
X161632000Y-120619280D01*
X159932000Y-120619280D01*
X159814342Y-120641419D01*
X159706279Y-120710955D01*
X159633785Y-120817055D01*
X159608280Y-120943000D01*
X154767816Y-120943000D01*
X157854816Y-117856000D01*
X176609627Y-117856000D01*
X176698498Y-118302783D01*
X176951580Y-118681547D01*
X177330344Y-118934629D01*
X177777127Y-119023500D01*
X177822873Y-119023500D01*
X178269656Y-118934629D01*
X178648420Y-118681547D01*
X178901502Y-118302783D01*
X178990373Y-117856000D01*
X178901502Y-117409217D01*
X178648420Y-117030453D01*
X178269656Y-116777371D01*
X177822873Y-116688500D01*
X177777127Y-116688500D01*
X177330344Y-116777371D01*
X176951580Y-117030453D01*
X176698498Y-117409217D01*
X176609627Y-117856000D01*
X157854816Y-117856000D01*
X160394816Y-115316000D01*
X176609627Y-115316000D01*
X176698498Y-115762783D01*
X176951580Y-116141547D01*
X177330344Y-116394629D01*
X177777127Y-116483500D01*
X177822873Y-116483500D01*
X178269656Y-116394629D01*
X178648420Y-116141547D01*
X178901502Y-115762783D01*
X178990373Y-115316000D01*
X178901502Y-114869217D01*
X178648420Y-114490453D01*
X178269656Y-114237371D01*
X177822873Y-114148500D01*
X177777127Y-114148500D01*
X177330344Y-114237371D01*
X176951580Y-114490453D01*
X176698498Y-114869217D01*
X176609627Y-115316000D01*
X160394816Y-115316000D01*
X162934816Y-112776000D01*
X176609627Y-112776000D01*
X176698498Y-113222783D01*
X176951580Y-113601547D01*
X177330344Y-113854629D01*
X177777127Y-113943500D01*
X177822873Y-113943500D01*
X178269656Y-113854629D01*
X178648420Y-113601547D01*
X178901502Y-113222783D01*
X178990373Y-112776000D01*
X178901502Y-112329217D01*
X178648420Y-111950453D01*
X178269656Y-111697371D01*
X177822873Y-111608500D01*
X177777127Y-111608500D01*
X177330344Y-111697371D01*
X176951580Y-111950453D01*
X176698498Y-112329217D01*
X176609627Y-112776000D01*
X162934816Y-112776000D01*
X165538096Y-110172720D01*
X166523000Y-110172720D01*
X166640658Y-110150581D01*
X166748721Y-110081045D01*
X166821215Y-109974945D01*
X166845505Y-109855000D01*
X168136280Y-109855000D01*
X168136280Y-110158000D01*
X168158419Y-110275658D01*
X168227955Y-110383721D01*
X168334055Y-110456215D01*
X168460000Y-110481720D01*
X169360000Y-110481720D01*
X169477658Y-110459581D01*
X169585721Y-110390045D01*
X169658215Y-110283945D01*
X169667924Y-110236000D01*
X176609627Y-110236000D01*
X176698498Y-110682783D01*
X176951580Y-111061547D01*
X177330344Y-111314629D01*
X177777127Y-111403500D01*
X177822873Y-111403500D01*
X178269656Y-111314629D01*
X178648420Y-111061547D01*
X178901502Y-110682783D01*
X178990373Y-110236000D01*
X178901502Y-109789217D01*
X178648420Y-109410453D01*
X178269656Y-109157371D01*
X177822873Y-109068500D01*
X177777127Y-109068500D01*
X177330344Y-109157371D01*
X176951580Y-109410453D01*
X176698498Y-109789217D01*
X176609627Y-110236000D01*
X169667924Y-110236000D01*
X169683720Y-110158000D01*
X169683720Y-108958000D01*
X169661581Y-108840342D01*
X169592045Y-108732279D01*
X169485945Y-108659785D01*
X169360000Y-108634280D01*
X168460000Y-108634280D01*
X168342342Y-108656419D01*
X168234279Y-108725955D01*
X168161785Y-108832055D01*
X168136280Y-108958000D01*
X168136280Y-109093000D01*
X166845591Y-109093000D01*
X166824581Y-108981342D01*
X166755045Y-108873279D01*
X166648945Y-108800785D01*
X166523000Y-108775280D01*
X165323000Y-108775280D01*
X165205342Y-108797419D01*
X165097279Y-108866955D01*
X165024785Y-108973055D01*
X164999280Y-109099000D01*
X164999280Y-109633904D01*
X140394184Y-134239000D01*
X130654587Y-134239000D01*
X130641502Y-134173217D01*
X130388420Y-133794453D01*
X130009656Y-133541371D01*
X129562873Y-133452500D01*
X129517127Y-133452500D01*
X129070344Y-133541371D01*
X128691580Y-133794453D01*
X128438498Y-134173217D01*
X128349627Y-134620000D01*
X127392500Y-134620000D01*
X127392500Y-121920000D01*
X128349627Y-121920000D01*
X128438498Y-122366783D01*
X128691580Y-122745547D01*
X129070344Y-122998629D01*
X129517127Y-123087500D01*
X129562873Y-123087500D01*
X130009656Y-122998629D01*
X130388420Y-122745547D01*
X130641502Y-122366783D01*
X130730373Y-121920000D01*
X130641502Y-121473217D01*
X130388420Y-121094453D01*
X130161755Y-120943000D01*
X136049780Y-120943000D01*
X136049780Y-122643000D01*
X136071919Y-122760658D01*
X136141455Y-122868721D01*
X136247555Y-122941215D01*
X136373500Y-122966720D01*
X138073500Y-122966720D01*
X138191158Y-122944581D01*
X138299221Y-122875045D01*
X138371715Y-122768945D01*
X138397220Y-122643000D01*
X138397220Y-120943000D01*
X138375081Y-120825342D01*
X138305545Y-120717279D01*
X138199445Y-120644785D01*
X138073500Y-120619280D01*
X136373500Y-120619280D01*
X136255842Y-120641419D01*
X136147779Y-120710955D01*
X136075285Y-120817055D01*
X136049780Y-120943000D01*
X130161755Y-120943000D01*
X130009656Y-120841371D01*
X129562873Y-120752500D01*
X129517127Y-120752500D01*
X129070344Y-120841371D01*
X128691580Y-121094453D01*
X128438498Y-121473217D01*
X128349627Y-121920000D01*
X127392500Y-121920000D01*
X127392500Y-110895501D01*
X128118499Y-110895501D01*
X128118499Y-112751499D01*
X128147501Y-112897302D01*
X128230091Y-113020907D01*
X128688399Y-113479214D01*
X128438498Y-113853217D01*
X128349627Y-114300000D01*
X128438498Y-114746783D01*
X128691580Y-115125547D01*
X129070344Y-115378629D01*
X129517127Y-115467500D01*
X129562873Y-115467500D01*
X130009656Y-115378629D01*
X130388420Y-115125547D01*
X130641502Y-114746783D01*
X130730373Y-114300000D01*
X130655184Y-113922000D01*
X132334000Y-115600815D01*
X132334000Y-116586000D01*
X132363002Y-116731803D01*
X132445592Y-116855408D01*
X134223590Y-118633405D01*
X134223592Y-118633408D01*
X134295638Y-118681547D01*
X134347198Y-118715998D01*
X134493000Y-118745001D01*
X134493005Y-118745000D01*
X138011280Y-118745000D01*
X138011280Y-118989000D01*
X138033419Y-119106658D01*
X138102955Y-119214721D01*
X138209055Y-119287215D01*
X138335000Y-119312720D01*
X139835000Y-119312720D01*
X139952658Y-119290581D01*
X140060721Y-119221045D01*
X140133215Y-119114945D01*
X140158720Y-118989000D01*
X140158720Y-117739000D01*
X140136581Y-117621342D01*
X140067045Y-117513279D01*
X139960945Y-117440785D01*
X139835000Y-117415280D01*
X139605000Y-117415280D01*
X139605000Y-117270720D01*
X140224000Y-117270720D01*
X140341658Y-117248581D01*
X140449721Y-117179045D01*
X140522215Y-117072945D01*
X140547720Y-116947000D01*
X140547720Y-114447000D01*
X140525581Y-114329342D01*
X140456045Y-114221279D01*
X140349945Y-114148785D01*
X140224000Y-114123280D01*
X138224000Y-114123280D01*
X138106342Y-114145419D01*
X137998279Y-114214955D01*
X137925785Y-114321055D01*
X137904330Y-114427000D01*
X137870720Y-114427000D01*
X137870720Y-114358000D01*
X137848581Y-114240342D01*
X137779045Y-114132279D01*
X137672945Y-114059785D01*
X137547000Y-114034280D01*
X136347000Y-114034280D01*
X136229342Y-114056419D01*
X136121279Y-114125955D01*
X136048785Y-114232055D01*
X136023280Y-114358000D01*
X136023280Y-115258000D01*
X136045419Y-115375658D01*
X136114955Y-115483721D01*
X136221055Y-115556215D01*
X136347000Y-115581720D01*
X136566000Y-115581720D01*
X136566000Y-115685280D01*
X136306000Y-115685280D01*
X136188342Y-115707419D01*
X136080279Y-115776955D01*
X136007785Y-115883055D01*
X135982280Y-116009000D01*
X135982280Y-116909000D01*
X136004419Y-117026658D01*
X136073955Y-117134721D01*
X136180055Y-117207215D01*
X136306000Y-117232720D01*
X137506000Y-117232720D01*
X137623658Y-117210581D01*
X137731721Y-117141045D01*
X137804215Y-117034945D01*
X137829720Y-116909000D01*
X137829720Y-116009000D01*
X137807581Y-115891342D01*
X137738045Y-115783279D01*
X137631945Y-115710785D01*
X137506000Y-115685280D01*
X137328000Y-115685280D01*
X137328000Y-115581720D01*
X137547000Y-115581720D01*
X137664658Y-115559581D01*
X137772721Y-115490045D01*
X137845215Y-115383945D01*
X137870720Y-115258000D01*
X137870720Y-115189000D01*
X137900280Y-115189000D01*
X137900280Y-116947000D01*
X137922419Y-117064658D01*
X137991955Y-117172721D01*
X138098055Y-117245215D01*
X138224000Y-117270720D01*
X138843000Y-117270720D01*
X138843000Y-117415280D01*
X138335000Y-117415280D01*
X138217342Y-117437419D01*
X138109279Y-117506955D01*
X138036785Y-117613055D01*
X138011280Y-117739000D01*
X138011280Y-117983000D01*
X134650815Y-117983000D01*
X133096000Y-116428184D01*
X133096000Y-115443005D01*
X133096001Y-115443000D01*
X133066998Y-115297198D01*
X132994703Y-115189000D01*
X133823280Y-115189000D01*
X133823280Y-115258000D01*
X133845419Y-115375658D01*
X133914955Y-115483721D01*
X134021055Y-115556215D01*
X134147000Y-115581720D01*
X135347000Y-115581720D01*
X135464658Y-115559581D01*
X135572721Y-115490045D01*
X135645215Y-115383945D01*
X135670720Y-115258000D01*
X135670720Y-114358000D01*
X135648581Y-114240342D01*
X135579045Y-114132279D01*
X135472945Y-114059785D01*
X135347000Y-114034280D01*
X134147000Y-114034280D01*
X134029342Y-114056419D01*
X133921279Y-114125955D01*
X133848785Y-114232055D01*
X133823280Y-114358000D01*
X133823280Y-114427000D01*
X132745816Y-114427000D01*
X130595078Y-112276262D01*
X130641502Y-112206783D01*
X130730373Y-111760000D01*
X130641502Y-111313217D01*
X130595078Y-111243738D01*
X132999816Y-108839000D01*
X137426379Y-108839000D01*
X137402280Y-108958000D01*
X137402280Y-110158000D01*
X137424419Y-110275658D01*
X137493955Y-110383721D01*
X137600055Y-110456215D01*
X137726000Y-110481720D01*
X137858024Y-110481720D01*
X137906592Y-110554408D01*
X141032590Y-113680405D01*
X141032592Y-113680408D01*
X141156198Y-113762998D01*
X141302000Y-113792001D01*
X141302005Y-113792000D01*
X143987184Y-113792000D01*
X144653000Y-114457816D01*
X144653000Y-117190185D01*
X135224184Y-126619000D01*
X130713720Y-126619000D01*
X130713720Y-126150000D01*
X130691581Y-126032342D01*
X130622045Y-125924279D01*
X130515945Y-125851785D01*
X130390000Y-125826280D01*
X128690000Y-125826280D01*
X128572342Y-125848419D01*
X128464279Y-125917955D01*
X128391785Y-126024055D01*
X128366280Y-126150000D01*
X128366280Y-127850000D01*
X128388419Y-127967658D01*
X128457955Y-128075721D01*
X128564055Y-128148215D01*
X128690000Y-128173720D01*
X130390000Y-128173720D01*
X130507658Y-128151581D01*
X130615721Y-128082045D01*
X130688215Y-127975945D01*
X130713720Y-127850000D01*
X130713720Y-127381000D01*
X135382000Y-127381000D01*
X135527803Y-127351998D01*
X135651408Y-127269408D01*
X145303405Y-117617410D01*
X145303408Y-117617408D01*
X145377210Y-117506955D01*
X145385998Y-117493803D01*
X145415000Y-117348000D01*
X145415000Y-114300005D01*
X145415001Y-114300000D01*
X145385998Y-114154198D01*
X145303408Y-114030592D01*
X144414408Y-113141592D01*
X144290803Y-113059002D01*
X144145000Y-113030000D01*
X141459815Y-113030000D01*
X138832335Y-110402519D01*
X138851721Y-110390045D01*
X138924215Y-110283945D01*
X138949720Y-110158000D01*
X138949720Y-109939000D01*
X140444215Y-109939000D01*
X140449419Y-109966658D01*
X140518955Y-110074721D01*
X140625055Y-110147215D01*
X140751000Y-110172720D01*
X141951000Y-110172720D01*
X142068658Y-110150581D01*
X142176721Y-110081045D01*
X142249215Y-109974945D01*
X142274720Y-109849000D01*
X142274720Y-109099000D01*
X142252581Y-108981342D01*
X142183045Y-108873279D01*
X142076945Y-108800785D01*
X141951000Y-108775280D01*
X141548762Y-108775280D01*
X141620408Y-108727408D01*
X143921815Y-106426000D01*
X145728521Y-106426000D01*
X145735419Y-106462658D01*
X145804955Y-106570721D01*
X145911055Y-106643215D01*
X146037000Y-106668720D01*
X146619000Y-106668720D01*
X146619000Y-107124280D01*
X146400000Y-107124280D01*
X146282342Y-107146419D01*
X146174279Y-107215955D01*
X146101785Y-107322055D01*
X146076280Y-107448000D01*
X146076280Y-108198000D01*
X146098419Y-108315658D01*
X146167955Y-108423721D01*
X146274055Y-108496215D01*
X146400000Y-108521720D01*
X147600000Y-108521720D01*
X147717658Y-108499581D01*
X147807168Y-108441983D01*
X148092590Y-108727405D01*
X148092592Y-108727408D01*
X148197372Y-108797419D01*
X148216198Y-108809998D01*
X148362000Y-108839001D01*
X148362005Y-108839000D01*
X149291434Y-108839000D01*
X149238785Y-108916055D01*
X149213280Y-109042000D01*
X149213280Y-109261000D01*
X147923720Y-109261000D01*
X147923720Y-109099000D01*
X147901581Y-108981342D01*
X147832045Y-108873279D01*
X147725945Y-108800785D01*
X147600000Y-108775280D01*
X146400000Y-108775280D01*
X146282342Y-108797419D01*
X146174279Y-108866955D01*
X146101785Y-108973055D01*
X146076280Y-109099000D01*
X146076280Y-109849000D01*
X146098419Y-109966658D01*
X146167955Y-110074721D01*
X146274055Y-110147215D01*
X146400000Y-110172720D01*
X146619000Y-110172720D01*
X146619000Y-117637185D01*
X135097184Y-129159000D01*
X130654587Y-129159000D01*
X130641502Y-129093217D01*
X130388420Y-128714453D01*
X130009656Y-128461371D01*
X129562873Y-128372500D01*
X129517127Y-128372500D01*
X129070344Y-128461371D01*
X128691580Y-128714453D01*
X128438498Y-129093217D01*
X128349627Y-129540000D01*
X128438498Y-129986783D01*
X128691580Y-130365547D01*
X129070344Y-130618629D01*
X129517127Y-130707500D01*
X129562873Y-130707500D01*
X130009656Y-130618629D01*
X130388420Y-130365547D01*
X130641502Y-129986783D01*
X130654587Y-129921000D01*
X135255000Y-129921000D01*
X135400803Y-129891998D01*
X135524408Y-129809408D01*
X147269405Y-118064410D01*
X147269408Y-118064408D01*
X147342116Y-117955592D01*
X147351998Y-117940803D01*
X147381000Y-117795000D01*
X147381000Y-110172720D01*
X147600000Y-110172720D01*
X147717658Y-110150581D01*
X147825721Y-110081045D01*
X147865381Y-110023000D01*
X149213280Y-110023000D01*
X149213280Y-110242000D01*
X149235419Y-110359658D01*
X149304955Y-110467721D01*
X149411055Y-110540215D01*
X149537000Y-110565720D01*
X150437000Y-110565720D01*
X150554658Y-110543581D01*
X150662721Y-110474045D01*
X150735215Y-110367945D01*
X150760720Y-110242000D01*
X150760720Y-109042000D01*
X150738581Y-108924342D01*
X150683665Y-108839000D01*
X156349379Y-108839000D01*
X156325280Y-108958000D01*
X156325280Y-109230001D01*
X156237592Y-109288592D01*
X133827184Y-131699000D01*
X130654587Y-131699000D01*
X130641502Y-131633217D01*
X130388420Y-131254453D01*
X130009656Y-131001371D01*
X129562873Y-130912500D01*
X129517127Y-130912500D01*
X129070344Y-131001371D01*
X128691580Y-131254453D01*
X128438498Y-131633217D01*
X128349627Y-132080000D01*
X128438498Y-132526783D01*
X128691580Y-132905547D01*
X129070344Y-133158629D01*
X129517127Y-133247500D01*
X129562873Y-133247500D01*
X130009656Y-133158629D01*
X130388420Y-132905547D01*
X130641502Y-132526783D01*
X130654587Y-132461000D01*
X133985000Y-132461000D01*
X134130803Y-132431998D01*
X134254408Y-132349408D01*
X145660816Y-120943000D01*
X147924280Y-120943000D01*
X147924280Y-122643000D01*
X147946419Y-122760658D01*
X148015955Y-122868721D01*
X148122055Y-122941215D01*
X148248000Y-122966720D01*
X149948000Y-122966720D01*
X150065658Y-122944581D01*
X150173721Y-122875045D01*
X150246215Y-122768945D01*
X150271720Y-122643000D01*
X150271720Y-120943000D01*
X150249581Y-120825342D01*
X150180045Y-120717279D01*
X150073945Y-120644785D01*
X149948000Y-120619280D01*
X148248000Y-120619280D01*
X148130342Y-120641419D01*
X148022279Y-120710955D01*
X147949785Y-120817055D01*
X147924280Y-120943000D01*
X145660816Y-120943000D01*
X152439606Y-114164210D01*
X156628997Y-114164210D01*
X156719678Y-114383675D01*
X156887442Y-114551732D01*
X157106748Y-114642796D01*
X157344210Y-114643003D01*
X157563675Y-114552322D01*
X157731732Y-114384558D01*
X157822796Y-114165252D01*
X157823003Y-113927790D01*
X157732322Y-113708325D01*
X157564558Y-113540268D01*
X157345252Y-113449204D01*
X157107790Y-113448997D01*
X156888325Y-113539678D01*
X156720268Y-113707442D01*
X156629204Y-113926748D01*
X156628997Y-114164210D01*
X152439606Y-114164210D01*
X156344369Y-110259447D01*
X156347419Y-110275658D01*
X156416955Y-110383721D01*
X156523055Y-110456215D01*
X156649000Y-110481720D01*
X157549000Y-110481720D01*
X157666658Y-110459581D01*
X157774721Y-110390045D01*
X157847215Y-110283945D01*
X157872720Y-110158000D01*
X157872720Y-109939000D01*
X159306215Y-109939000D01*
X159311419Y-109966658D01*
X159380955Y-110074721D01*
X159487055Y-110147215D01*
X159613000Y-110172720D01*
X160813000Y-110172720D01*
X160930658Y-110150581D01*
X161038721Y-110081045D01*
X161111215Y-109974945D01*
X161136720Y-109849000D01*
X161136720Y-109099000D01*
X161114581Y-108981342D01*
X161045045Y-108873279D01*
X160938945Y-108800785D01*
X160843514Y-108781459D01*
X160924408Y-108727408D01*
X163225815Y-106426000D01*
X164717521Y-106426000D01*
X164724419Y-106462658D01*
X164793955Y-106570721D01*
X164900055Y-106643215D01*
X165026000Y-106668720D01*
X165420000Y-106668720D01*
X165420000Y-107124280D01*
X165323000Y-107124280D01*
X165205342Y-107146419D01*
X165097279Y-107215955D01*
X165024785Y-107322055D01*
X164999280Y-107448000D01*
X164999280Y-108198000D01*
X165021419Y-108315658D01*
X165090955Y-108423721D01*
X165197055Y-108496215D01*
X165323000Y-108521720D01*
X166523000Y-108521720D01*
X166640658Y-108499581D01*
X166736258Y-108438065D01*
X166829698Y-108500499D01*
X166975501Y-108529501D01*
X170997499Y-108529501D01*
X171143302Y-108500499D01*
X171266907Y-108417909D01*
X171988815Y-107696000D01*
X176609627Y-107696000D01*
X176698498Y-108142783D01*
X176951580Y-108521547D01*
X177330344Y-108774629D01*
X177777127Y-108863500D01*
X177822873Y-108863500D01*
X178269656Y-108774629D01*
X178648420Y-108521547D01*
X178901502Y-108142783D01*
X178990373Y-107696000D01*
X178901502Y-107249217D01*
X178648420Y-106870453D01*
X178269656Y-106617371D01*
X177822873Y-106528500D01*
X177777127Y-106528500D01*
X177330344Y-106617371D01*
X176951580Y-106870453D01*
X176698498Y-107249217D01*
X176609627Y-107696000D01*
X171988815Y-107696000D01*
X172989405Y-106695410D01*
X172989408Y-106695408D01*
X173068495Y-106577045D01*
X173071998Y-106571803D01*
X173101000Y-106426000D01*
X173101000Y-105156000D01*
X176609627Y-105156000D01*
X176698498Y-105602783D01*
X176951580Y-105981547D01*
X177330344Y-106234629D01*
X177777127Y-106323500D01*
X177822873Y-106323500D01*
X178269656Y-106234629D01*
X178648420Y-105981547D01*
X178901502Y-105602783D01*
X178990373Y-105156000D01*
X178901502Y-104709217D01*
X178648420Y-104330453D01*
X178269656Y-104077371D01*
X177822873Y-103988500D01*
X177777127Y-103988500D01*
X177330344Y-104077371D01*
X176951580Y-104330453D01*
X176698498Y-104709217D01*
X176609627Y-105156000D01*
X173101000Y-105156000D01*
X173101000Y-102616000D01*
X176609627Y-102616000D01*
X176698498Y-103062783D01*
X176951580Y-103441547D01*
X177330344Y-103694629D01*
X177777127Y-103783500D01*
X177822873Y-103783500D01*
X178269656Y-103694629D01*
X178648420Y-103441547D01*
X178901502Y-103062783D01*
X178990373Y-102616000D01*
X178901502Y-102169217D01*
X178648420Y-101790453D01*
X178269656Y-101537371D01*
X177822873Y-101448500D01*
X177777127Y-101448500D01*
X177330344Y-101537371D01*
X176951580Y-101790453D01*
X176698498Y-102169217D01*
X176609627Y-102616000D01*
X173101000Y-102616000D01*
X173101000Y-100076000D01*
X176609627Y-100076000D01*
X176698498Y-100522783D01*
X176951580Y-100901547D01*
X177330344Y-101154629D01*
X177777127Y-101243500D01*
X177822873Y-101243500D01*
X178269656Y-101154629D01*
X178648420Y-100901547D01*
X178901502Y-100522783D01*
X178990373Y-100076000D01*
X178901502Y-99629217D01*
X178648420Y-99250453D01*
X178269656Y-98997371D01*
X177822873Y-98908500D01*
X177777127Y-98908500D01*
X177330344Y-98997371D01*
X176951580Y-99250453D01*
X176698498Y-99629217D01*
X176609627Y-100076000D01*
X173101000Y-100076000D01*
X173101000Y-100031073D01*
X173225732Y-99906558D01*
X173316796Y-99687252D01*
X173317003Y-99449790D01*
X173226322Y-99230325D01*
X173058558Y-99062268D01*
X172839252Y-98971204D01*
X172601790Y-98970997D01*
X172382325Y-99061678D01*
X172214268Y-99229442D01*
X172123204Y-99448748D01*
X172122997Y-99686210D01*
X172213678Y-99905675D01*
X172339000Y-100031216D01*
X172339000Y-101644784D01*
X172296558Y-101602268D01*
X172077252Y-101511204D01*
X171839790Y-101510997D01*
X171620325Y-101601678D01*
X171452268Y-101769442D01*
X171361204Y-101988748D01*
X171360997Y-102226210D01*
X171451678Y-102445675D01*
X171619442Y-102613732D01*
X171838748Y-102704796D01*
X172076210Y-102705003D01*
X172295675Y-102614322D01*
X172339000Y-102571073D01*
X172339000Y-106268185D01*
X170839683Y-107767501D01*
X169683720Y-107767501D01*
X169683720Y-106758000D01*
X169661581Y-106640342D01*
X169592045Y-106532279D01*
X169485945Y-106459785D01*
X169360000Y-106434280D01*
X169291000Y-106434280D01*
X169291000Y-106417720D01*
X169360000Y-106417720D01*
X169477658Y-106395581D01*
X169585721Y-106326045D01*
X169658215Y-106219945D01*
X169683720Y-106094000D01*
X169683720Y-104894000D01*
X169661581Y-104776342D01*
X169592045Y-104668279D01*
X169587976Y-104665499D01*
X170168501Y-104665499D01*
X170314304Y-104636497D01*
X170437909Y-104553907D01*
X170830405Y-104161410D01*
X170830408Y-104161408D01*
X170878976Y-104088720D01*
X171011000Y-104088720D01*
X171128658Y-104066581D01*
X171236721Y-103997045D01*
X171309215Y-103890945D01*
X171334720Y-103765000D01*
X171334720Y-102565000D01*
X171312581Y-102447342D01*
X171243045Y-102339279D01*
X171136945Y-102266785D01*
X171011000Y-102241280D01*
X170111000Y-102241280D01*
X169993342Y-102263419D01*
X169885279Y-102332955D01*
X169812785Y-102439055D01*
X169787280Y-102565000D01*
X169787280Y-103765000D01*
X169809419Y-103882658D01*
X169822830Y-103903499D01*
X169681796Y-103903499D01*
X169683720Y-103894000D01*
X169683720Y-102694000D01*
X169661581Y-102576342D01*
X169592045Y-102468279D01*
X169485945Y-102395785D01*
X169360000Y-102370280D01*
X168460000Y-102370280D01*
X168342342Y-102392419D01*
X168234279Y-102461955D01*
X168161785Y-102568055D01*
X168136280Y-102694000D01*
X168136280Y-103124000D01*
X166884479Y-103124000D01*
X166877581Y-103087342D01*
X166808045Y-102979279D01*
X166701945Y-102906785D01*
X166576000Y-102881280D01*
X165026000Y-102881280D01*
X164908342Y-102903419D01*
X164864467Y-102931651D01*
X164508000Y-102575184D01*
X164508000Y-101935000D01*
X164702280Y-101935000D01*
X164702280Y-102535000D01*
X164724419Y-102652658D01*
X164793955Y-102760721D01*
X164900055Y-102833215D01*
X165026000Y-102858720D01*
X166576000Y-102858720D01*
X166693658Y-102836581D01*
X166801721Y-102767045D01*
X166874215Y-102660945D01*
X166899720Y-102535000D01*
X166899720Y-101935000D01*
X166877581Y-101817342D01*
X166808045Y-101709279D01*
X166701945Y-101636785D01*
X166576000Y-101611280D01*
X166536536Y-101611280D01*
X166801816Y-101346000D01*
X169787280Y-101346000D01*
X169787280Y-101565000D01*
X169809419Y-101682658D01*
X169878955Y-101790721D01*
X169985055Y-101863215D01*
X170111000Y-101888720D01*
X171011000Y-101888720D01*
X171128658Y-101866581D01*
X171236721Y-101797045D01*
X171309215Y-101690945D01*
X171334720Y-101565000D01*
X171334720Y-100365000D01*
X171312581Y-100247342D01*
X171243045Y-100139279D01*
X171136945Y-100066785D01*
X171011000Y-100041280D01*
X170856000Y-100041280D01*
X170856000Y-99960720D01*
X171075000Y-99960720D01*
X171192658Y-99938581D01*
X171300721Y-99869045D01*
X171373215Y-99762945D01*
X171398720Y-99637000D01*
X171398720Y-98737000D01*
X171376581Y-98619342D01*
X171307045Y-98511279D01*
X171200945Y-98438785D01*
X171075000Y-98413280D01*
X169875000Y-98413280D01*
X169757342Y-98435419D01*
X169649279Y-98504955D01*
X169576785Y-98611055D01*
X169551280Y-98737000D01*
X169551280Y-99637000D01*
X169573419Y-99754658D01*
X169642955Y-99862721D01*
X169749055Y-99935215D01*
X169875000Y-99960720D01*
X170094000Y-99960720D01*
X170094000Y-100044479D01*
X169993342Y-100063419D01*
X169885279Y-100132955D01*
X169812785Y-100239055D01*
X169787280Y-100365000D01*
X169787280Y-100584000D01*
X166644000Y-100584000D01*
X166498197Y-100613002D01*
X166374592Y-100695592D01*
X165531592Y-101538592D01*
X165483024Y-101611280D01*
X165026000Y-101611280D01*
X164908342Y-101633419D01*
X164800279Y-101702955D01*
X164727785Y-101809055D01*
X164702280Y-101935000D01*
X164508000Y-101935000D01*
X164508000Y-99960720D01*
X164727000Y-99960720D01*
X164844658Y-99938581D01*
X164952721Y-99869045D01*
X165025215Y-99762945D01*
X165050720Y-99637000D01*
X165050720Y-98737000D01*
X165028581Y-98619342D01*
X164959045Y-98511279D01*
X164852945Y-98438785D01*
X164727000Y-98413280D01*
X163527000Y-98413280D01*
X163409342Y-98435419D01*
X163301279Y-98504955D01*
X163228785Y-98611055D01*
X163203280Y-98737000D01*
X163203280Y-99637000D01*
X163225419Y-99754658D01*
X163294955Y-99862721D01*
X163401055Y-99935215D01*
X163527000Y-99960720D01*
X163746000Y-99960720D01*
X163746000Y-102733000D01*
X163775002Y-102878803D01*
X163857592Y-103002408D01*
X164629592Y-103774408D01*
X164706149Y-103825561D01*
X164720814Y-103903499D01*
X162796501Y-103903499D01*
X162650698Y-103932501D01*
X162601189Y-103965582D01*
X162527093Y-104015091D01*
X162527091Y-104015094D01*
X162242345Y-104299840D01*
X162263001Y-104196000D01*
X162263000Y-104195995D01*
X162263000Y-99960720D01*
X162482000Y-99960720D01*
X162599658Y-99938581D01*
X162707721Y-99869045D01*
X162780215Y-99762945D01*
X162805720Y-99637000D01*
X162805720Y-98737000D01*
X162783581Y-98619342D01*
X162714045Y-98511279D01*
X162607945Y-98438785D01*
X162482000Y-98413280D01*
X161282000Y-98413280D01*
X161164342Y-98435419D01*
X161056279Y-98504955D01*
X160983785Y-98611055D01*
X160958280Y-98737000D01*
X160958280Y-99637000D01*
X160980419Y-99754658D01*
X161049955Y-99862721D01*
X161156055Y-99935215D01*
X161282000Y-99960720D01*
X161501000Y-99960720D01*
X161501000Y-104038185D01*
X161337860Y-104201324D01*
X161301945Y-104176785D01*
X161176000Y-104151280D01*
X159626000Y-104151280D01*
X159508342Y-104173419D01*
X159400279Y-104242955D01*
X159327785Y-104349055D01*
X159318683Y-104394000D01*
X159314815Y-104394000D01*
X158806815Y-103886000D01*
X159317521Y-103886000D01*
X159324419Y-103922658D01*
X159393955Y-104030721D01*
X159500055Y-104103215D01*
X159626000Y-104128720D01*
X161176000Y-104128720D01*
X161293658Y-104106581D01*
X161401721Y-104037045D01*
X161474215Y-103930945D01*
X161499720Y-103805000D01*
X161499720Y-103205000D01*
X161477581Y-103087342D01*
X161408045Y-102979279D01*
X161301945Y-102906785D01*
X161176000Y-102881280D01*
X159626000Y-102881280D01*
X159508342Y-102903419D01*
X159400279Y-102972955D01*
X159327785Y-103079055D01*
X159318683Y-103124000D01*
X158860718Y-103124000D01*
X156518310Y-100781592D01*
X156394705Y-100699002D01*
X156248902Y-100670000D01*
X156221720Y-100670000D01*
X156221720Y-100451000D01*
X156199581Y-100333342D01*
X156130045Y-100225279D01*
X156023945Y-100152785D01*
X155898000Y-100127280D01*
X155872000Y-100127280D01*
X155872000Y-99960720D01*
X156091000Y-99960720D01*
X156208658Y-99938581D01*
X156316721Y-99869045D01*
X156389215Y-99762945D01*
X156414720Y-99637000D01*
X156414720Y-98737000D01*
X156392581Y-98619342D01*
X156323045Y-98511279D01*
X156216945Y-98438785D01*
X156091000Y-98413280D01*
X154891000Y-98413280D01*
X154773342Y-98435419D01*
X154665279Y-98504955D01*
X154592785Y-98611055D01*
X154567280Y-98737000D01*
X154567280Y-99637000D01*
X154589419Y-99754658D01*
X154658955Y-99862721D01*
X154765055Y-99935215D01*
X154891000Y-99960720D01*
X155110000Y-99960720D01*
X155110000Y-100127280D01*
X154998000Y-100127280D01*
X154880342Y-100149419D01*
X154772279Y-100218955D01*
X154699785Y-100325055D01*
X154674280Y-100451000D01*
X154674280Y-101651000D01*
X154696419Y-101768658D01*
X154765955Y-101876721D01*
X154872055Y-101949215D01*
X154998000Y-101974720D01*
X155898000Y-101974720D01*
X156015658Y-101952581D01*
X156123721Y-101883045D01*
X156196215Y-101776945D01*
X156221720Y-101651000D01*
X156221720Y-101562634D01*
X157029366Y-102370280D01*
X156649000Y-102370280D01*
X156531342Y-102392419D01*
X156423279Y-102461955D01*
X156350785Y-102568055D01*
X156325280Y-102694000D01*
X156325280Y-103739464D01*
X156221720Y-103635904D01*
X156221720Y-102651000D01*
X156199581Y-102533342D01*
X156130045Y-102425279D01*
X156023945Y-102352785D01*
X155898000Y-102327280D01*
X154998000Y-102327280D01*
X154880342Y-102349419D01*
X154772279Y-102418955D01*
X154699785Y-102525055D01*
X154674280Y-102651000D01*
X154674280Y-102870000D01*
X152411720Y-102870000D01*
X152411720Y-102651000D01*
X152389581Y-102533342D01*
X152320045Y-102425279D01*
X152213945Y-102352785D01*
X152088000Y-102327280D01*
X151188000Y-102327280D01*
X151070342Y-102349419D01*
X150962279Y-102418955D01*
X150889785Y-102525055D01*
X150864280Y-102651000D01*
X150864280Y-103851000D01*
X150874158Y-103903499D01*
X150758796Y-103903499D01*
X150760720Y-103894000D01*
X150760720Y-102694000D01*
X150738581Y-102576342D01*
X150669045Y-102468279D01*
X150562945Y-102395785D01*
X150437000Y-102370280D01*
X149537000Y-102370280D01*
X149419342Y-102392419D01*
X149311279Y-102461955D01*
X149238785Y-102568055D01*
X149213280Y-102694000D01*
X149213280Y-103124000D01*
X147895479Y-103124000D01*
X147888581Y-103087342D01*
X147819045Y-102979279D01*
X147712945Y-102906785D01*
X147587000Y-102881280D01*
X146252096Y-102881280D01*
X146229536Y-102858720D01*
X147587000Y-102858720D01*
X147704658Y-102836581D01*
X147812721Y-102767045D01*
X147885215Y-102660945D01*
X147910720Y-102535000D01*
X147910720Y-101935000D01*
X147888581Y-101817342D01*
X147819045Y-101709279D01*
X147712945Y-101636785D01*
X147587000Y-101611280D01*
X147547535Y-101611280D01*
X147726815Y-101432000D01*
X150864280Y-101432000D01*
X150864280Y-101651000D01*
X150886419Y-101768658D01*
X150955955Y-101876721D01*
X151062055Y-101949215D01*
X151188000Y-101974720D01*
X152088000Y-101974720D01*
X152205658Y-101952581D01*
X152313721Y-101883045D01*
X152386215Y-101776945D01*
X152411720Y-101651000D01*
X152411720Y-100451000D01*
X152389581Y-100333342D01*
X152320045Y-100225279D01*
X152213945Y-100152785D01*
X152088000Y-100127280D01*
X151849000Y-100127280D01*
X151849000Y-99960720D01*
X152068000Y-99960720D01*
X152185658Y-99938581D01*
X152293721Y-99869045D01*
X152366215Y-99762945D01*
X152391720Y-99637000D01*
X152391720Y-98737000D01*
X152369581Y-98619342D01*
X152300045Y-98511279D01*
X152193945Y-98438785D01*
X152068000Y-98413280D01*
X150868000Y-98413280D01*
X150750342Y-98435419D01*
X150642279Y-98504955D01*
X150569785Y-98611055D01*
X150544280Y-98737000D01*
X150544280Y-99637000D01*
X150566419Y-99754658D01*
X150635955Y-99862721D01*
X150742055Y-99935215D01*
X150868000Y-99960720D01*
X151087000Y-99960720D01*
X151087000Y-100146285D01*
X151070342Y-100149419D01*
X150962279Y-100218955D01*
X150889785Y-100325055D01*
X150864280Y-100451000D01*
X150864280Y-100670000D01*
X147569005Y-100670000D01*
X147569000Y-100669999D01*
X147440341Y-100695592D01*
X147423198Y-100699002D01*
X147299592Y-100781592D01*
X147299590Y-100781595D01*
X146542592Y-101538592D01*
X146494024Y-101611280D01*
X146037000Y-101611280D01*
X145919342Y-101633419D01*
X145811279Y-101702955D01*
X145738785Y-101809055D01*
X145713280Y-101935000D01*
X145713280Y-102342464D01*
X145501000Y-102130184D01*
X145501000Y-99960720D01*
X145720000Y-99960720D01*
X145837658Y-99938581D01*
X145945721Y-99869045D01*
X146018215Y-99762945D01*
X146043720Y-99637000D01*
X146043720Y-98737000D01*
X146021581Y-98619342D01*
X145952045Y-98511279D01*
X145845945Y-98438785D01*
X145720000Y-98413280D01*
X144520000Y-98413280D01*
X144402342Y-98435419D01*
X144294279Y-98504955D01*
X144221785Y-98611055D01*
X144196280Y-98737000D01*
X144196280Y-99637000D01*
X144218419Y-99754658D01*
X144287955Y-99862721D01*
X144394055Y-99935215D01*
X144520000Y-99960720D01*
X144739000Y-99960720D01*
X144739000Y-102288000D01*
X144768002Y-102433803D01*
X144850592Y-102557408D01*
X145713280Y-103420096D01*
X145713280Y-103805000D01*
X145731814Y-103903499D01*
X143873506Y-103903499D01*
X143873501Y-103903498D01*
X143727699Y-103932501D01*
X143604093Y-104015091D01*
X142590184Y-105029000D01*
X142510720Y-105029000D01*
X142510720Y-104690096D01*
X143271408Y-103929408D01*
X143353998Y-103805803D01*
X143383000Y-103660000D01*
X143383000Y-99960720D01*
X143559000Y-99960720D01*
X143676658Y-99938581D01*
X143784721Y-99869045D01*
X143857215Y-99762945D01*
X143882720Y-99637000D01*
X143882720Y-98737000D01*
X143860581Y-98619342D01*
X143791045Y-98511279D01*
X143684945Y-98438785D01*
X143559000Y-98413280D01*
X142359000Y-98413280D01*
X142241342Y-98435419D01*
X142133279Y-98504955D01*
X142060785Y-98611055D01*
X142035280Y-98737000D01*
X142035280Y-99637000D01*
X142057419Y-99754658D01*
X142126955Y-99862721D01*
X142233055Y-99935215D01*
X142359000Y-99960720D01*
X142621000Y-99960720D01*
X142621000Y-103502184D01*
X142510720Y-103612464D01*
X142510720Y-103205000D01*
X142488581Y-103087342D01*
X142419045Y-102979279D01*
X142312945Y-102906785D01*
X142187000Y-102881280D01*
X140891000Y-102881280D01*
X140891000Y-102750907D01*
X140891001Y-102750902D01*
X140861998Y-102605100D01*
X140842783Y-102576342D01*
X140779408Y-102481494D01*
X140779405Y-102481492D01*
X139036506Y-100738592D01*
X138912901Y-100656002D01*
X138767098Y-100627000D01*
X137298720Y-100627000D01*
X137298720Y-100408000D01*
X137276581Y-100290342D01*
X137207045Y-100182279D01*
X137100945Y-100109785D01*
X137012500Y-100091874D01*
X137012500Y-99960720D01*
X137231500Y-99960720D01*
X137349158Y-99938581D01*
X137457221Y-99869045D01*
X137529715Y-99762945D01*
X137555220Y-99637000D01*
X137555220Y-98737000D01*
X137533081Y-98619342D01*
X137463545Y-98511279D01*
X137357445Y-98438785D01*
X137231500Y-98413280D01*
X136031500Y-98413280D01*
X135913842Y-98435419D01*
X135805779Y-98504955D01*
X135733285Y-98611055D01*
X135707780Y-98737000D01*
X135707780Y-99637000D01*
X135729919Y-99754658D01*
X135799455Y-99862721D01*
X135905555Y-99935215D01*
X136031500Y-99960720D01*
X136250500Y-99960720D01*
X136250500Y-100084280D01*
X136075000Y-100084280D01*
X135957342Y-100106419D01*
X135849279Y-100175955D01*
X135776785Y-100282055D01*
X135751280Y-100408000D01*
X135751280Y-101608000D01*
X135773419Y-101725658D01*
X135842955Y-101833721D01*
X135949055Y-101906215D01*
X136075000Y-101931720D01*
X136975000Y-101931720D01*
X137092658Y-101909581D01*
X137200721Y-101840045D01*
X137273215Y-101733945D01*
X137298720Y-101608000D01*
X137298720Y-101389000D01*
X138609282Y-101389000D01*
X140129000Y-102908717D01*
X140129000Y-103078000D01*
X140158002Y-103223803D01*
X140240592Y-103347408D01*
X140313280Y-103420096D01*
X140313280Y-103805000D01*
X140335419Y-103922658D01*
X140404955Y-104030721D01*
X140511055Y-104103215D01*
X140637000Y-104128720D01*
X141994464Y-104128720D01*
X141971904Y-104151280D01*
X140637000Y-104151280D01*
X140519342Y-104173419D01*
X140411279Y-104242955D01*
X140342067Y-104344252D01*
X139022408Y-103024592D01*
X138949720Y-102976024D01*
X138949720Y-102694000D01*
X138927581Y-102576342D01*
X138858045Y-102468279D01*
X138751945Y-102395785D01*
X138626000Y-102370280D01*
X137726000Y-102370280D01*
X137608342Y-102392419D01*
X137500279Y-102461955D01*
X137427785Y-102568055D01*
X137402280Y-102694000D01*
X137402280Y-103696464D01*
X137298720Y-103592904D01*
X137298720Y-102608000D01*
X137276581Y-102490342D01*
X137207045Y-102382279D01*
X137100945Y-102309785D01*
X136975000Y-102284280D01*
X136075000Y-102284280D01*
X135957342Y-102306419D01*
X135849279Y-102375955D01*
X135776785Y-102482055D01*
X135751280Y-102608000D01*
X135751280Y-103808000D01*
X135773419Y-103925658D01*
X135842955Y-104033721D01*
X135869397Y-104051788D01*
X130725530Y-109195654D01*
X130641502Y-108773217D01*
X130388420Y-108394453D01*
X130009656Y-108141371D01*
X129562873Y-108052500D01*
X129517127Y-108052500D01*
X129070344Y-108141371D01*
X128691580Y-108394453D01*
X128438498Y-108773217D01*
X128349627Y-109220000D01*
X128438498Y-109666783D01*
X128691580Y-110045547D01*
X129070344Y-110298629D01*
X129270783Y-110338499D01*
X128675501Y-110338499D01*
X128529699Y-110367501D01*
X128406093Y-110450091D01*
X128406091Y-110450094D01*
X128230091Y-110626093D01*
X128147501Y-110749698D01*
X128147501Y-110749699D01*
X128118499Y-110895501D01*
X127392500Y-110895501D01*
X127392500Y-106680000D01*
X128349627Y-106680000D01*
X128438498Y-107126783D01*
X128691580Y-107505547D01*
X129070344Y-107758629D01*
X129517127Y-107847500D01*
X129562873Y-107847500D01*
X130009656Y-107758629D01*
X130388420Y-107505547D01*
X130641502Y-107126783D01*
X130730373Y-106680000D01*
X130641502Y-106233217D01*
X130388420Y-105854453D01*
X130009656Y-105601371D01*
X129562873Y-105512500D01*
X129517127Y-105512500D01*
X129070344Y-105601371D01*
X128691580Y-105854453D01*
X128438498Y-106233217D01*
X128349627Y-106680000D01*
X127392500Y-106680000D01*
X127392500Y-103290000D01*
X128366280Y-103290000D01*
X128366280Y-104990000D01*
X128388419Y-105107658D01*
X128457955Y-105215721D01*
X128564055Y-105288215D01*
X128690000Y-105313720D01*
X130390000Y-105313720D01*
X130507658Y-105291581D01*
X130615721Y-105222045D01*
X130688215Y-105115945D01*
X130713720Y-104990000D01*
X130713720Y-103290000D01*
X130691581Y-103172342D01*
X130622045Y-103064279D01*
X130515945Y-102991785D01*
X130390000Y-102966280D01*
X128690000Y-102966280D01*
X128572342Y-102988419D01*
X128464279Y-103057955D01*
X128391785Y-103164055D01*
X128366280Y-103290000D01*
X127392500Y-103290000D01*
X127392500Y-80938000D01*
X132684280Y-80938000D01*
X132684280Y-82638000D01*
X132706419Y-82755658D01*
X132775955Y-82863721D01*
X132882055Y-82936215D01*
X133008000Y-82961720D01*
X133477000Y-82961720D01*
X133477000Y-93241000D01*
X133506002Y-93386803D01*
X133588592Y-93510408D01*
X135728280Y-95650095D01*
X135728280Y-96335000D01*
X135750419Y-96452658D01*
X135819955Y-96560721D01*
X135926055Y-96633215D01*
X136052000Y-96658720D01*
X136271000Y-96658720D01*
X136271000Y-96837280D01*
X136052000Y-96837280D01*
X135934342Y-96859419D01*
X135826279Y-96928955D01*
X135753785Y-97035055D01*
X135728280Y-97161000D01*
X135728280Y-97911000D01*
X135750419Y-98028658D01*
X135819955Y-98136721D01*
X135926055Y-98209215D01*
X136052000Y-98234720D01*
X137252000Y-98234720D01*
X137369658Y-98212581D01*
X137477721Y-98143045D01*
X137550215Y-98036945D01*
X137575720Y-97911000D01*
X137575720Y-97161000D01*
X137628280Y-97161000D01*
X137628280Y-97911000D01*
X137650419Y-98028658D01*
X137719955Y-98136721D01*
X137826055Y-98209215D01*
X137952000Y-98234720D01*
X138171000Y-98234720D01*
X138171000Y-98424664D01*
X138113842Y-98435419D01*
X138005779Y-98504955D01*
X137933285Y-98611055D01*
X137907780Y-98737000D01*
X137907780Y-99637000D01*
X137929919Y-99754658D01*
X137999455Y-99862721D01*
X138105555Y-99935215D01*
X138231500Y-99960720D01*
X139431500Y-99960720D01*
X139549158Y-99938581D01*
X139657221Y-99869045D01*
X139729715Y-99762945D01*
X139755220Y-99637000D01*
X139755220Y-98737000D01*
X139835280Y-98737000D01*
X139835280Y-99637000D01*
X139857419Y-99754658D01*
X139926955Y-99862721D01*
X140033055Y-99935215D01*
X140159000Y-99960720D01*
X141359000Y-99960720D01*
X141476658Y-99938581D01*
X141584721Y-99869045D01*
X141657215Y-99762945D01*
X141682720Y-99637000D01*
X141682720Y-98737000D01*
X141660581Y-98619342D01*
X141591045Y-98511279D01*
X141484945Y-98438785D01*
X141417000Y-98425026D01*
X141417000Y-98234720D01*
X141636000Y-98234720D01*
X141753658Y-98212581D01*
X141861721Y-98143045D01*
X141934215Y-98036945D01*
X141959720Y-97911000D01*
X141959720Y-97161000D01*
X142012280Y-97161000D01*
X142012280Y-97911000D01*
X142034419Y-98028658D01*
X142103955Y-98136721D01*
X142210055Y-98209215D01*
X142336000Y-98234720D01*
X143536000Y-98234720D01*
X143653658Y-98212581D01*
X143761721Y-98143045D01*
X143834215Y-98036945D01*
X143859720Y-97911000D01*
X143859720Y-97161000D01*
X143837581Y-97043342D01*
X143768045Y-96935279D01*
X143661945Y-96862785D01*
X143536000Y-96837280D01*
X143317000Y-96837280D01*
X143317000Y-96658720D01*
X143559000Y-96658720D01*
X143676658Y-96636581D01*
X143784721Y-96567045D01*
X143857215Y-96460945D01*
X143882720Y-96335000D01*
X143882720Y-95435000D01*
X144196280Y-95435000D01*
X144196280Y-96335000D01*
X144218419Y-96452658D01*
X144287955Y-96560721D01*
X144394055Y-96633215D01*
X144520000Y-96658720D01*
X144780000Y-96658720D01*
X144780000Y-96837280D01*
X144561000Y-96837280D01*
X144443342Y-96859419D01*
X144335279Y-96928955D01*
X144262785Y-97035055D01*
X144237280Y-97161000D01*
X144237280Y-97911000D01*
X144259419Y-98028658D01*
X144328955Y-98136721D01*
X144435055Y-98209215D01*
X144561000Y-98234720D01*
X145761000Y-98234720D01*
X145878658Y-98212581D01*
X145986721Y-98143045D01*
X146059215Y-98036945D01*
X146084720Y-97911000D01*
X146084720Y-97161000D01*
X146137280Y-97161000D01*
X146137280Y-97911000D01*
X146159419Y-98028658D01*
X146228955Y-98136721D01*
X146335055Y-98209215D01*
X146461000Y-98234720D01*
X146680000Y-98234720D01*
X146680000Y-98420807D01*
X146602342Y-98435419D01*
X146494279Y-98504955D01*
X146421785Y-98611055D01*
X146396280Y-98737000D01*
X146396280Y-99637000D01*
X146418419Y-99754658D01*
X146487955Y-99862721D01*
X146594055Y-99935215D01*
X146720000Y-99960720D01*
X147920000Y-99960720D01*
X148037658Y-99938581D01*
X148145721Y-99869045D01*
X148218215Y-99762945D01*
X148243720Y-99637000D01*
X148243720Y-98737000D01*
X148344280Y-98737000D01*
X148344280Y-99637000D01*
X148366419Y-99754658D01*
X148435955Y-99862721D01*
X148542055Y-99935215D01*
X148668000Y-99960720D01*
X149868000Y-99960720D01*
X149985658Y-99938581D01*
X150093721Y-99869045D01*
X150166215Y-99762945D01*
X150191720Y-99637000D01*
X150191720Y-98737000D01*
X150169581Y-98619342D01*
X150100045Y-98511279D01*
X149993945Y-98438785D01*
X149992000Y-98438391D01*
X149992000Y-98234720D01*
X150211000Y-98234720D01*
X150328658Y-98212581D01*
X150436721Y-98143045D01*
X150509215Y-98036945D01*
X150534720Y-97911000D01*
X150534720Y-97161000D01*
X150512581Y-97043342D01*
X150443045Y-96935279D01*
X150336945Y-96862785D01*
X150211000Y-96837280D01*
X149011000Y-96837280D01*
X148893342Y-96859419D01*
X148785279Y-96928955D01*
X148712785Y-97035055D01*
X148687280Y-97161000D01*
X148687280Y-97911000D01*
X148709419Y-98028658D01*
X148778955Y-98136721D01*
X148885055Y-98209215D01*
X149011000Y-98234720D01*
X149230000Y-98234720D01*
X149230000Y-98413280D01*
X148668000Y-98413280D01*
X148550342Y-98435419D01*
X148442279Y-98504955D01*
X148369785Y-98611055D01*
X148344280Y-98737000D01*
X148243720Y-98737000D01*
X148221581Y-98619342D01*
X148152045Y-98511279D01*
X148045945Y-98438785D01*
X147920000Y-98413280D01*
X147442000Y-98413280D01*
X147442000Y-98234720D01*
X147661000Y-98234720D01*
X147778658Y-98212581D01*
X147886721Y-98143045D01*
X147959215Y-98036945D01*
X147984720Y-97911000D01*
X147984720Y-97161000D01*
X147962581Y-97043342D01*
X147893045Y-96935279D01*
X147786945Y-96862785D01*
X147661000Y-96837280D01*
X146461000Y-96837280D01*
X146343342Y-96859419D01*
X146235279Y-96928955D01*
X146162785Y-97035055D01*
X146137280Y-97161000D01*
X146084720Y-97161000D01*
X146062581Y-97043342D01*
X145993045Y-96935279D01*
X145886945Y-96862785D01*
X145761000Y-96837280D01*
X145542000Y-96837280D01*
X145542000Y-96658720D01*
X145720000Y-96658720D01*
X145837658Y-96636581D01*
X145945721Y-96567045D01*
X146018215Y-96460945D01*
X146043720Y-96335000D01*
X146043720Y-95435000D01*
X146021581Y-95317342D01*
X145952045Y-95209279D01*
X145845945Y-95136785D01*
X145720000Y-95111280D01*
X145501000Y-95111280D01*
X145501000Y-92273816D01*
X147232605Y-90542210D01*
X151294997Y-90542210D01*
X151385678Y-90761675D01*
X151553442Y-90929732D01*
X151772748Y-91020796D01*
X152010210Y-91021003D01*
X152229675Y-90930322D01*
X152397732Y-90762558D01*
X152488796Y-90543252D01*
X152489003Y-90305790D01*
X152398322Y-90086325D01*
X152230558Y-89918268D01*
X152011252Y-89827204D01*
X151773790Y-89826997D01*
X151554325Y-89917678D01*
X151386268Y-90085442D01*
X151295204Y-90304748D01*
X151294997Y-90542210D01*
X147232605Y-90542210D01*
X152542405Y-85232410D01*
X152542408Y-85232408D01*
X152624998Y-85108802D01*
X152630279Y-85082252D01*
X152654001Y-84963000D01*
X152654000Y-84962995D01*
X152654000Y-82961720D01*
X153123000Y-82961720D01*
X153240658Y-82939581D01*
X153348721Y-82870045D01*
X153421215Y-82763945D01*
X153446720Y-82638000D01*
X153446720Y-80938000D01*
X153424581Y-80820342D01*
X153355045Y-80712279D01*
X153248945Y-80639785D01*
X153123000Y-80614280D01*
X151423000Y-80614280D01*
X151305342Y-80636419D01*
X151197279Y-80705955D01*
X151124785Y-80812055D01*
X151099280Y-80938000D01*
X151099280Y-82638000D01*
X151121419Y-82755658D01*
X151190955Y-82863721D01*
X151297055Y-82936215D01*
X151423000Y-82961720D01*
X151892000Y-82961720D01*
X151892000Y-84805185D01*
X144850592Y-91846592D01*
X144768002Y-91970197D01*
X144768002Y-91970198D01*
X144739000Y-92116000D01*
X144739000Y-95111280D01*
X144520000Y-95111280D01*
X144402342Y-95133419D01*
X144294279Y-95202955D01*
X144221785Y-95309055D01*
X144196280Y-95435000D01*
X143882720Y-95435000D01*
X143860581Y-95317342D01*
X143791045Y-95209279D01*
X143684945Y-95136785D01*
X143559000Y-95111280D01*
X143340000Y-95111280D01*
X143340000Y-90751816D01*
X148859405Y-85232410D01*
X148859408Y-85232408D01*
X148941998Y-85108802D01*
X148947279Y-85082252D01*
X148971001Y-84963000D01*
X148971000Y-84962995D01*
X148971000Y-82961720D01*
X149440000Y-82961720D01*
X149557658Y-82939581D01*
X149665721Y-82870045D01*
X149738215Y-82763945D01*
X149763720Y-82638000D01*
X149763720Y-80938000D01*
X149741581Y-80820342D01*
X149672045Y-80712279D01*
X149565945Y-80639785D01*
X149440000Y-80614280D01*
X147740000Y-80614280D01*
X147622342Y-80636419D01*
X147514279Y-80705955D01*
X147441785Y-80812055D01*
X147416280Y-80938000D01*
X147416280Y-82638000D01*
X147438419Y-82755658D01*
X147507955Y-82863721D01*
X147614055Y-82936215D01*
X147740000Y-82961720D01*
X148209000Y-82961720D01*
X148209000Y-84805185D01*
X142689592Y-90324592D01*
X142607002Y-90448197D01*
X142607002Y-90448198D01*
X142578000Y-90594000D01*
X142578000Y-95111280D01*
X142359000Y-95111280D01*
X142241342Y-95133419D01*
X142133279Y-95202955D01*
X142060785Y-95309055D01*
X142035280Y-95435000D01*
X142035280Y-96335000D01*
X142057419Y-96452658D01*
X142126955Y-96560721D01*
X142233055Y-96633215D01*
X142359000Y-96658720D01*
X142555000Y-96658720D01*
X142555000Y-96837280D01*
X142336000Y-96837280D01*
X142218342Y-96859419D01*
X142110279Y-96928955D01*
X142037785Y-97035055D01*
X142012280Y-97161000D01*
X141959720Y-97161000D01*
X141937581Y-97043342D01*
X141868045Y-96935279D01*
X141761945Y-96862785D01*
X141636000Y-96837280D01*
X140436000Y-96837280D01*
X140318342Y-96859419D01*
X140210279Y-96928955D01*
X140137785Y-97035055D01*
X140112280Y-97161000D01*
X140112280Y-97911000D01*
X140134419Y-98028658D01*
X140203955Y-98136721D01*
X140310055Y-98209215D01*
X140436000Y-98234720D01*
X140655000Y-98234720D01*
X140655000Y-98413280D01*
X140159000Y-98413280D01*
X140041342Y-98435419D01*
X139933279Y-98504955D01*
X139860785Y-98611055D01*
X139835280Y-98737000D01*
X139755220Y-98737000D01*
X139733081Y-98619342D01*
X139663545Y-98511279D01*
X139557445Y-98438785D01*
X139431500Y-98413280D01*
X138933000Y-98413280D01*
X138933000Y-98234720D01*
X139152000Y-98234720D01*
X139269658Y-98212581D01*
X139377721Y-98143045D01*
X139450215Y-98036945D01*
X139475720Y-97911000D01*
X139475720Y-97161000D01*
X139453581Y-97043342D01*
X139384045Y-96935279D01*
X139277945Y-96862785D01*
X139152000Y-96837280D01*
X137952000Y-96837280D01*
X137834342Y-96859419D01*
X137726279Y-96928955D01*
X137653785Y-97035055D01*
X137628280Y-97161000D01*
X137575720Y-97161000D01*
X137553581Y-97043342D01*
X137484045Y-96935279D01*
X137377945Y-96862785D01*
X137252000Y-96837280D01*
X137033000Y-96837280D01*
X137033000Y-96658720D01*
X137252000Y-96658720D01*
X137369658Y-96636581D01*
X137477721Y-96567045D01*
X137550215Y-96460945D01*
X137575720Y-96335000D01*
X137575720Y-95435000D01*
X137553581Y-95317342D01*
X137484045Y-95209279D01*
X137377945Y-95136785D01*
X137252000Y-95111280D01*
X136267095Y-95111280D01*
X135762026Y-94606210D01*
X137959997Y-94606210D01*
X138050678Y-94825675D01*
X138218442Y-94993732D01*
X138437748Y-95084796D01*
X138675210Y-95085003D01*
X138894675Y-94994322D01*
X139062732Y-94826558D01*
X139153796Y-94607252D01*
X139154003Y-94369790D01*
X139063322Y-94150325D01*
X138895558Y-93982268D01*
X138676252Y-93891204D01*
X138438790Y-93890997D01*
X138219325Y-93981678D01*
X138051268Y-94149442D01*
X137960204Y-94368748D01*
X137959997Y-94606210D01*
X135762026Y-94606210D01*
X134239000Y-93083184D01*
X134239000Y-86351210D01*
X144309997Y-86351210D01*
X144400678Y-86570675D01*
X144568442Y-86738732D01*
X144787748Y-86829796D01*
X145025210Y-86830003D01*
X145244675Y-86739322D01*
X145412732Y-86571558D01*
X145503796Y-86352252D01*
X145504003Y-86114790D01*
X145413322Y-85895325D01*
X145245558Y-85727268D01*
X145026252Y-85636204D01*
X144788790Y-85635997D01*
X144569325Y-85726678D01*
X144401268Y-85894442D01*
X144310204Y-86113748D01*
X144309997Y-86351210D01*
X134239000Y-86351210D01*
X134239000Y-82961720D01*
X134708000Y-82961720D01*
X134825658Y-82939581D01*
X134933721Y-82870045D01*
X135006215Y-82763945D01*
X135031720Y-82638000D01*
X135031720Y-80938000D01*
X136367280Y-80938000D01*
X136367280Y-82638000D01*
X136389419Y-82755658D01*
X136458955Y-82863721D01*
X136565055Y-82936215D01*
X136691000Y-82961720D01*
X137160000Y-82961720D01*
X137160000Y-84328000D01*
X137189002Y-84473803D01*
X137271592Y-84597408D01*
X138033590Y-85359405D01*
X138033592Y-85359408D01*
X138157198Y-85441998D01*
X138303000Y-85471001D01*
X138303005Y-85471000D01*
X145669000Y-85471000D01*
X145814803Y-85441998D01*
X145938408Y-85359408D01*
X147208408Y-84089408D01*
X147290998Y-83965803D01*
X147320000Y-83820000D01*
X147320000Y-80421816D01*
X147477815Y-80264000D01*
X153512184Y-80264000D01*
X153924000Y-80675815D01*
X153924000Y-90393184D01*
X151198592Y-93118592D01*
X151116002Y-93242197D01*
X151116002Y-93242198D01*
X151087000Y-93388000D01*
X151087000Y-95111280D01*
X150868000Y-95111280D01*
X150750342Y-95133419D01*
X150642279Y-95202955D01*
X150569785Y-95309055D01*
X150544280Y-95435000D01*
X150544280Y-96335000D01*
X150566419Y-96452658D01*
X150635955Y-96560721D01*
X150742055Y-96633215D01*
X150868000Y-96658720D01*
X151087000Y-96658720D01*
X151087000Y-96837280D01*
X150911000Y-96837280D01*
X150793342Y-96859419D01*
X150685279Y-96928955D01*
X150612785Y-97035055D01*
X150587280Y-97161000D01*
X150587280Y-97911000D01*
X150609419Y-98028658D01*
X150678955Y-98136721D01*
X150785055Y-98209215D01*
X150911000Y-98234720D01*
X152111000Y-98234720D01*
X152228658Y-98212581D01*
X152336721Y-98143045D01*
X152409215Y-98036945D01*
X152434720Y-97911000D01*
X152434720Y-97161000D01*
X152412581Y-97043342D01*
X152343045Y-96935279D01*
X152236945Y-96862785D01*
X152111000Y-96837280D01*
X151849000Y-96837280D01*
X151849000Y-96658720D01*
X152068000Y-96658720D01*
X152185658Y-96636581D01*
X152293721Y-96567045D01*
X152366215Y-96460945D01*
X152391720Y-96335000D01*
X152391720Y-95435000D01*
X152369581Y-95317342D01*
X152300045Y-95209279D01*
X152193945Y-95136785D01*
X152068000Y-95111280D01*
X151849000Y-95111280D01*
X151849000Y-93545816D01*
X154574408Y-90820408D01*
X154656998Y-90696803D01*
X154686001Y-90551000D01*
X154686000Y-90550995D01*
X154686000Y-80938000D01*
X154782280Y-80938000D01*
X154782280Y-82638000D01*
X154804419Y-82755658D01*
X154873955Y-82863721D01*
X154980055Y-82936215D01*
X155106000Y-82961720D01*
X156806000Y-82961720D01*
X156923658Y-82939581D01*
X157031721Y-82870045D01*
X157104215Y-82763945D01*
X157129720Y-82638000D01*
X157129720Y-80938000D01*
X157107581Y-80820342D01*
X157038045Y-80712279D01*
X156931945Y-80639785D01*
X156806000Y-80614280D01*
X155106000Y-80614280D01*
X154988342Y-80636419D01*
X154880279Y-80705955D01*
X154807785Y-80812055D01*
X154782280Y-80938000D01*
X154686000Y-80938000D01*
X154686000Y-80518005D01*
X154686001Y-80518000D01*
X154656998Y-80372198D01*
X154584703Y-80264000D01*
X154574408Y-80248592D01*
X154574405Y-80248590D01*
X154081816Y-79756000D01*
X156433184Y-79756000D01*
X157353000Y-80675816D01*
X157353000Y-92907184D01*
X155221592Y-95038592D01*
X155173024Y-95111280D01*
X154891000Y-95111280D01*
X154773342Y-95133419D01*
X154665279Y-95202955D01*
X154592785Y-95309055D01*
X154567280Y-95435000D01*
X154567280Y-96335000D01*
X154589419Y-96452658D01*
X154658955Y-96560721D01*
X154765055Y-96633215D01*
X154891000Y-96658720D01*
X155194000Y-96658720D01*
X155194000Y-96837280D01*
X154975000Y-96837280D01*
X154857342Y-96859419D01*
X154749279Y-96928955D01*
X154676785Y-97035055D01*
X154651280Y-97161000D01*
X154651280Y-97911000D01*
X154673419Y-98028658D01*
X154742955Y-98136721D01*
X154849055Y-98209215D01*
X154975000Y-98234720D01*
X156175000Y-98234720D01*
X156292658Y-98212581D01*
X156400721Y-98143045D01*
X156473215Y-98036945D01*
X156498720Y-97911000D01*
X156498720Y-97161000D01*
X156551280Y-97161000D01*
X156551280Y-97911000D01*
X156573419Y-98028658D01*
X156642955Y-98136721D01*
X156749055Y-98209215D01*
X156875000Y-98234720D01*
X157094000Y-98234720D01*
X157094000Y-98413280D01*
X157091000Y-98413280D01*
X156973342Y-98435419D01*
X156865279Y-98504955D01*
X156792785Y-98611055D01*
X156767280Y-98737000D01*
X156767280Y-99637000D01*
X156789419Y-99754658D01*
X156858955Y-99862721D01*
X156965055Y-99935215D01*
X157091000Y-99960720D01*
X158291000Y-99960720D01*
X158408658Y-99938581D01*
X158516721Y-99869045D01*
X158589215Y-99762945D01*
X158614720Y-99637000D01*
X158614720Y-98737000D01*
X158758280Y-98737000D01*
X158758280Y-99637000D01*
X158780419Y-99754658D01*
X158849955Y-99862721D01*
X158956055Y-99935215D01*
X159082000Y-99960720D01*
X160282000Y-99960720D01*
X160399658Y-99938581D01*
X160507721Y-99869045D01*
X160580215Y-99762945D01*
X160605720Y-99637000D01*
X160605720Y-98737000D01*
X160583581Y-98619342D01*
X160514045Y-98511279D01*
X160407945Y-98438785D01*
X160340000Y-98425026D01*
X160340000Y-98234720D01*
X160559000Y-98234720D01*
X160676658Y-98212581D01*
X160784721Y-98143045D01*
X160857215Y-98036945D01*
X160882720Y-97911000D01*
X160882720Y-97161000D01*
X160860581Y-97043342D01*
X160791045Y-96935279D01*
X160684945Y-96862785D01*
X160559000Y-96837280D01*
X159359000Y-96837280D01*
X159241342Y-96859419D01*
X159133279Y-96928955D01*
X159060785Y-97035055D01*
X159035280Y-97161000D01*
X159035280Y-97911000D01*
X159057419Y-98028658D01*
X159126955Y-98136721D01*
X159233055Y-98209215D01*
X159359000Y-98234720D01*
X159578000Y-98234720D01*
X159578000Y-98413280D01*
X159082000Y-98413280D01*
X158964342Y-98435419D01*
X158856279Y-98504955D01*
X158783785Y-98611055D01*
X158758280Y-98737000D01*
X158614720Y-98737000D01*
X158592581Y-98619342D01*
X158523045Y-98511279D01*
X158416945Y-98438785D01*
X158291000Y-98413280D01*
X157856000Y-98413280D01*
X157856000Y-98234720D01*
X158075000Y-98234720D01*
X158192658Y-98212581D01*
X158300721Y-98143045D01*
X158373215Y-98036945D01*
X158398720Y-97911000D01*
X158398720Y-97161000D01*
X158376581Y-97043342D01*
X158307045Y-96935279D01*
X158200945Y-96862785D01*
X158075000Y-96837280D01*
X156875000Y-96837280D01*
X156757342Y-96859419D01*
X156649279Y-96928955D01*
X156576785Y-97035055D01*
X156551280Y-97161000D01*
X156498720Y-97161000D01*
X156476581Y-97043342D01*
X156407045Y-96935279D01*
X156300945Y-96862785D01*
X156175000Y-96837280D01*
X155956000Y-96837280D01*
X155956000Y-96658720D01*
X156091000Y-96658720D01*
X156208658Y-96636581D01*
X156316721Y-96567045D01*
X156389215Y-96460945D01*
X156414720Y-96335000D01*
X156414720Y-95435000D01*
X156392581Y-95317342D01*
X156323045Y-95209279D01*
X156216945Y-95136785D01*
X156203711Y-95134105D01*
X156731606Y-94606210D01*
X158533997Y-94606210D01*
X158624678Y-94825675D01*
X158792442Y-94993732D01*
X159011748Y-95084796D01*
X159249210Y-95085003D01*
X159468675Y-94994322D01*
X159636732Y-94826558D01*
X159727796Y-94607252D01*
X159728003Y-94369790D01*
X159637322Y-94150325D01*
X159469558Y-93982268D01*
X159250252Y-93891204D01*
X159012790Y-93890997D01*
X158793325Y-93981678D01*
X158625268Y-94149442D01*
X158534204Y-94368748D01*
X158533997Y-94606210D01*
X156731606Y-94606210D01*
X158003408Y-93334408D01*
X158085998Y-93210803D01*
X158115000Y-93065000D01*
X158115000Y-85081210D01*
X158152997Y-85081210D01*
X158243678Y-85300675D01*
X158369000Y-85426216D01*
X158369000Y-89662000D01*
X158398002Y-89807803D01*
X158480592Y-89931408D01*
X161501000Y-92951816D01*
X161501000Y-95111280D01*
X161282000Y-95111280D01*
X161164342Y-95133419D01*
X161056279Y-95202955D01*
X160983785Y-95309055D01*
X160958280Y-95435000D01*
X160958280Y-96335000D01*
X160980419Y-96452658D01*
X161049955Y-96560721D01*
X161156055Y-96633215D01*
X161282000Y-96658720D01*
X161478000Y-96658720D01*
X161478000Y-96837280D01*
X161259000Y-96837280D01*
X161141342Y-96859419D01*
X161033279Y-96928955D01*
X160960785Y-97035055D01*
X160935280Y-97161000D01*
X160935280Y-97911000D01*
X160957419Y-98028658D01*
X161026955Y-98136721D01*
X161133055Y-98209215D01*
X161259000Y-98234720D01*
X162459000Y-98234720D01*
X162576658Y-98212581D01*
X162684721Y-98143045D01*
X162757215Y-98036945D01*
X162782720Y-97911000D01*
X162782720Y-97161000D01*
X162760581Y-97043342D01*
X162691045Y-96935279D01*
X162584945Y-96862785D01*
X162459000Y-96837280D01*
X162240000Y-96837280D01*
X162240000Y-96658720D01*
X162482000Y-96658720D01*
X162599658Y-96636581D01*
X162707721Y-96567045D01*
X162780215Y-96460945D01*
X162805720Y-96335000D01*
X162805720Y-95435000D01*
X162783581Y-95317342D01*
X162714045Y-95209279D01*
X162607945Y-95136785D01*
X162482000Y-95111280D01*
X162263000Y-95111280D01*
X162263000Y-92794005D01*
X162263001Y-92794000D01*
X162233998Y-92648197D01*
X162151408Y-92524592D01*
X159131000Y-89504184D01*
X159131000Y-85426073D01*
X159255732Y-85301558D01*
X159258000Y-85296096D01*
X159258000Y-86995000D01*
X159287002Y-87140803D01*
X159369592Y-87264408D01*
X161147590Y-89042405D01*
X161147592Y-89042408D01*
X161271198Y-89124998D01*
X161417000Y-89154001D01*
X161417005Y-89154000D01*
X164180184Y-89154000D01*
X165074000Y-90047815D01*
X165074000Y-93822185D01*
X163857592Y-95038592D01*
X163809024Y-95111280D01*
X163527000Y-95111280D01*
X163409342Y-95133419D01*
X163301279Y-95202955D01*
X163228785Y-95309055D01*
X163203280Y-95435000D01*
X163203280Y-96335000D01*
X163225419Y-96452658D01*
X163294955Y-96560721D01*
X163401055Y-96633215D01*
X163527000Y-96658720D01*
X163835000Y-96658720D01*
X163835000Y-96837280D01*
X163616000Y-96837280D01*
X163498342Y-96859419D01*
X163390279Y-96928955D01*
X163317785Y-97035055D01*
X163292280Y-97161000D01*
X163292280Y-97911000D01*
X163314419Y-98028658D01*
X163383955Y-98136721D01*
X163490055Y-98209215D01*
X163616000Y-98234720D01*
X164816000Y-98234720D01*
X164933658Y-98212581D01*
X165041721Y-98143045D01*
X165114215Y-98036945D01*
X165139720Y-97911000D01*
X165139720Y-97161000D01*
X165192280Y-97161000D01*
X165192280Y-97911000D01*
X165214419Y-98028658D01*
X165283955Y-98136721D01*
X165390055Y-98209215D01*
X165516000Y-98234720D01*
X165735000Y-98234720D01*
X165735000Y-98413280D01*
X165727000Y-98413280D01*
X165609342Y-98435419D01*
X165501279Y-98504955D01*
X165428785Y-98611055D01*
X165403280Y-98737000D01*
X165403280Y-99637000D01*
X165425419Y-99754658D01*
X165494955Y-99862721D01*
X165601055Y-99935215D01*
X165727000Y-99960720D01*
X166927000Y-99960720D01*
X167044658Y-99938581D01*
X167152721Y-99869045D01*
X167225215Y-99762945D01*
X167250720Y-99637000D01*
X167250720Y-98737000D01*
X167351280Y-98737000D01*
X167351280Y-99637000D01*
X167373419Y-99754658D01*
X167442955Y-99862721D01*
X167549055Y-99935215D01*
X167675000Y-99960720D01*
X168875000Y-99960720D01*
X168992658Y-99938581D01*
X169100721Y-99869045D01*
X169173215Y-99762945D01*
X169198720Y-99637000D01*
X169198720Y-98737000D01*
X169176581Y-98619342D01*
X169107045Y-98511279D01*
X169000945Y-98438785D01*
X168910000Y-98420368D01*
X168910000Y-98234720D01*
X169129000Y-98234720D01*
X169246658Y-98212581D01*
X169354721Y-98143045D01*
X169427215Y-98036945D01*
X169452720Y-97911000D01*
X169452720Y-97161000D01*
X169430581Y-97043342D01*
X169361045Y-96935279D01*
X169254945Y-96862785D01*
X169129000Y-96837280D01*
X167929000Y-96837280D01*
X167811342Y-96859419D01*
X167703279Y-96928955D01*
X167630785Y-97035055D01*
X167605280Y-97161000D01*
X167605280Y-97911000D01*
X167627419Y-98028658D01*
X167696955Y-98136721D01*
X167803055Y-98209215D01*
X167929000Y-98234720D01*
X168148000Y-98234720D01*
X168148000Y-98413280D01*
X167675000Y-98413280D01*
X167557342Y-98435419D01*
X167449279Y-98504955D01*
X167376785Y-98611055D01*
X167351280Y-98737000D01*
X167250720Y-98737000D01*
X167228581Y-98619342D01*
X167159045Y-98511279D01*
X167052945Y-98438785D01*
X166927000Y-98413280D01*
X166497000Y-98413280D01*
X166497000Y-98234720D01*
X166716000Y-98234720D01*
X166833658Y-98212581D01*
X166941721Y-98143045D01*
X167014215Y-98036945D01*
X167039720Y-97911000D01*
X167039720Y-97161000D01*
X167017581Y-97043342D01*
X166948045Y-96935279D01*
X166841945Y-96862785D01*
X166716000Y-96837280D01*
X165516000Y-96837280D01*
X165398342Y-96859419D01*
X165290279Y-96928955D01*
X165217785Y-97035055D01*
X165192280Y-97161000D01*
X165139720Y-97161000D01*
X165117581Y-97043342D01*
X165048045Y-96935279D01*
X164941945Y-96862785D01*
X164816000Y-96837280D01*
X164597000Y-96837280D01*
X164597000Y-96658720D01*
X164727000Y-96658720D01*
X164844658Y-96636581D01*
X164952721Y-96567045D01*
X165025215Y-96460945D01*
X165050720Y-96335000D01*
X165050720Y-95435000D01*
X165028581Y-95317342D01*
X164959045Y-95209279D01*
X164852945Y-95136785D01*
X164839711Y-95134105D01*
X165724405Y-94249410D01*
X165724408Y-94249408D01*
X165806998Y-94125802D01*
X165836001Y-93980000D01*
X165836000Y-93979995D01*
X165836000Y-89890005D01*
X165836001Y-89890000D01*
X165806998Y-89744198D01*
X165724408Y-89620592D01*
X165724405Y-89620590D01*
X164607408Y-88503592D01*
X164483803Y-88421002D01*
X164338000Y-88392000D01*
X161574815Y-88392000D01*
X160020000Y-86837184D01*
X160020000Y-85256000D01*
X162402280Y-85256000D01*
X162402280Y-86956000D01*
X162424419Y-87073658D01*
X162493955Y-87181721D01*
X162600055Y-87254215D01*
X162726000Y-87279720D01*
X164426000Y-87279720D01*
X164543658Y-87257581D01*
X164651721Y-87188045D01*
X164724215Y-87081945D01*
X164749720Y-86956000D01*
X164749720Y-85256000D01*
X164727581Y-85138342D01*
X164658045Y-85030279D01*
X164551945Y-84957785D01*
X164426000Y-84932280D01*
X162726000Y-84932280D01*
X162608342Y-84954419D01*
X162500279Y-85023955D01*
X162427785Y-85130055D01*
X162402280Y-85256000D01*
X160020000Y-85256000D01*
X160020000Y-82961720D01*
X160489000Y-82961720D01*
X160606658Y-82939581D01*
X160714721Y-82870045D01*
X160787215Y-82763945D01*
X160812720Y-82638000D01*
X160812720Y-81573000D01*
X162402280Y-81573000D01*
X162402280Y-83273000D01*
X162424419Y-83390658D01*
X162493955Y-83498721D01*
X162600055Y-83571215D01*
X162726000Y-83596720D01*
X164426000Y-83596720D01*
X164543658Y-83574581D01*
X164651721Y-83505045D01*
X164724215Y-83398945D01*
X164749720Y-83273000D01*
X164749720Y-81573000D01*
X164727581Y-81455342D01*
X164658045Y-81347279D01*
X164551945Y-81274785D01*
X164426000Y-81249280D01*
X162726000Y-81249280D01*
X162608342Y-81271419D01*
X162500279Y-81340955D01*
X162427785Y-81447055D01*
X162402280Y-81573000D01*
X160812720Y-81573000D01*
X160812720Y-80938000D01*
X160790581Y-80820342D01*
X160721045Y-80712279D01*
X160614945Y-80639785D01*
X160489000Y-80614280D01*
X158789000Y-80614280D01*
X158671342Y-80636419D01*
X158563279Y-80705955D01*
X158490785Y-80812055D01*
X158465280Y-80938000D01*
X158465280Y-82638000D01*
X158487419Y-82755658D01*
X158556955Y-82863721D01*
X158663055Y-82936215D01*
X158789000Y-82961720D01*
X159258000Y-82961720D01*
X159258000Y-84629386D01*
X159256322Y-84625325D01*
X159088558Y-84457268D01*
X158869252Y-84366204D01*
X158631790Y-84365997D01*
X158412325Y-84456678D01*
X158244268Y-84624442D01*
X158153204Y-84843748D01*
X158152997Y-85081210D01*
X158115000Y-85081210D01*
X158115000Y-80518000D01*
X158085998Y-80372197D01*
X158003408Y-80248592D01*
X156875816Y-79121000D01*
X165196184Y-79121000D01*
X170053000Y-83977816D01*
X170053000Y-95111280D01*
X169834000Y-95111280D01*
X169716342Y-95133419D01*
X169608279Y-95202955D01*
X169535785Y-95309055D01*
X169510280Y-95435000D01*
X169510280Y-96335000D01*
X169532419Y-96452658D01*
X169601955Y-96560721D01*
X169708055Y-96633215D01*
X169834000Y-96658720D01*
X170048000Y-96658720D01*
X170048000Y-96837280D01*
X169829000Y-96837280D01*
X169711342Y-96859419D01*
X169603279Y-96928955D01*
X169530785Y-97035055D01*
X169505280Y-97161000D01*
X169505280Y-97911000D01*
X169527419Y-98028658D01*
X169596955Y-98136721D01*
X169703055Y-98209215D01*
X169829000Y-98234720D01*
X171029000Y-98234720D01*
X171146658Y-98212581D01*
X171254721Y-98143045D01*
X171327215Y-98036945D01*
X171352720Y-97911000D01*
X171352720Y-97536000D01*
X176609627Y-97536000D01*
X176698498Y-97982783D01*
X176951580Y-98361547D01*
X177330344Y-98614629D01*
X177777127Y-98703500D01*
X177822873Y-98703500D01*
X178269656Y-98614629D01*
X178648420Y-98361547D01*
X178901502Y-97982783D01*
X178990373Y-97536000D01*
X178901502Y-97089217D01*
X178648420Y-96710453D01*
X178269656Y-96457371D01*
X177822873Y-96368500D01*
X177777127Y-96368500D01*
X177330344Y-96457371D01*
X176951580Y-96710453D01*
X176698498Y-97089217D01*
X176609627Y-97536000D01*
X171352720Y-97536000D01*
X171352720Y-97161000D01*
X171330581Y-97043342D01*
X171261045Y-96935279D01*
X171154945Y-96862785D01*
X171029000Y-96837280D01*
X170810000Y-96837280D01*
X170810000Y-96658720D01*
X171034000Y-96658720D01*
X171151658Y-96636581D01*
X171259721Y-96567045D01*
X171332215Y-96460945D01*
X171357720Y-96335000D01*
X171357720Y-95435000D01*
X171335581Y-95317342D01*
X171266045Y-95209279D01*
X171159945Y-95136785D01*
X171034000Y-95111280D01*
X170815000Y-95111280D01*
X170815000Y-94146000D01*
X176626280Y-94146000D01*
X176626280Y-95846000D01*
X176648419Y-95963658D01*
X176717955Y-96071721D01*
X176824055Y-96144215D01*
X176950000Y-96169720D01*
X178650000Y-96169720D01*
X178767658Y-96147581D01*
X178875721Y-96078045D01*
X178948215Y-95971945D01*
X178973720Y-95846000D01*
X178973720Y-94146000D01*
X178951581Y-94028342D01*
X178882045Y-93920279D01*
X178775945Y-93847785D01*
X178650000Y-93822280D01*
X176950000Y-93822280D01*
X176832342Y-93844419D01*
X176724279Y-93913955D01*
X176651785Y-94020055D01*
X176626280Y-94146000D01*
X170815000Y-94146000D01*
X170815000Y-83820005D01*
X170815001Y-83820000D01*
X170785998Y-83674197D01*
X170703408Y-83550592D01*
X165623408Y-78470592D01*
X165499803Y-78388002D01*
X165354000Y-78359000D01*
X146978000Y-78359000D01*
X146832197Y-78388002D01*
X146782688Y-78421083D01*
X146708592Y-78470592D01*
X146708590Y-78470595D01*
X144637592Y-80541592D01*
X144589024Y-80614280D01*
X144057000Y-80614280D01*
X143939342Y-80636419D01*
X143831279Y-80705955D01*
X143758785Y-80812055D01*
X143733280Y-80938000D01*
X143733280Y-82638000D01*
X143755419Y-82755658D01*
X143824955Y-82863721D01*
X143931055Y-82936215D01*
X144057000Y-82961720D01*
X145757000Y-82961720D01*
X145874658Y-82939581D01*
X145982721Y-82870045D01*
X146050000Y-82771578D01*
X146050000Y-83154185D01*
X145765184Y-83439000D01*
X142016815Y-83439000D01*
X141605000Y-83027184D01*
X141605000Y-82961720D01*
X142074000Y-82961720D01*
X142191658Y-82939581D01*
X142299721Y-82870045D01*
X142372215Y-82763945D01*
X142397720Y-82638000D01*
X142397720Y-80938000D01*
X142375581Y-80820342D01*
X142306045Y-80712279D01*
X142199945Y-80639785D01*
X142074000Y-80614280D01*
X140374000Y-80614280D01*
X140256342Y-80636419D01*
X140148279Y-80705955D01*
X140075785Y-80812055D01*
X140050280Y-80938000D01*
X140050280Y-82638000D01*
X140072419Y-82755658D01*
X140141955Y-82863721D01*
X140248055Y-82936215D01*
X140374000Y-82961720D01*
X140843000Y-82961720D01*
X140843000Y-83185000D01*
X140872002Y-83330803D01*
X140954592Y-83454408D01*
X141589590Y-84089405D01*
X141589592Y-84089408D01*
X141713198Y-84171998D01*
X141859000Y-84201001D01*
X141859005Y-84201000D01*
X145923000Y-84201000D01*
X146043067Y-84177117D01*
X145511184Y-84709000D01*
X138460815Y-84709000D01*
X137922000Y-84170184D01*
X137922000Y-82961720D01*
X138391000Y-82961720D01*
X138508658Y-82939581D01*
X138616721Y-82870045D01*
X138689215Y-82763945D01*
X138714720Y-82638000D01*
X138714720Y-80938000D01*
X138692581Y-80820342D01*
X138623045Y-80712279D01*
X138516945Y-80639785D01*
X138391000Y-80614280D01*
X136691000Y-80614280D01*
X136573342Y-80636419D01*
X136465279Y-80705955D01*
X136392785Y-80812055D01*
X136367280Y-80938000D01*
X135031720Y-80938000D01*
X135009581Y-80820342D01*
X134940045Y-80712279D01*
X134833945Y-80639785D01*
X134708000Y-80614280D01*
X133008000Y-80614280D01*
X132890342Y-80636419D01*
X132782279Y-80705955D01*
X132709785Y-80812055D01*
X132684280Y-80938000D01*
X127392500Y-80938000D01*
X127392500Y-76592500D01*
X179947500Y-76592500D01*
X179947500Y-144387500D01*
M02*
