G04 #@! TF.FileFunction,Legend,Top*
%FSLAX46Y46*%
G04 Gerber Fmt 4.6, Leading zero omitted, Abs format (unit mm)*
G04 Created by KiCad (PCBNEW 4.0.7) date 04/28/18 13:58:35*
%MOMM*%
%LPD*%
G01*
G04 APERTURE LIST*
%ADD10C,0.100000*%
%ADD11C,0.127000*%
%ADD12C,0.150000*%
%ADD13C,0.120000*%
%ADD14C,0.152400*%
%ADD15C,0.101600*%
%ADD16C,0.076200*%
%ADD17C,1.906220*%
%ADD18C,4.464000*%
%ADD19R,2.100000X2.100000*%
%ADD20O,2.100000X2.100000*%
%ADD21R,2.200000X5.400000*%
%ADD22R,0.704800X1.212800*%
%ADD23R,1.212800X0.704800*%
%ADD24R,7.893000X7.893000*%
%ADD25R,1.460000X1.050000*%
%ADD26R,1.850000X0.850000*%
%ADD27R,1.150000X1.600000*%
%ADD28R,1.600000X1.150000*%
%ADD29R,1.600000X1.300000*%
%ADD30R,1.300000X1.600000*%
G04 APERTURE END LIST*
D10*
D11*
X131989286Y-87121999D02*
X131989286Y-87629999D01*
X131227286Y-87121999D01*
X131227286Y-87629999D01*
X131626429Y-87920285D02*
X131626429Y-88174285D01*
X131227286Y-88283142D02*
X131227286Y-87920285D01*
X131989286Y-87920285D01*
X131989286Y-88283142D01*
X131445000Y-88573428D02*
X131445000Y-88936285D01*
X131227286Y-88500856D02*
X131989286Y-88754856D01*
X131227286Y-89008856D01*
X131626429Y-89516857D02*
X131590143Y-89625714D01*
X131553857Y-89661999D01*
X131481286Y-89698285D01*
X131372429Y-89698285D01*
X131299857Y-89661999D01*
X131263571Y-89625714D01*
X131227286Y-89553142D01*
X131227286Y-89262857D01*
X131989286Y-89262857D01*
X131989286Y-89516857D01*
X131953000Y-89589428D01*
X131916714Y-89625714D01*
X131844143Y-89661999D01*
X131771571Y-89661999D01*
X131699000Y-89625714D01*
X131662714Y-89589428D01*
X131626429Y-89516857D01*
X131626429Y-89262857D01*
X131989286Y-90024857D02*
X131372429Y-90024857D01*
X131299857Y-90061142D01*
X131263571Y-90097428D01*
X131227286Y-90169999D01*
X131227286Y-90315142D01*
X131263571Y-90387714D01*
X131299857Y-90423999D01*
X131372429Y-90460285D01*
X131989286Y-90460285D01*
X131263571Y-90786857D02*
X131227286Y-90895714D01*
X131227286Y-91077143D01*
X131263571Y-91149714D01*
X131299857Y-91186000D01*
X131372429Y-91222285D01*
X131445000Y-91222285D01*
X131517571Y-91186000D01*
X131553857Y-91149714D01*
X131590143Y-91077143D01*
X131626429Y-90932000D01*
X131662714Y-90859428D01*
X131699000Y-90823143D01*
X131771571Y-90786857D01*
X131844143Y-90786857D01*
X131916714Y-90823143D01*
X131953000Y-90859428D01*
X131989286Y-90932000D01*
X131989286Y-91113428D01*
X131953000Y-91222285D01*
X131227286Y-92129428D02*
X131989286Y-92129428D01*
X131626429Y-92129428D02*
X131626429Y-92564856D01*
X131227286Y-92564856D02*
X131989286Y-92564856D01*
X131735286Y-92855142D02*
X131227286Y-93036571D01*
X131735286Y-93217999D02*
X131227286Y-93036571D01*
X131045857Y-92963999D01*
X131009571Y-92927714D01*
X130973286Y-92855142D01*
X131227286Y-93834856D02*
X131989286Y-93834856D01*
X131263571Y-93834856D02*
X131227286Y-93762285D01*
X131227286Y-93617142D01*
X131263571Y-93544570D01*
X131299857Y-93508285D01*
X131372429Y-93471999D01*
X131590143Y-93471999D01*
X131662714Y-93508285D01*
X131699000Y-93544570D01*
X131735286Y-93617142D01*
X131735286Y-93762285D01*
X131699000Y-93834856D01*
X131227286Y-94197714D02*
X131735286Y-94197714D01*
X131590143Y-94197714D02*
X131662714Y-94233999D01*
X131699000Y-94270285D01*
X131735286Y-94342856D01*
X131735286Y-94415428D01*
X131227286Y-94778285D02*
X131263571Y-94705713D01*
X131299857Y-94669428D01*
X131372429Y-94633142D01*
X131590143Y-94633142D01*
X131662714Y-94669428D01*
X131699000Y-94705713D01*
X131735286Y-94778285D01*
X131735286Y-94887142D01*
X131699000Y-94959713D01*
X131662714Y-94995999D01*
X131590143Y-95032285D01*
X131372429Y-95032285D01*
X131299857Y-94995999D01*
X131263571Y-94959713D01*
X131227286Y-94887142D01*
X131227286Y-94778285D01*
X131735286Y-95358857D02*
X130973286Y-95358857D01*
X131699000Y-95358857D02*
X131735286Y-95431428D01*
X131735286Y-95576571D01*
X131699000Y-95649142D01*
X131662714Y-95685428D01*
X131590143Y-95721714D01*
X131372429Y-95721714D01*
X131299857Y-95685428D01*
X131263571Y-95649142D01*
X131227286Y-95576571D01*
X131227286Y-95431428D01*
X131263571Y-95358857D01*
X131227286Y-96048286D02*
X131989286Y-96048286D01*
X131227286Y-96374857D02*
X131626429Y-96374857D01*
X131699000Y-96338571D01*
X131735286Y-96266000D01*
X131735286Y-96157143D01*
X131699000Y-96084571D01*
X131662714Y-96048286D01*
X131227286Y-96846572D02*
X131263571Y-96774000D01*
X131299857Y-96737715D01*
X131372429Y-96701429D01*
X131590143Y-96701429D01*
X131662714Y-96737715D01*
X131699000Y-96774000D01*
X131735286Y-96846572D01*
X131735286Y-96955429D01*
X131699000Y-97028000D01*
X131662714Y-97064286D01*
X131590143Y-97100572D01*
X131372429Y-97100572D01*
X131299857Y-97064286D01*
X131263571Y-97028000D01*
X131227286Y-96955429D01*
X131227286Y-96846572D01*
X131735286Y-97427144D02*
X131227286Y-97427144D01*
X131662714Y-97427144D02*
X131699000Y-97463429D01*
X131735286Y-97536001D01*
X131735286Y-97644858D01*
X131699000Y-97717429D01*
X131626429Y-97753715D01*
X131227286Y-97753715D01*
X131263571Y-98406858D02*
X131227286Y-98334287D01*
X131227286Y-98189144D01*
X131263571Y-98116573D01*
X131336143Y-98080287D01*
X131626429Y-98080287D01*
X131699000Y-98116573D01*
X131735286Y-98189144D01*
X131735286Y-98334287D01*
X131699000Y-98406858D01*
X131626429Y-98443144D01*
X131553857Y-98443144D01*
X131481286Y-98080287D01*
X129993571Y-87938428D02*
X129957286Y-88047285D01*
X129957286Y-88228714D01*
X129993571Y-88301285D01*
X130029857Y-88337571D01*
X130102429Y-88373856D01*
X130175000Y-88373856D01*
X130247571Y-88337571D01*
X130283857Y-88301285D01*
X130320143Y-88228714D01*
X130356429Y-88083571D01*
X130392714Y-88010999D01*
X130429000Y-87974714D01*
X130501571Y-87938428D01*
X130574143Y-87938428D01*
X130646714Y-87974714D01*
X130683000Y-88010999D01*
X130719286Y-88083571D01*
X130719286Y-88264999D01*
X130683000Y-88373856D01*
X129993571Y-88990713D02*
X129957286Y-88918142D01*
X129957286Y-88772999D01*
X129993571Y-88700428D01*
X130066143Y-88664142D01*
X130356429Y-88664142D01*
X130429000Y-88700428D01*
X130465286Y-88772999D01*
X130465286Y-88918142D01*
X130429000Y-88990713D01*
X130356429Y-89026999D01*
X130283857Y-89026999D01*
X130211286Y-88664142D01*
X130465286Y-89353571D02*
X129957286Y-89353571D01*
X130392714Y-89353571D02*
X130429000Y-89389856D01*
X130465286Y-89462428D01*
X130465286Y-89571285D01*
X130429000Y-89643856D01*
X130356429Y-89680142D01*
X129957286Y-89680142D01*
X129993571Y-90006714D02*
X129957286Y-90079285D01*
X129957286Y-90224428D01*
X129993571Y-90297000D01*
X130066143Y-90333285D01*
X130102429Y-90333285D01*
X130175000Y-90297000D01*
X130211286Y-90224428D01*
X130211286Y-90115571D01*
X130247571Y-90043000D01*
X130320143Y-90006714D01*
X130356429Y-90006714D01*
X130429000Y-90043000D01*
X130465286Y-90115571D01*
X130465286Y-90224428D01*
X130429000Y-90297000D01*
X129957286Y-90768714D02*
X129993571Y-90696142D01*
X130029857Y-90659857D01*
X130102429Y-90623571D01*
X130320143Y-90623571D01*
X130392714Y-90659857D01*
X130429000Y-90696142D01*
X130465286Y-90768714D01*
X130465286Y-90877571D01*
X130429000Y-90950142D01*
X130392714Y-90986428D01*
X130320143Y-91022714D01*
X130102429Y-91022714D01*
X130029857Y-90986428D01*
X129993571Y-90950142D01*
X129957286Y-90877571D01*
X129957286Y-90768714D01*
X129957286Y-91349286D02*
X130465286Y-91349286D01*
X130320143Y-91349286D02*
X130392714Y-91385571D01*
X130429000Y-91421857D01*
X130465286Y-91494428D01*
X130465286Y-91567000D01*
X130356429Y-92655571D02*
X130356429Y-92401571D01*
X129957286Y-92401571D02*
X130719286Y-92401571D01*
X130719286Y-92764428D01*
X129957286Y-93054714D02*
X130465286Y-93054714D01*
X130320143Y-93054714D02*
X130392714Y-93090999D01*
X130429000Y-93127285D01*
X130465286Y-93199856D01*
X130465286Y-93272428D01*
X129957286Y-93635285D02*
X129993571Y-93562713D01*
X130029857Y-93526428D01*
X130102429Y-93490142D01*
X130320143Y-93490142D01*
X130392714Y-93526428D01*
X130429000Y-93562713D01*
X130465286Y-93635285D01*
X130465286Y-93744142D01*
X130429000Y-93816713D01*
X130392714Y-93852999D01*
X130320143Y-93889285D01*
X130102429Y-93889285D01*
X130029857Y-93852999D01*
X129993571Y-93816713D01*
X129957286Y-93744142D01*
X129957286Y-93635285D01*
X130465286Y-94215857D02*
X129957286Y-94215857D01*
X130392714Y-94215857D02*
X130429000Y-94252142D01*
X130465286Y-94324714D01*
X130465286Y-94433571D01*
X130429000Y-94506142D01*
X130356429Y-94542428D01*
X129957286Y-94542428D01*
X130465286Y-94796428D02*
X130465286Y-95086714D01*
X130719286Y-94905286D02*
X130066143Y-94905286D01*
X129993571Y-94941571D01*
X129957286Y-95014143D01*
X129957286Y-95086714D01*
X130356429Y-95921286D02*
X130356429Y-96175286D01*
X129957286Y-96284143D02*
X129957286Y-95921286D01*
X130719286Y-95921286D01*
X130719286Y-96284143D01*
X130465286Y-96610715D02*
X129957286Y-96610715D01*
X130392714Y-96610715D02*
X130429000Y-96647000D01*
X130465286Y-96719572D01*
X130465286Y-96828429D01*
X130429000Y-96901000D01*
X130356429Y-96937286D01*
X129957286Y-96937286D01*
X129957286Y-97626715D02*
X130719286Y-97626715D01*
X129993571Y-97626715D02*
X129957286Y-97554144D01*
X129957286Y-97409001D01*
X129993571Y-97336429D01*
X130029857Y-97300144D01*
X130102429Y-97263858D01*
X130320143Y-97263858D01*
X130392714Y-97300144D01*
X130429000Y-97336429D01*
X130465286Y-97409001D01*
X130465286Y-97554144D01*
X130429000Y-97626715D01*
X128687286Y-91458143D02*
X129050143Y-91204143D01*
X128687286Y-91022715D02*
X129449286Y-91022715D01*
X129449286Y-91313000D01*
X129413000Y-91385572D01*
X129376714Y-91421857D01*
X129304143Y-91458143D01*
X129195286Y-91458143D01*
X129122714Y-91421857D01*
X129086429Y-91385572D01*
X129050143Y-91313000D01*
X129050143Y-91022715D01*
X129086429Y-91784715D02*
X129086429Y-92038715D01*
X128687286Y-92147572D02*
X128687286Y-91784715D01*
X129449286Y-91784715D01*
X129449286Y-92147572D01*
X129449286Y-92365286D02*
X128687286Y-92619286D01*
X129449286Y-92873286D01*
X128687286Y-94107000D02*
X128687286Y-93671572D01*
X128687286Y-93889286D02*
X129449286Y-93889286D01*
X129340429Y-93816715D01*
X129267857Y-93744143D01*
X129231571Y-93671572D01*
X128759857Y-94433572D02*
X128723571Y-94469857D01*
X128687286Y-94433572D01*
X128723571Y-94397286D01*
X128759857Y-94433572D01*
X128687286Y-94433572D01*
X129449286Y-94941571D02*
X129449286Y-95014143D01*
X129413000Y-95086714D01*
X129376714Y-95123000D01*
X129304143Y-95159286D01*
X129159000Y-95195571D01*
X128977571Y-95195571D01*
X128832429Y-95159286D01*
X128759857Y-95123000D01*
X128723571Y-95086714D01*
X128687286Y-95014143D01*
X128687286Y-94941571D01*
X128723571Y-94869000D01*
X128759857Y-94832714D01*
X128832429Y-94796429D01*
X128977571Y-94760143D01*
X129159000Y-94760143D01*
X129304143Y-94796429D01*
X129376714Y-94832714D01*
X129413000Y-94869000D01*
X129449286Y-94941571D01*
X141568714Y-79211714D02*
X141568714Y-79647142D01*
X141568714Y-79429428D02*
X140806714Y-79429428D01*
X140915571Y-79501999D01*
X140988143Y-79574571D01*
X141024429Y-79647142D01*
X141568714Y-78522285D02*
X141568714Y-78885142D01*
X140806714Y-78885142D01*
X141568714Y-78268285D02*
X140806714Y-78268285D01*
X140806714Y-77978000D01*
X140843000Y-77905428D01*
X140879286Y-77869143D01*
X140951857Y-77832857D01*
X141060714Y-77832857D01*
X141133286Y-77869143D01*
X141169571Y-77905428D01*
X141205857Y-77978000D01*
X141205857Y-78268285D01*
X162269714Y-79375000D02*
X162197143Y-79338714D01*
X162088286Y-79338714D01*
X161979429Y-79375000D01*
X161906857Y-79447571D01*
X161870572Y-79520143D01*
X161834286Y-79665286D01*
X161834286Y-79774143D01*
X161870572Y-79919286D01*
X161906857Y-79991857D01*
X161979429Y-80064429D01*
X162088286Y-80100714D01*
X162160857Y-80100714D01*
X162269714Y-80064429D01*
X162306000Y-80028143D01*
X162306000Y-79774143D01*
X162160857Y-79774143D01*
X162596286Y-79883000D02*
X162959143Y-79883000D01*
X162523714Y-80100714D02*
X162777714Y-79338714D01*
X163031714Y-80100714D01*
X163285715Y-80100714D02*
X163285715Y-79338714D01*
X163648572Y-80100714D02*
X163648572Y-79338714D01*
X164084000Y-80100714D01*
X164084000Y-79338714D01*
X164374286Y-79338714D02*
X164846000Y-79338714D01*
X164592000Y-79629000D01*
X164700858Y-79629000D01*
X164773429Y-79665286D01*
X164809715Y-79701571D01*
X164846000Y-79774143D01*
X164846000Y-79955571D01*
X164809715Y-80028143D01*
X164773429Y-80064429D01*
X164700858Y-80100714D01*
X164483143Y-80100714D01*
X164410572Y-80064429D01*
X164374286Y-80028143D01*
X165499143Y-79592714D02*
X165499143Y-80100714D01*
X165317714Y-79302429D02*
X165136286Y-79846714D01*
X165608000Y-79846714D01*
X162269714Y-77851000D02*
X162197143Y-77814714D01*
X162088286Y-77814714D01*
X161979429Y-77851000D01*
X161906857Y-77923571D01*
X161870572Y-77996143D01*
X161834286Y-78141286D01*
X161834286Y-78250143D01*
X161870572Y-78395286D01*
X161906857Y-78467857D01*
X161979429Y-78540429D01*
X162088286Y-78576714D01*
X162160857Y-78576714D01*
X162269714Y-78540429D01*
X162306000Y-78504143D01*
X162306000Y-78250143D01*
X162160857Y-78250143D01*
X162596286Y-78359000D02*
X162959143Y-78359000D01*
X162523714Y-78576714D02*
X162777714Y-77814714D01*
X163031714Y-78576714D01*
X163285715Y-78576714D02*
X163285715Y-77814714D01*
X163648572Y-78576714D02*
X163648572Y-77814714D01*
X164084000Y-78576714D01*
X164084000Y-77814714D01*
X164846000Y-78576714D02*
X164410572Y-78576714D01*
X164628286Y-78576714D02*
X164628286Y-77814714D01*
X164555715Y-77923571D01*
X164483143Y-77996143D01*
X164410572Y-78032429D01*
X165136286Y-77887286D02*
X165172572Y-77851000D01*
X165245143Y-77814714D01*
X165426572Y-77814714D01*
X165499143Y-77851000D01*
X165535429Y-77887286D01*
X165571714Y-77959857D01*
X165571714Y-78032429D01*
X165535429Y-78141286D01*
X165100000Y-78576714D01*
X165571714Y-78576714D01*
X159294286Y-79737857D02*
X159258000Y-79701571D01*
X159221714Y-79629000D01*
X159221714Y-79447571D01*
X159258000Y-79375000D01*
X159294286Y-79338714D01*
X159366857Y-79302429D01*
X159439429Y-79302429D01*
X159548286Y-79338714D01*
X159983714Y-79774143D01*
X159983714Y-79302429D01*
X159983714Y-78540429D02*
X159620857Y-78794429D01*
X159983714Y-78975857D02*
X159221714Y-78975857D01*
X159221714Y-78685572D01*
X159258000Y-78613000D01*
X159294286Y-78576715D01*
X159366857Y-78540429D01*
X159475714Y-78540429D01*
X159548286Y-78576715D01*
X159584571Y-78613000D01*
X159620857Y-78685572D01*
X159620857Y-78975857D01*
X159983714Y-78213857D02*
X159221714Y-78213857D01*
X159983714Y-77778429D01*
X159221714Y-77778429D01*
X144562286Y-79592714D02*
X144526000Y-79556428D01*
X144489714Y-79483857D01*
X144489714Y-79302428D01*
X144526000Y-79229857D01*
X144562286Y-79193571D01*
X144634857Y-79157286D01*
X144707429Y-79157286D01*
X144816286Y-79193571D01*
X145251714Y-79629000D01*
X145251714Y-79157286D01*
X145251714Y-78395286D02*
X144888857Y-78649286D01*
X145251714Y-78830714D02*
X144489714Y-78830714D01*
X144489714Y-78540429D01*
X144526000Y-78467857D01*
X144562286Y-78431572D01*
X144634857Y-78395286D01*
X144743714Y-78395286D01*
X144816286Y-78431572D01*
X144852571Y-78467857D01*
X144888857Y-78540429D01*
X144888857Y-78830714D01*
X145251714Y-78068714D02*
X144489714Y-78068714D01*
X144489714Y-77778429D01*
X144526000Y-77705857D01*
X144562286Y-77669572D01*
X144634857Y-77633286D01*
X144743714Y-77633286D01*
X144816286Y-77669572D01*
X144852571Y-77705857D01*
X144888857Y-77778429D01*
X144888857Y-78068714D01*
X155611286Y-79665285D02*
X155575000Y-79628999D01*
X155538714Y-79556428D01*
X155538714Y-79374999D01*
X155575000Y-79302428D01*
X155611286Y-79266142D01*
X155683857Y-79229857D01*
X155756429Y-79229857D01*
X155865286Y-79266142D01*
X156300714Y-79701571D01*
X156300714Y-79229857D01*
X156300714Y-78540428D02*
X156300714Y-78903285D01*
X155538714Y-78903285D01*
X156300714Y-78286428D02*
X155538714Y-78286428D01*
X156300714Y-77851000D01*
X155538714Y-77851000D01*
X137885714Y-79284286D02*
X137885714Y-79719714D01*
X137885714Y-79502000D02*
X137123714Y-79502000D01*
X137232571Y-79574571D01*
X137305143Y-79647143D01*
X137341429Y-79719714D01*
X137885714Y-78522286D02*
X137522857Y-78776286D01*
X137885714Y-78957714D02*
X137123714Y-78957714D01*
X137123714Y-78667429D01*
X137160000Y-78594857D01*
X137196286Y-78558572D01*
X137268857Y-78522286D01*
X137377714Y-78522286D01*
X137450286Y-78558572D01*
X137486571Y-78594857D01*
X137522857Y-78667429D01*
X137522857Y-78957714D01*
X137885714Y-78195714D02*
X137123714Y-78195714D01*
X137123714Y-77905429D01*
X137160000Y-77832857D01*
X137196286Y-77796572D01*
X137268857Y-77760286D01*
X137377714Y-77760286D01*
X137450286Y-77796572D01*
X137486571Y-77832857D01*
X137522857Y-77905429D01*
X137522857Y-78195714D01*
X134202714Y-79211714D02*
X134202714Y-79647142D01*
X134202714Y-79429428D02*
X133440714Y-79429428D01*
X133549571Y-79501999D01*
X133622143Y-79574571D01*
X133658429Y-79647142D01*
X134202714Y-78522285D02*
X134202714Y-78885142D01*
X133440714Y-78885142D01*
X134202714Y-78268285D02*
X133440714Y-78268285D01*
X133440714Y-77978000D01*
X133477000Y-77905428D01*
X133513286Y-77869143D01*
X133585857Y-77832857D01*
X133694714Y-77832857D01*
X133767286Y-77869143D01*
X133803571Y-77905428D01*
X133839857Y-77978000D01*
X133839857Y-78268285D01*
X148934714Y-79229857D02*
X148934714Y-79665285D01*
X148934714Y-79447571D02*
X148172714Y-79447571D01*
X148281571Y-79520142D01*
X148354143Y-79592714D01*
X148390429Y-79665285D01*
X148934714Y-78540428D02*
X148934714Y-78903285D01*
X148172714Y-78903285D01*
X148934714Y-78286428D02*
X148172714Y-78286428D01*
X148934714Y-77851000D01*
X148172714Y-77851000D01*
X152744714Y-79302429D02*
X152744714Y-79737857D01*
X152744714Y-79520143D02*
X151982714Y-79520143D01*
X152091571Y-79592714D01*
X152164143Y-79665286D01*
X152200429Y-79737857D01*
X152744714Y-78540429D02*
X152381857Y-78794429D01*
X152744714Y-78975857D02*
X151982714Y-78975857D01*
X151982714Y-78685572D01*
X152019000Y-78613000D01*
X152055286Y-78576715D01*
X152127857Y-78540429D01*
X152236714Y-78540429D01*
X152309286Y-78576715D01*
X152345571Y-78613000D01*
X152381857Y-78685572D01*
X152381857Y-78975857D01*
X152744714Y-78213857D02*
X151982714Y-78213857D01*
X152744714Y-77778429D01*
X151982714Y-77778429D01*
X180013429Y-98461285D02*
X180049714Y-98352428D01*
X180049714Y-98170999D01*
X180013429Y-98098428D01*
X179977143Y-98062142D01*
X179904571Y-98025857D01*
X179832000Y-98025857D01*
X179759429Y-98062142D01*
X179723143Y-98098428D01*
X179686857Y-98170999D01*
X179650571Y-98316142D01*
X179614286Y-98388714D01*
X179578000Y-98424999D01*
X179505429Y-98461285D01*
X179432857Y-98461285D01*
X179360286Y-98424999D01*
X179324000Y-98388714D01*
X179287714Y-98316142D01*
X179287714Y-98134714D01*
X179324000Y-98025857D01*
X180049714Y-97699285D02*
X179287714Y-97699285D01*
X179287714Y-97517857D01*
X179324000Y-97409000D01*
X179396571Y-97336428D01*
X179469143Y-97300143D01*
X179614286Y-97263857D01*
X179723143Y-97263857D01*
X179868286Y-97300143D01*
X179940857Y-97336428D01*
X180013429Y-97409000D01*
X180049714Y-97517857D01*
X180049714Y-97699285D01*
X179832000Y-96973571D02*
X179832000Y-96610714D01*
X180049714Y-97046143D02*
X179287714Y-96792143D01*
X180049714Y-96538143D01*
X180013429Y-95903142D02*
X180049714Y-95794285D01*
X180049714Y-95612856D01*
X180013429Y-95540285D01*
X179977143Y-95503999D01*
X179904571Y-95467714D01*
X179832000Y-95467714D01*
X179759429Y-95503999D01*
X179723143Y-95540285D01*
X179686857Y-95612856D01*
X179650571Y-95757999D01*
X179614286Y-95830571D01*
X179578000Y-95866856D01*
X179505429Y-95903142D01*
X179432857Y-95903142D01*
X179360286Y-95866856D01*
X179324000Y-95830571D01*
X179287714Y-95757999D01*
X179287714Y-95576571D01*
X179324000Y-95467714D01*
X179977143Y-94705714D02*
X180013429Y-94742000D01*
X180049714Y-94850857D01*
X180049714Y-94923428D01*
X180013429Y-95032285D01*
X179940857Y-95104857D01*
X179868286Y-95141142D01*
X179723143Y-95177428D01*
X179614286Y-95177428D01*
X179469143Y-95141142D01*
X179396571Y-95104857D01*
X179324000Y-95032285D01*
X179287714Y-94923428D01*
X179287714Y-94850857D01*
X179324000Y-94742000D01*
X179360286Y-94705714D01*
X180049714Y-94016285D02*
X180049714Y-94379142D01*
X179287714Y-94379142D01*
X127473000Y-134055715D02*
X127473000Y-134418572D01*
X127255286Y-133983143D02*
X128017286Y-134237143D01*
X127255286Y-134491143D01*
X128017286Y-134672572D02*
X128017286Y-135144286D01*
X127727000Y-134890286D01*
X127727000Y-134999144D01*
X127690714Y-135071715D01*
X127654429Y-135108001D01*
X127581857Y-135144286D01*
X127400429Y-135144286D01*
X127327857Y-135108001D01*
X127291571Y-135071715D01*
X127255286Y-134999144D01*
X127255286Y-134781429D01*
X127291571Y-134708858D01*
X127327857Y-134672572D01*
X127473000Y-131535715D02*
X127473000Y-131898572D01*
X127255286Y-131463143D02*
X128017286Y-131717143D01*
X127255286Y-131971143D01*
X127944714Y-132188858D02*
X127981000Y-132225144D01*
X128017286Y-132297715D01*
X128017286Y-132479144D01*
X127981000Y-132551715D01*
X127944714Y-132588001D01*
X127872143Y-132624286D01*
X127799571Y-132624286D01*
X127690714Y-132588001D01*
X127255286Y-132152572D01*
X127255286Y-132624286D01*
X127473000Y-128995715D02*
X127473000Y-129358572D01*
X127255286Y-128923143D02*
X128017286Y-129177143D01*
X127255286Y-129431143D01*
X127255286Y-130084286D02*
X127255286Y-129648858D01*
X127255286Y-129866572D02*
X128017286Y-129866572D01*
X127908429Y-129794001D01*
X127835857Y-129721429D01*
X127799571Y-129648858D01*
X127473000Y-126455715D02*
X127473000Y-126818572D01*
X127255286Y-126383143D02*
X128017286Y-126637143D01*
X127255286Y-126891143D01*
X128017286Y-127290286D02*
X128017286Y-127362858D01*
X127981000Y-127435429D01*
X127944714Y-127471715D01*
X127872143Y-127508001D01*
X127727000Y-127544286D01*
X127545571Y-127544286D01*
X127400429Y-127508001D01*
X127327857Y-127471715D01*
X127291571Y-127435429D01*
X127255286Y-127362858D01*
X127255286Y-127290286D01*
X127291571Y-127217715D01*
X127327857Y-127181429D01*
X127400429Y-127145144D01*
X127545571Y-127108858D01*
X127727000Y-127108858D01*
X127872143Y-127145144D01*
X127944714Y-127181429D01*
X127981000Y-127217715D01*
X128017286Y-127290286D01*
X128016000Y-117202857D02*
X128052286Y-117130286D01*
X128052286Y-117021429D01*
X128016000Y-116912572D01*
X127943429Y-116840000D01*
X127870857Y-116803715D01*
X127725714Y-116767429D01*
X127616857Y-116767429D01*
X127471714Y-116803715D01*
X127399143Y-116840000D01*
X127326571Y-116912572D01*
X127290286Y-117021429D01*
X127290286Y-117094000D01*
X127326571Y-117202857D01*
X127362857Y-117239143D01*
X127616857Y-117239143D01*
X127616857Y-117094000D01*
X127290286Y-117565715D02*
X128052286Y-117565715D01*
X127290286Y-118001143D01*
X128052286Y-118001143D01*
X127290286Y-118364001D02*
X128052286Y-118364001D01*
X128052286Y-118545429D01*
X128016000Y-118654286D01*
X127943429Y-118726858D01*
X127870857Y-118763143D01*
X127725714Y-118799429D01*
X127616857Y-118799429D01*
X127471714Y-118763143D01*
X127399143Y-118726858D01*
X127326571Y-118654286D01*
X127290286Y-118545429D01*
X127290286Y-118364001D01*
X127508000Y-119089715D02*
X127508000Y-119452572D01*
X127290286Y-119017143D02*
X128052286Y-119271143D01*
X127290286Y-119525143D01*
X128052286Y-114154858D02*
X128052286Y-113792001D01*
X127689429Y-113755715D01*
X127725714Y-113792001D01*
X127762000Y-113864572D01*
X127762000Y-114046001D01*
X127725714Y-114118572D01*
X127689429Y-114154858D01*
X127616857Y-114191143D01*
X127435429Y-114191143D01*
X127362857Y-114154858D01*
X127326571Y-114118572D01*
X127290286Y-114046001D01*
X127290286Y-113864572D01*
X127326571Y-113792001D01*
X127362857Y-113755715D01*
X128052286Y-114408857D02*
X127290286Y-114662857D01*
X128052286Y-114916857D01*
X128052286Y-110816572D02*
X128052286Y-111288286D01*
X127762000Y-111034286D01*
X127762000Y-111143144D01*
X127725714Y-111215715D01*
X127689429Y-111252001D01*
X127616857Y-111288286D01*
X127435429Y-111288286D01*
X127362857Y-111252001D01*
X127326571Y-111215715D01*
X127290286Y-111143144D01*
X127290286Y-110925429D01*
X127326571Y-110852858D01*
X127362857Y-110816572D01*
X128052286Y-111506000D02*
X127290286Y-111760000D01*
X128052286Y-112014000D01*
X128052286Y-112195429D02*
X128052286Y-112667143D01*
X127762000Y-112413143D01*
X127762000Y-112522001D01*
X127725714Y-112594572D01*
X127689429Y-112630858D01*
X127616857Y-112667143D01*
X127435429Y-112667143D01*
X127362857Y-112630858D01*
X127326571Y-112594572D01*
X127290286Y-112522001D01*
X127290286Y-112304286D01*
X127326571Y-112231715D01*
X127362857Y-112195429D01*
X171238858Y-119744714D02*
X171238858Y-118982714D01*
X171601715Y-119744714D02*
X171601715Y-118982714D01*
X172037143Y-119744714D01*
X172037143Y-118982714D01*
X172400001Y-119744714D02*
X172400001Y-118982714D01*
X172400001Y-119345571D02*
X172835429Y-119345571D01*
X172835429Y-119744714D02*
X172835429Y-118982714D01*
X173524858Y-119236714D02*
X173524858Y-119744714D01*
X173343429Y-118946429D02*
X173162001Y-119490714D01*
X173633715Y-119490714D01*
X159638858Y-119744714D02*
X159638858Y-118982714D01*
X160001715Y-119744714D02*
X160001715Y-118982714D01*
X160437143Y-119744714D01*
X160437143Y-118982714D01*
X160800001Y-119744714D02*
X160800001Y-118982714D01*
X160800001Y-119345571D02*
X161235429Y-119345571D01*
X161235429Y-119744714D02*
X161235429Y-118982714D01*
X161525715Y-118982714D02*
X161997429Y-118982714D01*
X161743429Y-119273000D01*
X161852287Y-119273000D01*
X161924858Y-119309286D01*
X161961144Y-119345571D01*
X161997429Y-119418143D01*
X161997429Y-119599571D01*
X161961144Y-119672143D01*
X161924858Y-119708429D01*
X161852287Y-119744714D01*
X161634572Y-119744714D01*
X161562001Y-119708429D01*
X161525715Y-119672143D01*
X147838858Y-119744714D02*
X147838858Y-118982714D01*
X148201715Y-119744714D02*
X148201715Y-118982714D01*
X148637143Y-119744714D01*
X148637143Y-118982714D01*
X149000001Y-119744714D02*
X149000001Y-118982714D01*
X149000001Y-119345571D02*
X149435429Y-119345571D01*
X149435429Y-119744714D02*
X149435429Y-118982714D01*
X149762001Y-119055286D02*
X149798287Y-119019000D01*
X149870858Y-118982714D01*
X150052287Y-118982714D01*
X150124858Y-119019000D01*
X150161144Y-119055286D01*
X150197429Y-119127857D01*
X150197429Y-119200429D01*
X150161144Y-119309286D01*
X149725715Y-119744714D01*
X150197429Y-119744714D01*
X136088858Y-119744714D02*
X136088858Y-118982714D01*
X136451715Y-119744714D02*
X136451715Y-118982714D01*
X136887143Y-119744714D01*
X136887143Y-118982714D01*
X137250001Y-119744714D02*
X137250001Y-118982714D01*
X137250001Y-119345571D02*
X137685429Y-119345571D01*
X137685429Y-119744714D02*
X137685429Y-118982714D01*
X138447429Y-119744714D02*
X138012001Y-119744714D01*
X138229715Y-119744714D02*
X138229715Y-118982714D01*
X138157144Y-119091571D01*
X138084572Y-119164143D01*
X138012001Y-119200429D01*
D12*
X177673000Y-78867000D02*
G75*
G03X177673000Y-78867000I-2286000J0D01*
G01*
D13*
X176470000Y-119186000D02*
X179130000Y-119186000D01*
X176470000Y-96266000D02*
X176470000Y-119186000D01*
X179130000Y-96266000D02*
X179130000Y-119186000D01*
X176470000Y-96266000D02*
X179130000Y-96266000D01*
X176470000Y-94996000D02*
X176470000Y-93666000D01*
X176470000Y-93666000D02*
X177800000Y-93666000D01*
X128210000Y-123250000D02*
X130870000Y-123250000D01*
X128210000Y-105410000D02*
X128210000Y-123250000D01*
X130870000Y-105410000D02*
X130870000Y-123250000D01*
X128210000Y-105410000D02*
X130870000Y-105410000D01*
X128210000Y-104140000D02*
X128210000Y-102810000D01*
X128210000Y-102810000D02*
X129540000Y-102810000D01*
X176470000Y-141030000D02*
X179130000Y-141030000D01*
X176470000Y-123190000D02*
X176470000Y-141030000D01*
X179130000Y-123190000D02*
X179130000Y-141030000D01*
X176470000Y-123190000D02*
X179130000Y-123190000D01*
X176470000Y-121920000D02*
X176470000Y-120590000D01*
X176470000Y-120590000D02*
X177800000Y-120590000D01*
X128210000Y-141030000D02*
X130870000Y-141030000D01*
X128210000Y-128270000D02*
X128210000Y-141030000D01*
X130870000Y-128270000D02*
X130870000Y-141030000D01*
X128210000Y-128270000D02*
X130870000Y-128270000D01*
X128210000Y-127000000D02*
X128210000Y-125670000D01*
X128210000Y-125670000D02*
X129540000Y-125670000D01*
D12*
X138128000Y-134626000D02*
X132128000Y-134626000D01*
X138128000Y-129026000D02*
X138128000Y-134626000D01*
X132128000Y-129026000D02*
X138128000Y-129026000D01*
X132128000Y-134626000D02*
X132128000Y-129026000D01*
X150066000Y-134626000D02*
X144066000Y-134626000D01*
X150066000Y-129026000D02*
X150066000Y-134626000D01*
X144066000Y-129026000D02*
X150066000Y-129026000D01*
X144066000Y-134626000D02*
X144066000Y-129026000D01*
X161750000Y-134626000D02*
X155750000Y-134626000D01*
X161750000Y-129026000D02*
X161750000Y-134626000D01*
X155750000Y-129026000D02*
X161750000Y-129026000D01*
X155750000Y-134626000D02*
X155750000Y-129026000D01*
X173434000Y-134626000D02*
X167434000Y-134626000D01*
X173434000Y-129026000D02*
X173434000Y-134626000D01*
X167434000Y-129026000D02*
X173434000Y-129026000D01*
X167434000Y-134626000D02*
X167434000Y-129026000D01*
D14*
X146507200Y-97995740D02*
X147523200Y-97995740D01*
X146507200Y-103024940D02*
X147523200Y-103024940D01*
X157784800Y-103558340D02*
X158800800Y-103558340D01*
X157784800Y-98503740D02*
X158800800Y-98503740D01*
X153365200Y-106403140D02*
X153365200Y-107419140D01*
X152857200Y-95125540D02*
X152857200Y-96141540D01*
X148412200Y-96776540D02*
X148158200Y-96776540D01*
X157149800Y-97030540D02*
X157149800Y-96776540D01*
X148158200Y-105514140D02*
X148158200Y-105768140D01*
X157149800Y-105768140D02*
X157149800Y-105514140D01*
X157149800Y-96776540D02*
X156895800Y-96776540D01*
X148158200Y-96776540D02*
X148158200Y-97030540D01*
X148158200Y-105768140D02*
X148412200Y-105768140D01*
X156895800Y-105768140D02*
X157149800Y-105768140D01*
D13*
X170191000Y-79416000D02*
X168391000Y-79416000D01*
X168391000Y-82636000D02*
X170841000Y-82636000D01*
D12*
X167093000Y-83100000D02*
X167093000Y-83225000D01*
X171743000Y-83100000D02*
X171743000Y-83325000D01*
X171743000Y-88350000D02*
X171743000Y-88125000D01*
X167093000Y-88350000D02*
X167093000Y-88125000D01*
X167093000Y-83100000D02*
X171743000Y-83100000D01*
X167093000Y-88350000D02*
X171743000Y-88350000D01*
X167093000Y-83225000D02*
X165743000Y-83225000D01*
D13*
X135893500Y-123123000D02*
X138553500Y-123123000D01*
X135893500Y-123063000D02*
X135893500Y-123123000D01*
X138553500Y-123063000D02*
X138553500Y-123123000D01*
X135893500Y-123063000D02*
X138553500Y-123063000D01*
X135893500Y-121793000D02*
X135893500Y-120463000D01*
X135893500Y-120463000D02*
X137223500Y-120463000D01*
X147768000Y-123123000D02*
X150428000Y-123123000D01*
X147768000Y-123063000D02*
X147768000Y-123123000D01*
X150428000Y-123063000D02*
X150428000Y-123123000D01*
X147768000Y-123063000D02*
X150428000Y-123063000D01*
X147768000Y-121793000D02*
X147768000Y-120463000D01*
X147768000Y-120463000D02*
X149098000Y-120463000D01*
X159452000Y-123123000D02*
X162112000Y-123123000D01*
X159452000Y-123063000D02*
X159452000Y-123123000D01*
X162112000Y-123063000D02*
X162112000Y-123123000D01*
X159452000Y-123063000D02*
X162112000Y-123063000D01*
X159452000Y-121793000D02*
X159452000Y-120463000D01*
X159452000Y-120463000D02*
X160782000Y-120463000D01*
X162246000Y-83753000D02*
X164906000Y-83753000D01*
X162246000Y-83693000D02*
X162246000Y-83753000D01*
X164906000Y-83693000D02*
X164906000Y-83753000D01*
X162246000Y-83693000D02*
X164906000Y-83693000D01*
X162246000Y-82423000D02*
X162246000Y-81093000D01*
X162246000Y-81093000D02*
X163576000Y-81093000D01*
X162246000Y-87436000D02*
X164906000Y-87436000D01*
X162246000Y-87376000D02*
X162246000Y-87436000D01*
X164906000Y-87376000D02*
X164906000Y-87436000D01*
X162246000Y-87376000D02*
X164906000Y-87376000D01*
X162246000Y-86106000D02*
X162246000Y-84776000D01*
X162246000Y-84776000D02*
X163576000Y-84776000D01*
X171136000Y-123123000D02*
X173796000Y-123123000D01*
X171136000Y-123063000D02*
X171136000Y-123123000D01*
X173796000Y-123063000D02*
X173796000Y-123123000D01*
X171136000Y-123063000D02*
X173796000Y-123063000D01*
X171136000Y-121793000D02*
X171136000Y-120463000D01*
X171136000Y-120463000D02*
X172466000Y-120463000D01*
X132528000Y-83118000D02*
X135188000Y-83118000D01*
X132528000Y-83058000D02*
X132528000Y-83118000D01*
X135188000Y-83058000D02*
X135188000Y-83118000D01*
X132528000Y-83058000D02*
X135188000Y-83058000D01*
X132528000Y-81788000D02*
X132528000Y-80458000D01*
X132528000Y-80458000D02*
X133858000Y-80458000D01*
X139894000Y-83118000D02*
X142554000Y-83118000D01*
X139894000Y-83058000D02*
X139894000Y-83118000D01*
X142554000Y-83058000D02*
X142554000Y-83118000D01*
X139894000Y-83058000D02*
X142554000Y-83058000D01*
X139894000Y-81788000D02*
X139894000Y-80458000D01*
X139894000Y-80458000D02*
X141224000Y-80458000D01*
X147260000Y-83118000D02*
X149920000Y-83118000D01*
X147260000Y-83058000D02*
X147260000Y-83118000D01*
X149920000Y-83058000D02*
X149920000Y-83118000D01*
X147260000Y-83058000D02*
X149920000Y-83058000D01*
X147260000Y-81788000D02*
X147260000Y-80458000D01*
X147260000Y-80458000D02*
X148590000Y-80458000D01*
X154626000Y-83118000D02*
X157286000Y-83118000D01*
X154626000Y-83058000D02*
X154626000Y-83118000D01*
X157286000Y-83058000D02*
X157286000Y-83118000D01*
X154626000Y-83058000D02*
X157286000Y-83058000D01*
X154626000Y-81788000D02*
X154626000Y-80458000D01*
X154626000Y-80458000D02*
X155956000Y-80458000D01*
X136211000Y-83118000D02*
X138871000Y-83118000D01*
X136211000Y-83058000D02*
X136211000Y-83118000D01*
X138871000Y-83058000D02*
X138871000Y-83118000D01*
X136211000Y-83058000D02*
X138871000Y-83058000D01*
X136211000Y-81788000D02*
X136211000Y-80458000D01*
X136211000Y-80458000D02*
X137541000Y-80458000D01*
X143577000Y-83118000D02*
X146237000Y-83118000D01*
X143577000Y-83058000D02*
X143577000Y-83118000D01*
X146237000Y-83058000D02*
X146237000Y-83118000D01*
X143577000Y-83058000D02*
X146237000Y-83058000D01*
X143577000Y-81788000D02*
X143577000Y-80458000D01*
X143577000Y-80458000D02*
X144907000Y-80458000D01*
X150943000Y-83118000D02*
X153603000Y-83118000D01*
X150943000Y-83058000D02*
X150943000Y-83118000D01*
X153603000Y-83058000D02*
X153603000Y-83118000D01*
X150943000Y-83058000D02*
X153603000Y-83058000D01*
X150943000Y-81788000D02*
X150943000Y-80458000D01*
X150943000Y-80458000D02*
X152273000Y-80458000D01*
X158309000Y-83118000D02*
X160969000Y-83118000D01*
X158309000Y-83058000D02*
X158309000Y-83118000D01*
X160969000Y-83058000D02*
X160969000Y-83118000D01*
X158309000Y-83058000D02*
X160969000Y-83058000D01*
X158309000Y-81788000D02*
X158309000Y-80458000D01*
X158309000Y-80458000D02*
X159639000Y-80458000D01*
D12*
X143672000Y-101889000D02*
X143672000Y-101189000D01*
X144872000Y-101189000D02*
X144872000Y-101889000D01*
X149957000Y-108874000D02*
X150657000Y-108874000D01*
X150657000Y-110074000D02*
X149957000Y-110074000D01*
X154848000Y-110074000D02*
X154148000Y-110074000D01*
X154148000Y-108874000D02*
X154848000Y-108874000D01*
X160436000Y-101249000D02*
X160436000Y-100549000D01*
X161636000Y-100549000D02*
X161636000Y-101249000D01*
X135601000Y-125257000D02*
X136301000Y-125257000D01*
X136301000Y-126457000D02*
X135601000Y-126457000D01*
X154462000Y-91722500D02*
X153762000Y-91722500D01*
X153762000Y-90522500D02*
X154462000Y-90522500D01*
X149704500Y-91722500D02*
X149004500Y-91722500D01*
X149004500Y-90522500D02*
X149704500Y-90522500D01*
X166208000Y-100554000D02*
X166208000Y-101254000D01*
X165008000Y-101254000D02*
X165008000Y-100554000D01*
X150972000Y-116297000D02*
X150272000Y-116297000D01*
X150272000Y-115097000D02*
X150972000Y-115097000D01*
X154148000Y-111922000D02*
X154848000Y-111922000D01*
X154848000Y-113122000D02*
X154148000Y-113122000D01*
X163484000Y-96936000D02*
X163484000Y-96236000D01*
X164684000Y-96236000D02*
X164684000Y-96936000D01*
X136306000Y-124933000D02*
X135606000Y-124933000D01*
X135606000Y-123733000D02*
X136306000Y-123733000D01*
X144872000Y-105375000D02*
X144872000Y-106075000D01*
X143672000Y-106075000D02*
X143672000Y-105375000D01*
X142148000Y-101889000D02*
X142148000Y-101189000D01*
X143348000Y-101189000D02*
X143348000Y-101889000D01*
X140624000Y-106075000D02*
X140624000Y-105375000D01*
X141824000Y-105375000D02*
X141824000Y-106075000D01*
X147539000Y-125257000D02*
X148239000Y-125257000D01*
X148239000Y-126457000D02*
X147539000Y-126457000D01*
X150591000Y-113122000D02*
X149891000Y-113122000D01*
X149891000Y-111922000D02*
X150591000Y-111922000D01*
X148239000Y-124933000D02*
X147539000Y-124933000D01*
X147539000Y-123733000D02*
X148239000Y-123733000D01*
X146400000Y-110074000D02*
X145700000Y-110074000D01*
X145700000Y-108874000D02*
X146400000Y-108874000D01*
X159100000Y-110074000D02*
X158400000Y-110074000D01*
X158400000Y-108874000D02*
X159100000Y-108874000D01*
X160436000Y-105506000D02*
X160436000Y-104806000D01*
X161636000Y-104806000D02*
X161636000Y-105506000D01*
X149952000Y-110398000D02*
X150652000Y-110398000D01*
X150652000Y-111598000D02*
X149952000Y-111598000D01*
X142845000Y-95285000D02*
X143545000Y-95285000D01*
X143545000Y-96485000D02*
X142845000Y-96485000D01*
X142845000Y-93761000D02*
X143545000Y-93761000D01*
X143545000Y-94961000D02*
X142845000Y-94961000D01*
X163484000Y-101188000D02*
X163484000Y-100488000D01*
X164684000Y-100488000D02*
X164684000Y-101188000D01*
X164815000Y-94580000D02*
X164115000Y-94580000D01*
X164115000Y-93380000D02*
X164815000Y-93380000D01*
X159223000Y-125257000D02*
X159923000Y-125257000D01*
X159923000Y-126457000D02*
X159223000Y-126457000D01*
X159923000Y-124933000D02*
X159223000Y-124933000D01*
X159223000Y-123733000D02*
X159923000Y-123733000D01*
X158461000Y-111922000D02*
X159161000Y-111922000D01*
X159161000Y-113122000D02*
X158461000Y-113122000D01*
X142840000Y-96809000D02*
X143540000Y-96809000D01*
X143540000Y-98009000D02*
X142840000Y-98009000D01*
X163160000Y-96236000D02*
X163160000Y-96936000D01*
X161960000Y-96936000D02*
X161960000Y-96236000D01*
X154909000Y-111598000D02*
X154209000Y-111598000D01*
X154209000Y-110398000D02*
X154909000Y-110398000D01*
X143540000Y-99533000D02*
X142840000Y-99533000D01*
X142840000Y-98333000D02*
X143540000Y-98333000D01*
X165008000Y-96936000D02*
X165008000Y-96236000D01*
X166208000Y-96236000D02*
X166208000Y-96936000D01*
X170907000Y-125257000D02*
X171607000Y-125257000D01*
X171607000Y-126457000D02*
X170907000Y-126457000D01*
X171607000Y-124933000D02*
X170907000Y-124933000D01*
X170907000Y-123733000D02*
X171607000Y-123733000D01*
X164684000Y-104803500D02*
X164684000Y-105503500D01*
X163484000Y-105503500D02*
X163484000Y-104803500D01*
X161960000Y-101249000D02*
X161960000Y-100549000D01*
X163160000Y-100549000D02*
X163160000Y-101249000D01*
D13*
X154762000Y-93390000D02*
X153762000Y-93390000D01*
X153762000Y-92030000D02*
X154762000Y-92030000D01*
X149641000Y-93390000D02*
X148641000Y-93390000D01*
X148641000Y-92030000D02*
X149641000Y-92030000D01*
X167812000Y-100508000D02*
X167812000Y-101508000D01*
X166452000Y-101508000D02*
X166452000Y-100508000D01*
X153975000Y-115017000D02*
X154975000Y-115017000D01*
X154975000Y-116377000D02*
X153975000Y-116377000D01*
X153975000Y-113366000D02*
X154975000Y-113366000D01*
X154975000Y-114726000D02*
X153975000Y-114726000D01*
X160356000Y-96936000D02*
X160356000Y-95936000D01*
X161716000Y-95936000D02*
X161716000Y-96936000D01*
X135306000Y-126828000D02*
X136306000Y-126828000D01*
X136306000Y-128188000D02*
X135306000Y-128188000D01*
X149682000Y-88564000D02*
X148682000Y-88564000D01*
X148682000Y-87204000D02*
X149682000Y-87204000D01*
X154762000Y-88564000D02*
X153762000Y-88564000D01*
X153762000Y-87204000D02*
X154762000Y-87204000D01*
X159461000Y-91866000D02*
X158461000Y-91866000D01*
X158461000Y-90506000D02*
X159461000Y-90506000D01*
X147285000Y-126828000D02*
X148285000Y-126828000D01*
X148285000Y-128188000D02*
X147285000Y-128188000D01*
X159461000Y-88564000D02*
X158461000Y-88564000D01*
X158461000Y-87204000D02*
X159461000Y-87204000D01*
X143815000Y-87077000D02*
X144815000Y-87077000D01*
X144815000Y-88437000D02*
X143815000Y-88437000D01*
X143815000Y-90379000D02*
X144815000Y-90379000D01*
X144815000Y-91739000D02*
X143815000Y-91739000D01*
X154721000Y-85262000D02*
X153721000Y-85262000D01*
X153721000Y-83902000D02*
X154721000Y-83902000D01*
X158969000Y-126828000D02*
X159969000Y-126828000D01*
X159969000Y-128188000D02*
X158969000Y-128188000D01*
X159504000Y-85262000D02*
X158504000Y-85262000D01*
X158504000Y-83902000D02*
X159504000Y-83902000D01*
X170653000Y-126828000D02*
X171653000Y-126828000D01*
X171653000Y-128188000D02*
X170653000Y-128188000D01*
D12*
X143423000Y-105375000D02*
X143423000Y-106375000D01*
X142073000Y-106375000D02*
X142073000Y-105375000D01*
X149682000Y-90210000D02*
X148682000Y-90210000D01*
X148682000Y-88860000D02*
X149682000Y-88860000D01*
X154762000Y-90210000D02*
X153762000Y-90210000D01*
X153762000Y-88860000D02*
X154762000Y-88860000D01*
X159461000Y-93512000D02*
X158461000Y-93512000D01*
X158461000Y-92162000D02*
X159461000Y-92162000D01*
X159461000Y-90210000D02*
X158461000Y-90210000D01*
X158461000Y-88860000D02*
X159461000Y-88860000D01*
X146466000Y-111736500D02*
X145466000Y-111736500D01*
X145466000Y-110386500D02*
X146466000Y-110386500D01*
X143815000Y-88733000D02*
X144815000Y-88733000D01*
X144815000Y-90083000D02*
X143815000Y-90083000D01*
X143815000Y-92035000D02*
X144815000Y-92035000D01*
X144815000Y-93385000D02*
X143815000Y-93385000D01*
X154721000Y-86908000D02*
X153721000Y-86908000D01*
X153721000Y-85558000D02*
X154721000Y-85558000D01*
X158377000Y-110323000D02*
X159377000Y-110323000D01*
X159377000Y-111673000D02*
X158377000Y-111673000D01*
X159483500Y-86908000D02*
X158483500Y-86908000D01*
X158483500Y-85558000D02*
X159483500Y-85558000D01*
X163235000Y-104826000D02*
X163235000Y-105826000D01*
X161885000Y-105826000D02*
X161885000Y-104826000D01*
X174279000Y-98211000D02*
X173279000Y-98211000D01*
X173279000Y-96861000D02*
X174279000Y-96861000D01*
X176236000Y-84871000D02*
X176236000Y-83871000D01*
X177586000Y-83871000D02*
X177586000Y-84871000D01*
X177887000Y-84871000D02*
X177887000Y-83871000D01*
X179237000Y-83871000D02*
X179237000Y-84871000D01*
X174585000Y-84871000D02*
X174585000Y-83871000D01*
X175935000Y-83871000D02*
X175935000Y-84871000D01*
X174279000Y-95671000D02*
X173279000Y-95671000D01*
X173279000Y-94321000D02*
X174279000Y-94321000D01*
X176236000Y-88892000D02*
X176236000Y-87892000D01*
X177586000Y-87892000D02*
X177586000Y-88892000D01*
X177887000Y-88892000D02*
X177887000Y-87892000D01*
X179237000Y-87892000D02*
X179237000Y-88892000D01*
X174585000Y-88912500D02*
X174585000Y-87912500D01*
X175935000Y-87912500D02*
X175935000Y-88912500D01*
X132207000Y-78994000D02*
G75*
G03X132207000Y-78994000I-2286000J0D01*
G01*
D15*
X158635095Y-136343571D02*
X158574619Y-136404048D01*
X158393190Y-136464524D01*
X158272238Y-136464524D01*
X158090810Y-136404048D01*
X157969857Y-136283095D01*
X157909381Y-136162143D01*
X157848905Y-135920238D01*
X157848905Y-135738810D01*
X157909381Y-135496905D01*
X157969857Y-135375952D01*
X158090810Y-135255000D01*
X158272238Y-135194524D01*
X158393190Y-135194524D01*
X158574619Y-135255000D01*
X158635095Y-135315476D01*
X159179381Y-136464524D02*
X159179381Y-135194524D01*
X159905095Y-136464524D01*
X159905095Y-135194524D01*
X160388905Y-135194524D02*
X161175095Y-135194524D01*
X160751762Y-135678333D01*
X160933190Y-135678333D01*
X161054143Y-135738810D01*
X161114619Y-135799286D01*
X161175095Y-135920238D01*
X161175095Y-136222619D01*
X161114619Y-136343571D01*
X161054143Y-136404048D01*
X160933190Y-136464524D01*
X160570333Y-136464524D01*
X160449381Y-136404048D01*
X160388905Y-136343571D01*
X135267095Y-136343571D02*
X135206619Y-136404048D01*
X135025190Y-136464524D01*
X134904238Y-136464524D01*
X134722810Y-136404048D01*
X134601857Y-136283095D01*
X134541381Y-136162143D01*
X134480905Y-135920238D01*
X134480905Y-135738810D01*
X134541381Y-135496905D01*
X134601857Y-135375952D01*
X134722810Y-135255000D01*
X134904238Y-135194524D01*
X135025190Y-135194524D01*
X135206619Y-135255000D01*
X135267095Y-135315476D01*
X135811381Y-136464524D02*
X135811381Y-135194524D01*
X136537095Y-136464524D01*
X136537095Y-135194524D01*
X137807095Y-136464524D02*
X137081381Y-136464524D01*
X137444238Y-136464524D02*
X137444238Y-135194524D01*
X137323286Y-135375952D01*
X137202333Y-135496905D01*
X137081381Y-135557381D01*
X146951095Y-136343571D02*
X146890619Y-136404048D01*
X146709190Y-136464524D01*
X146588238Y-136464524D01*
X146406810Y-136404048D01*
X146285857Y-136283095D01*
X146225381Y-136162143D01*
X146164905Y-135920238D01*
X146164905Y-135738810D01*
X146225381Y-135496905D01*
X146285857Y-135375952D01*
X146406810Y-135255000D01*
X146588238Y-135194524D01*
X146709190Y-135194524D01*
X146890619Y-135255000D01*
X146951095Y-135315476D01*
X147495381Y-136464524D02*
X147495381Y-135194524D01*
X148221095Y-136464524D01*
X148221095Y-135194524D01*
X148765381Y-135315476D02*
X148825857Y-135255000D01*
X148946809Y-135194524D01*
X149249190Y-135194524D01*
X149370143Y-135255000D01*
X149430619Y-135315476D01*
X149491095Y-135436429D01*
X149491095Y-135557381D01*
X149430619Y-135738810D01*
X148704905Y-136464524D01*
X149491095Y-136464524D01*
X170319095Y-136343571D02*
X170258619Y-136404048D01*
X170077190Y-136464524D01*
X169956238Y-136464524D01*
X169774810Y-136404048D01*
X169653857Y-136283095D01*
X169593381Y-136162143D01*
X169532905Y-135920238D01*
X169532905Y-135738810D01*
X169593381Y-135496905D01*
X169653857Y-135375952D01*
X169774810Y-135255000D01*
X169956238Y-135194524D01*
X170077190Y-135194524D01*
X170258619Y-135255000D01*
X170319095Y-135315476D01*
X170863381Y-136464524D02*
X170863381Y-135194524D01*
X171589095Y-136464524D01*
X171589095Y-135194524D01*
X172738143Y-135617857D02*
X172738143Y-136464524D01*
X172435762Y-135134048D02*
X172133381Y-136041190D01*
X172919571Y-136041190D01*
D12*
X140152381Y-132246666D02*
X140152381Y-132722857D01*
X139152381Y-132722857D01*
X139580952Y-131770476D02*
X139533333Y-131865714D01*
X139485714Y-131913333D01*
X139390476Y-131960952D01*
X139342857Y-131960952D01*
X139247619Y-131913333D01*
X139200000Y-131865714D01*
X139152381Y-131770476D01*
X139152381Y-131579999D01*
X139200000Y-131484761D01*
X139247619Y-131437142D01*
X139342857Y-131389523D01*
X139390476Y-131389523D01*
X139485714Y-131437142D01*
X139533333Y-131484761D01*
X139580952Y-131579999D01*
X139580952Y-131770476D01*
X139628571Y-131865714D01*
X139676190Y-131913333D01*
X139771429Y-131960952D01*
X139961905Y-131960952D01*
X140057143Y-131913333D01*
X140104762Y-131865714D01*
X140152381Y-131770476D01*
X140152381Y-131579999D01*
X140104762Y-131484761D01*
X140057143Y-131437142D01*
X139961905Y-131389523D01*
X139771429Y-131389523D01*
X139676190Y-131437142D01*
X139628571Y-131484761D01*
X139580952Y-131579999D01*
X151582381Y-132468857D02*
X151582381Y-132945048D01*
X150582381Y-132945048D01*
X151582381Y-131611714D02*
X151582381Y-132183143D01*
X151582381Y-131897429D02*
X150582381Y-131897429D01*
X150725238Y-131992667D01*
X150820476Y-132087905D01*
X150868095Y-132183143D01*
X150915714Y-130754571D02*
X151582381Y-130754571D01*
X150534762Y-130992667D02*
X151249048Y-131230762D01*
X151249048Y-130611714D01*
X163012381Y-132468857D02*
X163012381Y-132945048D01*
X162012381Y-132945048D01*
X163012381Y-131611714D02*
X163012381Y-132183143D01*
X163012381Y-131897429D02*
X162012381Y-131897429D01*
X162155238Y-131992667D01*
X162250476Y-132087905D01*
X162298095Y-132183143D01*
X163012381Y-131135524D02*
X163012381Y-130945048D01*
X162964762Y-130849809D01*
X162917143Y-130802190D01*
X162774286Y-130706952D01*
X162583810Y-130659333D01*
X162202857Y-130659333D01*
X162107619Y-130706952D01*
X162060000Y-130754571D01*
X162012381Y-130849809D01*
X162012381Y-131040286D01*
X162060000Y-131135524D01*
X162107619Y-131183143D01*
X162202857Y-131230762D01*
X162440952Y-131230762D01*
X162536190Y-131183143D01*
X162583810Y-131135524D01*
X162631429Y-131040286D01*
X162631429Y-130849809D01*
X162583810Y-130754571D01*
X162536190Y-130706952D01*
X162440952Y-130659333D01*
X174950381Y-132468857D02*
X174950381Y-132945048D01*
X173950381Y-132945048D01*
X174045619Y-132183143D02*
X173998000Y-132135524D01*
X173950381Y-132040286D01*
X173950381Y-131802190D01*
X173998000Y-131706952D01*
X174045619Y-131659333D01*
X174140857Y-131611714D01*
X174236095Y-131611714D01*
X174378952Y-131659333D01*
X174950381Y-132230762D01*
X174950381Y-131611714D01*
X174045619Y-131230762D02*
X173998000Y-131183143D01*
X173950381Y-131087905D01*
X173950381Y-130849809D01*
X173998000Y-130754571D01*
X174045619Y-130706952D01*
X174140857Y-130659333D01*
X174236095Y-130659333D01*
X174378952Y-130706952D01*
X174950381Y-131278381D01*
X174950381Y-130659333D01*
D15*
X147084667Y-102810192D02*
X147084667Y-102568287D01*
X147229810Y-102858573D02*
X146721810Y-102689240D01*
X147229810Y-102519906D01*
X147229810Y-102350573D02*
X146721810Y-102350573D01*
X146721810Y-102229620D01*
X146746000Y-102157049D01*
X146794381Y-102108668D01*
X146842762Y-102084477D01*
X146939524Y-102060287D01*
X147012095Y-102060287D01*
X147108857Y-102084477D01*
X147157238Y-102108668D01*
X147205619Y-102157049D01*
X147229810Y-102229620D01*
X147229810Y-102350573D01*
X146939524Y-101770001D02*
X146915333Y-101818382D01*
X146891143Y-101842573D01*
X146842762Y-101866763D01*
X146818571Y-101866763D01*
X146770190Y-101842573D01*
X146746000Y-101818382D01*
X146721810Y-101770001D01*
X146721810Y-101673239D01*
X146746000Y-101624858D01*
X146770190Y-101600668D01*
X146818571Y-101576477D01*
X146842762Y-101576477D01*
X146891143Y-101600668D01*
X146915333Y-101624858D01*
X146939524Y-101673239D01*
X146939524Y-101770001D01*
X146963714Y-101818382D01*
X146987905Y-101842573D01*
X147036286Y-101866763D01*
X147133048Y-101866763D01*
X147181429Y-101842573D01*
X147205619Y-101818382D01*
X147229810Y-101770001D01*
X147229810Y-101673239D01*
X147205619Y-101624858D01*
X147181429Y-101600668D01*
X147133048Y-101576477D01*
X147036286Y-101576477D01*
X146987905Y-101600668D01*
X146963714Y-101624858D01*
X146939524Y-101673239D01*
X146721810Y-101407144D02*
X146721810Y-101092667D01*
X146915333Y-101262001D01*
X146915333Y-101189429D01*
X146939524Y-101141048D01*
X146963714Y-101116858D01*
X147012095Y-101092667D01*
X147133048Y-101092667D01*
X147181429Y-101116858D01*
X147205619Y-101141048D01*
X147229810Y-101189429D01*
X147229810Y-101334572D01*
X147205619Y-101382953D01*
X147181429Y-101407144D01*
X146721810Y-100923334D02*
X146721810Y-100608857D01*
X146915333Y-100778191D01*
X146915333Y-100705619D01*
X146939524Y-100657238D01*
X146963714Y-100633048D01*
X147012095Y-100608857D01*
X147133048Y-100608857D01*
X147181429Y-100633048D01*
X147205619Y-100657238D01*
X147229810Y-100705619D01*
X147229810Y-100850762D01*
X147205619Y-100899143D01*
X147181429Y-100923334D01*
X146891143Y-100173428D02*
X147229810Y-100173428D01*
X146697619Y-100294381D02*
X147060476Y-100415333D01*
X147060476Y-100100857D01*
X147084667Y-99931523D02*
X147084667Y-99689618D01*
X147229810Y-99979904D02*
X146721810Y-99810571D01*
X147229810Y-99641237D01*
X147181429Y-99181618D02*
X147205619Y-99205808D01*
X147229810Y-99278380D01*
X147229810Y-99326761D01*
X147205619Y-99399332D01*
X147157238Y-99447713D01*
X147108857Y-99471904D01*
X147012095Y-99496094D01*
X146939524Y-99496094D01*
X146842762Y-99471904D01*
X146794381Y-99447713D01*
X146746000Y-99399332D01*
X146721810Y-99326761D01*
X146721810Y-99278380D01*
X146746000Y-99205808D01*
X146770190Y-99181618D01*
X147229810Y-98963904D02*
X146721810Y-98963904D01*
X146721810Y-98770380D01*
X146746000Y-98721999D01*
X146770190Y-98697808D01*
X146818571Y-98673618D01*
X146891143Y-98673618D01*
X146939524Y-98697808D01*
X146963714Y-98721999D01*
X146987905Y-98770380D01*
X146987905Y-98963904D01*
X146721810Y-98504285D02*
X146721810Y-98165618D01*
X147229810Y-98504285D01*
X147229810Y-98165618D01*
D16*
X147592264Y-106657139D02*
X147894645Y-106657139D01*
X147773692Y-106959520D02*
X147894645Y-106657139D01*
X147773692Y-106354759D01*
X148136550Y-106838568D02*
X147894645Y-106657139D01*
X148136550Y-106475711D01*
D12*
X168529095Y-77952381D02*
X168529095Y-78761905D01*
X168576714Y-78857143D01*
X168624333Y-78904762D01*
X168719571Y-78952381D01*
X168910048Y-78952381D01*
X169005286Y-78904762D01*
X169052905Y-78857143D01*
X169100524Y-78761905D01*
X169100524Y-77952381D01*
X169529095Y-78047619D02*
X169576714Y-78000000D01*
X169671952Y-77952381D01*
X169910048Y-77952381D01*
X170005286Y-78000000D01*
X170052905Y-78047619D01*
X170100524Y-78142857D01*
X170100524Y-78238095D01*
X170052905Y-78380952D01*
X169481476Y-78952381D01*
X170100524Y-78952381D01*
X168656095Y-88702381D02*
X168656095Y-89511905D01*
X168703714Y-89607143D01*
X168751333Y-89654762D01*
X168846571Y-89702381D01*
X169037048Y-89702381D01*
X169132286Y-89654762D01*
X169179905Y-89607143D01*
X169227524Y-89511905D01*
X169227524Y-88702381D01*
X169608476Y-88702381D02*
X170227524Y-88702381D01*
X169894190Y-89083333D01*
X170037048Y-89083333D01*
X170132286Y-89130952D01*
X170179905Y-89178571D01*
X170227524Y-89273810D01*
X170227524Y-89511905D01*
X170179905Y-89607143D01*
X170132286Y-89654762D01*
X170037048Y-89702381D01*
X169751333Y-89702381D01*
X169656095Y-89654762D01*
X169608476Y-89607143D01*
X141581143Y-101705666D02*
X141628762Y-101753285D01*
X141676381Y-101896142D01*
X141676381Y-101991380D01*
X141628762Y-102134238D01*
X141533524Y-102229476D01*
X141438286Y-102277095D01*
X141247810Y-102324714D01*
X141104952Y-102324714D01*
X140914476Y-102277095D01*
X140819238Y-102229476D01*
X140724000Y-102134238D01*
X140676381Y-101991380D01*
X140676381Y-101896142D01*
X140724000Y-101753285D01*
X140771619Y-101705666D01*
X141676381Y-100753285D02*
X141676381Y-101324714D01*
X141676381Y-101039000D02*
X140676381Y-101039000D01*
X140819238Y-101134238D01*
X140914476Y-101229476D01*
X140962095Y-101324714D01*
X149947334Y-107291143D02*
X149899715Y-107338762D01*
X149756858Y-107386381D01*
X149661620Y-107386381D01*
X149518762Y-107338762D01*
X149423524Y-107243524D01*
X149375905Y-107148286D01*
X149328286Y-106957810D01*
X149328286Y-106814952D01*
X149375905Y-106624476D01*
X149423524Y-106529238D01*
X149518762Y-106434000D01*
X149661620Y-106386381D01*
X149756858Y-106386381D01*
X149899715Y-106434000D01*
X149947334Y-106481619D01*
X150328286Y-106481619D02*
X150375905Y-106434000D01*
X150471143Y-106386381D01*
X150709239Y-106386381D01*
X150804477Y-106434000D01*
X150852096Y-106481619D01*
X150899715Y-106576857D01*
X150899715Y-106672095D01*
X150852096Y-106814952D01*
X150280667Y-107386381D01*
X150899715Y-107386381D01*
X154331334Y-107291143D02*
X154283715Y-107338762D01*
X154140858Y-107386381D01*
X154045620Y-107386381D01*
X153902762Y-107338762D01*
X153807524Y-107243524D01*
X153759905Y-107148286D01*
X153712286Y-106957810D01*
X153712286Y-106814952D01*
X153759905Y-106624476D01*
X153807524Y-106529238D01*
X153902762Y-106434000D01*
X154045620Y-106386381D01*
X154140858Y-106386381D01*
X154283715Y-106434000D01*
X154331334Y-106481619D01*
X154664667Y-106386381D02*
X155283715Y-106386381D01*
X154950381Y-106767333D01*
X155093239Y-106767333D01*
X155188477Y-106814952D01*
X155236096Y-106862571D01*
X155283715Y-106957810D01*
X155283715Y-107195905D01*
X155236096Y-107291143D01*
X155188477Y-107338762D01*
X155093239Y-107386381D01*
X154807524Y-107386381D01*
X154712286Y-107338762D01*
X154664667Y-107291143D01*
X158857143Y-101065666D02*
X158904762Y-101113285D01*
X158952381Y-101256142D01*
X158952381Y-101351380D01*
X158904762Y-101494238D01*
X158809524Y-101589476D01*
X158714286Y-101637095D01*
X158523810Y-101684714D01*
X158380952Y-101684714D01*
X158190476Y-101637095D01*
X158095238Y-101589476D01*
X158000000Y-101494238D01*
X157952381Y-101351380D01*
X157952381Y-101256142D01*
X158000000Y-101113285D01*
X158047619Y-101065666D01*
X158285714Y-100208523D02*
X158952381Y-100208523D01*
X157904762Y-100446619D02*
X158619048Y-100684714D01*
X158619048Y-100065666D01*
X139025334Y-126595143D02*
X138977715Y-126642762D01*
X138834858Y-126690381D01*
X138739620Y-126690381D01*
X138596762Y-126642762D01*
X138501524Y-126547524D01*
X138453905Y-126452286D01*
X138406286Y-126261810D01*
X138406286Y-126118952D01*
X138453905Y-125928476D01*
X138501524Y-125833238D01*
X138596762Y-125738000D01*
X138739620Y-125690381D01*
X138834858Y-125690381D01*
X138977715Y-125738000D01*
X139025334Y-125785619D01*
X139930096Y-125690381D02*
X139453905Y-125690381D01*
X139406286Y-126166571D01*
X139453905Y-126118952D01*
X139549143Y-126071333D01*
X139787239Y-126071333D01*
X139882477Y-126118952D01*
X139930096Y-126166571D01*
X139977715Y-126261810D01*
X139977715Y-126499905D01*
X139930096Y-126595143D01*
X139882477Y-126642762D01*
X139787239Y-126690381D01*
X139549143Y-126690381D01*
X139453905Y-126642762D01*
X139406286Y-126595143D01*
X153945334Y-94607143D02*
X153897715Y-94654762D01*
X153754858Y-94702381D01*
X153659620Y-94702381D01*
X153516762Y-94654762D01*
X153421524Y-94559524D01*
X153373905Y-94464286D01*
X153326286Y-94273810D01*
X153326286Y-94130952D01*
X153373905Y-93940476D01*
X153421524Y-93845238D01*
X153516762Y-93750000D01*
X153659620Y-93702381D01*
X153754858Y-93702381D01*
X153897715Y-93750000D01*
X153945334Y-93797619D01*
X154802477Y-93702381D02*
X154612000Y-93702381D01*
X154516762Y-93750000D01*
X154469143Y-93797619D01*
X154373905Y-93940476D01*
X154326286Y-94130952D01*
X154326286Y-94511905D01*
X154373905Y-94607143D01*
X154421524Y-94654762D01*
X154516762Y-94702381D01*
X154707239Y-94702381D01*
X154802477Y-94654762D01*
X154850096Y-94607143D01*
X154897715Y-94511905D01*
X154897715Y-94273810D01*
X154850096Y-94178571D01*
X154802477Y-94130952D01*
X154707239Y-94083333D01*
X154516762Y-94083333D01*
X154421524Y-94130952D01*
X154373905Y-94178571D01*
X154326286Y-94273810D01*
X149083334Y-94607143D02*
X149035715Y-94654762D01*
X148892858Y-94702381D01*
X148797620Y-94702381D01*
X148654762Y-94654762D01*
X148559524Y-94559524D01*
X148511905Y-94464286D01*
X148464286Y-94273810D01*
X148464286Y-94130952D01*
X148511905Y-93940476D01*
X148559524Y-93845238D01*
X148654762Y-93750000D01*
X148797620Y-93702381D01*
X148892858Y-93702381D01*
X149035715Y-93750000D01*
X149083334Y-93797619D01*
X149416667Y-93702381D02*
X150083334Y-93702381D01*
X149654762Y-94702381D01*
X170857143Y-101070666D02*
X170904762Y-101118285D01*
X170952381Y-101261142D01*
X170952381Y-101356380D01*
X170904762Y-101499238D01*
X170809524Y-101594476D01*
X170714286Y-101642095D01*
X170523810Y-101689714D01*
X170380952Y-101689714D01*
X170190476Y-101642095D01*
X170095238Y-101594476D01*
X170000000Y-101499238D01*
X169952381Y-101356380D01*
X169952381Y-101261142D01*
X170000000Y-101118285D01*
X170047619Y-101070666D01*
X170380952Y-100499238D02*
X170333333Y-100594476D01*
X170285714Y-100642095D01*
X170190476Y-100689714D01*
X170142857Y-100689714D01*
X170047619Y-100642095D01*
X170000000Y-100594476D01*
X169952381Y-100499238D01*
X169952381Y-100308761D01*
X170000000Y-100213523D01*
X170047619Y-100165904D01*
X170142857Y-100118285D01*
X170190476Y-100118285D01*
X170285714Y-100165904D01*
X170333333Y-100213523D01*
X170380952Y-100308761D01*
X170380952Y-100499238D01*
X170428571Y-100594476D01*
X170476190Y-100642095D01*
X170571429Y-100689714D01*
X170761905Y-100689714D01*
X170857143Y-100642095D01*
X170904762Y-100594476D01*
X170952381Y-100499238D01*
X170952381Y-100308761D01*
X170904762Y-100213523D01*
X170857143Y-100165904D01*
X170761905Y-100118285D01*
X170571429Y-100118285D01*
X170476190Y-100165904D01*
X170428571Y-100213523D01*
X170380952Y-100308761D01*
X150455334Y-117705143D02*
X150407715Y-117752762D01*
X150264858Y-117800381D01*
X150169620Y-117800381D01*
X150026762Y-117752762D01*
X149931524Y-117657524D01*
X149883905Y-117562286D01*
X149836286Y-117371810D01*
X149836286Y-117228952D01*
X149883905Y-117038476D01*
X149931524Y-116943238D01*
X150026762Y-116848000D01*
X150169620Y-116800381D01*
X150264858Y-116800381D01*
X150407715Y-116848000D01*
X150455334Y-116895619D01*
X150931524Y-117800381D02*
X151122000Y-117800381D01*
X151217239Y-117752762D01*
X151264858Y-117705143D01*
X151360096Y-117562286D01*
X151407715Y-117371810D01*
X151407715Y-116990857D01*
X151360096Y-116895619D01*
X151312477Y-116848000D01*
X151217239Y-116800381D01*
X151026762Y-116800381D01*
X150931524Y-116848000D01*
X150883905Y-116895619D01*
X150836286Y-116990857D01*
X150836286Y-117228952D01*
X150883905Y-117324190D01*
X150931524Y-117371810D01*
X151026762Y-117419429D01*
X151217239Y-117419429D01*
X151312477Y-117371810D01*
X151360096Y-117324190D01*
X151407715Y-117228952D01*
X153789143Y-117705143D02*
X153741524Y-117752762D01*
X153598667Y-117800381D01*
X153503429Y-117800381D01*
X153360571Y-117752762D01*
X153265333Y-117657524D01*
X153217714Y-117562286D01*
X153170095Y-117371810D01*
X153170095Y-117228952D01*
X153217714Y-117038476D01*
X153265333Y-116943238D01*
X153360571Y-116848000D01*
X153503429Y-116800381D01*
X153598667Y-116800381D01*
X153741524Y-116848000D01*
X153789143Y-116895619D01*
X154741524Y-117800381D02*
X154170095Y-117800381D01*
X154455809Y-117800381D02*
X154455809Y-116800381D01*
X154360571Y-116943238D01*
X154265333Y-117038476D01*
X154170095Y-117086095D01*
X155360571Y-116800381D02*
X155455810Y-116800381D01*
X155551048Y-116848000D01*
X155598667Y-116895619D01*
X155646286Y-116990857D01*
X155693905Y-117181333D01*
X155693905Y-117419429D01*
X155646286Y-117609905D01*
X155598667Y-117705143D01*
X155551048Y-117752762D01*
X155455810Y-117800381D01*
X155360571Y-117800381D01*
X155265333Y-117752762D01*
X155217714Y-117705143D01*
X155170095Y-117609905D01*
X155122476Y-117419429D01*
X155122476Y-117181333D01*
X155170095Y-116990857D01*
X155217714Y-116895619D01*
X155265333Y-116848000D01*
X155360571Y-116800381D01*
X167607143Y-97228857D02*
X167654762Y-97276476D01*
X167702381Y-97419333D01*
X167702381Y-97514571D01*
X167654762Y-97657429D01*
X167559524Y-97752667D01*
X167464286Y-97800286D01*
X167273810Y-97847905D01*
X167130952Y-97847905D01*
X166940476Y-97800286D01*
X166845238Y-97752667D01*
X166750000Y-97657429D01*
X166702381Y-97514571D01*
X166702381Y-97419333D01*
X166750000Y-97276476D01*
X166797619Y-97228857D01*
X167702381Y-96276476D02*
X167702381Y-96847905D01*
X167702381Y-96562191D02*
X166702381Y-96562191D01*
X166845238Y-96657429D01*
X166940476Y-96752667D01*
X166988095Y-96847905D01*
X167702381Y-95324095D02*
X167702381Y-95895524D01*
X167702381Y-95609810D02*
X166702381Y-95609810D01*
X166845238Y-95705048D01*
X166940476Y-95800286D01*
X166988095Y-95895524D01*
X139057143Y-125071143D02*
X139009524Y-125118762D01*
X138866667Y-125166381D01*
X138771429Y-125166381D01*
X138628571Y-125118762D01*
X138533333Y-125023524D01*
X138485714Y-124928286D01*
X138438095Y-124737810D01*
X138438095Y-124594952D01*
X138485714Y-124404476D01*
X138533333Y-124309238D01*
X138628571Y-124214000D01*
X138771429Y-124166381D01*
X138866667Y-124166381D01*
X139009524Y-124214000D01*
X139057143Y-124261619D01*
X140009524Y-125166381D02*
X139438095Y-125166381D01*
X139723809Y-125166381D02*
X139723809Y-124166381D01*
X139628571Y-124309238D01*
X139533333Y-124404476D01*
X139438095Y-124452095D01*
X140390476Y-124261619D02*
X140438095Y-124214000D01*
X140533333Y-124166381D01*
X140771429Y-124166381D01*
X140866667Y-124214000D01*
X140914286Y-124261619D01*
X140961905Y-124356857D01*
X140961905Y-124452095D01*
X140914286Y-124594952D01*
X140342857Y-125166381D01*
X140961905Y-125166381D01*
X146529143Y-106367857D02*
X146576762Y-106415476D01*
X146624381Y-106558333D01*
X146624381Y-106653571D01*
X146576762Y-106796429D01*
X146481524Y-106891667D01*
X146386286Y-106939286D01*
X146195810Y-106986905D01*
X146052952Y-106986905D01*
X145862476Y-106939286D01*
X145767238Y-106891667D01*
X145672000Y-106796429D01*
X145624381Y-106653571D01*
X145624381Y-106558333D01*
X145672000Y-106415476D01*
X145719619Y-106367857D01*
X146624381Y-105415476D02*
X146624381Y-105986905D01*
X146624381Y-105701191D02*
X145624381Y-105701191D01*
X145767238Y-105796429D01*
X145862476Y-105891667D01*
X145910095Y-105986905D01*
X145624381Y-105082143D02*
X145624381Y-104463095D01*
X146005333Y-104796429D01*
X146005333Y-104653571D01*
X146052952Y-104558333D01*
X146100571Y-104510714D01*
X146195810Y-104463095D01*
X146433905Y-104463095D01*
X146529143Y-104510714D01*
X146576762Y-104558333D01*
X146624381Y-104653571D01*
X146624381Y-104939286D01*
X146576762Y-105034524D01*
X146529143Y-105082143D01*
X140057143Y-102242857D02*
X140104762Y-102290476D01*
X140152381Y-102433333D01*
X140152381Y-102528571D01*
X140104762Y-102671429D01*
X140009524Y-102766667D01*
X139914286Y-102814286D01*
X139723810Y-102861905D01*
X139580952Y-102861905D01*
X139390476Y-102814286D01*
X139295238Y-102766667D01*
X139200000Y-102671429D01*
X139152381Y-102528571D01*
X139152381Y-102433333D01*
X139200000Y-102290476D01*
X139247619Y-102242857D01*
X140152381Y-101290476D02*
X140152381Y-101861905D01*
X140152381Y-101576191D02*
X139152381Y-101576191D01*
X139295238Y-101671429D01*
X139390476Y-101766667D01*
X139438095Y-101861905D01*
X139485714Y-100433333D02*
X140152381Y-100433333D01*
X139104762Y-100671429D02*
X139819048Y-100909524D01*
X139819048Y-100290476D01*
X139681143Y-106367857D02*
X139728762Y-106415476D01*
X139776381Y-106558333D01*
X139776381Y-106653571D01*
X139728762Y-106796429D01*
X139633524Y-106891667D01*
X139538286Y-106939286D01*
X139347810Y-106986905D01*
X139204952Y-106986905D01*
X139014476Y-106939286D01*
X138919238Y-106891667D01*
X138824000Y-106796429D01*
X138776381Y-106653571D01*
X138776381Y-106558333D01*
X138824000Y-106415476D01*
X138871619Y-106367857D01*
X139776381Y-105415476D02*
X139776381Y-105986905D01*
X139776381Y-105701191D02*
X138776381Y-105701191D01*
X138919238Y-105796429D01*
X139014476Y-105891667D01*
X139062095Y-105986905D01*
X138776381Y-104510714D02*
X138776381Y-104986905D01*
X139252571Y-105034524D01*
X139204952Y-104986905D01*
X139157333Y-104891667D01*
X139157333Y-104653571D01*
X139204952Y-104558333D01*
X139252571Y-104510714D01*
X139347810Y-104463095D01*
X139585905Y-104463095D01*
X139681143Y-104510714D01*
X139728762Y-104558333D01*
X139776381Y-104653571D01*
X139776381Y-104891667D01*
X139728762Y-104986905D01*
X139681143Y-105034524D01*
X150741143Y-126341143D02*
X150693524Y-126388762D01*
X150550667Y-126436381D01*
X150455429Y-126436381D01*
X150312571Y-126388762D01*
X150217333Y-126293524D01*
X150169714Y-126198286D01*
X150122095Y-126007810D01*
X150122095Y-125864952D01*
X150169714Y-125674476D01*
X150217333Y-125579238D01*
X150312571Y-125484000D01*
X150455429Y-125436381D01*
X150550667Y-125436381D01*
X150693524Y-125484000D01*
X150741143Y-125531619D01*
X151693524Y-126436381D02*
X151122095Y-126436381D01*
X151407809Y-126436381D02*
X151407809Y-125436381D01*
X151312571Y-125579238D01*
X151217333Y-125674476D01*
X151122095Y-125722095D01*
X152550667Y-125436381D02*
X152360190Y-125436381D01*
X152264952Y-125484000D01*
X152217333Y-125531619D01*
X152122095Y-125674476D01*
X152074476Y-125864952D01*
X152074476Y-126245905D01*
X152122095Y-126341143D01*
X152169714Y-126388762D01*
X152264952Y-126436381D01*
X152455429Y-126436381D01*
X152550667Y-126388762D01*
X152598286Y-126341143D01*
X152645905Y-126245905D01*
X152645905Y-126007810D01*
X152598286Y-125912571D01*
X152550667Y-125864952D01*
X152455429Y-125817333D01*
X152264952Y-125817333D01*
X152169714Y-125864952D01*
X152122095Y-125912571D01*
X152074476Y-126007810D01*
X149598143Y-114403143D02*
X149550524Y-114450762D01*
X149407667Y-114498381D01*
X149312429Y-114498381D01*
X149169571Y-114450762D01*
X149074333Y-114355524D01*
X149026714Y-114260286D01*
X148979095Y-114069810D01*
X148979095Y-113926952D01*
X149026714Y-113736476D01*
X149074333Y-113641238D01*
X149169571Y-113546000D01*
X149312429Y-113498381D01*
X149407667Y-113498381D01*
X149550524Y-113546000D01*
X149598143Y-113593619D01*
X150550524Y-114498381D02*
X149979095Y-114498381D01*
X150264809Y-114498381D02*
X150264809Y-113498381D01*
X150169571Y-113641238D01*
X150074333Y-113736476D01*
X149979095Y-113784095D01*
X150883857Y-113498381D02*
X151550524Y-113498381D01*
X151121952Y-114498381D01*
X150741143Y-124817143D02*
X150693524Y-124864762D01*
X150550667Y-124912381D01*
X150455429Y-124912381D01*
X150312571Y-124864762D01*
X150217333Y-124769524D01*
X150169714Y-124674286D01*
X150122095Y-124483810D01*
X150122095Y-124340952D01*
X150169714Y-124150476D01*
X150217333Y-124055238D01*
X150312571Y-123960000D01*
X150455429Y-123912381D01*
X150550667Y-123912381D01*
X150693524Y-123960000D01*
X150741143Y-124007619D01*
X151693524Y-124912381D02*
X151122095Y-124912381D01*
X151407809Y-124912381D02*
X151407809Y-123912381D01*
X151312571Y-124055238D01*
X151217333Y-124150476D01*
X151122095Y-124198095D01*
X152264952Y-124340952D02*
X152169714Y-124293333D01*
X152122095Y-124245714D01*
X152074476Y-124150476D01*
X152074476Y-124102857D01*
X152122095Y-124007619D01*
X152169714Y-123960000D01*
X152264952Y-123912381D01*
X152455429Y-123912381D01*
X152550667Y-123960000D01*
X152598286Y-124007619D01*
X152645905Y-124102857D01*
X152645905Y-124150476D01*
X152598286Y-124245714D01*
X152550667Y-124293333D01*
X152455429Y-124340952D01*
X152264952Y-124340952D01*
X152169714Y-124388571D01*
X152122095Y-124436190D01*
X152074476Y-124531429D01*
X152074476Y-124721905D01*
X152122095Y-124817143D01*
X152169714Y-124864762D01*
X152264952Y-124912381D01*
X152455429Y-124912381D01*
X152550667Y-124864762D01*
X152598286Y-124817143D01*
X152645905Y-124721905D01*
X152645905Y-124531429D01*
X152598286Y-124436190D01*
X152550667Y-124388571D01*
X152455429Y-124340952D01*
X145407143Y-113133143D02*
X145359524Y-113180762D01*
X145216667Y-113228381D01*
X145121429Y-113228381D01*
X144978571Y-113180762D01*
X144883333Y-113085524D01*
X144835714Y-112990286D01*
X144788095Y-112799810D01*
X144788095Y-112656952D01*
X144835714Y-112466476D01*
X144883333Y-112371238D01*
X144978571Y-112276000D01*
X145121429Y-112228381D01*
X145216667Y-112228381D01*
X145359524Y-112276000D01*
X145407143Y-112323619D01*
X146359524Y-113228381D02*
X145788095Y-113228381D01*
X146073809Y-113228381D02*
X146073809Y-112228381D01*
X145978571Y-112371238D01*
X145883333Y-112466476D01*
X145788095Y-112514095D01*
X146835714Y-113228381D02*
X147026190Y-113228381D01*
X147121429Y-113180762D01*
X147169048Y-113133143D01*
X147264286Y-112990286D01*
X147311905Y-112799810D01*
X147311905Y-112418857D01*
X147264286Y-112323619D01*
X147216667Y-112276000D01*
X147121429Y-112228381D01*
X146930952Y-112228381D01*
X146835714Y-112276000D01*
X146788095Y-112323619D01*
X146740476Y-112418857D01*
X146740476Y-112656952D01*
X146788095Y-112752190D01*
X146835714Y-112799810D01*
X146930952Y-112847429D01*
X147121429Y-112847429D01*
X147216667Y-112799810D01*
X147264286Y-112752190D01*
X147311905Y-112656952D01*
X161857143Y-109857143D02*
X161809524Y-109904762D01*
X161666667Y-109952381D01*
X161571429Y-109952381D01*
X161428571Y-109904762D01*
X161333333Y-109809524D01*
X161285714Y-109714286D01*
X161238095Y-109523810D01*
X161238095Y-109380952D01*
X161285714Y-109190476D01*
X161333333Y-109095238D01*
X161428571Y-109000000D01*
X161571429Y-108952381D01*
X161666667Y-108952381D01*
X161809524Y-109000000D01*
X161857143Y-109047619D01*
X162238095Y-109047619D02*
X162285714Y-109000000D01*
X162380952Y-108952381D01*
X162619048Y-108952381D01*
X162714286Y-109000000D01*
X162761905Y-109047619D01*
X162809524Y-109142857D01*
X162809524Y-109238095D01*
X162761905Y-109380952D01*
X162190476Y-109952381D01*
X162809524Y-109952381D01*
X163428571Y-108952381D02*
X163523810Y-108952381D01*
X163619048Y-109000000D01*
X163666667Y-109047619D01*
X163714286Y-109142857D01*
X163761905Y-109333333D01*
X163761905Y-109571429D01*
X163714286Y-109761905D01*
X163666667Y-109857143D01*
X163619048Y-109904762D01*
X163523810Y-109952381D01*
X163428571Y-109952381D01*
X163333333Y-109904762D01*
X163285714Y-109857143D01*
X163238095Y-109761905D01*
X163190476Y-109571429D01*
X163190476Y-109333333D01*
X163238095Y-109142857D01*
X163285714Y-109047619D01*
X163333333Y-109000000D01*
X163428571Y-108952381D01*
X159857143Y-105798857D02*
X159904762Y-105846476D01*
X159952381Y-105989333D01*
X159952381Y-106084571D01*
X159904762Y-106227429D01*
X159809524Y-106322667D01*
X159714286Y-106370286D01*
X159523810Y-106417905D01*
X159380952Y-106417905D01*
X159190476Y-106370286D01*
X159095238Y-106322667D01*
X159000000Y-106227429D01*
X158952381Y-106084571D01*
X158952381Y-105989333D01*
X159000000Y-105846476D01*
X159047619Y-105798857D01*
X159047619Y-105417905D02*
X159000000Y-105370286D01*
X158952381Y-105275048D01*
X158952381Y-105036952D01*
X159000000Y-104941714D01*
X159047619Y-104894095D01*
X159142857Y-104846476D01*
X159238095Y-104846476D01*
X159380952Y-104894095D01*
X159952381Y-105465524D01*
X159952381Y-104846476D01*
X159952381Y-103894095D02*
X159952381Y-104465524D01*
X159952381Y-104179810D02*
X158952381Y-104179810D01*
X159095238Y-104275048D01*
X159190476Y-104370286D01*
X159238095Y-104465524D01*
X149659143Y-108561143D02*
X149611524Y-108608762D01*
X149468667Y-108656381D01*
X149373429Y-108656381D01*
X149230571Y-108608762D01*
X149135333Y-108513524D01*
X149087714Y-108418286D01*
X149040095Y-108227810D01*
X149040095Y-108084952D01*
X149087714Y-107894476D01*
X149135333Y-107799238D01*
X149230571Y-107704000D01*
X149373429Y-107656381D01*
X149468667Y-107656381D01*
X149611524Y-107704000D01*
X149659143Y-107751619D01*
X150040095Y-107751619D02*
X150087714Y-107704000D01*
X150182952Y-107656381D01*
X150421048Y-107656381D01*
X150516286Y-107704000D01*
X150563905Y-107751619D01*
X150611524Y-107846857D01*
X150611524Y-107942095D01*
X150563905Y-108084952D01*
X149992476Y-108656381D01*
X150611524Y-108656381D01*
X150992476Y-107751619D02*
X151040095Y-107704000D01*
X151135333Y-107656381D01*
X151373429Y-107656381D01*
X151468667Y-107704000D01*
X151516286Y-107751619D01*
X151563905Y-107846857D01*
X151563905Y-107942095D01*
X151516286Y-108084952D01*
X150944857Y-108656381D01*
X151563905Y-108656381D01*
X139057143Y-96115143D02*
X139009524Y-96162762D01*
X138866667Y-96210381D01*
X138771429Y-96210381D01*
X138628571Y-96162762D01*
X138533333Y-96067524D01*
X138485714Y-95972286D01*
X138438095Y-95781810D01*
X138438095Y-95638952D01*
X138485714Y-95448476D01*
X138533333Y-95353238D01*
X138628571Y-95258000D01*
X138771429Y-95210381D01*
X138866667Y-95210381D01*
X139009524Y-95258000D01*
X139057143Y-95305619D01*
X139438095Y-95305619D02*
X139485714Y-95258000D01*
X139580952Y-95210381D01*
X139819048Y-95210381D01*
X139914286Y-95258000D01*
X139961905Y-95305619D01*
X140009524Y-95400857D01*
X140009524Y-95496095D01*
X139961905Y-95638952D01*
X139390476Y-96210381D01*
X140009524Y-96210381D01*
X140342857Y-95210381D02*
X140961905Y-95210381D01*
X140628571Y-95591333D01*
X140771429Y-95591333D01*
X140866667Y-95638952D01*
X140914286Y-95686571D01*
X140961905Y-95781810D01*
X140961905Y-96019905D01*
X140914286Y-96115143D01*
X140866667Y-96162762D01*
X140771429Y-96210381D01*
X140485714Y-96210381D01*
X140390476Y-96162762D01*
X140342857Y-96115143D01*
X139057143Y-94845143D02*
X139009524Y-94892762D01*
X138866667Y-94940381D01*
X138771429Y-94940381D01*
X138628571Y-94892762D01*
X138533333Y-94797524D01*
X138485714Y-94702286D01*
X138438095Y-94511810D01*
X138438095Y-94368952D01*
X138485714Y-94178476D01*
X138533333Y-94083238D01*
X138628571Y-93988000D01*
X138771429Y-93940381D01*
X138866667Y-93940381D01*
X139009524Y-93988000D01*
X139057143Y-94035619D01*
X139438095Y-94035619D02*
X139485714Y-93988000D01*
X139580952Y-93940381D01*
X139819048Y-93940381D01*
X139914286Y-93988000D01*
X139961905Y-94035619D01*
X140009524Y-94130857D01*
X140009524Y-94226095D01*
X139961905Y-94368952D01*
X139390476Y-94940381D01*
X140009524Y-94940381D01*
X140866667Y-94273714D02*
X140866667Y-94940381D01*
X140628571Y-93892762D02*
X140390476Y-94607048D01*
X141009524Y-94607048D01*
X169357143Y-101480857D02*
X169404762Y-101528476D01*
X169452381Y-101671333D01*
X169452381Y-101766571D01*
X169404762Y-101909429D01*
X169309524Y-102004667D01*
X169214286Y-102052286D01*
X169023810Y-102099905D01*
X168880952Y-102099905D01*
X168690476Y-102052286D01*
X168595238Y-102004667D01*
X168500000Y-101909429D01*
X168452381Y-101766571D01*
X168452381Y-101671333D01*
X168500000Y-101528476D01*
X168547619Y-101480857D01*
X168547619Y-101099905D02*
X168500000Y-101052286D01*
X168452381Y-100957048D01*
X168452381Y-100718952D01*
X168500000Y-100623714D01*
X168547619Y-100576095D01*
X168642857Y-100528476D01*
X168738095Y-100528476D01*
X168880952Y-100576095D01*
X169452381Y-101147524D01*
X169452381Y-100528476D01*
X168452381Y-99623714D02*
X168452381Y-100099905D01*
X168928571Y-100147524D01*
X168880952Y-100099905D01*
X168833333Y-100004667D01*
X168833333Y-99766571D01*
X168880952Y-99671333D01*
X168928571Y-99623714D01*
X169023810Y-99576095D01*
X169261905Y-99576095D01*
X169357143Y-99623714D01*
X169404762Y-99671333D01*
X169452381Y-99766571D01*
X169452381Y-100004667D01*
X169404762Y-100099905D01*
X169357143Y-100147524D01*
X165607143Y-92857143D02*
X165559524Y-92904762D01*
X165416667Y-92952381D01*
X165321429Y-92952381D01*
X165178571Y-92904762D01*
X165083333Y-92809524D01*
X165035714Y-92714286D01*
X164988095Y-92523810D01*
X164988095Y-92380952D01*
X165035714Y-92190476D01*
X165083333Y-92095238D01*
X165178571Y-92000000D01*
X165321429Y-91952381D01*
X165416667Y-91952381D01*
X165559524Y-92000000D01*
X165607143Y-92047619D01*
X165988095Y-92047619D02*
X166035714Y-92000000D01*
X166130952Y-91952381D01*
X166369048Y-91952381D01*
X166464286Y-92000000D01*
X166511905Y-92047619D01*
X166559524Y-92142857D01*
X166559524Y-92238095D01*
X166511905Y-92380952D01*
X165940476Y-92952381D01*
X166559524Y-92952381D01*
X167416667Y-91952381D02*
X167226190Y-91952381D01*
X167130952Y-92000000D01*
X167083333Y-92047619D01*
X166988095Y-92190476D01*
X166940476Y-92380952D01*
X166940476Y-92761905D01*
X166988095Y-92857143D01*
X167035714Y-92904762D01*
X167130952Y-92952381D01*
X167321429Y-92952381D01*
X167416667Y-92904762D01*
X167464286Y-92857143D01*
X167511905Y-92761905D01*
X167511905Y-92523810D01*
X167464286Y-92428571D01*
X167416667Y-92380952D01*
X167321429Y-92333333D01*
X167130952Y-92333333D01*
X167035714Y-92380952D01*
X166988095Y-92428571D01*
X166940476Y-92523810D01*
X162552143Y-126214143D02*
X162504524Y-126261762D01*
X162361667Y-126309381D01*
X162266429Y-126309381D01*
X162123571Y-126261762D01*
X162028333Y-126166524D01*
X161980714Y-126071286D01*
X161933095Y-125880810D01*
X161933095Y-125737952D01*
X161980714Y-125547476D01*
X162028333Y-125452238D01*
X162123571Y-125357000D01*
X162266429Y-125309381D01*
X162361667Y-125309381D01*
X162504524Y-125357000D01*
X162552143Y-125404619D01*
X162933095Y-125404619D02*
X162980714Y-125357000D01*
X163075952Y-125309381D01*
X163314048Y-125309381D01*
X163409286Y-125357000D01*
X163456905Y-125404619D01*
X163504524Y-125499857D01*
X163504524Y-125595095D01*
X163456905Y-125737952D01*
X162885476Y-126309381D01*
X163504524Y-126309381D01*
X163837857Y-125309381D02*
X164504524Y-125309381D01*
X164075952Y-126309381D01*
X162552143Y-124690143D02*
X162504524Y-124737762D01*
X162361667Y-124785381D01*
X162266429Y-124785381D01*
X162123571Y-124737762D01*
X162028333Y-124642524D01*
X161980714Y-124547286D01*
X161933095Y-124356810D01*
X161933095Y-124213952D01*
X161980714Y-124023476D01*
X162028333Y-123928238D01*
X162123571Y-123833000D01*
X162266429Y-123785381D01*
X162361667Y-123785381D01*
X162504524Y-123833000D01*
X162552143Y-123880619D01*
X162933095Y-123880619D02*
X162980714Y-123833000D01*
X163075952Y-123785381D01*
X163314048Y-123785381D01*
X163409286Y-123833000D01*
X163456905Y-123880619D01*
X163504524Y-123975857D01*
X163504524Y-124071095D01*
X163456905Y-124213952D01*
X162885476Y-124785381D01*
X163504524Y-124785381D01*
X164075952Y-124213952D02*
X163980714Y-124166333D01*
X163933095Y-124118714D01*
X163885476Y-124023476D01*
X163885476Y-123975857D01*
X163933095Y-123880619D01*
X163980714Y-123833000D01*
X164075952Y-123785381D01*
X164266429Y-123785381D01*
X164361667Y-123833000D01*
X164409286Y-123880619D01*
X164456905Y-123975857D01*
X164456905Y-124023476D01*
X164409286Y-124118714D01*
X164361667Y-124166333D01*
X164266429Y-124213952D01*
X164075952Y-124213952D01*
X163980714Y-124261571D01*
X163933095Y-124309190D01*
X163885476Y-124404429D01*
X163885476Y-124594905D01*
X163933095Y-124690143D01*
X163980714Y-124737762D01*
X164075952Y-124785381D01*
X164266429Y-124785381D01*
X164361667Y-124737762D01*
X164409286Y-124690143D01*
X164456905Y-124594905D01*
X164456905Y-124404429D01*
X164409286Y-124309190D01*
X164361667Y-124261571D01*
X164266429Y-124213952D01*
X161857143Y-112857143D02*
X161809524Y-112904762D01*
X161666667Y-112952381D01*
X161571429Y-112952381D01*
X161428571Y-112904762D01*
X161333333Y-112809524D01*
X161285714Y-112714286D01*
X161238095Y-112523810D01*
X161238095Y-112380952D01*
X161285714Y-112190476D01*
X161333333Y-112095238D01*
X161428571Y-112000000D01*
X161571429Y-111952381D01*
X161666667Y-111952381D01*
X161809524Y-112000000D01*
X161857143Y-112047619D01*
X162238095Y-112047619D02*
X162285714Y-112000000D01*
X162380952Y-111952381D01*
X162619048Y-111952381D01*
X162714286Y-112000000D01*
X162761905Y-112047619D01*
X162809524Y-112142857D01*
X162809524Y-112238095D01*
X162761905Y-112380952D01*
X162190476Y-112952381D01*
X162809524Y-112952381D01*
X163285714Y-112952381D02*
X163476190Y-112952381D01*
X163571429Y-112904762D01*
X163619048Y-112857143D01*
X163714286Y-112714286D01*
X163761905Y-112523810D01*
X163761905Y-112142857D01*
X163714286Y-112047619D01*
X163666667Y-112000000D01*
X163571429Y-111952381D01*
X163380952Y-111952381D01*
X163285714Y-112000000D01*
X163238095Y-112047619D01*
X163190476Y-112142857D01*
X163190476Y-112380952D01*
X163238095Y-112476190D01*
X163285714Y-112523810D01*
X163380952Y-112571429D01*
X163571429Y-112571429D01*
X163666667Y-112523810D01*
X163714286Y-112476190D01*
X163761905Y-112380952D01*
X139057143Y-97893143D02*
X139009524Y-97940762D01*
X138866667Y-97988381D01*
X138771429Y-97988381D01*
X138628571Y-97940762D01*
X138533333Y-97845524D01*
X138485714Y-97750286D01*
X138438095Y-97559810D01*
X138438095Y-97416952D01*
X138485714Y-97226476D01*
X138533333Y-97131238D01*
X138628571Y-97036000D01*
X138771429Y-96988381D01*
X138866667Y-96988381D01*
X139009524Y-97036000D01*
X139057143Y-97083619D01*
X139390476Y-96988381D02*
X140009524Y-96988381D01*
X139676190Y-97369333D01*
X139819048Y-97369333D01*
X139914286Y-97416952D01*
X139961905Y-97464571D01*
X140009524Y-97559810D01*
X140009524Y-97797905D01*
X139961905Y-97893143D01*
X139914286Y-97940762D01*
X139819048Y-97988381D01*
X139533333Y-97988381D01*
X139438095Y-97940762D01*
X139390476Y-97893143D01*
X140628571Y-96988381D02*
X140723810Y-96988381D01*
X140819048Y-97036000D01*
X140866667Y-97083619D01*
X140914286Y-97178857D01*
X140961905Y-97369333D01*
X140961905Y-97607429D01*
X140914286Y-97797905D01*
X140866667Y-97893143D01*
X140819048Y-97940762D01*
X140723810Y-97988381D01*
X140628571Y-97988381D01*
X140533333Y-97940762D01*
X140485714Y-97893143D01*
X140438095Y-97797905D01*
X140390476Y-97607429D01*
X140390476Y-97369333D01*
X140438095Y-97178857D01*
X140485714Y-97083619D01*
X140533333Y-97036000D01*
X140628571Y-96988381D01*
X159857143Y-97228857D02*
X159904762Y-97276476D01*
X159952381Y-97419333D01*
X159952381Y-97514571D01*
X159904762Y-97657429D01*
X159809524Y-97752667D01*
X159714286Y-97800286D01*
X159523810Y-97847905D01*
X159380952Y-97847905D01*
X159190476Y-97800286D01*
X159095238Y-97752667D01*
X159000000Y-97657429D01*
X158952381Y-97514571D01*
X158952381Y-97419333D01*
X159000000Y-97276476D01*
X159047619Y-97228857D01*
X158952381Y-96895524D02*
X158952381Y-96276476D01*
X159333333Y-96609810D01*
X159333333Y-96466952D01*
X159380952Y-96371714D01*
X159428571Y-96324095D01*
X159523810Y-96276476D01*
X159761905Y-96276476D01*
X159857143Y-96324095D01*
X159904762Y-96371714D01*
X159952381Y-96466952D01*
X159952381Y-96752667D01*
X159904762Y-96847905D01*
X159857143Y-96895524D01*
X159952381Y-95324095D02*
X159952381Y-95895524D01*
X159952381Y-95609810D02*
X158952381Y-95609810D01*
X159095238Y-95705048D01*
X159190476Y-95800286D01*
X159238095Y-95895524D01*
X153857143Y-108561143D02*
X153809524Y-108608762D01*
X153666667Y-108656381D01*
X153571429Y-108656381D01*
X153428571Y-108608762D01*
X153333333Y-108513524D01*
X153285714Y-108418286D01*
X153238095Y-108227810D01*
X153238095Y-108084952D01*
X153285714Y-107894476D01*
X153333333Y-107799238D01*
X153428571Y-107704000D01*
X153571429Y-107656381D01*
X153666667Y-107656381D01*
X153809524Y-107704000D01*
X153857143Y-107751619D01*
X154190476Y-107656381D02*
X154809524Y-107656381D01*
X154476190Y-108037333D01*
X154619048Y-108037333D01*
X154714286Y-108084952D01*
X154761905Y-108132571D01*
X154809524Y-108227810D01*
X154809524Y-108465905D01*
X154761905Y-108561143D01*
X154714286Y-108608762D01*
X154619048Y-108656381D01*
X154333333Y-108656381D01*
X154238095Y-108608762D01*
X154190476Y-108561143D01*
X155190476Y-107751619D02*
X155238095Y-107704000D01*
X155333333Y-107656381D01*
X155571429Y-107656381D01*
X155666667Y-107704000D01*
X155714286Y-107751619D01*
X155761905Y-107846857D01*
X155761905Y-107942095D01*
X155714286Y-108084952D01*
X155142857Y-108656381D01*
X155761905Y-108656381D01*
X139057143Y-99417143D02*
X139009524Y-99464762D01*
X138866667Y-99512381D01*
X138771429Y-99512381D01*
X138628571Y-99464762D01*
X138533333Y-99369524D01*
X138485714Y-99274286D01*
X138438095Y-99083810D01*
X138438095Y-98940952D01*
X138485714Y-98750476D01*
X138533333Y-98655238D01*
X138628571Y-98560000D01*
X138771429Y-98512381D01*
X138866667Y-98512381D01*
X139009524Y-98560000D01*
X139057143Y-98607619D01*
X139390476Y-98512381D02*
X140009524Y-98512381D01*
X139676190Y-98893333D01*
X139819048Y-98893333D01*
X139914286Y-98940952D01*
X139961905Y-98988571D01*
X140009524Y-99083810D01*
X140009524Y-99321905D01*
X139961905Y-99417143D01*
X139914286Y-99464762D01*
X139819048Y-99512381D01*
X139533333Y-99512381D01*
X139438095Y-99464762D01*
X139390476Y-99417143D01*
X140342857Y-98512381D02*
X140961905Y-98512381D01*
X140628571Y-98893333D01*
X140771429Y-98893333D01*
X140866667Y-98940952D01*
X140914286Y-98988571D01*
X140961905Y-99083810D01*
X140961905Y-99321905D01*
X140914286Y-99417143D01*
X140866667Y-99464762D01*
X140771429Y-99512381D01*
X140485714Y-99512381D01*
X140390476Y-99464762D01*
X140342857Y-99417143D01*
X169107143Y-97228857D02*
X169154762Y-97276476D01*
X169202381Y-97419333D01*
X169202381Y-97514571D01*
X169154762Y-97657429D01*
X169059524Y-97752667D01*
X168964286Y-97800286D01*
X168773810Y-97847905D01*
X168630952Y-97847905D01*
X168440476Y-97800286D01*
X168345238Y-97752667D01*
X168250000Y-97657429D01*
X168202381Y-97514571D01*
X168202381Y-97419333D01*
X168250000Y-97276476D01*
X168297619Y-97228857D01*
X168202381Y-96895524D02*
X168202381Y-96276476D01*
X168583333Y-96609810D01*
X168583333Y-96466952D01*
X168630952Y-96371714D01*
X168678571Y-96324095D01*
X168773810Y-96276476D01*
X169011905Y-96276476D01*
X169107143Y-96324095D01*
X169154762Y-96371714D01*
X169202381Y-96466952D01*
X169202381Y-96752667D01*
X169154762Y-96847905D01*
X169107143Y-96895524D01*
X168535714Y-95419333D02*
X169202381Y-95419333D01*
X168154762Y-95657429D02*
X168869048Y-95895524D01*
X168869048Y-95276476D01*
X174109143Y-126214143D02*
X174061524Y-126261762D01*
X173918667Y-126309381D01*
X173823429Y-126309381D01*
X173680571Y-126261762D01*
X173585333Y-126166524D01*
X173537714Y-126071286D01*
X173490095Y-125880810D01*
X173490095Y-125737952D01*
X173537714Y-125547476D01*
X173585333Y-125452238D01*
X173680571Y-125357000D01*
X173823429Y-125309381D01*
X173918667Y-125309381D01*
X174061524Y-125357000D01*
X174109143Y-125404619D01*
X174442476Y-125309381D02*
X175061524Y-125309381D01*
X174728190Y-125690333D01*
X174871048Y-125690333D01*
X174966286Y-125737952D01*
X175013905Y-125785571D01*
X175061524Y-125880810D01*
X175061524Y-126118905D01*
X175013905Y-126214143D01*
X174966286Y-126261762D01*
X174871048Y-126309381D01*
X174585333Y-126309381D01*
X174490095Y-126261762D01*
X174442476Y-126214143D01*
X175966286Y-125309381D02*
X175490095Y-125309381D01*
X175442476Y-125785571D01*
X175490095Y-125737952D01*
X175585333Y-125690333D01*
X175823429Y-125690333D01*
X175918667Y-125737952D01*
X175966286Y-125785571D01*
X176013905Y-125880810D01*
X176013905Y-126118905D01*
X175966286Y-126214143D01*
X175918667Y-126261762D01*
X175823429Y-126309381D01*
X175585333Y-126309381D01*
X175490095Y-126261762D01*
X175442476Y-126214143D01*
X174109143Y-124817143D02*
X174061524Y-124864762D01*
X173918667Y-124912381D01*
X173823429Y-124912381D01*
X173680571Y-124864762D01*
X173585333Y-124769524D01*
X173537714Y-124674286D01*
X173490095Y-124483810D01*
X173490095Y-124340952D01*
X173537714Y-124150476D01*
X173585333Y-124055238D01*
X173680571Y-123960000D01*
X173823429Y-123912381D01*
X173918667Y-123912381D01*
X174061524Y-123960000D01*
X174109143Y-124007619D01*
X174442476Y-123912381D02*
X175061524Y-123912381D01*
X174728190Y-124293333D01*
X174871048Y-124293333D01*
X174966286Y-124340952D01*
X175013905Y-124388571D01*
X175061524Y-124483810D01*
X175061524Y-124721905D01*
X175013905Y-124817143D01*
X174966286Y-124864762D01*
X174871048Y-124912381D01*
X174585333Y-124912381D01*
X174490095Y-124864762D01*
X174442476Y-124817143D01*
X175918667Y-123912381D02*
X175728190Y-123912381D01*
X175632952Y-123960000D01*
X175585333Y-124007619D01*
X175490095Y-124150476D01*
X175442476Y-124340952D01*
X175442476Y-124721905D01*
X175490095Y-124817143D01*
X175537714Y-124864762D01*
X175632952Y-124912381D01*
X175823429Y-124912381D01*
X175918667Y-124864762D01*
X175966286Y-124817143D01*
X176013905Y-124721905D01*
X176013905Y-124483810D01*
X175966286Y-124388571D01*
X175918667Y-124340952D01*
X175823429Y-124293333D01*
X175632952Y-124293333D01*
X175537714Y-124340952D01*
X175490095Y-124388571D01*
X175442476Y-124483810D01*
X167857143Y-105892857D02*
X167904762Y-105940476D01*
X167952381Y-106083333D01*
X167952381Y-106178571D01*
X167904762Y-106321429D01*
X167809524Y-106416667D01*
X167714286Y-106464286D01*
X167523810Y-106511905D01*
X167380952Y-106511905D01*
X167190476Y-106464286D01*
X167095238Y-106416667D01*
X167000000Y-106321429D01*
X166952381Y-106178571D01*
X166952381Y-106083333D01*
X167000000Y-105940476D01*
X167047619Y-105892857D01*
X166952381Y-105559524D02*
X166952381Y-104940476D01*
X167333333Y-105273810D01*
X167333333Y-105130952D01*
X167380952Y-105035714D01*
X167428571Y-104988095D01*
X167523810Y-104940476D01*
X167761905Y-104940476D01*
X167857143Y-104988095D01*
X167904762Y-105035714D01*
X167952381Y-105130952D01*
X167952381Y-105416667D01*
X167904762Y-105511905D01*
X167857143Y-105559524D01*
X166952381Y-104607143D02*
X166952381Y-103940476D01*
X167952381Y-104369048D01*
X160107143Y-101541857D02*
X160154762Y-101589476D01*
X160202381Y-101732333D01*
X160202381Y-101827571D01*
X160154762Y-101970429D01*
X160059524Y-102065667D01*
X159964286Y-102113286D01*
X159773810Y-102160905D01*
X159630952Y-102160905D01*
X159440476Y-102113286D01*
X159345238Y-102065667D01*
X159250000Y-101970429D01*
X159202381Y-101827571D01*
X159202381Y-101732333D01*
X159250000Y-101589476D01*
X159297619Y-101541857D01*
X159202381Y-101208524D02*
X159202381Y-100589476D01*
X159583333Y-100922810D01*
X159583333Y-100779952D01*
X159630952Y-100684714D01*
X159678571Y-100637095D01*
X159773810Y-100589476D01*
X160011905Y-100589476D01*
X160107143Y-100637095D01*
X160154762Y-100684714D01*
X160202381Y-100779952D01*
X160202381Y-101065667D01*
X160154762Y-101160905D01*
X160107143Y-101208524D01*
X159630952Y-100018048D02*
X159583333Y-100113286D01*
X159535714Y-100160905D01*
X159440476Y-100208524D01*
X159392857Y-100208524D01*
X159297619Y-100160905D01*
X159250000Y-100113286D01*
X159202381Y-100018048D01*
X159202381Y-99827571D01*
X159250000Y-99732333D01*
X159297619Y-99684714D01*
X159392857Y-99637095D01*
X159440476Y-99637095D01*
X159535714Y-99684714D01*
X159583333Y-99732333D01*
X159630952Y-99827571D01*
X159630952Y-100018048D01*
X159678571Y-100113286D01*
X159726190Y-100160905D01*
X159821429Y-100208524D01*
X160011905Y-100208524D01*
X160107143Y-100160905D01*
X160154762Y-100113286D01*
X160202381Y-100018048D01*
X160202381Y-99827571D01*
X160154762Y-99732333D01*
X160107143Y-99684714D01*
X160011905Y-99637095D01*
X159821429Y-99637095D01*
X159726190Y-99684714D01*
X159678571Y-99732333D01*
X159630952Y-99827571D01*
X154083334Y-95952381D02*
X153607143Y-95952381D01*
X153607143Y-94952381D01*
X154940477Y-95952381D02*
X154369048Y-95952381D01*
X154654762Y-95952381D02*
X154654762Y-94952381D01*
X154559524Y-95095238D01*
X154464286Y-95190476D01*
X154369048Y-95238095D01*
X148974334Y-95952381D02*
X148498143Y-95952381D01*
X148498143Y-94952381D01*
X149260048Y-95047619D02*
X149307667Y-95000000D01*
X149402905Y-94952381D01*
X149641001Y-94952381D01*
X149736239Y-95000000D01*
X149783858Y-95047619D01*
X149831477Y-95142857D01*
X149831477Y-95238095D01*
X149783858Y-95380952D01*
X149212429Y-95952381D01*
X149831477Y-95952381D01*
X172452381Y-101166666D02*
X172452381Y-101642857D01*
X171452381Y-101642857D01*
X171452381Y-100928571D02*
X171452381Y-100309523D01*
X171833333Y-100642857D01*
X171833333Y-100499999D01*
X171880952Y-100404761D01*
X171928571Y-100357142D01*
X172023810Y-100309523D01*
X172261905Y-100309523D01*
X172357143Y-100357142D01*
X172404762Y-100404761D01*
X172452381Y-100499999D01*
X172452381Y-100785714D01*
X172404762Y-100880952D01*
X172357143Y-100928571D01*
X154308334Y-120340381D02*
X153832143Y-120340381D01*
X153832143Y-119340381D01*
X155070239Y-119673714D02*
X155070239Y-120340381D01*
X154832143Y-119292762D02*
X154594048Y-120007048D01*
X155213096Y-120007048D01*
X154265334Y-119070381D02*
X153789143Y-119070381D01*
X153789143Y-118070381D01*
X155074858Y-118070381D02*
X154598667Y-118070381D01*
X154551048Y-118546571D01*
X154598667Y-118498952D01*
X154693905Y-118451333D01*
X154932001Y-118451333D01*
X155027239Y-118498952D01*
X155074858Y-118546571D01*
X155122477Y-118641810D01*
X155122477Y-118879905D01*
X155074858Y-118975143D01*
X155027239Y-119022762D01*
X154932001Y-119070381D01*
X154693905Y-119070381D01*
X154598667Y-119022762D01*
X154551048Y-118975143D01*
X158702381Y-96416666D02*
X158702381Y-96892857D01*
X157702381Y-96892857D01*
X157702381Y-95654761D02*
X157702381Y-95845238D01*
X157750000Y-95940476D01*
X157797619Y-95988095D01*
X157940476Y-96083333D01*
X158130952Y-96130952D01*
X158511905Y-96130952D01*
X158607143Y-96083333D01*
X158654762Y-96035714D01*
X158702381Y-95940476D01*
X158702381Y-95749999D01*
X158654762Y-95654761D01*
X158607143Y-95607142D01*
X158511905Y-95559523D01*
X158273810Y-95559523D01*
X158178571Y-95607142D01*
X158130952Y-95654761D01*
X158083333Y-95749999D01*
X158083333Y-95940476D01*
X158130952Y-96035714D01*
X158178571Y-96083333D01*
X158273810Y-96130952D01*
X138898334Y-128087381D02*
X138422143Y-128087381D01*
X138422143Y-127087381D01*
X139136429Y-127087381D02*
X139803096Y-127087381D01*
X139374524Y-128087381D01*
X148583334Y-85702381D02*
X148107143Y-85702381D01*
X148107143Y-84702381D01*
X148964286Y-85702381D02*
X149154762Y-85702381D01*
X149250001Y-85654762D01*
X149297620Y-85607143D01*
X149392858Y-85464286D01*
X149440477Y-85273810D01*
X149440477Y-84892857D01*
X149392858Y-84797619D01*
X149345239Y-84750000D01*
X149250001Y-84702381D01*
X149059524Y-84702381D01*
X148964286Y-84750000D01*
X148916667Y-84797619D01*
X148869048Y-84892857D01*
X148869048Y-85130952D01*
X148916667Y-85226190D01*
X148964286Y-85273810D01*
X149059524Y-85321429D01*
X149250001Y-85321429D01*
X149345239Y-85273810D01*
X149392858Y-85226190D01*
X149440477Y-85130952D01*
X152202381Y-88642857D02*
X152202381Y-89119048D01*
X151202381Y-89119048D01*
X152202381Y-87785714D02*
X152202381Y-88357143D01*
X152202381Y-88071429D02*
X151202381Y-88071429D01*
X151345238Y-88166667D01*
X151440476Y-88261905D01*
X151488095Y-88357143D01*
X151202381Y-87166667D02*
X151202381Y-87071428D01*
X151250000Y-86976190D01*
X151297619Y-86928571D01*
X151392857Y-86880952D01*
X151583333Y-86833333D01*
X151821429Y-86833333D01*
X152011905Y-86880952D01*
X152107143Y-86928571D01*
X152154762Y-86976190D01*
X152202381Y-87071428D01*
X152202381Y-87166667D01*
X152154762Y-87261905D01*
X152107143Y-87309524D01*
X152011905Y-87357143D01*
X151821429Y-87404762D01*
X151583333Y-87404762D01*
X151392857Y-87357143D01*
X151297619Y-87309524D01*
X151250000Y-87261905D01*
X151202381Y-87166667D01*
X158318143Y-89738381D02*
X157841952Y-89738381D01*
X157841952Y-88738381D01*
X159175286Y-89738381D02*
X158603857Y-89738381D01*
X158889571Y-89738381D02*
X158889571Y-88738381D01*
X158794333Y-88881238D01*
X158699095Y-88976476D01*
X158603857Y-89024095D01*
X160127667Y-89738381D02*
X159556238Y-89738381D01*
X159841952Y-89738381D02*
X159841952Y-88738381D01*
X159746714Y-88881238D01*
X159651476Y-88976476D01*
X159556238Y-89024095D01*
X150741143Y-127960381D02*
X150264952Y-127960381D01*
X150264952Y-126960381D01*
X151598286Y-127960381D02*
X151026857Y-127960381D01*
X151312571Y-127960381D02*
X151312571Y-126960381D01*
X151217333Y-127103238D01*
X151122095Y-127198476D01*
X151026857Y-127246095D01*
X151979238Y-127055619D02*
X152026857Y-127008000D01*
X152122095Y-126960381D01*
X152360191Y-126960381D01*
X152455429Y-127008000D01*
X152503048Y-127055619D01*
X152550667Y-127150857D01*
X152550667Y-127246095D01*
X152503048Y-127388952D01*
X151931619Y-127960381D01*
X152550667Y-127960381D01*
X158318143Y-86436381D02*
X157841952Y-86436381D01*
X157841952Y-85436381D01*
X159175286Y-86436381D02*
X158603857Y-86436381D01*
X158889571Y-86436381D02*
X158889571Y-85436381D01*
X158794333Y-85579238D01*
X158699095Y-85674476D01*
X158603857Y-85722095D01*
X159508619Y-85436381D02*
X160127667Y-85436381D01*
X159794333Y-85817333D01*
X159937191Y-85817333D01*
X160032429Y-85864952D01*
X160080048Y-85912571D01*
X160127667Y-86007810D01*
X160127667Y-86245905D01*
X160080048Y-86341143D01*
X160032429Y-86388762D01*
X159937191Y-86436381D01*
X159651476Y-86436381D01*
X159556238Y-86388762D01*
X159508619Y-86341143D01*
X140073143Y-88336381D02*
X139596952Y-88336381D01*
X139596952Y-87336381D01*
X140930286Y-88336381D02*
X140358857Y-88336381D01*
X140644571Y-88336381D02*
X140644571Y-87336381D01*
X140549333Y-87479238D01*
X140454095Y-87574476D01*
X140358857Y-87622095D01*
X141835048Y-87336381D02*
X141358857Y-87336381D01*
X141311238Y-87812571D01*
X141358857Y-87764952D01*
X141454095Y-87717333D01*
X141692191Y-87717333D01*
X141787429Y-87764952D01*
X141835048Y-87812571D01*
X141882667Y-87907810D01*
X141882667Y-88145905D01*
X141835048Y-88241143D01*
X141787429Y-88288762D01*
X141692191Y-88336381D01*
X141454095Y-88336381D01*
X141358857Y-88288762D01*
X141311238Y-88241143D01*
X143672143Y-93411381D02*
X143195952Y-93411381D01*
X143195952Y-92411381D01*
X144529286Y-93411381D02*
X143957857Y-93411381D01*
X144243571Y-93411381D02*
X144243571Y-92411381D01*
X144148333Y-92554238D01*
X144053095Y-92649476D01*
X143957857Y-92697095D01*
X145386429Y-92411381D02*
X145195952Y-92411381D01*
X145100714Y-92459000D01*
X145053095Y-92506619D01*
X144957857Y-92649476D01*
X144910238Y-92839952D01*
X144910238Y-93220905D01*
X144957857Y-93316143D01*
X145005476Y-93363762D01*
X145100714Y-93411381D01*
X145291191Y-93411381D01*
X145386429Y-93363762D01*
X145434048Y-93316143D01*
X145481667Y-93220905D01*
X145481667Y-92982810D01*
X145434048Y-92887571D01*
X145386429Y-92839952D01*
X145291191Y-92792333D01*
X145100714Y-92792333D01*
X145005476Y-92839952D01*
X144957857Y-92887571D01*
X144910238Y-92982810D01*
X150357143Y-84952381D02*
X149880952Y-84952381D01*
X149880952Y-83952381D01*
X151214286Y-84952381D02*
X150642857Y-84952381D01*
X150928571Y-84952381D02*
X150928571Y-83952381D01*
X150833333Y-84095238D01*
X150738095Y-84190476D01*
X150642857Y-84238095D01*
X151547619Y-83952381D02*
X152214286Y-83952381D01*
X151785714Y-84952381D01*
X162552143Y-127960381D02*
X162075952Y-127960381D01*
X162075952Y-126960381D01*
X163409286Y-127960381D02*
X162837857Y-127960381D01*
X163123571Y-127960381D02*
X163123571Y-126960381D01*
X163028333Y-127103238D01*
X162933095Y-127198476D01*
X162837857Y-127246095D01*
X163980714Y-127388952D02*
X163885476Y-127341333D01*
X163837857Y-127293714D01*
X163790238Y-127198476D01*
X163790238Y-127150857D01*
X163837857Y-127055619D01*
X163885476Y-127008000D01*
X163980714Y-126960381D01*
X164171191Y-126960381D01*
X164266429Y-127008000D01*
X164314048Y-127055619D01*
X164361667Y-127150857D01*
X164361667Y-127198476D01*
X164314048Y-127293714D01*
X164266429Y-127341333D01*
X164171191Y-127388952D01*
X163980714Y-127388952D01*
X163885476Y-127436571D01*
X163837857Y-127484190D01*
X163790238Y-127579429D01*
X163790238Y-127769905D01*
X163837857Y-127865143D01*
X163885476Y-127912762D01*
X163980714Y-127960381D01*
X164171191Y-127960381D01*
X164266429Y-127912762D01*
X164314048Y-127865143D01*
X164361667Y-127769905D01*
X164361667Y-127579429D01*
X164314048Y-127484190D01*
X164266429Y-127436571D01*
X164171191Y-127388952D01*
X158361143Y-83134381D02*
X157884952Y-83134381D01*
X157884952Y-82134381D01*
X158646857Y-82229619D02*
X158694476Y-82182000D01*
X158789714Y-82134381D01*
X159027810Y-82134381D01*
X159123048Y-82182000D01*
X159170667Y-82229619D01*
X159218286Y-82324857D01*
X159218286Y-82420095D01*
X159170667Y-82562952D01*
X158599238Y-83134381D01*
X159218286Y-83134381D01*
X159837333Y-82134381D02*
X159932572Y-82134381D01*
X160027810Y-82182000D01*
X160075429Y-82229619D01*
X160123048Y-82324857D01*
X160170667Y-82515333D01*
X160170667Y-82753429D01*
X160123048Y-82943905D01*
X160075429Y-83039143D01*
X160027810Y-83086762D01*
X159932572Y-83134381D01*
X159837333Y-83134381D01*
X159742095Y-83086762D01*
X159694476Y-83039143D01*
X159646857Y-82943905D01*
X159599238Y-82753429D01*
X159599238Y-82515333D01*
X159646857Y-82324857D01*
X159694476Y-82229619D01*
X159742095Y-82182000D01*
X159837333Y-82134381D01*
X174109143Y-128087381D02*
X173632952Y-128087381D01*
X173632952Y-127087381D01*
X174394857Y-127182619D02*
X174442476Y-127135000D01*
X174537714Y-127087381D01*
X174775810Y-127087381D01*
X174871048Y-127135000D01*
X174918667Y-127182619D01*
X174966286Y-127277857D01*
X174966286Y-127373095D01*
X174918667Y-127515952D01*
X174347238Y-128087381D01*
X174966286Y-128087381D01*
X175918667Y-128087381D02*
X175347238Y-128087381D01*
X175632952Y-128087381D02*
X175632952Y-127087381D01*
X175537714Y-127230238D01*
X175442476Y-127325476D01*
X175347238Y-127373095D01*
X143202381Y-108916666D02*
X142726190Y-109250000D01*
X143202381Y-109488095D02*
X142202381Y-109488095D01*
X142202381Y-109107142D01*
X142250000Y-109011904D01*
X142297619Y-108964285D01*
X142392857Y-108916666D01*
X142535714Y-108916666D01*
X142630952Y-108964285D01*
X142678571Y-109011904D01*
X142726190Y-109107142D01*
X142726190Y-109488095D01*
X143202381Y-107964285D02*
X143202381Y-108535714D01*
X143202381Y-108250000D02*
X142202381Y-108250000D01*
X142345238Y-108345238D01*
X142440476Y-108440476D01*
X142488095Y-108535714D01*
X148583334Y-86952381D02*
X148250000Y-86476190D01*
X148011905Y-86952381D02*
X148011905Y-85952381D01*
X148392858Y-85952381D01*
X148488096Y-86000000D01*
X148535715Y-86047619D01*
X148583334Y-86142857D01*
X148583334Y-86285714D01*
X148535715Y-86380952D01*
X148488096Y-86428571D01*
X148392858Y-86476190D01*
X148011905Y-86476190D01*
X148964286Y-86047619D02*
X149011905Y-86000000D01*
X149107143Y-85952381D01*
X149345239Y-85952381D01*
X149440477Y-86000000D01*
X149488096Y-86047619D01*
X149535715Y-86142857D01*
X149535715Y-86238095D01*
X149488096Y-86380952D01*
X148916667Y-86952381D01*
X149535715Y-86952381D01*
X152202381Y-90416666D02*
X151726190Y-90750000D01*
X152202381Y-90988095D02*
X151202381Y-90988095D01*
X151202381Y-90607142D01*
X151250000Y-90511904D01*
X151297619Y-90464285D01*
X151392857Y-90416666D01*
X151535714Y-90416666D01*
X151630952Y-90464285D01*
X151678571Y-90511904D01*
X151726190Y-90607142D01*
X151726190Y-90988095D01*
X151202381Y-90083333D02*
X151202381Y-89464285D01*
X151583333Y-89797619D01*
X151583333Y-89654761D01*
X151630952Y-89559523D01*
X151678571Y-89511904D01*
X151773810Y-89464285D01*
X152011905Y-89464285D01*
X152107143Y-89511904D01*
X152154762Y-89559523D01*
X152202381Y-89654761D01*
X152202381Y-89940476D01*
X152154762Y-90035714D01*
X152107143Y-90083333D01*
X158794334Y-94952381D02*
X158461000Y-94476190D01*
X158222905Y-94952381D02*
X158222905Y-93952381D01*
X158603858Y-93952381D01*
X158699096Y-94000000D01*
X158746715Y-94047619D01*
X158794334Y-94142857D01*
X158794334Y-94285714D01*
X158746715Y-94380952D01*
X158699096Y-94428571D01*
X158603858Y-94476190D01*
X158222905Y-94476190D01*
X159651477Y-94285714D02*
X159651477Y-94952381D01*
X159413381Y-93904762D02*
X159175286Y-94619048D01*
X159794334Y-94619048D01*
X158794334Y-88087381D02*
X158461000Y-87611190D01*
X158222905Y-88087381D02*
X158222905Y-87087381D01*
X158603858Y-87087381D01*
X158699096Y-87135000D01*
X158746715Y-87182619D01*
X158794334Y-87277857D01*
X158794334Y-87420714D01*
X158746715Y-87515952D01*
X158699096Y-87563571D01*
X158603858Y-87611190D01*
X158222905Y-87611190D01*
X159699096Y-87087381D02*
X159222905Y-87087381D01*
X159175286Y-87563571D01*
X159222905Y-87515952D01*
X159318143Y-87468333D01*
X159556239Y-87468333D01*
X159651477Y-87515952D01*
X159699096Y-87563571D01*
X159746715Y-87658810D01*
X159746715Y-87896905D01*
X159699096Y-87992143D01*
X159651477Y-88039762D01*
X159556239Y-88087381D01*
X159318143Y-88087381D01*
X159222905Y-88039762D01*
X159175286Y-87992143D01*
X145799334Y-114498381D02*
X145466000Y-114022190D01*
X145227905Y-114498381D02*
X145227905Y-113498381D01*
X145608858Y-113498381D01*
X145704096Y-113546000D01*
X145751715Y-113593619D01*
X145799334Y-113688857D01*
X145799334Y-113831714D01*
X145751715Y-113926952D01*
X145704096Y-113974571D01*
X145608858Y-114022190D01*
X145227905Y-114022190D01*
X146656477Y-113498381D02*
X146466000Y-113498381D01*
X146370762Y-113546000D01*
X146323143Y-113593619D01*
X146227905Y-113736476D01*
X146180286Y-113926952D01*
X146180286Y-114307905D01*
X146227905Y-114403143D01*
X146275524Y-114450762D01*
X146370762Y-114498381D01*
X146561239Y-114498381D01*
X146656477Y-114450762D01*
X146704096Y-114403143D01*
X146751715Y-114307905D01*
X146751715Y-114069810D01*
X146704096Y-113974571D01*
X146656477Y-113926952D01*
X146561239Y-113879333D01*
X146370762Y-113879333D01*
X146275524Y-113926952D01*
X146227905Y-113974571D01*
X146180286Y-114069810D01*
X140803334Y-89860381D02*
X140470000Y-89384190D01*
X140231905Y-89860381D02*
X140231905Y-88860381D01*
X140612858Y-88860381D01*
X140708096Y-88908000D01*
X140755715Y-88955619D01*
X140803334Y-89050857D01*
X140803334Y-89193714D01*
X140755715Y-89288952D01*
X140708096Y-89336571D01*
X140612858Y-89384190D01*
X140231905Y-89384190D01*
X141136667Y-88860381D02*
X141803334Y-88860381D01*
X141374762Y-89860381D01*
X144148334Y-95062381D02*
X143815000Y-94586190D01*
X143576905Y-95062381D02*
X143576905Y-94062381D01*
X143957858Y-94062381D01*
X144053096Y-94110000D01*
X144100715Y-94157619D01*
X144148334Y-94252857D01*
X144148334Y-94395714D01*
X144100715Y-94490952D01*
X144053096Y-94538571D01*
X143957858Y-94586190D01*
X143576905Y-94586190D01*
X144719762Y-94490952D02*
X144624524Y-94443333D01*
X144576905Y-94395714D01*
X144529286Y-94300476D01*
X144529286Y-94252857D01*
X144576905Y-94157619D01*
X144624524Y-94110000D01*
X144719762Y-94062381D01*
X144910239Y-94062381D01*
X145005477Y-94110000D01*
X145053096Y-94157619D01*
X145100715Y-94252857D01*
X145100715Y-94300476D01*
X145053096Y-94395714D01*
X145005477Y-94443333D01*
X144910239Y-94490952D01*
X144719762Y-94490952D01*
X144624524Y-94538571D01*
X144576905Y-94586190D01*
X144529286Y-94681429D01*
X144529286Y-94871905D01*
X144576905Y-94967143D01*
X144624524Y-95014762D01*
X144719762Y-95062381D01*
X144910239Y-95062381D01*
X145005477Y-95014762D01*
X145053096Y-94967143D01*
X145100715Y-94871905D01*
X145100715Y-94681429D01*
X145053096Y-94586190D01*
X145005477Y-94538571D01*
X144910239Y-94490952D01*
X151083334Y-86452381D02*
X150750000Y-85976190D01*
X150511905Y-86452381D02*
X150511905Y-85452381D01*
X150892858Y-85452381D01*
X150988096Y-85500000D01*
X151035715Y-85547619D01*
X151083334Y-85642857D01*
X151083334Y-85785714D01*
X151035715Y-85880952D01*
X150988096Y-85928571D01*
X150892858Y-85976190D01*
X150511905Y-85976190D01*
X151559524Y-86452381D02*
X151750000Y-86452381D01*
X151845239Y-86404762D01*
X151892858Y-86357143D01*
X151988096Y-86214286D01*
X152035715Y-86023810D01*
X152035715Y-85642857D01*
X151988096Y-85547619D01*
X151940477Y-85500000D01*
X151845239Y-85452381D01*
X151654762Y-85452381D01*
X151559524Y-85500000D01*
X151511905Y-85547619D01*
X151464286Y-85642857D01*
X151464286Y-85880952D01*
X151511905Y-85976190D01*
X151559524Y-86023810D01*
X151654762Y-86071429D01*
X151845239Y-86071429D01*
X151940477Y-86023810D01*
X151988096Y-85976190D01*
X152035715Y-85880952D01*
X161857143Y-111452381D02*
X161523809Y-110976190D01*
X161285714Y-111452381D02*
X161285714Y-110452381D01*
X161666667Y-110452381D01*
X161761905Y-110500000D01*
X161809524Y-110547619D01*
X161857143Y-110642857D01*
X161857143Y-110785714D01*
X161809524Y-110880952D01*
X161761905Y-110928571D01*
X161666667Y-110976190D01*
X161285714Y-110976190D01*
X162809524Y-111452381D02*
X162238095Y-111452381D01*
X162523809Y-111452381D02*
X162523809Y-110452381D01*
X162428571Y-110595238D01*
X162333333Y-110690476D01*
X162238095Y-110738095D01*
X163428571Y-110452381D02*
X163523810Y-110452381D01*
X163619048Y-110500000D01*
X163666667Y-110547619D01*
X163714286Y-110642857D01*
X163761905Y-110833333D01*
X163761905Y-111071429D01*
X163714286Y-111261905D01*
X163666667Y-111357143D01*
X163619048Y-111404762D01*
X163523810Y-111452381D01*
X163428571Y-111452381D01*
X163333333Y-111404762D01*
X163285714Y-111357143D01*
X163238095Y-111261905D01*
X163190476Y-111071429D01*
X163190476Y-110833333D01*
X163238095Y-110642857D01*
X163285714Y-110547619D01*
X163333333Y-110500000D01*
X163428571Y-110452381D01*
X158340643Y-84785381D02*
X158007309Y-84309190D01*
X157769214Y-84785381D02*
X157769214Y-83785381D01*
X158150167Y-83785381D01*
X158245405Y-83833000D01*
X158293024Y-83880619D01*
X158340643Y-83975857D01*
X158340643Y-84118714D01*
X158293024Y-84213952D01*
X158245405Y-84261571D01*
X158150167Y-84309190D01*
X157769214Y-84309190D01*
X159293024Y-84785381D02*
X158721595Y-84785381D01*
X159007309Y-84785381D02*
X159007309Y-83785381D01*
X158912071Y-83928238D01*
X158816833Y-84023476D01*
X158721595Y-84071095D01*
X160245405Y-84785381D02*
X159673976Y-84785381D01*
X159959690Y-84785381D02*
X159959690Y-83785381D01*
X159864452Y-83928238D01*
X159769214Y-84023476D01*
X159673976Y-84071095D01*
X166452381Y-105968857D02*
X165976190Y-106302191D01*
X166452381Y-106540286D02*
X165452381Y-106540286D01*
X165452381Y-106159333D01*
X165500000Y-106064095D01*
X165547619Y-106016476D01*
X165642857Y-105968857D01*
X165785714Y-105968857D01*
X165880952Y-106016476D01*
X165928571Y-106064095D01*
X165976190Y-106159333D01*
X165976190Y-106540286D01*
X166452381Y-105016476D02*
X166452381Y-105587905D01*
X166452381Y-105302191D02*
X165452381Y-105302191D01*
X165595238Y-105397429D01*
X165690476Y-105492667D01*
X165738095Y-105587905D01*
X165547619Y-104635524D02*
X165500000Y-104587905D01*
X165452381Y-104492667D01*
X165452381Y-104254571D01*
X165500000Y-104159333D01*
X165547619Y-104111714D01*
X165642857Y-104064095D01*
X165738095Y-104064095D01*
X165880952Y-104111714D01*
X166452381Y-104683143D01*
X166452381Y-104064095D01*
X173107143Y-99702381D02*
X172773809Y-99226190D01*
X172535714Y-99702381D02*
X172535714Y-98702381D01*
X172916667Y-98702381D01*
X173011905Y-98750000D01*
X173059524Y-98797619D01*
X173107143Y-98892857D01*
X173107143Y-99035714D01*
X173059524Y-99130952D01*
X173011905Y-99178571D01*
X172916667Y-99226190D01*
X172535714Y-99226190D01*
X174059524Y-99702381D02*
X173488095Y-99702381D01*
X173773809Y-99702381D02*
X173773809Y-98702381D01*
X173678571Y-98845238D01*
X173583333Y-98940476D01*
X173488095Y-98988095D01*
X174392857Y-98702381D02*
X175011905Y-98702381D01*
X174678571Y-99083333D01*
X174821429Y-99083333D01*
X174916667Y-99130952D01*
X174964286Y-99178571D01*
X175011905Y-99273810D01*
X175011905Y-99511905D01*
X174964286Y-99607143D01*
X174916667Y-99654762D01*
X174821429Y-99702381D01*
X174535714Y-99702381D01*
X174440476Y-99654762D01*
X174392857Y-99607143D01*
X175607143Y-82202381D02*
X175273809Y-81726190D01*
X175035714Y-82202381D02*
X175035714Y-81202381D01*
X175416667Y-81202381D01*
X175511905Y-81250000D01*
X175559524Y-81297619D01*
X175607143Y-81392857D01*
X175607143Y-81535714D01*
X175559524Y-81630952D01*
X175511905Y-81678571D01*
X175416667Y-81726190D01*
X175035714Y-81726190D01*
X176559524Y-82202381D02*
X175988095Y-82202381D01*
X176273809Y-82202381D02*
X176273809Y-81202381D01*
X176178571Y-81345238D01*
X176083333Y-81440476D01*
X175988095Y-81488095D01*
X177416667Y-81535714D02*
X177416667Y-82202381D01*
X177178571Y-81154762D02*
X176940476Y-81869048D01*
X177559524Y-81869048D01*
X179014381Y-81160857D02*
X178538190Y-81494191D01*
X179014381Y-81732286D02*
X178014381Y-81732286D01*
X178014381Y-81351333D01*
X178062000Y-81256095D01*
X178109619Y-81208476D01*
X178204857Y-81160857D01*
X178347714Y-81160857D01*
X178442952Y-81208476D01*
X178490571Y-81256095D01*
X178538190Y-81351333D01*
X178538190Y-81732286D01*
X179014381Y-80208476D02*
X179014381Y-80779905D01*
X179014381Y-80494191D02*
X178014381Y-80494191D01*
X178157238Y-80589429D01*
X178252476Y-80684667D01*
X178300095Y-80779905D01*
X178014381Y-79303714D02*
X178014381Y-79779905D01*
X178490571Y-79827524D01*
X178442952Y-79779905D01*
X178395333Y-79684667D01*
X178395333Y-79446571D01*
X178442952Y-79351333D01*
X178490571Y-79303714D01*
X178585810Y-79256095D01*
X178823905Y-79256095D01*
X178919143Y-79303714D01*
X178966762Y-79351333D01*
X179014381Y-79446571D01*
X179014381Y-79684667D01*
X178966762Y-79779905D01*
X178919143Y-79827524D01*
X172607143Y-82202381D02*
X172273809Y-81726190D01*
X172035714Y-82202381D02*
X172035714Y-81202381D01*
X172416667Y-81202381D01*
X172511905Y-81250000D01*
X172559524Y-81297619D01*
X172607143Y-81392857D01*
X172607143Y-81535714D01*
X172559524Y-81630952D01*
X172511905Y-81678571D01*
X172416667Y-81726190D01*
X172035714Y-81726190D01*
X173559524Y-82202381D02*
X172988095Y-82202381D01*
X173273809Y-82202381D02*
X173273809Y-81202381D01*
X173178571Y-81345238D01*
X173083333Y-81440476D01*
X172988095Y-81488095D01*
X174416667Y-81202381D02*
X174226190Y-81202381D01*
X174130952Y-81250000D01*
X174083333Y-81297619D01*
X173988095Y-81440476D01*
X173940476Y-81630952D01*
X173940476Y-82011905D01*
X173988095Y-82107143D01*
X174035714Y-82154762D01*
X174130952Y-82202381D01*
X174321429Y-82202381D01*
X174416667Y-82154762D01*
X174464286Y-82107143D01*
X174511905Y-82011905D01*
X174511905Y-81773810D01*
X174464286Y-81678571D01*
X174416667Y-81630952D01*
X174321429Y-81583333D01*
X174130952Y-81583333D01*
X174035714Y-81630952D01*
X173988095Y-81678571D01*
X173940476Y-81773810D01*
X173136143Y-93702381D02*
X172802809Y-93226190D01*
X172564714Y-93702381D02*
X172564714Y-92702381D01*
X172945667Y-92702381D01*
X173040905Y-92750000D01*
X173088524Y-92797619D01*
X173136143Y-92892857D01*
X173136143Y-93035714D01*
X173088524Y-93130952D01*
X173040905Y-93178571D01*
X172945667Y-93226190D01*
X172564714Y-93226190D01*
X174088524Y-93702381D02*
X173517095Y-93702381D01*
X173802809Y-93702381D02*
X173802809Y-92702381D01*
X173707571Y-92845238D01*
X173612333Y-92940476D01*
X173517095Y-92988095D01*
X174421857Y-92702381D02*
X175088524Y-92702381D01*
X174659952Y-93702381D01*
X177452381Y-92392857D02*
X176976190Y-92726191D01*
X177452381Y-92964286D02*
X176452381Y-92964286D01*
X176452381Y-92583333D01*
X176500000Y-92488095D01*
X176547619Y-92440476D01*
X176642857Y-92392857D01*
X176785714Y-92392857D01*
X176880952Y-92440476D01*
X176928571Y-92488095D01*
X176976190Y-92583333D01*
X176976190Y-92964286D01*
X177452381Y-91440476D02*
X177452381Y-92011905D01*
X177452381Y-91726191D02*
X176452381Y-91726191D01*
X176595238Y-91821429D01*
X176690476Y-91916667D01*
X176738095Y-92011905D01*
X176880952Y-90869048D02*
X176833333Y-90964286D01*
X176785714Y-91011905D01*
X176690476Y-91059524D01*
X176642857Y-91059524D01*
X176547619Y-91011905D01*
X176500000Y-90964286D01*
X176452381Y-90869048D01*
X176452381Y-90678571D01*
X176500000Y-90583333D01*
X176547619Y-90535714D01*
X176642857Y-90488095D01*
X176690476Y-90488095D01*
X176785714Y-90535714D01*
X176833333Y-90583333D01*
X176880952Y-90678571D01*
X176880952Y-90869048D01*
X176928571Y-90964286D01*
X176976190Y-91011905D01*
X177071429Y-91059524D01*
X177261905Y-91059524D01*
X177357143Y-91011905D01*
X177404762Y-90964286D01*
X177452381Y-90869048D01*
X177452381Y-90678571D01*
X177404762Y-90583333D01*
X177357143Y-90535714D01*
X177261905Y-90488095D01*
X177071429Y-90488095D01*
X176976190Y-90535714D01*
X176928571Y-90583333D01*
X176880952Y-90678571D01*
X179202381Y-92392857D02*
X178726190Y-92726191D01*
X179202381Y-92964286D02*
X178202381Y-92964286D01*
X178202381Y-92583333D01*
X178250000Y-92488095D01*
X178297619Y-92440476D01*
X178392857Y-92392857D01*
X178535714Y-92392857D01*
X178630952Y-92440476D01*
X178678571Y-92488095D01*
X178726190Y-92583333D01*
X178726190Y-92964286D01*
X179202381Y-91440476D02*
X179202381Y-92011905D01*
X179202381Y-91726191D02*
X178202381Y-91726191D01*
X178345238Y-91821429D01*
X178440476Y-91916667D01*
X178488095Y-92011905D01*
X179202381Y-90964286D02*
X179202381Y-90773810D01*
X179154762Y-90678571D01*
X179107143Y-90630952D01*
X178964286Y-90535714D01*
X178773810Y-90488095D01*
X178392857Y-90488095D01*
X178297619Y-90535714D01*
X178250000Y-90583333D01*
X178202381Y-90678571D01*
X178202381Y-90869048D01*
X178250000Y-90964286D01*
X178297619Y-91011905D01*
X178392857Y-91059524D01*
X178630952Y-91059524D01*
X178726190Y-91011905D01*
X178773810Y-90964286D01*
X178821429Y-90869048D01*
X178821429Y-90678571D01*
X178773810Y-90583333D01*
X178726190Y-90535714D01*
X178630952Y-90488095D01*
X174202381Y-90642857D02*
X173726190Y-90976191D01*
X174202381Y-91214286D02*
X173202381Y-91214286D01*
X173202381Y-90833333D01*
X173250000Y-90738095D01*
X173297619Y-90690476D01*
X173392857Y-90642857D01*
X173535714Y-90642857D01*
X173630952Y-90690476D01*
X173678571Y-90738095D01*
X173726190Y-90833333D01*
X173726190Y-91214286D01*
X173297619Y-90261905D02*
X173250000Y-90214286D01*
X173202381Y-90119048D01*
X173202381Y-89880952D01*
X173250000Y-89785714D01*
X173297619Y-89738095D01*
X173392857Y-89690476D01*
X173488095Y-89690476D01*
X173630952Y-89738095D01*
X174202381Y-90309524D01*
X174202381Y-89690476D01*
X173202381Y-89071429D02*
X173202381Y-88976190D01*
X173250000Y-88880952D01*
X173297619Y-88833333D01*
X173392857Y-88785714D01*
X173583333Y-88738095D01*
X173821429Y-88738095D01*
X174011905Y-88785714D01*
X174107143Y-88833333D01*
X174154762Y-88880952D01*
X174202381Y-88976190D01*
X174202381Y-89071429D01*
X174154762Y-89166667D01*
X174107143Y-89214286D01*
X174011905Y-89261905D01*
X173821429Y-89309524D01*
X173583333Y-89309524D01*
X173392857Y-89261905D01*
X173297619Y-89214286D01*
X173250000Y-89166667D01*
X173202381Y-89071429D01*
%LPC*%
D17*
X159512000Y-140716000D03*
X162052000Y-138176000D03*
X162052000Y-143256000D03*
X156972000Y-138176000D03*
X156972000Y-143256000D03*
D18*
X175387000Y-78867000D03*
D17*
X136144000Y-140716000D03*
X138684000Y-138176000D03*
X138684000Y-143256000D03*
X133604000Y-138176000D03*
X133604000Y-143256000D03*
X147828000Y-140716000D03*
X150368000Y-138176000D03*
X150368000Y-143256000D03*
X145288000Y-138176000D03*
X145288000Y-143256000D03*
X171196000Y-140716000D03*
X173736000Y-138176000D03*
X173736000Y-143256000D03*
X168656000Y-138176000D03*
X168656000Y-143256000D03*
D19*
X177800000Y-94996000D03*
D20*
X177800000Y-97536000D03*
X177800000Y-100076000D03*
X177800000Y-102616000D03*
X177800000Y-105156000D03*
X177800000Y-107696000D03*
X177800000Y-110236000D03*
X177800000Y-112776000D03*
X177800000Y-115316000D03*
X177800000Y-117856000D03*
D19*
X129540000Y-104140000D03*
D20*
X129540000Y-106680000D03*
X129540000Y-109220000D03*
X129540000Y-111760000D03*
X129540000Y-114300000D03*
X129540000Y-116840000D03*
X129540000Y-119380000D03*
X129540000Y-121920000D03*
D19*
X177800000Y-121920000D03*
D20*
X177800000Y-124460000D03*
X177800000Y-127000000D03*
X177800000Y-129540000D03*
X177800000Y-132080000D03*
X177800000Y-134620000D03*
X177800000Y-137160000D03*
X177800000Y-139700000D03*
D19*
X129540000Y-127000000D03*
D20*
X129540000Y-129540000D03*
X129540000Y-132080000D03*
X129540000Y-134620000D03*
X129540000Y-137160000D03*
X129540000Y-139700000D03*
D21*
X133278000Y-131826000D03*
X136978000Y-131826000D03*
X145216000Y-131826000D03*
X148916000Y-131826000D03*
X156900000Y-131826000D03*
X160600000Y-131826000D03*
X168584000Y-131826000D03*
X172284000Y-131826000D03*
D22*
X148894800Y-105664000D03*
X149402800Y-105664000D03*
X149910800Y-105664000D03*
X150393400Y-105664000D03*
X150901400Y-105664000D03*
X151409400Y-105664000D03*
X151892000Y-105664000D03*
X152400000Y-105664000D03*
X152908000Y-105664000D03*
X153416000Y-105664000D03*
X153898600Y-105664000D03*
X154406600Y-105664000D03*
X154914600Y-105664000D03*
X155397200Y-105664000D03*
X155905200Y-105664000D03*
X156413200Y-105664000D03*
D23*
X157045660Y-105031540D03*
X157045660Y-104523540D03*
X157045660Y-104015540D03*
X157045660Y-103532940D03*
X157045660Y-103024940D03*
X157045660Y-102516940D03*
X157045660Y-102034340D03*
X157045660Y-101526340D03*
X157045660Y-101018340D03*
X157045660Y-100510340D03*
X157045660Y-100027740D03*
X157045660Y-99519740D03*
X157045660Y-99011740D03*
X157045660Y-98529140D03*
X157045660Y-98021140D03*
X157045660Y-97513140D03*
D22*
X156413200Y-96880680D03*
X155905200Y-96880680D03*
X155397200Y-96880680D03*
X154914600Y-96880680D03*
X154406600Y-96880680D03*
X153898600Y-96880680D03*
X153416000Y-96880680D03*
X152908000Y-96880680D03*
X152400000Y-96880680D03*
X151892000Y-96880680D03*
X151409400Y-96880680D03*
X150901400Y-96880680D03*
X150393400Y-96880680D03*
X149910800Y-96880680D03*
X149402800Y-96880680D03*
X148894800Y-96880680D03*
D23*
X148262340Y-97513140D03*
X148262340Y-98021140D03*
X148262340Y-98529140D03*
X148262340Y-99011740D03*
X148262340Y-99519740D03*
X148262340Y-100027740D03*
X148262340Y-100510340D03*
X148262340Y-101018340D03*
X148262340Y-101526340D03*
X148262340Y-102034340D03*
X148262340Y-102516940D03*
X148262340Y-103024940D03*
X148262340Y-103532940D03*
X148262340Y-104015540D03*
X148262340Y-104523540D03*
X148262340Y-105031540D03*
D24*
X152654000Y-101272340D03*
D25*
X170391000Y-81976000D03*
X170391000Y-81026000D03*
X170391000Y-80076000D03*
X168191000Y-80076000D03*
X168191000Y-81976000D03*
D26*
X166468000Y-83775000D03*
X166468000Y-84425000D03*
X166468000Y-85075000D03*
X166468000Y-85725000D03*
X166468000Y-86375000D03*
X166468000Y-87025000D03*
X166468000Y-87675000D03*
X172368000Y-87675000D03*
X172368000Y-87025000D03*
X172368000Y-86375000D03*
X172368000Y-85725000D03*
X172368000Y-85075000D03*
X172368000Y-84425000D03*
X172368000Y-83775000D03*
D19*
X137223500Y-121793000D03*
X149098000Y-121793000D03*
X160782000Y-121793000D03*
X163576000Y-82423000D03*
X163576000Y-86106000D03*
X172466000Y-121793000D03*
X133858000Y-81788000D03*
X141224000Y-81788000D03*
X148590000Y-81788000D03*
X155956000Y-81788000D03*
X137541000Y-81788000D03*
X144907000Y-81788000D03*
X152273000Y-81788000D03*
X159639000Y-81788000D03*
D27*
X144272000Y-102489000D03*
X144272000Y-100589000D03*
D28*
X149357000Y-109474000D03*
X151257000Y-109474000D03*
X155448000Y-109474000D03*
X153548000Y-109474000D03*
D27*
X161036000Y-101849000D03*
X161036000Y-99949000D03*
D28*
X135001000Y-125857000D03*
X136901000Y-125857000D03*
X155062000Y-91122500D03*
X153162000Y-91122500D03*
X150304500Y-91122500D03*
X148404500Y-91122500D03*
D27*
X165608000Y-99954000D03*
X165608000Y-101854000D03*
D28*
X151572000Y-115697000D03*
X149672000Y-115697000D03*
X153548000Y-112522000D03*
X155448000Y-112522000D03*
D27*
X164084000Y-97536000D03*
X164084000Y-95636000D03*
D28*
X136906000Y-124333000D03*
X135006000Y-124333000D03*
D27*
X144272000Y-104775000D03*
X144272000Y-106675000D03*
X142748000Y-102489000D03*
X142748000Y-100589000D03*
X141224000Y-106675000D03*
X141224000Y-104775000D03*
D28*
X146939000Y-125857000D03*
X148839000Y-125857000D03*
X151191000Y-112522000D03*
X149291000Y-112522000D03*
X148839000Y-124333000D03*
X146939000Y-124333000D03*
X147000000Y-109474000D03*
X145100000Y-109474000D03*
X159700000Y-109474000D03*
X157800000Y-109474000D03*
D27*
X161036000Y-106106000D03*
X161036000Y-104206000D03*
D28*
X149352000Y-110998000D03*
X151252000Y-110998000D03*
X142245000Y-95885000D03*
X144145000Y-95885000D03*
X142245000Y-94361000D03*
X144145000Y-94361000D03*
D27*
X164084000Y-101788000D03*
X164084000Y-99888000D03*
D28*
X165415000Y-93980000D03*
X163515000Y-93980000D03*
X158623000Y-125857000D03*
X160523000Y-125857000D03*
X160523000Y-124333000D03*
X158623000Y-124333000D03*
X157861000Y-112522000D03*
X159761000Y-112522000D03*
X142240000Y-97409000D03*
X144140000Y-97409000D03*
D27*
X162560000Y-95636000D03*
X162560000Y-97536000D03*
D28*
X155509000Y-110998000D03*
X153609000Y-110998000D03*
X144140000Y-98933000D03*
X142240000Y-98933000D03*
D27*
X165608000Y-97536000D03*
X165608000Y-95636000D03*
D28*
X170307000Y-125857000D03*
X172207000Y-125857000D03*
X172207000Y-124333000D03*
X170307000Y-124333000D03*
D27*
X164084000Y-104203500D03*
X164084000Y-106103500D03*
X162560000Y-101849000D03*
X162560000Y-99949000D03*
D29*
X153162000Y-92710000D03*
X155362000Y-92710000D03*
X148041000Y-92710000D03*
X150241000Y-92710000D03*
D30*
X167132000Y-102108000D03*
X167132000Y-99908000D03*
D29*
X155575000Y-115697000D03*
X153375000Y-115697000D03*
X155575000Y-114046000D03*
X153375000Y-114046000D03*
D30*
X161036000Y-95336000D03*
X161036000Y-97536000D03*
D29*
X136906000Y-127508000D03*
X134706000Y-127508000D03*
X148082000Y-87884000D03*
X150282000Y-87884000D03*
X153162000Y-87884000D03*
X155362000Y-87884000D03*
X157861000Y-91186000D03*
X160061000Y-91186000D03*
X148885000Y-127508000D03*
X146685000Y-127508000D03*
X157861000Y-87884000D03*
X160061000Y-87884000D03*
X145415000Y-87757000D03*
X143215000Y-87757000D03*
X145415000Y-91059000D03*
X143215000Y-91059000D03*
X153121000Y-84582000D03*
X155321000Y-84582000D03*
X160569000Y-127508000D03*
X158369000Y-127508000D03*
X157904000Y-84582000D03*
X160104000Y-84582000D03*
X172253000Y-127508000D03*
X170053000Y-127508000D03*
D30*
X142748000Y-106975000D03*
X142748000Y-104775000D03*
D29*
X148082000Y-89535000D03*
X150282000Y-89535000D03*
X153162000Y-89535000D03*
X155362000Y-89535000D03*
X157861000Y-92837000D03*
X160061000Y-92837000D03*
X157861000Y-89535000D03*
X160061000Y-89535000D03*
X144866000Y-111061500D03*
X147066000Y-111061500D03*
X145415000Y-89408000D03*
X143215000Y-89408000D03*
X145415000Y-92710000D03*
X143215000Y-92710000D03*
X153121000Y-86233000D03*
X155321000Y-86233000D03*
X159977000Y-110998000D03*
X157777000Y-110998000D03*
X157883500Y-86233000D03*
X160083500Y-86233000D03*
D30*
X162560000Y-106426000D03*
X162560000Y-104226000D03*
D29*
X172679000Y-97536000D03*
X174879000Y-97536000D03*
D30*
X176911000Y-83271000D03*
X176911000Y-85471000D03*
X178562000Y-83271000D03*
X178562000Y-85471000D03*
X175260000Y-83271000D03*
X175260000Y-85471000D03*
D29*
X172679000Y-94996000D03*
X174879000Y-94996000D03*
D30*
X176911000Y-87292000D03*
X176911000Y-89492000D03*
X178562000Y-87292000D03*
X178562000Y-89492000D03*
X175260000Y-87312500D03*
X175260000Y-89512500D03*
D18*
X129921000Y-78994000D03*
M02*
