G04 #@! TF.FileFunction,Paste,Bot*
%FSLAX46Y46*%
G04 Gerber Fmt 4.6, Leading zero omitted, Abs format (unit mm)*
G04 Created by KiCad (PCBNEW 4.0.7) date 04/28/18 13:58:35*
%MOMM*%
%LPD*%
G01*
G04 APERTURE LIST*
%ADD10C,0.100000*%
%ADD11C,1.506220*%
%ADD12R,1.550000X0.600000*%
%ADD13R,1.200000X0.750000*%
%ADD14R,1.500000X1.250000*%
%ADD15R,0.900000X1.200000*%
%ADD16R,1.200000X0.900000*%
%ADD17R,2.000000X2.500000*%
G04 APERTURE END LIST*
D10*
D11*
X159512000Y-140716000D03*
X162052000Y-138176000D03*
X162052000Y-143256000D03*
X156972000Y-138176000D03*
X156972000Y-143256000D03*
X136144000Y-140716000D03*
X138684000Y-138176000D03*
X138684000Y-143256000D03*
X133604000Y-138176000D03*
X133604000Y-143256000D03*
X147828000Y-140716000D03*
X150368000Y-138176000D03*
X150368000Y-143256000D03*
X145288000Y-138176000D03*
X145288000Y-143256000D03*
X171196000Y-140716000D03*
X173736000Y-138176000D03*
X173736000Y-143256000D03*
X168656000Y-138176000D03*
X168656000Y-143256000D03*
D12*
X141412000Y-106045000D03*
X141412000Y-104775000D03*
X141412000Y-103505000D03*
X141412000Y-102235000D03*
X146812000Y-102235000D03*
X146812000Y-103505000D03*
X146812000Y-104775000D03*
X146812000Y-106045000D03*
X160401000Y-106045000D03*
X160401000Y-104775000D03*
X160401000Y-103505000D03*
X160401000Y-102235000D03*
X165801000Y-102235000D03*
X165801000Y-103505000D03*
X165801000Y-104775000D03*
X165801000Y-106045000D03*
D13*
X136652000Y-97536000D03*
X138552000Y-97536000D03*
X155575000Y-97536000D03*
X157475000Y-97536000D03*
X147000000Y-107823000D03*
X145100000Y-107823000D03*
X165923000Y-107823000D03*
X164023000Y-107823000D03*
X141351000Y-109474000D03*
X143251000Y-109474000D03*
X160213000Y-109474000D03*
X162113000Y-109474000D03*
X142936000Y-97536000D03*
X141036000Y-97536000D03*
X161859000Y-97536000D03*
X159959000Y-97536000D03*
D14*
X139085000Y-118364000D03*
X141585000Y-118364000D03*
D13*
X151511000Y-97536000D03*
X149611000Y-97536000D03*
X170429000Y-97536000D03*
X168529000Y-97536000D03*
X147000000Y-109474000D03*
X145100000Y-109474000D03*
X165923000Y-109474000D03*
X164023000Y-109474000D03*
X145161000Y-97536000D03*
X147061000Y-97536000D03*
X164216000Y-97536000D03*
X166116000Y-97536000D03*
D15*
X136525000Y-101008000D03*
X136525000Y-103208000D03*
X155448000Y-101051000D03*
X155448000Y-103251000D03*
D16*
X136631500Y-99187000D03*
X138831500Y-99187000D03*
X155491000Y-99187000D03*
X157691000Y-99187000D03*
X136652000Y-95885000D03*
X138852000Y-95885000D03*
X155491000Y-95885000D03*
X157691000Y-95885000D03*
D15*
X138176000Y-109558000D03*
X138176000Y-107358000D03*
X157099000Y-109558000D03*
X157099000Y-107358000D03*
D16*
X140759000Y-95885000D03*
X142959000Y-95885000D03*
X159682000Y-95885000D03*
X161882000Y-95885000D03*
X142959000Y-99187000D03*
X140759000Y-99187000D03*
X161882000Y-99187000D03*
X159682000Y-99187000D03*
D15*
X138176000Y-105494000D03*
X138176000Y-103294000D03*
X157099000Y-105494000D03*
X157099000Y-103294000D03*
D16*
X136947000Y-114808000D03*
X134747000Y-114808000D03*
X134706000Y-116459000D03*
X136906000Y-116459000D03*
D15*
X151638000Y-101051000D03*
X151638000Y-103251000D03*
X170561000Y-100965000D03*
X170561000Y-103165000D03*
D16*
X151468000Y-99187000D03*
X149268000Y-99187000D03*
X170475000Y-99187000D03*
X168275000Y-99187000D03*
X151468000Y-95885000D03*
X149268000Y-95885000D03*
X170434000Y-95885000D03*
X168234000Y-95885000D03*
D15*
X149987000Y-109642000D03*
X149987000Y-107442000D03*
X168910000Y-109558000D03*
X168910000Y-107358000D03*
D16*
X147320000Y-95885000D03*
X145120000Y-95885000D03*
X166327000Y-95885000D03*
X164127000Y-95885000D03*
X145120000Y-99187000D03*
X147320000Y-99187000D03*
X164127000Y-99187000D03*
X166327000Y-99187000D03*
D15*
X149987000Y-105494000D03*
X149987000Y-103294000D03*
X168910000Y-105494000D03*
X168910000Y-103294000D03*
D17*
X139224000Y-115697000D03*
X143224000Y-115697000D03*
M02*
