G04 #@! TF.FileFunction,Paste,Top*
%FSLAX46Y46*%
G04 Gerber Fmt 4.6, Leading zero omitted, Abs format (unit mm)*
G04 Created by KiCad (PCBNEW 4.0.7) date 04/28/18 13:58:35*
%MOMM*%
%LPD*%
G01*
G04 APERTURE LIST*
%ADD10C,0.100000*%
%ADD11C,1.506220*%
%ADD12R,1.800000X5.000000*%
%ADD13R,0.304800X0.812800*%
%ADD14R,0.812800X0.304800*%
%ADD15R,7.493000X7.493000*%
%ADD16R,1.060000X0.650000*%
%ADD17R,1.450000X0.450000*%
%ADD18R,0.750000X1.200000*%
%ADD19R,1.200000X0.750000*%
%ADD20R,1.200000X0.900000*%
%ADD21R,0.900000X1.200000*%
G04 APERTURE END LIST*
D10*
D11*
X159512000Y-140716000D03*
X162052000Y-138176000D03*
X162052000Y-143256000D03*
X156972000Y-138176000D03*
X156972000Y-143256000D03*
X136144000Y-140716000D03*
X138684000Y-138176000D03*
X138684000Y-143256000D03*
X133604000Y-138176000D03*
X133604000Y-143256000D03*
X147828000Y-140716000D03*
X150368000Y-138176000D03*
X150368000Y-143256000D03*
X145288000Y-138176000D03*
X145288000Y-143256000D03*
X171196000Y-140716000D03*
X173736000Y-138176000D03*
X173736000Y-143256000D03*
X168656000Y-138176000D03*
X168656000Y-143256000D03*
D12*
X133278000Y-131826000D03*
X136978000Y-131826000D03*
X145216000Y-131826000D03*
X148916000Y-131826000D03*
X156900000Y-131826000D03*
X160600000Y-131826000D03*
X168584000Y-131826000D03*
X172284000Y-131826000D03*
D13*
X148894800Y-105664000D03*
X149402800Y-105664000D03*
X149910800Y-105664000D03*
X150393400Y-105664000D03*
X150901400Y-105664000D03*
X151409400Y-105664000D03*
X151892000Y-105664000D03*
X152400000Y-105664000D03*
X152908000Y-105664000D03*
X153416000Y-105664000D03*
X153898600Y-105664000D03*
X154406600Y-105664000D03*
X154914600Y-105664000D03*
X155397200Y-105664000D03*
X155905200Y-105664000D03*
X156413200Y-105664000D03*
D14*
X157045660Y-105031540D03*
X157045660Y-104523540D03*
X157045660Y-104015540D03*
X157045660Y-103532940D03*
X157045660Y-103024940D03*
X157045660Y-102516940D03*
X157045660Y-102034340D03*
X157045660Y-101526340D03*
X157045660Y-101018340D03*
X157045660Y-100510340D03*
X157045660Y-100027740D03*
X157045660Y-99519740D03*
X157045660Y-99011740D03*
X157045660Y-98529140D03*
X157045660Y-98021140D03*
X157045660Y-97513140D03*
D13*
X156413200Y-96880680D03*
X155905200Y-96880680D03*
X155397200Y-96880680D03*
X154914600Y-96880680D03*
X154406600Y-96880680D03*
X153898600Y-96880680D03*
X153416000Y-96880680D03*
X152908000Y-96880680D03*
X152400000Y-96880680D03*
X151892000Y-96880680D03*
X151409400Y-96880680D03*
X150901400Y-96880680D03*
X150393400Y-96880680D03*
X149910800Y-96880680D03*
X149402800Y-96880680D03*
X148894800Y-96880680D03*
D14*
X148262340Y-97513140D03*
X148262340Y-98021140D03*
X148262340Y-98529140D03*
X148262340Y-99011740D03*
X148262340Y-99519740D03*
X148262340Y-100027740D03*
X148262340Y-100510340D03*
X148262340Y-101018340D03*
X148262340Y-101526340D03*
X148262340Y-102034340D03*
X148262340Y-102516940D03*
X148262340Y-103024940D03*
X148262340Y-103532940D03*
X148262340Y-104015540D03*
X148262340Y-104523540D03*
X148262340Y-105031540D03*
D15*
X152654000Y-101272340D03*
D16*
X170391000Y-81976000D03*
X170391000Y-81026000D03*
X170391000Y-80076000D03*
X168191000Y-80076000D03*
X168191000Y-81976000D03*
D17*
X166468000Y-83775000D03*
X166468000Y-84425000D03*
X166468000Y-85075000D03*
X166468000Y-85725000D03*
X166468000Y-86375000D03*
X166468000Y-87025000D03*
X166468000Y-87675000D03*
X172368000Y-87675000D03*
X172368000Y-87025000D03*
X172368000Y-86375000D03*
X172368000Y-85725000D03*
X172368000Y-85075000D03*
X172368000Y-84425000D03*
X172368000Y-83775000D03*
D18*
X144272000Y-102489000D03*
X144272000Y-100589000D03*
D19*
X149357000Y-109474000D03*
X151257000Y-109474000D03*
X155448000Y-109474000D03*
X153548000Y-109474000D03*
D18*
X161036000Y-101849000D03*
X161036000Y-99949000D03*
D19*
X135001000Y-125857000D03*
X136901000Y-125857000D03*
X155062000Y-91122500D03*
X153162000Y-91122500D03*
X150304500Y-91122500D03*
X148404500Y-91122500D03*
D18*
X165608000Y-99954000D03*
X165608000Y-101854000D03*
D19*
X151572000Y-115697000D03*
X149672000Y-115697000D03*
X153548000Y-112522000D03*
X155448000Y-112522000D03*
D18*
X164084000Y-97536000D03*
X164084000Y-95636000D03*
D19*
X136906000Y-124333000D03*
X135006000Y-124333000D03*
D18*
X144272000Y-104775000D03*
X144272000Y-106675000D03*
X142748000Y-102489000D03*
X142748000Y-100589000D03*
X141224000Y-106675000D03*
X141224000Y-104775000D03*
D19*
X146939000Y-125857000D03*
X148839000Y-125857000D03*
X151191000Y-112522000D03*
X149291000Y-112522000D03*
X148839000Y-124333000D03*
X146939000Y-124333000D03*
X147000000Y-109474000D03*
X145100000Y-109474000D03*
X159700000Y-109474000D03*
X157800000Y-109474000D03*
D18*
X161036000Y-106106000D03*
X161036000Y-104206000D03*
D19*
X149352000Y-110998000D03*
X151252000Y-110998000D03*
X142245000Y-95885000D03*
X144145000Y-95885000D03*
X142245000Y-94361000D03*
X144145000Y-94361000D03*
D18*
X164084000Y-101788000D03*
X164084000Y-99888000D03*
D19*
X165415000Y-93980000D03*
X163515000Y-93980000D03*
X158623000Y-125857000D03*
X160523000Y-125857000D03*
X160523000Y-124333000D03*
X158623000Y-124333000D03*
X157861000Y-112522000D03*
X159761000Y-112522000D03*
X142240000Y-97409000D03*
X144140000Y-97409000D03*
D18*
X162560000Y-95636000D03*
X162560000Y-97536000D03*
D19*
X155509000Y-110998000D03*
X153609000Y-110998000D03*
X144140000Y-98933000D03*
X142240000Y-98933000D03*
D18*
X165608000Y-97536000D03*
X165608000Y-95636000D03*
D19*
X170307000Y-125857000D03*
X172207000Y-125857000D03*
X172207000Y-124333000D03*
X170307000Y-124333000D03*
D18*
X164084000Y-104203500D03*
X164084000Y-106103500D03*
X162560000Y-101849000D03*
X162560000Y-99949000D03*
D20*
X153162000Y-92710000D03*
X155362000Y-92710000D03*
X148041000Y-92710000D03*
X150241000Y-92710000D03*
D21*
X167132000Y-102108000D03*
X167132000Y-99908000D03*
D20*
X155575000Y-115697000D03*
X153375000Y-115697000D03*
X155575000Y-114046000D03*
X153375000Y-114046000D03*
D21*
X161036000Y-95336000D03*
X161036000Y-97536000D03*
D20*
X136906000Y-127508000D03*
X134706000Y-127508000D03*
X148082000Y-87884000D03*
X150282000Y-87884000D03*
X153162000Y-87884000D03*
X155362000Y-87884000D03*
X157861000Y-91186000D03*
X160061000Y-91186000D03*
X148885000Y-127508000D03*
X146685000Y-127508000D03*
X157861000Y-87884000D03*
X160061000Y-87884000D03*
X145415000Y-87757000D03*
X143215000Y-87757000D03*
X145415000Y-91059000D03*
X143215000Y-91059000D03*
X153121000Y-84582000D03*
X155321000Y-84582000D03*
X160569000Y-127508000D03*
X158369000Y-127508000D03*
X157904000Y-84582000D03*
X160104000Y-84582000D03*
X172253000Y-127508000D03*
X170053000Y-127508000D03*
D21*
X142748000Y-106975000D03*
X142748000Y-104775000D03*
D20*
X148082000Y-89535000D03*
X150282000Y-89535000D03*
X153162000Y-89535000D03*
X155362000Y-89535000D03*
X157861000Y-92837000D03*
X160061000Y-92837000D03*
X157861000Y-89535000D03*
X160061000Y-89535000D03*
X144866000Y-111061500D03*
X147066000Y-111061500D03*
X145415000Y-89408000D03*
X143215000Y-89408000D03*
X145415000Y-92710000D03*
X143215000Y-92710000D03*
X153121000Y-86233000D03*
X155321000Y-86233000D03*
X159977000Y-110998000D03*
X157777000Y-110998000D03*
X157883500Y-86233000D03*
X160083500Y-86233000D03*
D21*
X162560000Y-106426000D03*
X162560000Y-104226000D03*
D20*
X172679000Y-97536000D03*
X174879000Y-97536000D03*
D21*
X176911000Y-83271000D03*
X176911000Y-85471000D03*
X178562000Y-83271000D03*
X178562000Y-85471000D03*
X175260000Y-83271000D03*
X175260000Y-85471000D03*
D20*
X172679000Y-94996000D03*
X174879000Y-94996000D03*
D21*
X176911000Y-87292000D03*
X176911000Y-89492000D03*
X178562000Y-87292000D03*
X178562000Y-89492000D03*
X175260000Y-87312500D03*
X175260000Y-89512500D03*
M02*
