M48
;DRILL file {KiCad 4.0.7} date 04/28/18 13:58:43
;FORMAT={-:-/ absolute / inch / decimal}
FMAT,2
INCH,TZ
T1C0.012
%
G90
G05
M72
T1
X5.25Y-3.5
X5.25Y-3.75
X5.25Y-4.
X5.25Y-4.3
X5.25Y-4.55
X5.25Y-4.8
X5.25Y-5.05
X5.5Y-3.5
X5.5Y-3.7
X5.5Y-4.
X5.5Y-4.3
X5.5Y-4.55
X5.5Y-4.8
X5.5Y-5.05
X5.7Y-4.55
X5.7Y-4.8
X5.7Y-5.05
X5.725Y-3.86
X5.77Y-3.935
X5.815Y-3.695
X5.835Y-3.72
X5.905Y-3.695
X5.95Y-4.6
X5.95Y-4.8
X5.95Y-5.05
X5.9541Y-3.7271
X5.98Y-3.595
X6.04Y-4.25
X6.05Y-3.76
X6.08Y-4.26
X6.15Y-4.6
X6.15Y-4.8
X6.15Y-5.05
X6.21Y-3.76
X6.235Y-3.83
X6.235Y-3.88
X6.29Y-3.855
X6.4Y-3.5
X6.4Y-3.65
X6.4Y-4.4
X6.4Y-4.6
X6.4Y-4.8
X6.4Y-5.05
X6.55Y-4.6
X6.6Y-5.05
X6.625Y-3.945
X6.65Y-4.1
X6.65Y-4.35
X6.65Y-4.8
X6.665Y-3.97
X6.7Y-4.6
X6.9Y-3.9
X6.9Y-4.1
X6.9Y-4.35
X6.9Y-4.6
X6.9Y-4.8
X6.9Y-5.05
T0
M30
