G04 #@! TF.FileFunction,Legend,Bot*
%FSLAX46Y46*%
G04 Gerber Fmt 4.6, Leading zero omitted, Abs format (unit mm)*
G04 Created by KiCad (PCBNEW 4.0.7) date 04/28/18 13:58:35*
%MOMM*%
%LPD*%
G01*
G04 APERTURE LIST*
%ADD10C,0.100000*%
%ADD11C,0.150000*%
%ADD12C,1.906220*%
%ADD13C,4.464000*%
%ADD14R,2.100000X2.100000*%
%ADD15O,2.100000X2.100000*%
%ADD16R,1.950000X1.000000*%
%ADD17R,1.600000X1.150000*%
%ADD18R,1.900000X1.650000*%
%ADD19R,1.300000X1.600000*%
%ADD20R,1.600000X1.300000*%
%ADD21R,2.400000X2.900000*%
G04 APERTURE END LIST*
D10*
D11*
X142037000Y-106715000D02*
X142037000Y-106665000D01*
X146187000Y-106715000D02*
X146187000Y-106570000D01*
X146187000Y-101565000D02*
X146187000Y-101710000D01*
X142037000Y-101565000D02*
X142037000Y-101710000D01*
X142037000Y-106715000D02*
X146187000Y-106715000D01*
X142037000Y-101565000D02*
X146187000Y-101565000D01*
X142037000Y-106665000D02*
X140637000Y-106665000D01*
X161026000Y-106715000D02*
X161026000Y-106665000D01*
X165176000Y-106715000D02*
X165176000Y-106570000D01*
X165176000Y-101565000D02*
X165176000Y-101710000D01*
X161026000Y-101565000D02*
X161026000Y-101710000D01*
X161026000Y-106715000D02*
X165176000Y-106715000D01*
X161026000Y-101565000D02*
X165176000Y-101565000D01*
X161026000Y-106665000D02*
X159626000Y-106665000D01*
X137252000Y-98136000D02*
X137952000Y-98136000D01*
X137952000Y-96936000D02*
X137252000Y-96936000D01*
X156175000Y-98136000D02*
X156875000Y-98136000D01*
X156875000Y-96936000D02*
X156175000Y-96936000D01*
X146400000Y-107223000D02*
X145700000Y-107223000D01*
X145700000Y-108423000D02*
X146400000Y-108423000D01*
X165323000Y-107223000D02*
X164623000Y-107223000D01*
X164623000Y-108423000D02*
X165323000Y-108423000D01*
X141951000Y-110074000D02*
X142651000Y-110074000D01*
X142651000Y-108874000D02*
X141951000Y-108874000D01*
X160813000Y-110074000D02*
X161513000Y-110074000D01*
X161513000Y-108874000D02*
X160813000Y-108874000D01*
X142336000Y-96936000D02*
X141636000Y-96936000D01*
X141636000Y-98136000D02*
X142336000Y-98136000D01*
X161259000Y-96936000D02*
X160559000Y-96936000D01*
X160559000Y-98136000D02*
X161259000Y-98136000D01*
X140835000Y-119214000D02*
X139835000Y-119214000D01*
X139835000Y-117514000D02*
X140835000Y-117514000D01*
X150911000Y-96936000D02*
X150211000Y-96936000D01*
X150211000Y-98136000D02*
X150911000Y-98136000D01*
X169829000Y-96936000D02*
X169129000Y-96936000D01*
X169129000Y-98136000D02*
X169829000Y-98136000D01*
X146400000Y-108874000D02*
X145700000Y-108874000D01*
X145700000Y-110074000D02*
X146400000Y-110074000D01*
X165323000Y-108874000D02*
X164623000Y-108874000D01*
X164623000Y-110074000D02*
X165323000Y-110074000D01*
X145761000Y-98136000D02*
X146461000Y-98136000D01*
X146461000Y-96936000D02*
X145761000Y-96936000D01*
X164816000Y-98136000D02*
X165516000Y-98136000D01*
X165516000Y-96936000D02*
X164816000Y-96936000D01*
X137200000Y-102608000D02*
X137200000Y-101608000D01*
X135850000Y-101608000D02*
X135850000Y-102608000D01*
X156123000Y-102651000D02*
X156123000Y-101651000D01*
X154773000Y-101651000D02*
X154773000Y-102651000D01*
X138231500Y-98512000D02*
X137231500Y-98512000D01*
X137231500Y-99862000D02*
X138231500Y-99862000D01*
X157091000Y-98512000D02*
X156091000Y-98512000D01*
X156091000Y-99862000D02*
X157091000Y-99862000D01*
X138252000Y-95210000D02*
X137252000Y-95210000D01*
X137252000Y-96560000D02*
X138252000Y-96560000D01*
X157091000Y-95210000D02*
X156091000Y-95210000D01*
X156091000Y-96560000D02*
X157091000Y-96560000D01*
X137501000Y-107958000D02*
X137501000Y-108958000D01*
X138851000Y-108958000D02*
X138851000Y-107958000D01*
X156424000Y-107958000D02*
X156424000Y-108958000D01*
X157774000Y-108958000D02*
X157774000Y-107958000D01*
X142359000Y-95210000D02*
X141359000Y-95210000D01*
X141359000Y-96560000D02*
X142359000Y-96560000D01*
X161282000Y-95210000D02*
X160282000Y-95210000D01*
X160282000Y-96560000D02*
X161282000Y-96560000D01*
X141359000Y-99862000D02*
X142359000Y-99862000D01*
X142359000Y-98512000D02*
X141359000Y-98512000D01*
X160282000Y-99862000D02*
X161282000Y-99862000D01*
X161282000Y-98512000D02*
X160282000Y-98512000D01*
X137501000Y-103894000D02*
X137501000Y-104894000D01*
X138851000Y-104894000D02*
X138851000Y-103894000D01*
X156424000Y-103894000D02*
X156424000Y-104894000D01*
X157774000Y-104894000D02*
X157774000Y-103894000D01*
X135347000Y-115483000D02*
X136347000Y-115483000D01*
X136347000Y-114133000D02*
X135347000Y-114133000D01*
X136306000Y-115784000D02*
X135306000Y-115784000D01*
X135306000Y-117134000D02*
X136306000Y-117134000D01*
X152313000Y-102651000D02*
X152313000Y-101651000D01*
X150963000Y-101651000D02*
X150963000Y-102651000D01*
X171236000Y-102565000D02*
X171236000Y-101565000D01*
X169886000Y-101565000D02*
X169886000Y-102565000D01*
X149868000Y-99862000D02*
X150868000Y-99862000D01*
X150868000Y-98512000D02*
X149868000Y-98512000D01*
X168875000Y-99862000D02*
X169875000Y-99862000D01*
X169875000Y-98512000D02*
X168875000Y-98512000D01*
X149868000Y-96560000D02*
X150868000Y-96560000D01*
X150868000Y-95210000D02*
X149868000Y-95210000D01*
X168834000Y-96560000D02*
X169834000Y-96560000D01*
X169834000Y-95210000D02*
X168834000Y-95210000D01*
X149312000Y-108042000D02*
X149312000Y-109042000D01*
X150662000Y-109042000D02*
X150662000Y-108042000D01*
X168235000Y-107958000D02*
X168235000Y-108958000D01*
X169585000Y-108958000D02*
X169585000Y-107958000D01*
X145720000Y-96560000D02*
X146720000Y-96560000D01*
X146720000Y-95210000D02*
X145720000Y-95210000D01*
X164727000Y-96560000D02*
X165727000Y-96560000D01*
X165727000Y-95210000D02*
X164727000Y-95210000D01*
X146720000Y-98512000D02*
X145720000Y-98512000D01*
X145720000Y-99862000D02*
X146720000Y-99862000D01*
X165727000Y-98512000D02*
X164727000Y-98512000D01*
X164727000Y-99862000D02*
X165727000Y-99862000D01*
X149312000Y-103894000D02*
X149312000Y-104894000D01*
X150662000Y-104894000D02*
X150662000Y-103894000D01*
X168235000Y-103894000D02*
X168235000Y-104894000D01*
X169585000Y-104894000D02*
X169585000Y-103894000D01*
X142224000Y-117172000D02*
X140224000Y-117172000D01*
X140224000Y-114222000D02*
X142224000Y-114222000D01*
X142366905Y-100290381D02*
X142366905Y-101099905D01*
X142319286Y-101195143D01*
X142271667Y-101242762D01*
X142176429Y-101290381D01*
X141985952Y-101290381D01*
X141890714Y-101242762D01*
X141843095Y-101195143D01*
X141795476Y-101099905D01*
X141795476Y-100290381D01*
X140890714Y-100623714D02*
X140890714Y-101290381D01*
X141128810Y-100242762D02*
X141366905Y-100957048D01*
X140747857Y-100957048D01*
X163829905Y-103211381D02*
X163829905Y-104020905D01*
X163782286Y-104116143D01*
X163734667Y-104163762D01*
X163639429Y-104211381D01*
X163448952Y-104211381D01*
X163353714Y-104163762D01*
X163306095Y-104116143D01*
X163258476Y-104020905D01*
X163258476Y-103211381D01*
X162306095Y-103211381D02*
X162782286Y-103211381D01*
X162829905Y-103687571D01*
X162782286Y-103639952D01*
X162687048Y-103592333D01*
X162448952Y-103592333D01*
X162353714Y-103639952D01*
X162306095Y-103687571D01*
X162258476Y-103782810D01*
X162258476Y-104020905D01*
X162306095Y-104116143D01*
X162353714Y-104163762D01*
X162448952Y-104211381D01*
X162687048Y-104211381D01*
X162782286Y-104163762D01*
X162829905Y-104116143D01*
X134881857Y-97893143D02*
X134929476Y-97940762D01*
X135072333Y-97988381D01*
X135167571Y-97988381D01*
X135310429Y-97940762D01*
X135405667Y-97845524D01*
X135453286Y-97750286D01*
X135500905Y-97559810D01*
X135500905Y-97416952D01*
X135453286Y-97226476D01*
X135405667Y-97131238D01*
X135310429Y-97036000D01*
X135167571Y-96988381D01*
X135072333Y-96988381D01*
X134929476Y-97036000D01*
X134881857Y-97083619D01*
X134548524Y-96988381D02*
X133929476Y-96988381D01*
X134262810Y-97369333D01*
X134119952Y-97369333D01*
X134024714Y-97416952D01*
X133977095Y-97464571D01*
X133929476Y-97559810D01*
X133929476Y-97797905D01*
X133977095Y-97893143D01*
X134024714Y-97940762D01*
X134119952Y-97988381D01*
X134405667Y-97988381D01*
X134500905Y-97940762D01*
X134548524Y-97893143D01*
X133453286Y-97988381D02*
X133262810Y-97988381D01*
X133167571Y-97940762D01*
X133119952Y-97893143D01*
X133024714Y-97750286D01*
X132977095Y-97559810D01*
X132977095Y-97178857D01*
X133024714Y-97083619D01*
X133072333Y-97036000D01*
X133167571Y-96988381D01*
X133358048Y-96988381D01*
X133453286Y-97036000D01*
X133500905Y-97083619D01*
X133548524Y-97178857D01*
X133548524Y-97416952D01*
X133500905Y-97512190D01*
X133453286Y-97559810D01*
X133358048Y-97607429D01*
X133167571Y-97607429D01*
X133072333Y-97559810D01*
X133024714Y-97512190D01*
X132977095Y-97416952D01*
X157106857Y-93194143D02*
X157154476Y-93241762D01*
X157297333Y-93289381D01*
X157392571Y-93289381D01*
X157535429Y-93241762D01*
X157630667Y-93146524D01*
X157678286Y-93051286D01*
X157725905Y-92860810D01*
X157725905Y-92717952D01*
X157678286Y-92527476D01*
X157630667Y-92432238D01*
X157535429Y-92337000D01*
X157392571Y-92289381D01*
X157297333Y-92289381D01*
X157154476Y-92337000D01*
X157106857Y-92384619D01*
X156249714Y-92622714D02*
X156249714Y-93289381D01*
X156487810Y-92241762D02*
X156725905Y-92956048D01*
X156106857Y-92956048D01*
X155535429Y-92289381D02*
X155440190Y-92289381D01*
X155344952Y-92337000D01*
X155297333Y-92384619D01*
X155249714Y-92479857D01*
X155202095Y-92670333D01*
X155202095Y-92908429D01*
X155249714Y-93098905D01*
X155297333Y-93194143D01*
X155344952Y-93241762D01*
X155440190Y-93289381D01*
X155535429Y-93289381D01*
X155630667Y-93241762D01*
X155678286Y-93194143D01*
X155725905Y-93098905D01*
X155773524Y-92908429D01*
X155773524Y-92670333D01*
X155725905Y-92479857D01*
X155678286Y-92384619D01*
X155630667Y-92337000D01*
X155535429Y-92289381D01*
X146565857Y-111355143D02*
X146613476Y-111402762D01*
X146756333Y-111450381D01*
X146851571Y-111450381D01*
X146994429Y-111402762D01*
X147089667Y-111307524D01*
X147137286Y-111212286D01*
X147184905Y-111021810D01*
X147184905Y-110878952D01*
X147137286Y-110688476D01*
X147089667Y-110593238D01*
X146994429Y-110498000D01*
X146851571Y-110450381D01*
X146756333Y-110450381D01*
X146613476Y-110498000D01*
X146565857Y-110545619D01*
X145708714Y-110783714D02*
X145708714Y-111450381D01*
X145946810Y-110402762D02*
X146184905Y-111117048D01*
X145565857Y-111117048D01*
X144661095Y-111450381D02*
X145232524Y-111450381D01*
X144946810Y-111450381D02*
X144946810Y-110450381D01*
X145042048Y-110593238D01*
X145137286Y-110688476D01*
X145232524Y-110736095D01*
X165615857Y-111736143D02*
X165663476Y-111783762D01*
X165806333Y-111831381D01*
X165901571Y-111831381D01*
X166044429Y-111783762D01*
X166139667Y-111688524D01*
X166187286Y-111593286D01*
X166234905Y-111402810D01*
X166234905Y-111259952D01*
X166187286Y-111069476D01*
X166139667Y-110974238D01*
X166044429Y-110879000D01*
X165901571Y-110831381D01*
X165806333Y-110831381D01*
X165663476Y-110879000D01*
X165615857Y-110926619D01*
X164758714Y-111164714D02*
X164758714Y-111831381D01*
X164996810Y-110783762D02*
X165234905Y-111498048D01*
X164615857Y-111498048D01*
X164282524Y-110926619D02*
X164234905Y-110879000D01*
X164139667Y-110831381D01*
X163901571Y-110831381D01*
X163806333Y-110879000D01*
X163758714Y-110926619D01*
X163711095Y-111021857D01*
X163711095Y-111117095D01*
X163758714Y-111259952D01*
X164330143Y-111831381D01*
X163711095Y-111831381D01*
X142943857Y-111482143D02*
X142991476Y-111529762D01*
X143134333Y-111577381D01*
X143229571Y-111577381D01*
X143372429Y-111529762D01*
X143467667Y-111434524D01*
X143515286Y-111339286D01*
X143562905Y-111148810D01*
X143562905Y-111005952D01*
X143515286Y-110815476D01*
X143467667Y-110720238D01*
X143372429Y-110625000D01*
X143229571Y-110577381D01*
X143134333Y-110577381D01*
X142991476Y-110625000D01*
X142943857Y-110672619D01*
X142086714Y-110910714D02*
X142086714Y-111577381D01*
X142324810Y-110529762D02*
X142562905Y-111244048D01*
X141943857Y-111244048D01*
X141658143Y-110577381D02*
X141039095Y-110577381D01*
X141372429Y-110958333D01*
X141229571Y-110958333D01*
X141134333Y-111005952D01*
X141086714Y-111053571D01*
X141039095Y-111148810D01*
X141039095Y-111386905D01*
X141086714Y-111482143D01*
X141134333Y-111529762D01*
X141229571Y-111577381D01*
X141515286Y-111577381D01*
X141610524Y-111529762D01*
X141658143Y-111482143D01*
X161932857Y-108307143D02*
X161980476Y-108354762D01*
X162123333Y-108402381D01*
X162218571Y-108402381D01*
X162361429Y-108354762D01*
X162456667Y-108259524D01*
X162504286Y-108164286D01*
X162551905Y-107973810D01*
X162551905Y-107830952D01*
X162504286Y-107640476D01*
X162456667Y-107545238D01*
X162361429Y-107450000D01*
X162218571Y-107402381D01*
X162123333Y-107402381D01*
X161980476Y-107450000D01*
X161932857Y-107497619D01*
X161075714Y-107735714D02*
X161075714Y-108402381D01*
X161313810Y-107354762D02*
X161551905Y-108069048D01*
X160932857Y-108069048D01*
X160123333Y-107735714D02*
X160123333Y-108402381D01*
X160361429Y-107354762D02*
X160599524Y-108069048D01*
X159980476Y-108069048D01*
X142628857Y-93194143D02*
X142676476Y-93241762D01*
X142819333Y-93289381D01*
X142914571Y-93289381D01*
X143057429Y-93241762D01*
X143152667Y-93146524D01*
X143200286Y-93051286D01*
X143247905Y-92860810D01*
X143247905Y-92717952D01*
X143200286Y-92527476D01*
X143152667Y-92432238D01*
X143057429Y-92337000D01*
X142914571Y-92289381D01*
X142819333Y-92289381D01*
X142676476Y-92337000D01*
X142628857Y-92384619D01*
X141771714Y-92622714D02*
X141771714Y-93289381D01*
X142009810Y-92241762D02*
X142247905Y-92956048D01*
X141628857Y-92956048D01*
X140771714Y-92289381D02*
X141247905Y-92289381D01*
X141295524Y-92765571D01*
X141247905Y-92717952D01*
X141152667Y-92670333D01*
X140914571Y-92670333D01*
X140819333Y-92717952D01*
X140771714Y-92765571D01*
X140724095Y-92860810D01*
X140724095Y-93098905D01*
X140771714Y-93194143D01*
X140819333Y-93241762D01*
X140914571Y-93289381D01*
X141152667Y-93289381D01*
X141247905Y-93241762D01*
X141295524Y-93194143D01*
X161424857Y-93194143D02*
X161472476Y-93241762D01*
X161615333Y-93289381D01*
X161710571Y-93289381D01*
X161853429Y-93241762D01*
X161948667Y-93146524D01*
X161996286Y-93051286D01*
X162043905Y-92860810D01*
X162043905Y-92717952D01*
X161996286Y-92527476D01*
X161948667Y-92432238D01*
X161853429Y-92337000D01*
X161710571Y-92289381D01*
X161615333Y-92289381D01*
X161472476Y-92337000D01*
X161424857Y-92384619D01*
X160567714Y-92622714D02*
X160567714Y-93289381D01*
X160805810Y-92241762D02*
X161043905Y-92956048D01*
X160424857Y-92956048D01*
X159615333Y-92289381D02*
X159805810Y-92289381D01*
X159901048Y-92337000D01*
X159948667Y-92384619D01*
X160043905Y-92527476D01*
X160091524Y-92717952D01*
X160091524Y-93098905D01*
X160043905Y-93194143D01*
X159996286Y-93241762D01*
X159901048Y-93289381D01*
X159710571Y-93289381D01*
X159615333Y-93241762D01*
X159567714Y-93194143D01*
X159520095Y-93098905D01*
X159520095Y-92860810D01*
X159567714Y-92765571D01*
X159615333Y-92717952D01*
X159710571Y-92670333D01*
X159901048Y-92670333D01*
X159996286Y-92717952D01*
X160043905Y-92765571D01*
X160091524Y-92860810D01*
X140977857Y-120753143D02*
X141025476Y-120800762D01*
X141168333Y-120848381D01*
X141263571Y-120848381D01*
X141406429Y-120800762D01*
X141501667Y-120705524D01*
X141549286Y-120610286D01*
X141596905Y-120419810D01*
X141596905Y-120276952D01*
X141549286Y-120086476D01*
X141501667Y-119991238D01*
X141406429Y-119896000D01*
X141263571Y-119848381D01*
X141168333Y-119848381D01*
X141025476Y-119896000D01*
X140977857Y-119943619D01*
X140120714Y-120181714D02*
X140120714Y-120848381D01*
X140358810Y-119800762D02*
X140596905Y-120515048D01*
X139977857Y-120515048D01*
X139692143Y-119848381D02*
X139025476Y-119848381D01*
X139454048Y-120848381D01*
X151010857Y-93194143D02*
X151058476Y-93241762D01*
X151201333Y-93289381D01*
X151296571Y-93289381D01*
X151439429Y-93241762D01*
X151534667Y-93146524D01*
X151582286Y-93051286D01*
X151629905Y-92860810D01*
X151629905Y-92717952D01*
X151582286Y-92527476D01*
X151534667Y-92432238D01*
X151439429Y-92337000D01*
X151296571Y-92289381D01*
X151201333Y-92289381D01*
X151058476Y-92337000D01*
X151010857Y-92384619D01*
X150153714Y-92622714D02*
X150153714Y-93289381D01*
X150391810Y-92241762D02*
X150629905Y-92956048D01*
X150010857Y-92956048D01*
X149582286Y-93289381D02*
X149391810Y-93289381D01*
X149296571Y-93241762D01*
X149248952Y-93194143D01*
X149153714Y-93051286D01*
X149106095Y-92860810D01*
X149106095Y-92479857D01*
X149153714Y-92384619D01*
X149201333Y-92337000D01*
X149296571Y-92289381D01*
X149487048Y-92289381D01*
X149582286Y-92337000D01*
X149629905Y-92384619D01*
X149677524Y-92479857D01*
X149677524Y-92717952D01*
X149629905Y-92813190D01*
X149582286Y-92860810D01*
X149487048Y-92908429D01*
X149296571Y-92908429D01*
X149201333Y-92860810D01*
X149153714Y-92813190D01*
X149106095Y-92717952D01*
X169933857Y-93194143D02*
X169981476Y-93241762D01*
X170124333Y-93289381D01*
X170219571Y-93289381D01*
X170362429Y-93241762D01*
X170457667Y-93146524D01*
X170505286Y-93051286D01*
X170552905Y-92860810D01*
X170552905Y-92717952D01*
X170505286Y-92527476D01*
X170457667Y-92432238D01*
X170362429Y-92337000D01*
X170219571Y-92289381D01*
X170124333Y-92289381D01*
X169981476Y-92337000D01*
X169933857Y-92384619D01*
X169029095Y-92289381D02*
X169505286Y-92289381D01*
X169552905Y-92765571D01*
X169505286Y-92717952D01*
X169410048Y-92670333D01*
X169171952Y-92670333D01*
X169076714Y-92717952D01*
X169029095Y-92765571D01*
X168981476Y-92860810D01*
X168981476Y-93098905D01*
X169029095Y-93194143D01*
X169076714Y-93241762D01*
X169171952Y-93289381D01*
X169410048Y-93289381D01*
X169505286Y-93241762D01*
X169552905Y-93194143D01*
X168362429Y-92289381D02*
X168267190Y-92289381D01*
X168171952Y-92337000D01*
X168124333Y-92384619D01*
X168076714Y-92479857D01*
X168029095Y-92670333D01*
X168029095Y-92908429D01*
X168076714Y-93098905D01*
X168124333Y-93194143D01*
X168171952Y-93241762D01*
X168267190Y-93289381D01*
X168362429Y-93289381D01*
X168457667Y-93241762D01*
X168505286Y-93194143D01*
X168552905Y-93098905D01*
X168600524Y-92908429D01*
X168600524Y-92670333D01*
X168552905Y-92479857D01*
X168505286Y-92384619D01*
X168457667Y-92337000D01*
X168362429Y-92289381D01*
X146565857Y-112752143D02*
X146613476Y-112799762D01*
X146756333Y-112847381D01*
X146851571Y-112847381D01*
X146994429Y-112799762D01*
X147089667Y-112704524D01*
X147137286Y-112609286D01*
X147184905Y-112418810D01*
X147184905Y-112275952D01*
X147137286Y-112085476D01*
X147089667Y-111990238D01*
X146994429Y-111895000D01*
X146851571Y-111847381D01*
X146756333Y-111847381D01*
X146613476Y-111895000D01*
X146565857Y-111942619D01*
X145661095Y-111847381D02*
X146137286Y-111847381D01*
X146184905Y-112323571D01*
X146137286Y-112275952D01*
X146042048Y-112228333D01*
X145803952Y-112228333D01*
X145708714Y-112275952D01*
X145661095Y-112323571D01*
X145613476Y-112418810D01*
X145613476Y-112656905D01*
X145661095Y-112752143D01*
X145708714Y-112799762D01*
X145803952Y-112847381D01*
X146042048Y-112847381D01*
X146137286Y-112799762D01*
X146184905Y-112752143D01*
X144661095Y-112847381D02*
X145232524Y-112847381D01*
X144946810Y-112847381D02*
X144946810Y-111847381D01*
X145042048Y-111990238D01*
X145137286Y-112085476D01*
X145232524Y-112133095D01*
X165615857Y-113133143D02*
X165663476Y-113180762D01*
X165806333Y-113228381D01*
X165901571Y-113228381D01*
X166044429Y-113180762D01*
X166139667Y-113085524D01*
X166187286Y-112990286D01*
X166234905Y-112799810D01*
X166234905Y-112656952D01*
X166187286Y-112466476D01*
X166139667Y-112371238D01*
X166044429Y-112276000D01*
X165901571Y-112228381D01*
X165806333Y-112228381D01*
X165663476Y-112276000D01*
X165615857Y-112323619D01*
X164711095Y-112228381D02*
X165187286Y-112228381D01*
X165234905Y-112704571D01*
X165187286Y-112656952D01*
X165092048Y-112609333D01*
X164853952Y-112609333D01*
X164758714Y-112656952D01*
X164711095Y-112704571D01*
X164663476Y-112799810D01*
X164663476Y-113037905D01*
X164711095Y-113133143D01*
X164758714Y-113180762D01*
X164853952Y-113228381D01*
X165092048Y-113228381D01*
X165187286Y-113180762D01*
X165234905Y-113133143D01*
X164282524Y-112323619D02*
X164234905Y-112276000D01*
X164139667Y-112228381D01*
X163901571Y-112228381D01*
X163806333Y-112276000D01*
X163758714Y-112323619D01*
X163711095Y-112418857D01*
X163711095Y-112514095D01*
X163758714Y-112656952D01*
X164330143Y-113228381D01*
X163711095Y-113228381D01*
X146819857Y-93194143D02*
X146867476Y-93241762D01*
X147010333Y-93289381D01*
X147105571Y-93289381D01*
X147248429Y-93241762D01*
X147343667Y-93146524D01*
X147391286Y-93051286D01*
X147438905Y-92860810D01*
X147438905Y-92717952D01*
X147391286Y-92527476D01*
X147343667Y-92432238D01*
X147248429Y-92337000D01*
X147105571Y-92289381D01*
X147010333Y-92289381D01*
X146867476Y-92337000D01*
X146819857Y-92384619D01*
X145915095Y-92289381D02*
X146391286Y-92289381D01*
X146438905Y-92765571D01*
X146391286Y-92717952D01*
X146296048Y-92670333D01*
X146057952Y-92670333D01*
X145962714Y-92717952D01*
X145915095Y-92765571D01*
X145867476Y-92860810D01*
X145867476Y-93098905D01*
X145915095Y-93194143D01*
X145962714Y-93241762D01*
X146057952Y-93289381D01*
X146296048Y-93289381D01*
X146391286Y-93241762D01*
X146438905Y-93194143D01*
X145534143Y-92289381D02*
X144915095Y-92289381D01*
X145248429Y-92670333D01*
X145105571Y-92670333D01*
X145010333Y-92717952D01*
X144962714Y-92765571D01*
X144915095Y-92860810D01*
X144915095Y-93098905D01*
X144962714Y-93194143D01*
X145010333Y-93241762D01*
X145105571Y-93289381D01*
X145391286Y-93289381D01*
X145486524Y-93241762D01*
X145534143Y-93194143D01*
X165742857Y-93194143D02*
X165790476Y-93241762D01*
X165933333Y-93289381D01*
X166028571Y-93289381D01*
X166171429Y-93241762D01*
X166266667Y-93146524D01*
X166314286Y-93051286D01*
X166361905Y-92860810D01*
X166361905Y-92717952D01*
X166314286Y-92527476D01*
X166266667Y-92432238D01*
X166171429Y-92337000D01*
X166028571Y-92289381D01*
X165933333Y-92289381D01*
X165790476Y-92337000D01*
X165742857Y-92384619D01*
X164838095Y-92289381D02*
X165314286Y-92289381D01*
X165361905Y-92765571D01*
X165314286Y-92717952D01*
X165219048Y-92670333D01*
X164980952Y-92670333D01*
X164885714Y-92717952D01*
X164838095Y-92765571D01*
X164790476Y-92860810D01*
X164790476Y-93098905D01*
X164838095Y-93194143D01*
X164885714Y-93241762D01*
X164980952Y-93289381D01*
X165219048Y-93289381D01*
X165314286Y-93241762D01*
X165361905Y-93194143D01*
X163933333Y-92622714D02*
X163933333Y-93289381D01*
X164171429Y-92241762D02*
X164409524Y-92956048D01*
X163790476Y-92956048D01*
X135077381Y-101465143D02*
X134601190Y-101131809D01*
X135077381Y-100893714D02*
X134077381Y-100893714D01*
X134077381Y-101274667D01*
X134125000Y-101369905D01*
X134172619Y-101417524D01*
X134267857Y-101465143D01*
X134410714Y-101465143D01*
X134505952Y-101417524D01*
X134553571Y-101369905D01*
X134601190Y-101274667D01*
X134601190Y-100893714D01*
X134172619Y-101846095D02*
X134125000Y-101893714D01*
X134077381Y-101988952D01*
X134077381Y-102227048D01*
X134125000Y-102322286D01*
X134172619Y-102369905D01*
X134267857Y-102417524D01*
X134363095Y-102417524D01*
X134505952Y-102369905D01*
X135077381Y-101798476D01*
X135077381Y-102417524D01*
X135077381Y-103369905D02*
X135077381Y-102798476D01*
X135077381Y-103084190D02*
X134077381Y-103084190D01*
X134220238Y-102988952D01*
X134315476Y-102893714D01*
X134363095Y-102798476D01*
X154249381Y-101465143D02*
X153773190Y-101131809D01*
X154249381Y-100893714D02*
X153249381Y-100893714D01*
X153249381Y-101274667D01*
X153297000Y-101369905D01*
X153344619Y-101417524D01*
X153439857Y-101465143D01*
X153582714Y-101465143D01*
X153677952Y-101417524D01*
X153725571Y-101369905D01*
X153773190Y-101274667D01*
X153773190Y-100893714D01*
X153344619Y-101846095D02*
X153297000Y-101893714D01*
X153249381Y-101988952D01*
X153249381Y-102227048D01*
X153297000Y-102322286D01*
X153344619Y-102369905D01*
X153439857Y-102417524D01*
X153535095Y-102417524D01*
X153677952Y-102369905D01*
X154249381Y-101798476D01*
X154249381Y-102417524D01*
X153344619Y-102798476D02*
X153297000Y-102846095D01*
X153249381Y-102941333D01*
X153249381Y-103179429D01*
X153297000Y-103274667D01*
X153344619Y-103322286D01*
X153439857Y-103369905D01*
X153535095Y-103369905D01*
X153677952Y-103322286D01*
X154249381Y-102750857D01*
X154249381Y-103369905D01*
X134881857Y-99639381D02*
X135215191Y-99163190D01*
X135453286Y-99639381D02*
X135453286Y-98639381D01*
X135072333Y-98639381D01*
X134977095Y-98687000D01*
X134929476Y-98734619D01*
X134881857Y-98829857D01*
X134881857Y-98972714D01*
X134929476Y-99067952D01*
X134977095Y-99115571D01*
X135072333Y-99163190D01*
X135453286Y-99163190D01*
X134500905Y-98734619D02*
X134453286Y-98687000D01*
X134358048Y-98639381D01*
X134119952Y-98639381D01*
X134024714Y-98687000D01*
X133977095Y-98734619D01*
X133929476Y-98829857D01*
X133929476Y-98925095D01*
X133977095Y-99067952D01*
X134548524Y-99639381D01*
X133929476Y-99639381D01*
X133596143Y-98639381D02*
X132977095Y-98639381D01*
X133310429Y-99020333D01*
X133167571Y-99020333D01*
X133072333Y-99067952D01*
X133024714Y-99115571D01*
X132977095Y-99210810D01*
X132977095Y-99448905D01*
X133024714Y-99544143D01*
X133072333Y-99591762D01*
X133167571Y-99639381D01*
X133453286Y-99639381D01*
X133548524Y-99591762D01*
X133596143Y-99544143D01*
X157106857Y-94686381D02*
X157440191Y-94210190D01*
X157678286Y-94686381D02*
X157678286Y-93686381D01*
X157297333Y-93686381D01*
X157202095Y-93734000D01*
X157154476Y-93781619D01*
X157106857Y-93876857D01*
X157106857Y-94019714D01*
X157154476Y-94114952D01*
X157202095Y-94162571D01*
X157297333Y-94210190D01*
X157678286Y-94210190D01*
X156725905Y-93781619D02*
X156678286Y-93734000D01*
X156583048Y-93686381D01*
X156344952Y-93686381D01*
X156249714Y-93734000D01*
X156202095Y-93781619D01*
X156154476Y-93876857D01*
X156154476Y-93972095D01*
X156202095Y-94114952D01*
X156773524Y-94686381D01*
X156154476Y-94686381D01*
X155297333Y-94019714D02*
X155297333Y-94686381D01*
X155535429Y-93638762D02*
X155773524Y-94353048D01*
X155154476Y-94353048D01*
X134881857Y-96337381D02*
X135215191Y-95861190D01*
X135453286Y-96337381D02*
X135453286Y-95337381D01*
X135072333Y-95337381D01*
X134977095Y-95385000D01*
X134929476Y-95432619D01*
X134881857Y-95527857D01*
X134881857Y-95670714D01*
X134929476Y-95765952D01*
X134977095Y-95813571D01*
X135072333Y-95861190D01*
X135453286Y-95861190D01*
X134500905Y-95432619D02*
X134453286Y-95385000D01*
X134358048Y-95337381D01*
X134119952Y-95337381D01*
X134024714Y-95385000D01*
X133977095Y-95432619D01*
X133929476Y-95527857D01*
X133929476Y-95623095D01*
X133977095Y-95765952D01*
X134548524Y-96337381D01*
X133929476Y-96337381D01*
X133024714Y-95337381D02*
X133500905Y-95337381D01*
X133548524Y-95813571D01*
X133500905Y-95765952D01*
X133405667Y-95718333D01*
X133167571Y-95718333D01*
X133072333Y-95765952D01*
X133024714Y-95813571D01*
X132977095Y-95908810D01*
X132977095Y-96146905D01*
X133024714Y-96242143D01*
X133072333Y-96289762D01*
X133167571Y-96337381D01*
X133405667Y-96337381D01*
X133500905Y-96289762D01*
X133548524Y-96242143D01*
X157233857Y-91892381D02*
X157567191Y-91416190D01*
X157805286Y-91892381D02*
X157805286Y-90892381D01*
X157424333Y-90892381D01*
X157329095Y-90940000D01*
X157281476Y-90987619D01*
X157233857Y-91082857D01*
X157233857Y-91225714D01*
X157281476Y-91320952D01*
X157329095Y-91368571D01*
X157424333Y-91416190D01*
X157805286Y-91416190D01*
X156852905Y-90987619D02*
X156805286Y-90940000D01*
X156710048Y-90892381D01*
X156471952Y-90892381D01*
X156376714Y-90940000D01*
X156329095Y-90987619D01*
X156281476Y-91082857D01*
X156281476Y-91178095D01*
X156329095Y-91320952D01*
X156900524Y-91892381D01*
X156281476Y-91892381D01*
X155424333Y-90892381D02*
X155614810Y-90892381D01*
X155710048Y-90940000D01*
X155757667Y-90987619D01*
X155852905Y-91130476D01*
X155900524Y-91320952D01*
X155900524Y-91701905D01*
X155852905Y-91797143D01*
X155805286Y-91844762D01*
X155710048Y-91892381D01*
X155519571Y-91892381D01*
X155424333Y-91844762D01*
X155376714Y-91797143D01*
X155329095Y-91701905D01*
X155329095Y-91463810D01*
X155376714Y-91368571D01*
X155424333Y-91320952D01*
X155519571Y-91273333D01*
X155710048Y-91273333D01*
X155805286Y-91320952D01*
X155852905Y-91368571D01*
X155900524Y-91463810D01*
X140152381Y-107815143D02*
X139676190Y-107481809D01*
X140152381Y-107243714D02*
X139152381Y-107243714D01*
X139152381Y-107624667D01*
X139200000Y-107719905D01*
X139247619Y-107767524D01*
X139342857Y-107815143D01*
X139485714Y-107815143D01*
X139580952Y-107767524D01*
X139628571Y-107719905D01*
X139676190Y-107624667D01*
X139676190Y-107243714D01*
X139247619Y-108196095D02*
X139200000Y-108243714D01*
X139152381Y-108338952D01*
X139152381Y-108577048D01*
X139200000Y-108672286D01*
X139247619Y-108719905D01*
X139342857Y-108767524D01*
X139438095Y-108767524D01*
X139580952Y-108719905D01*
X140152381Y-108148476D01*
X140152381Y-108767524D01*
X139152381Y-109100857D02*
X139152381Y-109767524D01*
X140152381Y-109338952D01*
X159075381Y-107688143D02*
X158599190Y-107354809D01*
X159075381Y-107116714D02*
X158075381Y-107116714D01*
X158075381Y-107497667D01*
X158123000Y-107592905D01*
X158170619Y-107640524D01*
X158265857Y-107688143D01*
X158408714Y-107688143D01*
X158503952Y-107640524D01*
X158551571Y-107592905D01*
X158599190Y-107497667D01*
X158599190Y-107116714D01*
X158170619Y-108069095D02*
X158123000Y-108116714D01*
X158075381Y-108211952D01*
X158075381Y-108450048D01*
X158123000Y-108545286D01*
X158170619Y-108592905D01*
X158265857Y-108640524D01*
X158361095Y-108640524D01*
X158503952Y-108592905D01*
X159075381Y-108021476D01*
X159075381Y-108640524D01*
X158503952Y-109211952D02*
X158456333Y-109116714D01*
X158408714Y-109069095D01*
X158313476Y-109021476D01*
X158265857Y-109021476D01*
X158170619Y-109069095D01*
X158123000Y-109116714D01*
X158075381Y-109211952D01*
X158075381Y-109402429D01*
X158123000Y-109497667D01*
X158170619Y-109545286D01*
X158265857Y-109592905D01*
X158313476Y-109592905D01*
X158408714Y-109545286D01*
X158456333Y-109497667D01*
X158503952Y-109402429D01*
X158503952Y-109211952D01*
X158551571Y-109116714D01*
X158599190Y-109069095D01*
X158694429Y-109021476D01*
X158884905Y-109021476D01*
X158980143Y-109069095D01*
X159027762Y-109116714D01*
X159075381Y-109211952D01*
X159075381Y-109402429D01*
X159027762Y-109497667D01*
X158980143Y-109545286D01*
X158884905Y-109592905D01*
X158694429Y-109592905D01*
X158599190Y-109545286D01*
X158551571Y-109497667D01*
X158503952Y-109402429D01*
X142501857Y-91765381D02*
X142835191Y-91289190D01*
X143073286Y-91765381D02*
X143073286Y-90765381D01*
X142692333Y-90765381D01*
X142597095Y-90813000D01*
X142549476Y-90860619D01*
X142501857Y-90955857D01*
X142501857Y-91098714D01*
X142549476Y-91193952D01*
X142597095Y-91241571D01*
X142692333Y-91289190D01*
X143073286Y-91289190D01*
X142120905Y-90860619D02*
X142073286Y-90813000D01*
X141978048Y-90765381D01*
X141739952Y-90765381D01*
X141644714Y-90813000D01*
X141597095Y-90860619D01*
X141549476Y-90955857D01*
X141549476Y-91051095D01*
X141597095Y-91193952D01*
X142168524Y-91765381D01*
X141549476Y-91765381D01*
X141073286Y-91765381D02*
X140882810Y-91765381D01*
X140787571Y-91717762D01*
X140739952Y-91670143D01*
X140644714Y-91527286D01*
X140597095Y-91336810D01*
X140597095Y-90955857D01*
X140644714Y-90860619D01*
X140692333Y-90813000D01*
X140787571Y-90765381D01*
X140978048Y-90765381D01*
X141073286Y-90813000D01*
X141120905Y-90860619D01*
X141168524Y-90955857D01*
X141168524Y-91193952D01*
X141120905Y-91289190D01*
X141073286Y-91336810D01*
X140978048Y-91384429D01*
X140787571Y-91384429D01*
X140692333Y-91336810D01*
X140644714Y-91289190D01*
X140597095Y-91193952D01*
X161424857Y-91892381D02*
X161758191Y-91416190D01*
X161996286Y-91892381D02*
X161996286Y-90892381D01*
X161615333Y-90892381D01*
X161520095Y-90940000D01*
X161472476Y-90987619D01*
X161424857Y-91082857D01*
X161424857Y-91225714D01*
X161472476Y-91320952D01*
X161520095Y-91368571D01*
X161615333Y-91416190D01*
X161996286Y-91416190D01*
X161091524Y-90892381D02*
X160472476Y-90892381D01*
X160805810Y-91273333D01*
X160662952Y-91273333D01*
X160567714Y-91320952D01*
X160520095Y-91368571D01*
X160472476Y-91463810D01*
X160472476Y-91701905D01*
X160520095Y-91797143D01*
X160567714Y-91844762D01*
X160662952Y-91892381D01*
X160948667Y-91892381D01*
X161043905Y-91844762D01*
X161091524Y-91797143D01*
X159853429Y-90892381D02*
X159758190Y-90892381D01*
X159662952Y-90940000D01*
X159615333Y-90987619D01*
X159567714Y-91082857D01*
X159520095Y-91273333D01*
X159520095Y-91511429D01*
X159567714Y-91701905D01*
X159615333Y-91797143D01*
X159662952Y-91844762D01*
X159758190Y-91892381D01*
X159853429Y-91892381D01*
X159948667Y-91844762D01*
X159996286Y-91797143D01*
X160043905Y-91701905D01*
X160091524Y-91511429D01*
X160091524Y-91273333D01*
X160043905Y-91082857D01*
X159996286Y-90987619D01*
X159948667Y-90940000D01*
X159853429Y-90892381D01*
X142501857Y-94686381D02*
X142835191Y-94210190D01*
X143073286Y-94686381D02*
X143073286Y-93686381D01*
X142692333Y-93686381D01*
X142597095Y-93734000D01*
X142549476Y-93781619D01*
X142501857Y-93876857D01*
X142501857Y-94019714D01*
X142549476Y-94114952D01*
X142597095Y-94162571D01*
X142692333Y-94210190D01*
X143073286Y-94210190D01*
X142168524Y-93686381D02*
X141549476Y-93686381D01*
X141882810Y-94067333D01*
X141739952Y-94067333D01*
X141644714Y-94114952D01*
X141597095Y-94162571D01*
X141549476Y-94257810D01*
X141549476Y-94495905D01*
X141597095Y-94591143D01*
X141644714Y-94638762D01*
X141739952Y-94686381D01*
X142025667Y-94686381D01*
X142120905Y-94638762D01*
X142168524Y-94591143D01*
X140597095Y-94686381D02*
X141168524Y-94686381D01*
X140882810Y-94686381D02*
X140882810Y-93686381D01*
X140978048Y-93829238D01*
X141073286Y-93924476D01*
X141168524Y-93972095D01*
X161424857Y-94686381D02*
X161758191Y-94210190D01*
X161996286Y-94686381D02*
X161996286Y-93686381D01*
X161615333Y-93686381D01*
X161520095Y-93734000D01*
X161472476Y-93781619D01*
X161424857Y-93876857D01*
X161424857Y-94019714D01*
X161472476Y-94114952D01*
X161520095Y-94162571D01*
X161615333Y-94210190D01*
X161996286Y-94210190D01*
X161091524Y-93686381D02*
X160472476Y-93686381D01*
X160805810Y-94067333D01*
X160662952Y-94067333D01*
X160567714Y-94114952D01*
X160520095Y-94162571D01*
X160472476Y-94257810D01*
X160472476Y-94495905D01*
X160520095Y-94591143D01*
X160567714Y-94638762D01*
X160662952Y-94686381D01*
X160948667Y-94686381D01*
X161043905Y-94638762D01*
X161091524Y-94591143D01*
X160091524Y-93781619D02*
X160043905Y-93734000D01*
X159948667Y-93686381D01*
X159710571Y-93686381D01*
X159615333Y-93734000D01*
X159567714Y-93781619D01*
X159520095Y-93876857D01*
X159520095Y-93972095D01*
X159567714Y-94114952D01*
X160139143Y-94686381D01*
X159520095Y-94686381D01*
X140152381Y-103624143D02*
X139676190Y-103290809D01*
X140152381Y-103052714D02*
X139152381Y-103052714D01*
X139152381Y-103433667D01*
X139200000Y-103528905D01*
X139247619Y-103576524D01*
X139342857Y-103624143D01*
X139485714Y-103624143D01*
X139580952Y-103576524D01*
X139628571Y-103528905D01*
X139676190Y-103433667D01*
X139676190Y-103052714D01*
X139152381Y-103957476D02*
X139152381Y-104576524D01*
X139533333Y-104243190D01*
X139533333Y-104386048D01*
X139580952Y-104481286D01*
X139628571Y-104528905D01*
X139723810Y-104576524D01*
X139961905Y-104576524D01*
X140057143Y-104528905D01*
X140104762Y-104481286D01*
X140152381Y-104386048D01*
X140152381Y-104100333D01*
X140104762Y-104005095D01*
X140057143Y-103957476D01*
X139152381Y-104909857D02*
X139152381Y-105528905D01*
X139533333Y-105195571D01*
X139533333Y-105338429D01*
X139580952Y-105433667D01*
X139628571Y-105481286D01*
X139723810Y-105528905D01*
X139961905Y-105528905D01*
X140057143Y-105481286D01*
X140104762Y-105433667D01*
X140152381Y-105338429D01*
X140152381Y-105052714D01*
X140104762Y-104957476D01*
X140057143Y-104909857D01*
X159202381Y-103751143D02*
X158726190Y-103417809D01*
X159202381Y-103179714D02*
X158202381Y-103179714D01*
X158202381Y-103560667D01*
X158250000Y-103655905D01*
X158297619Y-103703524D01*
X158392857Y-103751143D01*
X158535714Y-103751143D01*
X158630952Y-103703524D01*
X158678571Y-103655905D01*
X158726190Y-103560667D01*
X158726190Y-103179714D01*
X158202381Y-104084476D02*
X158202381Y-104703524D01*
X158583333Y-104370190D01*
X158583333Y-104513048D01*
X158630952Y-104608286D01*
X158678571Y-104655905D01*
X158773810Y-104703524D01*
X159011905Y-104703524D01*
X159107143Y-104655905D01*
X159154762Y-104608286D01*
X159202381Y-104513048D01*
X159202381Y-104227333D01*
X159154762Y-104132095D01*
X159107143Y-104084476D01*
X158535714Y-105560667D02*
X159202381Y-105560667D01*
X158154762Y-105322571D02*
X158869048Y-105084476D01*
X158869048Y-105703524D01*
X136489857Y-113609381D02*
X136823191Y-113133190D01*
X137061286Y-113609381D02*
X137061286Y-112609381D01*
X136680333Y-112609381D01*
X136585095Y-112657000D01*
X136537476Y-112704619D01*
X136489857Y-112799857D01*
X136489857Y-112942714D01*
X136537476Y-113037952D01*
X136585095Y-113085571D01*
X136680333Y-113133190D01*
X137061286Y-113133190D01*
X136156524Y-112609381D02*
X135537476Y-112609381D01*
X135870810Y-112990333D01*
X135727952Y-112990333D01*
X135632714Y-113037952D01*
X135585095Y-113085571D01*
X135537476Y-113180810D01*
X135537476Y-113418905D01*
X135585095Y-113514143D01*
X135632714Y-113561762D01*
X135727952Y-113609381D01*
X136013667Y-113609381D01*
X136108905Y-113561762D01*
X136156524Y-113514143D01*
X134632714Y-112609381D02*
X135108905Y-112609381D01*
X135156524Y-113085571D01*
X135108905Y-113037952D01*
X135013667Y-112990333D01*
X134775571Y-112990333D01*
X134680333Y-113037952D01*
X134632714Y-113085571D01*
X134585095Y-113180810D01*
X134585095Y-113418905D01*
X134632714Y-113514143D01*
X134680333Y-113561762D01*
X134775571Y-113609381D01*
X135013667Y-113609381D01*
X135108905Y-113561762D01*
X135156524Y-113514143D01*
X136448857Y-118689381D02*
X136782191Y-118213190D01*
X137020286Y-118689381D02*
X137020286Y-117689381D01*
X136639333Y-117689381D01*
X136544095Y-117737000D01*
X136496476Y-117784619D01*
X136448857Y-117879857D01*
X136448857Y-118022714D01*
X136496476Y-118117952D01*
X136544095Y-118165571D01*
X136639333Y-118213190D01*
X137020286Y-118213190D01*
X136115524Y-117689381D02*
X135496476Y-117689381D01*
X135829810Y-118070333D01*
X135686952Y-118070333D01*
X135591714Y-118117952D01*
X135544095Y-118165571D01*
X135496476Y-118260810D01*
X135496476Y-118498905D01*
X135544095Y-118594143D01*
X135591714Y-118641762D01*
X135686952Y-118689381D01*
X135972667Y-118689381D01*
X136067905Y-118641762D01*
X136115524Y-118594143D01*
X134639333Y-117689381D02*
X134829810Y-117689381D01*
X134925048Y-117737000D01*
X134972667Y-117784619D01*
X135067905Y-117927476D01*
X135115524Y-118117952D01*
X135115524Y-118498905D01*
X135067905Y-118594143D01*
X135020286Y-118641762D01*
X134925048Y-118689381D01*
X134734571Y-118689381D01*
X134639333Y-118641762D01*
X134591714Y-118594143D01*
X134544095Y-118498905D01*
X134544095Y-118260810D01*
X134591714Y-118165571D01*
X134639333Y-118117952D01*
X134734571Y-118070333D01*
X134925048Y-118070333D01*
X135020286Y-118117952D01*
X135067905Y-118165571D01*
X135115524Y-118260810D01*
X150121857Y-101798381D02*
X150455191Y-101322190D01*
X150693286Y-101798381D02*
X150693286Y-100798381D01*
X150312333Y-100798381D01*
X150217095Y-100846000D01*
X150169476Y-100893619D01*
X150121857Y-100988857D01*
X150121857Y-101131714D01*
X150169476Y-101226952D01*
X150217095Y-101274571D01*
X150312333Y-101322190D01*
X150693286Y-101322190D01*
X149788524Y-100798381D02*
X149169476Y-100798381D01*
X149502810Y-101179333D01*
X149359952Y-101179333D01*
X149264714Y-101226952D01*
X149217095Y-101274571D01*
X149169476Y-101369810D01*
X149169476Y-101607905D01*
X149217095Y-101703143D01*
X149264714Y-101750762D01*
X149359952Y-101798381D01*
X149645667Y-101798381D01*
X149740905Y-101750762D01*
X149788524Y-101703143D01*
X148836143Y-100798381D02*
X148169476Y-100798381D01*
X148598048Y-101798381D01*
X172918381Y-101422143D02*
X172442190Y-101088809D01*
X172918381Y-100850714D02*
X171918381Y-100850714D01*
X171918381Y-101231667D01*
X171966000Y-101326905D01*
X172013619Y-101374524D01*
X172108857Y-101422143D01*
X172251714Y-101422143D01*
X172346952Y-101374524D01*
X172394571Y-101326905D01*
X172442190Y-101231667D01*
X172442190Y-100850714D01*
X171918381Y-101755476D02*
X171918381Y-102374524D01*
X172299333Y-102041190D01*
X172299333Y-102184048D01*
X172346952Y-102279286D01*
X172394571Y-102326905D01*
X172489810Y-102374524D01*
X172727905Y-102374524D01*
X172823143Y-102326905D01*
X172870762Y-102279286D01*
X172918381Y-102184048D01*
X172918381Y-101898333D01*
X172870762Y-101803095D01*
X172823143Y-101755476D01*
X172346952Y-102945952D02*
X172299333Y-102850714D01*
X172251714Y-102803095D01*
X172156476Y-102755476D01*
X172108857Y-102755476D01*
X172013619Y-102803095D01*
X171966000Y-102850714D01*
X171918381Y-102945952D01*
X171918381Y-103136429D01*
X171966000Y-103231667D01*
X172013619Y-103279286D01*
X172108857Y-103326905D01*
X172156476Y-103326905D01*
X172251714Y-103279286D01*
X172299333Y-103231667D01*
X172346952Y-103136429D01*
X172346952Y-102945952D01*
X172394571Y-102850714D01*
X172442190Y-102803095D01*
X172537429Y-102755476D01*
X172727905Y-102755476D01*
X172823143Y-102803095D01*
X172870762Y-102850714D01*
X172918381Y-102945952D01*
X172918381Y-103136429D01*
X172870762Y-103231667D01*
X172823143Y-103279286D01*
X172727905Y-103326905D01*
X172537429Y-103326905D01*
X172442190Y-103279286D01*
X172394571Y-103231667D01*
X172346952Y-103136429D01*
X151010857Y-94686381D02*
X151344191Y-94210190D01*
X151582286Y-94686381D02*
X151582286Y-93686381D01*
X151201333Y-93686381D01*
X151106095Y-93734000D01*
X151058476Y-93781619D01*
X151010857Y-93876857D01*
X151010857Y-94019714D01*
X151058476Y-94114952D01*
X151106095Y-94162571D01*
X151201333Y-94210190D01*
X151582286Y-94210190D01*
X150677524Y-93686381D02*
X150058476Y-93686381D01*
X150391810Y-94067333D01*
X150248952Y-94067333D01*
X150153714Y-94114952D01*
X150106095Y-94162571D01*
X150058476Y-94257810D01*
X150058476Y-94495905D01*
X150106095Y-94591143D01*
X150153714Y-94638762D01*
X150248952Y-94686381D01*
X150534667Y-94686381D01*
X150629905Y-94638762D01*
X150677524Y-94591143D01*
X149582286Y-94686381D02*
X149391810Y-94686381D01*
X149296571Y-94638762D01*
X149248952Y-94591143D01*
X149153714Y-94448286D01*
X149106095Y-94257810D01*
X149106095Y-93876857D01*
X149153714Y-93781619D01*
X149201333Y-93734000D01*
X149296571Y-93686381D01*
X149487048Y-93686381D01*
X149582286Y-93734000D01*
X149629905Y-93781619D01*
X149677524Y-93876857D01*
X149677524Y-94114952D01*
X149629905Y-94210190D01*
X149582286Y-94257810D01*
X149487048Y-94305429D01*
X149296571Y-94305429D01*
X149201333Y-94257810D01*
X149153714Y-94210190D01*
X149106095Y-94114952D01*
X169933857Y-94686381D02*
X170267191Y-94210190D01*
X170505286Y-94686381D02*
X170505286Y-93686381D01*
X170124333Y-93686381D01*
X170029095Y-93734000D01*
X169981476Y-93781619D01*
X169933857Y-93876857D01*
X169933857Y-94019714D01*
X169981476Y-94114952D01*
X170029095Y-94162571D01*
X170124333Y-94210190D01*
X170505286Y-94210190D01*
X169076714Y-94019714D02*
X169076714Y-94686381D01*
X169314810Y-93638762D02*
X169552905Y-94353048D01*
X168933857Y-94353048D01*
X168362429Y-93686381D02*
X168267190Y-93686381D01*
X168171952Y-93734000D01*
X168124333Y-93781619D01*
X168076714Y-93876857D01*
X168029095Y-94067333D01*
X168029095Y-94305429D01*
X168076714Y-94495905D01*
X168124333Y-94591143D01*
X168171952Y-94638762D01*
X168267190Y-94686381D01*
X168362429Y-94686381D01*
X168457667Y-94638762D01*
X168505286Y-94591143D01*
X168552905Y-94495905D01*
X168600524Y-94305429D01*
X168600524Y-94067333D01*
X168552905Y-93876857D01*
X168505286Y-93781619D01*
X168457667Y-93734000D01*
X168362429Y-93686381D01*
X151010857Y-91892381D02*
X151344191Y-91416190D01*
X151582286Y-91892381D02*
X151582286Y-90892381D01*
X151201333Y-90892381D01*
X151106095Y-90940000D01*
X151058476Y-90987619D01*
X151010857Y-91082857D01*
X151010857Y-91225714D01*
X151058476Y-91320952D01*
X151106095Y-91368571D01*
X151201333Y-91416190D01*
X151582286Y-91416190D01*
X150153714Y-91225714D02*
X150153714Y-91892381D01*
X150391810Y-90844762D02*
X150629905Y-91559048D01*
X150010857Y-91559048D01*
X149106095Y-91892381D02*
X149677524Y-91892381D01*
X149391810Y-91892381D02*
X149391810Y-90892381D01*
X149487048Y-91035238D01*
X149582286Y-91130476D01*
X149677524Y-91178095D01*
X169976857Y-91892381D02*
X170310191Y-91416190D01*
X170548286Y-91892381D02*
X170548286Y-90892381D01*
X170167333Y-90892381D01*
X170072095Y-90940000D01*
X170024476Y-90987619D01*
X169976857Y-91082857D01*
X169976857Y-91225714D01*
X170024476Y-91320952D01*
X170072095Y-91368571D01*
X170167333Y-91416190D01*
X170548286Y-91416190D01*
X169119714Y-91225714D02*
X169119714Y-91892381D01*
X169357810Y-90844762D02*
X169595905Y-91559048D01*
X168976857Y-91559048D01*
X168643524Y-90987619D02*
X168595905Y-90940000D01*
X168500667Y-90892381D01*
X168262571Y-90892381D01*
X168167333Y-90940000D01*
X168119714Y-90987619D01*
X168072095Y-91082857D01*
X168072095Y-91178095D01*
X168119714Y-91320952D01*
X168691143Y-91892381D01*
X168072095Y-91892381D01*
X149042381Y-107815143D02*
X148566190Y-107481809D01*
X149042381Y-107243714D02*
X148042381Y-107243714D01*
X148042381Y-107624667D01*
X148090000Y-107719905D01*
X148137619Y-107767524D01*
X148232857Y-107815143D01*
X148375714Y-107815143D01*
X148470952Y-107767524D01*
X148518571Y-107719905D01*
X148566190Y-107624667D01*
X148566190Y-107243714D01*
X148375714Y-108672286D02*
X149042381Y-108672286D01*
X147994762Y-108434190D02*
X148709048Y-108196095D01*
X148709048Y-108815143D01*
X148042381Y-109100857D02*
X148042381Y-109719905D01*
X148423333Y-109386571D01*
X148423333Y-109529429D01*
X148470952Y-109624667D01*
X148518571Y-109672286D01*
X148613810Y-109719905D01*
X148851905Y-109719905D01*
X148947143Y-109672286D01*
X148994762Y-109624667D01*
X149042381Y-109529429D01*
X149042381Y-109243714D01*
X148994762Y-109148476D01*
X148947143Y-109100857D01*
X168092381Y-107815143D02*
X167616190Y-107481809D01*
X168092381Y-107243714D02*
X167092381Y-107243714D01*
X167092381Y-107624667D01*
X167140000Y-107719905D01*
X167187619Y-107767524D01*
X167282857Y-107815143D01*
X167425714Y-107815143D01*
X167520952Y-107767524D01*
X167568571Y-107719905D01*
X167616190Y-107624667D01*
X167616190Y-107243714D01*
X167425714Y-108672286D02*
X168092381Y-108672286D01*
X167044762Y-108434190D02*
X167759048Y-108196095D01*
X167759048Y-108815143D01*
X167425714Y-109624667D02*
X168092381Y-109624667D01*
X167044762Y-109386571D02*
X167759048Y-109148476D01*
X167759048Y-109767524D01*
X146862857Y-91892381D02*
X147196191Y-91416190D01*
X147434286Y-91892381D02*
X147434286Y-90892381D01*
X147053333Y-90892381D01*
X146958095Y-90940000D01*
X146910476Y-90987619D01*
X146862857Y-91082857D01*
X146862857Y-91225714D01*
X146910476Y-91320952D01*
X146958095Y-91368571D01*
X147053333Y-91416190D01*
X147434286Y-91416190D01*
X146005714Y-91225714D02*
X146005714Y-91892381D01*
X146243810Y-90844762D02*
X146481905Y-91559048D01*
X145862857Y-91559048D01*
X145005714Y-90892381D02*
X145481905Y-90892381D01*
X145529524Y-91368571D01*
X145481905Y-91320952D01*
X145386667Y-91273333D01*
X145148571Y-91273333D01*
X145053333Y-91320952D01*
X145005714Y-91368571D01*
X144958095Y-91463810D01*
X144958095Y-91701905D01*
X145005714Y-91797143D01*
X145053333Y-91844762D01*
X145148571Y-91892381D01*
X145386667Y-91892381D01*
X145481905Y-91844762D01*
X145529524Y-91797143D01*
X165869857Y-91892381D02*
X166203191Y-91416190D01*
X166441286Y-91892381D02*
X166441286Y-90892381D01*
X166060333Y-90892381D01*
X165965095Y-90940000D01*
X165917476Y-90987619D01*
X165869857Y-91082857D01*
X165869857Y-91225714D01*
X165917476Y-91320952D01*
X165965095Y-91368571D01*
X166060333Y-91416190D01*
X166441286Y-91416190D01*
X165012714Y-91225714D02*
X165012714Y-91892381D01*
X165250810Y-90844762D02*
X165488905Y-91559048D01*
X164869857Y-91559048D01*
X164060333Y-90892381D02*
X164250810Y-90892381D01*
X164346048Y-90940000D01*
X164393667Y-90987619D01*
X164488905Y-91130476D01*
X164536524Y-91320952D01*
X164536524Y-91701905D01*
X164488905Y-91797143D01*
X164441286Y-91844762D01*
X164346048Y-91892381D01*
X164155571Y-91892381D01*
X164060333Y-91844762D01*
X164012714Y-91797143D01*
X163965095Y-91701905D01*
X163965095Y-91463810D01*
X164012714Y-91368571D01*
X164060333Y-91320952D01*
X164155571Y-91273333D01*
X164346048Y-91273333D01*
X164441286Y-91320952D01*
X164488905Y-91368571D01*
X164536524Y-91463810D01*
X146862857Y-94686381D02*
X147196191Y-94210190D01*
X147434286Y-94686381D02*
X147434286Y-93686381D01*
X147053333Y-93686381D01*
X146958095Y-93734000D01*
X146910476Y-93781619D01*
X146862857Y-93876857D01*
X146862857Y-94019714D01*
X146910476Y-94114952D01*
X146958095Y-94162571D01*
X147053333Y-94210190D01*
X147434286Y-94210190D01*
X146005714Y-94019714D02*
X146005714Y-94686381D01*
X146243810Y-93638762D02*
X146481905Y-94353048D01*
X145862857Y-94353048D01*
X145577143Y-93686381D02*
X144910476Y-93686381D01*
X145339048Y-94686381D01*
X165742857Y-94686381D02*
X166076191Y-94210190D01*
X166314286Y-94686381D02*
X166314286Y-93686381D01*
X165933333Y-93686381D01*
X165838095Y-93734000D01*
X165790476Y-93781619D01*
X165742857Y-93876857D01*
X165742857Y-94019714D01*
X165790476Y-94114952D01*
X165838095Y-94162571D01*
X165933333Y-94210190D01*
X166314286Y-94210190D01*
X164885714Y-94019714D02*
X164885714Y-94686381D01*
X165123810Y-93638762D02*
X165361905Y-94353048D01*
X164742857Y-94353048D01*
X164219048Y-94114952D02*
X164314286Y-94067333D01*
X164361905Y-94019714D01*
X164409524Y-93924476D01*
X164409524Y-93876857D01*
X164361905Y-93781619D01*
X164314286Y-93734000D01*
X164219048Y-93686381D01*
X164028571Y-93686381D01*
X163933333Y-93734000D01*
X163885714Y-93781619D01*
X163838095Y-93876857D01*
X163838095Y-93924476D01*
X163885714Y-94019714D01*
X163933333Y-94067333D01*
X164028571Y-94114952D01*
X164219048Y-94114952D01*
X164314286Y-94162571D01*
X164361905Y-94210190D01*
X164409524Y-94305429D01*
X164409524Y-94495905D01*
X164361905Y-94591143D01*
X164314286Y-94638762D01*
X164219048Y-94686381D01*
X164028571Y-94686381D01*
X163933333Y-94638762D01*
X163885714Y-94591143D01*
X163838095Y-94495905D01*
X163838095Y-94305429D01*
X163885714Y-94210190D01*
X163933333Y-94162571D01*
X164028571Y-94114952D01*
X149042381Y-103751143D02*
X148566190Y-103417809D01*
X149042381Y-103179714D02*
X148042381Y-103179714D01*
X148042381Y-103560667D01*
X148090000Y-103655905D01*
X148137619Y-103703524D01*
X148232857Y-103751143D01*
X148375714Y-103751143D01*
X148470952Y-103703524D01*
X148518571Y-103655905D01*
X148566190Y-103560667D01*
X148566190Y-103179714D01*
X148375714Y-104608286D02*
X149042381Y-104608286D01*
X147994762Y-104370190D02*
X148709048Y-104132095D01*
X148709048Y-104751143D01*
X149042381Y-105179714D02*
X149042381Y-105370190D01*
X148994762Y-105465429D01*
X148947143Y-105513048D01*
X148804286Y-105608286D01*
X148613810Y-105655905D01*
X148232857Y-105655905D01*
X148137619Y-105608286D01*
X148090000Y-105560667D01*
X148042381Y-105465429D01*
X148042381Y-105274952D01*
X148090000Y-105179714D01*
X148137619Y-105132095D01*
X148232857Y-105084476D01*
X148470952Y-105084476D01*
X148566190Y-105132095D01*
X148613810Y-105179714D01*
X148661429Y-105274952D01*
X148661429Y-105465429D01*
X148613810Y-105560667D01*
X148566190Y-105608286D01*
X148470952Y-105655905D01*
X167965381Y-103878143D02*
X167489190Y-103544809D01*
X167965381Y-103306714D02*
X166965381Y-103306714D01*
X166965381Y-103687667D01*
X167013000Y-103782905D01*
X167060619Y-103830524D01*
X167155857Y-103878143D01*
X167298714Y-103878143D01*
X167393952Y-103830524D01*
X167441571Y-103782905D01*
X167489190Y-103687667D01*
X167489190Y-103306714D01*
X166965381Y-104782905D02*
X166965381Y-104306714D01*
X167441571Y-104259095D01*
X167393952Y-104306714D01*
X167346333Y-104401952D01*
X167346333Y-104640048D01*
X167393952Y-104735286D01*
X167441571Y-104782905D01*
X167536810Y-104830524D01*
X167774905Y-104830524D01*
X167870143Y-104782905D01*
X167917762Y-104735286D01*
X167965381Y-104640048D01*
X167965381Y-104401952D01*
X167917762Y-104306714D01*
X167870143Y-104259095D01*
X166965381Y-105449571D02*
X166965381Y-105544810D01*
X167013000Y-105640048D01*
X167060619Y-105687667D01*
X167155857Y-105735286D01*
X167346333Y-105782905D01*
X167584429Y-105782905D01*
X167774905Y-105735286D01*
X167870143Y-105687667D01*
X167917762Y-105640048D01*
X167965381Y-105544810D01*
X167965381Y-105449571D01*
X167917762Y-105354333D01*
X167870143Y-105306714D01*
X167774905Y-105259095D01*
X167584429Y-105211476D01*
X167346333Y-105211476D01*
X167155857Y-105259095D01*
X167060619Y-105306714D01*
X167013000Y-105354333D01*
X166965381Y-105449571D01*
X141866857Y-113514143D02*
X141914476Y-113561762D01*
X142057333Y-113609381D01*
X142152571Y-113609381D01*
X142295429Y-113561762D01*
X142390667Y-113466524D01*
X142438286Y-113371286D01*
X142485905Y-113180810D01*
X142485905Y-113037952D01*
X142438286Y-112847476D01*
X142390667Y-112752238D01*
X142295429Y-112657000D01*
X142152571Y-112609381D01*
X142057333Y-112609381D01*
X141914476Y-112657000D01*
X141866857Y-112704619D01*
X141009714Y-112942714D02*
X141009714Y-113609381D01*
X141247810Y-112561762D02*
X141485905Y-113276048D01*
X140866857Y-113276048D01*
X140343048Y-113037952D02*
X140438286Y-112990333D01*
X140485905Y-112942714D01*
X140533524Y-112847476D01*
X140533524Y-112799857D01*
X140485905Y-112704619D01*
X140438286Y-112657000D01*
X140343048Y-112609381D01*
X140152571Y-112609381D01*
X140057333Y-112657000D01*
X140009714Y-112704619D01*
X139962095Y-112799857D01*
X139962095Y-112847476D01*
X140009714Y-112942714D01*
X140057333Y-112990333D01*
X140152571Y-113037952D01*
X140343048Y-113037952D01*
X140438286Y-113085571D01*
X140485905Y-113133190D01*
X140533524Y-113228429D01*
X140533524Y-113418905D01*
X140485905Y-113514143D01*
X140438286Y-113561762D01*
X140343048Y-113609381D01*
X140152571Y-113609381D01*
X140057333Y-113561762D01*
X140009714Y-113514143D01*
X139962095Y-113418905D01*
X139962095Y-113228429D01*
X140009714Y-113133190D01*
X140057333Y-113085571D01*
X140152571Y-113037952D01*
%LPC*%
D12*
X159512000Y-140716000D03*
X162052000Y-138176000D03*
X162052000Y-143256000D03*
X156972000Y-138176000D03*
X156972000Y-143256000D03*
D13*
X175387000Y-78867000D03*
D12*
X136144000Y-140716000D03*
X138684000Y-138176000D03*
X138684000Y-143256000D03*
X133604000Y-138176000D03*
X133604000Y-143256000D03*
X147828000Y-140716000D03*
X150368000Y-138176000D03*
X150368000Y-143256000D03*
X145288000Y-138176000D03*
X145288000Y-143256000D03*
X171196000Y-140716000D03*
X173736000Y-138176000D03*
X173736000Y-143256000D03*
X168656000Y-138176000D03*
X168656000Y-143256000D03*
D14*
X177800000Y-94996000D03*
D15*
X177800000Y-97536000D03*
X177800000Y-100076000D03*
X177800000Y-102616000D03*
X177800000Y-105156000D03*
X177800000Y-107696000D03*
X177800000Y-110236000D03*
X177800000Y-112776000D03*
X177800000Y-115316000D03*
X177800000Y-117856000D03*
D14*
X129540000Y-104140000D03*
D15*
X129540000Y-106680000D03*
X129540000Y-109220000D03*
X129540000Y-111760000D03*
X129540000Y-114300000D03*
X129540000Y-116840000D03*
X129540000Y-119380000D03*
X129540000Y-121920000D03*
D14*
X177800000Y-121920000D03*
D15*
X177800000Y-124460000D03*
X177800000Y-127000000D03*
X177800000Y-129540000D03*
X177800000Y-132080000D03*
X177800000Y-134620000D03*
X177800000Y-137160000D03*
X177800000Y-139700000D03*
D14*
X129540000Y-127000000D03*
D15*
X129540000Y-129540000D03*
X129540000Y-132080000D03*
X129540000Y-134620000D03*
X129540000Y-137160000D03*
X129540000Y-139700000D03*
D16*
X141412000Y-106045000D03*
X141412000Y-104775000D03*
X141412000Y-103505000D03*
X141412000Y-102235000D03*
X146812000Y-102235000D03*
X146812000Y-103505000D03*
X146812000Y-104775000D03*
X146812000Y-106045000D03*
X160401000Y-106045000D03*
X160401000Y-104775000D03*
X160401000Y-103505000D03*
X160401000Y-102235000D03*
X165801000Y-102235000D03*
X165801000Y-103505000D03*
X165801000Y-104775000D03*
X165801000Y-106045000D03*
D14*
X137223500Y-121793000D03*
X149098000Y-121793000D03*
X160782000Y-121793000D03*
X163576000Y-82423000D03*
X163576000Y-86106000D03*
X172466000Y-121793000D03*
X133858000Y-81788000D03*
X141224000Y-81788000D03*
X148590000Y-81788000D03*
X155956000Y-81788000D03*
X137541000Y-81788000D03*
X144907000Y-81788000D03*
X152273000Y-81788000D03*
X159639000Y-81788000D03*
D17*
X136652000Y-97536000D03*
X138552000Y-97536000D03*
X155575000Y-97536000D03*
X157475000Y-97536000D03*
X147000000Y-107823000D03*
X145100000Y-107823000D03*
X165923000Y-107823000D03*
X164023000Y-107823000D03*
X141351000Y-109474000D03*
X143251000Y-109474000D03*
X160213000Y-109474000D03*
X162113000Y-109474000D03*
X142936000Y-97536000D03*
X141036000Y-97536000D03*
X161859000Y-97536000D03*
X159959000Y-97536000D03*
D18*
X139085000Y-118364000D03*
X141585000Y-118364000D03*
D17*
X151511000Y-97536000D03*
X149611000Y-97536000D03*
X170429000Y-97536000D03*
X168529000Y-97536000D03*
X147000000Y-109474000D03*
X145100000Y-109474000D03*
X165923000Y-109474000D03*
X164023000Y-109474000D03*
X145161000Y-97536000D03*
X147061000Y-97536000D03*
X164216000Y-97536000D03*
X166116000Y-97536000D03*
D19*
X136525000Y-101008000D03*
X136525000Y-103208000D03*
X155448000Y-101051000D03*
X155448000Y-103251000D03*
D20*
X136631500Y-99187000D03*
X138831500Y-99187000D03*
X155491000Y-99187000D03*
X157691000Y-99187000D03*
X136652000Y-95885000D03*
X138852000Y-95885000D03*
X155491000Y-95885000D03*
X157691000Y-95885000D03*
D19*
X138176000Y-109558000D03*
X138176000Y-107358000D03*
X157099000Y-109558000D03*
X157099000Y-107358000D03*
D20*
X140759000Y-95885000D03*
X142959000Y-95885000D03*
X159682000Y-95885000D03*
X161882000Y-95885000D03*
X142959000Y-99187000D03*
X140759000Y-99187000D03*
X161882000Y-99187000D03*
X159682000Y-99187000D03*
D19*
X138176000Y-105494000D03*
X138176000Y-103294000D03*
X157099000Y-105494000D03*
X157099000Y-103294000D03*
D20*
X136947000Y-114808000D03*
X134747000Y-114808000D03*
X134706000Y-116459000D03*
X136906000Y-116459000D03*
D19*
X151638000Y-101051000D03*
X151638000Y-103251000D03*
X170561000Y-100965000D03*
X170561000Y-103165000D03*
D20*
X151468000Y-99187000D03*
X149268000Y-99187000D03*
X170475000Y-99187000D03*
X168275000Y-99187000D03*
X151468000Y-95885000D03*
X149268000Y-95885000D03*
X170434000Y-95885000D03*
X168234000Y-95885000D03*
D19*
X149987000Y-109642000D03*
X149987000Y-107442000D03*
X168910000Y-109558000D03*
X168910000Y-107358000D03*
D20*
X147320000Y-95885000D03*
X145120000Y-95885000D03*
X166327000Y-95885000D03*
X164127000Y-95885000D03*
X145120000Y-99187000D03*
X147320000Y-99187000D03*
X164127000Y-99187000D03*
X166327000Y-99187000D03*
D19*
X149987000Y-105494000D03*
X149987000Y-103294000D03*
X168910000Y-105494000D03*
X168910000Y-103294000D03*
D21*
X139224000Y-115697000D03*
X143224000Y-115697000D03*
D13*
X129921000Y-78994000D03*
M02*
